<svg xmlns="http://www.w3.org/2000/svg" width="1280" height="720" overflow="hidden"><defs><clipPath id="a"><path d="M0 0h1280v720H0z"/></clipPath></defs><g clip-path="url(#a)"><path fill="#FFF" d="M0 0h1280v720H0z"/><path fill="#CCE4EE" fill-rule="evenodd" stroke="#2E75B6" stroke-miterlimit="8" stroke-width="2" d="M374 226.357a4.357 4.357 0 0 1 4.357-4.357h109.286a4.357 4.357 0 0 1 4.357 4.357v32.286a4.357 4.357 0 0 1-4.357 4.357H378.357a4.357 4.357 0 0 1-4.357-4.357Z"/><text font-family="Cambria Math,Cambria Math_MSFontService,sans-serif" font-size="19" font-weight="400" transform="translate(387.26 249)">πΏπ‘’π‘“π‘΅<tspan x="37.453" y="0"> </tspan><tspan x="41.62" y="0">π‘π‘π‘Άπ‘π‘΅</tspan></text><path fill="#CCE4EE" fill-rule="evenodd" stroke="#2E75B6" stroke-miterlimit="8" stroke-width="2" d="M647 226.357a4.357 4.357 0 0 1 4.357-4.357h110.286a4.357 4.357 0 0 1 4.357 4.357v32.286a4.357 4.357 0 0 1-4.357 4.357H651.357a4.357 4.357 0 0 1-4.357-4.357Z"/><text font-family="Cambria Math,Cambria Math_MSFontService,sans-serif" font-size="19" font-weight="400" transform="translate(655.522 249)">π‘…π‘–π‘”β„π‘΅<tspan x="47.287" y="0"> </tspan><tspan x="51.453" y="0">π‘π‘π‘Άπ‘π‘΅</tspan></text><path fill="#CCE4EE" fill-rule="evenodd" stroke="#2E75B6" stroke-miterlimit="8" stroke-width="2" d="M143 316.501a8.501 8.501 0 0 1 8.501-8.501h116.998a8.501 8.501 0 0 1 8.501 8.501v62.998a8.501 8.501 0 0 1-8.501 8.501H151.501a8.501 8.501 0 0 1-8.501-8.501Z"/><text font-family="Cambria Math,Cambria Math_MSFontService,sans-serif" font-size="19" font-weight="400" transform="translate(154.568 332)">π‘<tspan x="9.407" y="4" font-size="14">π‘™</tspan><tspan x="20.667" y="0">=</tspan><tspan x="39.853" y="0">πµ</tspan></text><path fill-rule="evenodd" d="M254.451 318.068c1.806.476 3.193 1.504 4.161 3.084.967 1.581 1.451 3.487 1.451 5.72 0 2.239-.482 4.145-1.447 5.719-.965 1.574-2.353 2.6-4.165 3.076l-.223-.715c1.429-.476 2.491-1.416 3.187-2.82.696-1.404 1.043-3.188 1.043-5.353 0-2.09-.346-3.827-1.039-5.209-.692-1.382-1.765-2.312-3.219-2.788Zm-39.914 0 .25.714c-1.447.476-2.518 1.406-3.214 2.788-.696 1.382-1.044 3.119-1.044 5.209 0 2.165.348 3.949 1.044 5.353.696 1.404 1.758 2.344 3.187 2.82l-.223.715c-1.812-.476-3.201-1.502-4.166-3.076-.964-1.574-1.447-3.48-1.447-5.719 0-2.233.484-4.139 1.452-5.72.968-1.58 2.355-2.608 4.161-3.084Z"/><text font-family="Cambria Math,Cambria Math_MSFontService,sans-serif" font-size="19" font-weight="400" transform="translate(215.001 332)">π‘¥<tspan x="9.82" y="4" font-size="14">π‘–</tspan><tspan x="15.893" y="0">,</tspan><tspan x="22.84" y="0">π‘¦</tspan><tspan x="32.773" y="4" font-size="14">π‘–</tspan><tspan x="-60.433" y="22">π‘“π‘™π‘π‘”</tspan><tspan x="-16.927" y="22">=</tspan><tspan x="2.26" y="22">π‘π‘–π‘”β„π‘΅</tspan><tspan x="-60.433" y="44">π‘</tspan><tspan x="-45.987" y="44">=</tspan><tspan x="-26.8" y="44">π‘</tspan><tspan x="-13.393" y="44">+</tspan><tspan x="4.753" y="44">1</tspan></text><path fill="#CCE4EE" fill-rule="evenodd" stroke="#2E75B6" stroke-miterlimit="8" stroke-width="2" d="M143 435.501a8.501 8.501 0 0 1 8.501-8.501h116.998a8.501 8.501 0 0 1 8.501 8.501v62.998a8.501 8.501 0 0 1-8.501 8.501H151.501a8.501 8.501 0 0 1-8.501-8.501Z"/><text font-family="Cambria Math,Cambria Math_MSFontService,sans-serif" font-size="19" font-weight="400" transform="translate(154.568 451)">π‘<tspan x="9.407" y="4" font-size="14">π‘™</tspan><tspan x="20.667" y="0">=</tspan><tspan x="39.853" y="0">πµ</tspan></text><path fill-rule="evenodd" d="M254.451 437.047c1.806.477 3.193 1.505 4.161 3.085.967 1.58 1.451 3.487 1.451 5.72 0 2.239-.482 4.145-1.447 5.719-.965 1.574-2.353 2.599-4.165 3.076l-.223-.715c1.429-.476 2.491-1.416 3.187-2.82.696-1.404 1.043-3.188 1.043-5.353 0-2.091-.346-3.827-1.039-5.209-.692-1.383-1.765-2.312-3.219-2.788Zm-39.914 0 .25.715c-1.447.476-2.518 1.405-3.214 2.788-.696 1.382-1.044 3.118-1.044 5.209 0 2.165.348 3.949 1.044 5.353.696 1.404 1.758 2.344 3.187 2.82l-.223.715c-1.812-.477-3.201-1.502-4.166-3.076-.964-1.574-1.447-3.48-1.447-5.719 0-2.233.484-4.14 1.452-5.72s2.355-2.608 4.161-3.085Z"/><text font-family="Cambria Math,Cambria Math_MSFontService,sans-serif" font-size="19" font-weight="400" transform="translate(215.001 451)">π‘¥<tspan x="9.82" y="4" font-size="14">π‘–</tspan><tspan x="15.893" y="0">,</tspan><tspan x="22.84" y="0">π‘¦</tspan><tspan x="32.773" y="4" font-size="14">π‘–</tspan><tspan x="-60.433" y="22">π‘“π‘™π‘π‘”</tspan><tspan x="-16.927" y="22">=</tspan><tspan x="2.26" y="22">π‘π‘–π‘”β„π‘΅</tspan><tspan x="-60.433" y="44">π‘</tspan><tspan x="-45.987" y="44">=</tspan><tspan x="-26.8" y="44">π‘</tspan><tspan x="-13.393" y="44">+</tspan><tspan x="4.753" y="44">1</tspan></text><path fill="#16697A" fill-rule="evenodd" stroke="#2F528F" stroke-miterlimit="8" stroke-width="1.333" d="m345.5 348.5 88-34 88 34-88 34Z"/><text fill="#FFF" font-family="Cambria Math,Cambria Math_MSFontService,sans-serif" font-size="19" font-weight="400" transform="translate(400.142 354)">π‘–π‘“<tspan x="16.713" y="0"> </tspan><tspan x="20.88" y="0">π‘</tspan><tspan x="35.327" y="0">=</tspan><tspan x="54.513" y="0">0</tspan></text><path fill="#16697A" fill-rule="evenodd" stroke="#2F528F" stroke-miterlimit="8" stroke-width="1.333" d="m345.5 467.5 88-34 88 34-88 34Z"/><text fill="#FFF" font-family="Cambria Math,Cambria Math_MSFontService,sans-serif" font-size="19" font-weight="400" transform="translate(372.094 472)">π‘–π‘“<tspan x="16.713" y="0"> </tspan><tspan x="20.88" y="0">π‘“π‘™π‘π‘”</tspan><tspan x="64.387" y="0">=</tspan><tspan x="83.573" y="0">π‘™π‘’π‘“π‘΅</tspan><tspan x="116.86" y="0"> </tspan></text><path fill="#16697A" fill-rule="evenodd" stroke="#2F528F" stroke-miterlimit="8" stroke-width="1.333" d="m619.5 467.5 87.5-34 87.5 34-87.5 34Z"/><text fill="#FFF" font-family="Cambria Math,Cambria Math_MSFontService,sans-serif" font-size="19" font-weight="400" transform="translate(640.197 472)">π‘–π‘“<tspan x="16.713" y="0"> </tspan><tspan x="20.88" y="0">π‘“π‘™π‘π‘”</tspan><tspan x="64.387" y="0">=</tspan><tspan x="83.573" y="0">π‘π‘–π‘”β„π‘΅</tspan><tspan x="127.86" y="0"> </tspan></text><path fill="#16697A" fill-rule="evenodd" stroke="#2F528F" stroke-miterlimit="8" stroke-width="1.333" d="m345.5 586.5 87.5-34 87.5 34-87.5 34Z"/><text fill="#FFF" font-family="Cambria Math,Cambria Math_MSFontService,sans-serif" font-size="19" font-weight="400" transform="translate(366.551 591)">π‘–π‘“<tspan x="16.713" y="0"> </tspan><tspan x="20.88" y="0">π‘“π‘™π‘π‘”</tspan><tspan x="64.387" y="0">=</tspan><tspan x="83.573" y="0">π‘π‘–π‘”β„π‘΅</tspan><tspan x="127.86" y="0"> </tspan></text><path fill="#16697A" fill-rule="evenodd" stroke="#2F528F" stroke-miterlimit="8" stroke-width="1.333" d="m618.5 586.5 88-34 88 34-88 34Z"/><text fill="#FFF" font-family="Cambria Math,Cambria Math_MSFontService,sans-serif" font-size="19" font-weight="400" transform="translate(645.196 591)">π‘–π‘“<tspan x="16.713" y="0"> </tspan><tspan x="20.88" y="0">π‘“π‘™π‘π‘”</tspan><tspan x="64.387" y="0">=</tspan><tspan x="83.573" y="0">π‘™π‘’π‘“π‘΅</tspan><tspan x="116.86" y="0"> </tspan></text><path fill="#16697A" fill-rule="evenodd" stroke="#2F528F" stroke-miterlimit="8" stroke-width="1.333" d="m618.5 348.5 88-34 88 34-88 34Z"/><text fill="#FFF" font-family="Cambria Math,Cambria Math_MSFontService,sans-serif" font-size="19" font-weight="400" transform="translate(672.777 354)">π‘–π‘“<tspan x="16.713" y="0"> </tspan><tspan x="20.88" y="0">π‘</tspan><tspan x="35.327" y="0">=</tspan><tspan x="54.513" y="0">0</tspan></text><path fill="#16697A" fill-rule="evenodd" stroke="#2F528F" stroke-miterlimit="8" stroke-width="1.333" d="m486.5 138 88-34.5 88 34.5-88 34.5Z"/><text fill="#FFF" font-family="Cambria Math,Cambria Math_MSFontService,sans-serif" font-size="19" font-weight="400" transform="translate(517.581 144)">πΏπ‘’π‘“π‘΅<tspan x="37.453" y="0"> </tspan><tspan x="41.62" y="0">π‘π‘</tspan><tspan x="60.867" y="0"> </tspan><tspan x="65.033" y="0">π‘…π‘–π‘”β„π‘΅</tspan></text><path fill="#CCE4EE" fill-rule="evenodd" stroke="#2E75B6" stroke-miterlimit="8" stroke-width="2" d="M861 316.501a8.501 8.501 0 0 1 8.501-8.501h116.998a8.501 8.501 0 0 1 8.501 8.501v62.998a8.501 8.501 0 0 1-8.501 8.501H869.501a8.501 8.501 0 0 1-8.501-8.501Z"/><text font-family="Cambria Math,Cambria Math_MSFontService,sans-serif" font-size="19" font-weight="400" transform="translate(871.64 332)">π‘<tspan x="9.407" y="4" font-size="14">π‘</tspan><tspan x="22.967" y="0">=</tspan><tspan x="42.153" y="0">πµ</tspan></text><path fill-rule="evenodd" d="M973.823 318.068c1.806.476 3.193 1.504 4.161 3.084.968 1.581 1.452 3.487 1.452 5.72 0 2.239-.483 4.145-1.448 5.719-.964 1.574-2.353 2.6-4.165 3.076l-.223-.715c1.429-.476 2.491-1.416 3.187-2.82.696-1.404 1.044-3.188 1.044-5.353 0-2.09-.347-3.827-1.039-5.209-.693-1.382-1.766-2.312-3.22-2.788Zm-39.914 0 .251.714c-1.448.476-2.519 1.406-3.215 2.788-.696 1.382-1.044 3.119-1.044 5.209 0 2.165.348 3.949 1.044 5.353.696 1.404 1.758 2.344 3.187 2.82l-.223.715c-1.812-.476-3.2-1.502-4.165-3.076-.965-1.574-1.448-3.48-1.448-5.719 0-2.233.484-4.139 1.452-5.72.968-1.58 2.355-2.608 4.161-3.084Z"/><text font-family="Cambria Math,Cambria Math_MSFontService,sans-serif" font-size="19" font-weight="400" transform="translate(934.373 332)">π‘¥<tspan x="9.82" y="4" font-size="14">π‘–</tspan><tspan x="15.893" y="0">,</tspan><tspan x="22.84" y="0">π‘¦</tspan><tspan x="32.773" y="4" font-size="14">π‘–</tspan><tspan x="-62.733" y="22">π‘“π‘™π‘π‘”</tspan><tspan x="-19.227" y="22">=</tspan><tspan x="-.04" y="22">π‘™π‘’π‘“π‘΅</tspan><tspan x="-62.733" y="44">π‘</tspan><tspan x="-48.287" y="44">=</tspan><tspan x="-29.1" y="44">π‘</tspan><tspan x="-15.693" y="44">+</tspan><tspan x="2.453" y="44">1</tspan></text><path fill="#CCE4EE" fill-rule="evenodd" stroke="#2E75B6" stroke-miterlimit="8" stroke-width="2" d="M861 435.501a8.501 8.501 0 0 1 8.501-8.501h116.998a8.501 8.501 0 0 1 8.501 8.501v62.998a8.501 8.501 0 0 1-8.501 8.501H869.501a8.501 8.501 0 0 1-8.501-8.501Z"/><text font-family="Cambria Math,Cambria Math_MSFontService,sans-serif" font-size="19" font-weight="400" transform="translate(871.64 451)">π‘<tspan x="9.407" y="4" font-size="14">π‘</tspan><tspan x="22.967" y="0">=</tspan><tspan x="42.153" y="0">πµ</tspan></text><path fill-rule="evenodd" d="M973.823 437.047c1.806.477 3.193 1.505 4.161 3.085.968 1.58 1.452 3.487 1.452 5.72 0 2.239-.483 4.145-1.448 5.719-.964 1.574-2.353 2.599-4.165 3.075l-.223-.714c1.429-.476 2.491-1.416 3.187-2.82.696-1.404 1.044-3.188 1.044-5.353 0-2.091-.347-3.827-1.039-5.209-.693-1.383-1.766-2.312-3.22-2.788Zm-39.914 0 .251.715c-1.448.476-2.519 1.405-3.215 2.788-.696 1.382-1.044 3.118-1.044 5.209 0 2.165.348 3.949 1.044 5.353.696 1.404 1.758 2.344 3.187 2.82l-.223.714c-1.812-.476-3.2-1.501-4.165-3.075-.965-1.574-1.448-3.48-1.448-5.719 0-2.233.484-4.14 1.452-5.72s2.355-2.608 4.161-3.085Z"/><text font-family="Cambria Math,Cambria Math_MSFontService,sans-serif" font-size="19" font-weight="400" transform="translate(934.373 451)">π‘¥<tspan x="9.82" y="4" font-size="14">π‘–</tspan><tspan x="15.893" y="0">,</tspan><tspan x="22.84" y="0">π‘¦</tspan><tspan x="32.773" y="4" font-size="14">π‘–</tspan><tspan x="-62.733" y="22">π‘“π‘™π‘π‘”</tspan><tspan x="-19.227" y="22">=</tspan><tspan x="-.04" y="22">π‘™π‘’π‘“π‘΅</tspan><tspan x="-62.733" y="44">π‘</tspan><tspan x="-48.287" y="44">=</tspan><tspan x="-29.1" y="44">π‘</tspan><tspan x="-15.693" y="44">+</tspan><tspan x="2.453" y="44">1</tspan></text><path fill="#CCE4EE" fill-rule="evenodd" stroke="#2E75B6" stroke-miterlimit="8" stroke-width="2" d="M143 554.501a8.501 8.501 0 0 1 8.501-8.501h116.998a8.501 8.501 0 0 1 8.501 8.501v62.998a8.501 8.501 0 0 1-8.501 8.501H151.501a8.501 8.501 0 0 1-8.501-8.501Z"/><text font-family="Cambria Math,Cambria Math_MSFontService,sans-serif" font-size="19" font-weight="400" transform="translate(160.018 581)">π‘<tspan x="9.407" y="4" font-size="14">π‘™</tspan><tspan x="20.667" y="0">=</tspan><tspan x="39.853" y="0">πµ</tspan></text><path fill-rule="evenodd" d="M259.901 567.282c1.806.477 3.193 1.505 4.161 3.085.968 1.58 1.451 3.487 1.451 5.72 0 2.238-.482 4.145-1.447 5.719-.965 1.574-2.353 2.599-4.165 3.075l-.223-.714c1.429-.476 2.491-1.416 3.187-2.82.696-1.404 1.043-3.189 1.043-5.353 0-2.091-.346-3.827-1.039-5.209-.692-1.383-1.765-2.312-3.219-2.788Zm-39.914 0 .251.715c-1.448.476-2.519 1.405-3.215 2.788-.696 1.382-1.044 3.118-1.044 5.209 0 2.164.348 3.949 1.044 5.353.696 1.404 1.758 2.344 3.187 2.82l-.223.714c-1.812-.476-3.201-1.501-4.165-3.075-.965-1.574-1.448-3.481-1.448-5.719 0-2.233.484-4.14 1.452-5.72s2.355-2.608 4.161-3.085Z"/><text font-family="Cambria Math,Cambria Math_MSFontService,sans-serif" font-size="19" font-weight="400" transform="translate(220.451 581)">π‘¥<tspan x="9.82" y="4" font-size="14">π‘–</tspan><tspan x="15.893" y="0">,</tspan><tspan x="22.84" y="0">π‘¦</tspan><tspan x="32.773" y="4" font-size="14">π‘–</tspan><tspan x="-60.433" y="22">c</tspan><tspan x="-47.08" y="22">=</tspan><tspan x="-27.893" y="22">1</tspan></text><path fill="#CCE4EE" fill-rule="evenodd" stroke="#2E75B6" stroke-miterlimit="8" stroke-width="2" d="M861 554.501a8.501 8.501 0 0 1 8.501-8.501h116.998a8.501 8.501 0 0 1 8.501 8.501v62.998a8.501 8.501 0 0 1-8.501 8.501H869.501a8.501 8.501 0 0 1-8.501-8.501Z"/><text font-family="Cambria Math,Cambria Math_MSFontService,sans-serif" font-size="19" font-weight="400" transform="translate(876.517 581)">π‘<tspan x="9.407" y="4" font-size="14">π‘</tspan><tspan x="22.967" y="0">=</tspan><tspan x="42.153" y="0">πµ</tspan></text><path fill-rule="evenodd" d="M978.7 567.282c1.806.477 3.193 1.505 4.16 3.085.968 1.58 1.452 3.487 1.452 5.72 0 2.238-.482 4.145-1.447 5.719-.965 1.574-2.353 2.599-4.165 3.075l-.223-.714c1.429-.476 2.491-1.416 3.187-2.82.695-1.404 1.043-3.189 1.043-5.353 0-2.091-.346-3.827-1.039-5.209-.692-1.383-1.765-2.312-3.219-2.788Zm-39.914 0 .25.715c-1.447.476-2.518 1.405-3.214 2.788-.696 1.382-1.044 3.118-1.044 5.209 0 2.164.348 3.949 1.044 5.353.696 1.404 1.758 2.344 3.187 2.82l-.223.714c-1.812-.476-3.201-1.501-4.166-3.075-.964-1.574-1.447-3.481-1.447-5.719 0-2.233.484-4.14 1.452-5.72s2.355-2.608 4.161-3.085Z"/><text font-family="Cambria Math,Cambria Math_MSFontService,sans-serif" font-size="19" font-weight="400" transform="translate(939.25 581)">π‘¥<tspan x="9.82" y="4" font-size="14">π‘–</tspan><tspan x="15.893" y="0">,</tspan><tspan x="22.84" y="0">π‘¦</tspan><tspan x="32.773" y="4" font-size="14">π‘–</tspan><tspan x="-62.733" y="22">c</tspan><tspan x="-49.38" y="22">=</tspan><tspan x="-30.193" y="22">1</tspan></text><path fill="#CCE4EE" fill-rule="evenodd" stroke="#2E75B6" stroke-miterlimit="8" stroke-width="2" d="M509 669.25a4.25 4.25 0 0 1 4.25-4.25h109.5a4.25 4.25 0 0 1 4.25 4.25v31.5a4.25 4.25 0 0 1-4.25 4.25h-109.5a4.25 4.25 0 0 1-4.25-4.25Z"/><text font-family="Cambria Math,Cambria Math_MSFontService,sans-serif" font-size="19" font-weight="400" transform="translate(546.634 692)">πΈπ‘π·</text><path fill="#CCE4EE" fill-rule="evenodd" stroke="#2E75B6" stroke-miterlimit="8" stroke-width="2" d="M462 20.25a4.25 4.25 0 0 1 4.25-4.25h215.5a4.25 4.25 0 0 1 4.25 4.25v31.5a4.25 4.25 0 0 1-4.25 4.25h-215.5a4.25 4.25 0 0 1-4.25-4.25Z"/><text font-family="Cambria Math,Cambria Math_MSFontService,sans-serif" font-size="19" font-weight="400" transform="translate(473.147 43)">B<tspan x="11.333" y="0">ounce</tspan><tspan x="59.333" y="0"> </tspan><tspan x="63.5" y="0">calculation</tspan><tspan x="150.333" y="0"> </tspan><tspan x="154.5" y="0">input</tspan></text><path fill="#2F8AAF" d="M435 263.5v43.306h-3V263.5Zm3 41.806-4.5 9-4.5-9ZM705.544 263.484l-.464 43.306 3 .032.464-43.306Zm-3.447 41.774 4.403 9.048 4.596-8.951ZM435 382.5v43.306h-3V382.5Zm3 41.806-4.5 9-4.5-9ZM708 382.484l.464 43.306-3 .032-.464-43.306Zm3.447 41.774-4.403 9.048-4.596-8.951ZM432.468 501.486l-.399 43.306 3 .028.399-43.306Zm-3.385 41.779 4.417 9.04 4.583-8.957ZM705.076 501.498l-.065 43.305 3 .005.065-43.306Zm-3.062 41.801 4.486 9.007 4.514-8.994ZM432 620.5v66.545h70.201v-3H433.5l1.5 1.5V620.5Zm68.701 69.545 9-4.5-9-4.5ZM707.781 620.5v66.545H635v-3h71.281l-1.5 1.5V620.5ZM636.5 690.045l-9-4.5 9-4.5ZM794.501 585l59.954.052-.003 3-59.953-.052Zm58.457-2.949 8.996 4.507-9.004 4.493ZM794.5 469h59.878v-3H794.5Zm58.378 3 9-4.5-9-4.5ZM794.5 350h60.422v-3H794.5Zm58.922 3 9-4.5-9-4.5ZM345.766 350H285v-3h60.766Zm-59.266 3-9-4.5 9-4.5ZM345.766 469H285v-3h60.766Zm-59.266 3-9-4.5 9-4.5ZM345.297 585l-60.298.052.003 3 60.297-.052Zm-58.8-2.95-8.997 4.508 9.004 4.493ZM143.5 346.852h-24l1.5 1.5V36.5l-1.5 1.5h335.3v-3H118v314.852h25.5ZM453.3 41l9-4.5-9-4.5ZM996.224 346.852h23.996l-1.5 1.5V36.5l1.5 1.5H694v-3h327.72v314.852h-25.496ZM695.5 41l-9-4.5 9-4.5ZM576 56.5v39.52h-3V56.5Zm3 38.02-4.5 9.001-4.5-9ZM486.425 136H432v78.893h3V137.5l-1.5 1.5h52.925ZM429 213.393l4.5 9 4.5-9ZM662.5 136h46.236v78.893h-3V137.5l1.5 1.5H662.5Zm49.236 77.393-4.5 9-4.5-9ZM143.587 469.36H118V358h3v109.86l-1.5-1.5h24.087ZM115 359.5l4.5-9 4.5 9Z"/><path fill="#2F8AAF" d="M143.587 587.417H118V476h3v109.917l-1.5-1.5h24.087ZM115 477.5l4.5-9 4.5 9ZM995.5 469.359h25.505V358h-3v109.859l1.5-1.5H995.5Zm28.505-109.859-4.5-9-4.5 9Z"/><path fill="#2F8AAF" d="M995.5 587.418h25.504V476h-3v109.918l1.5-1.5H995.5Zm28.504-109.918-4.5-9-4.5 9Z"/><text font-family="Cambria Math,Cambria Math_MSFontService,sans-serif" font-size="19" font-weight="400" transform="translate(254.896 170)">π‘‡π‘π‘Άπ‘β„π‘–π‘›π‘”<tspan x="79.153" y="0"> </tspan><tspan x="83.32" y="0">π‘™π‘’π‘“π‘΅</tspan><tspan x="116.607" y="0"> </tspan><tspan x="120.773" y="0">π‘π‘π‘Άπ‘π‘΅</tspan><tspan x="478.624" y="0">π‘‡π‘π‘Άπ‘β„π‘–π‘›π‘”</tspan><tspan x="557.777" y="0"> </tspan>π‘π‘–π‘”β„π‘΅<tspan x="606.23" y="0"> </tspan><tspan x="610.397" y="0">π‘π‘π‘Άπ‘π‘΅</tspan><tspan x="46.215" y="169">π‘‡π‘π‘Άπ‘’</tspan><tspan x="190.207" y="239">πΉπ‘π‘™π‘ π‘’</tspan><tspan x="393.903" y="239">πΉπ‘π‘™π‘ π‘’</tspan><tspan x="190.207" y="362">πΉπ‘π‘™π‘ π‘’</tspan><tspan x="393.903" y="362">πΉπ‘π‘™π‘ π‘’</tspan><tspan x="190.207" y="483">πΉπ‘π‘™π‘ π‘’</tspan><tspan x="393.903" y="483">πΉπ‘π‘™π‘ π‘’</tspan><tspan x="46.215" y="287">π‘‡π‘π‘Άπ‘’</tspan><tspan x="46.215" y="405">π‘‡π‘π‘Άπ‘’</tspan><tspan x="549.513" y="169">π‘‡π‘π‘Άπ‘’</tspan><tspan x="549.513" y="287">π‘‡π‘π‘Άπ‘’</tspan><tspan x="549.513" y="405">π‘‡π‘π‘Άπ‘’</tspan></text></g></svg>