<svg width="3096" height="1037" xmlns="http://www.w3.org/2000/svg" xmlns:xlink="http://www.w3.org/1999/xlink" overflow="hidden"><defs><clipPath id="clip0"><rect x="100" y="1352" width="3096" height="1037"/></clipPath></defs><g clip-path="url(#clip0)" transform="translate(-100 -1352)"><path d="M124.5 1964.69C124.5 1950.22 136.224 1938.5 150.686 1938.5L763.314 1938.5C777.776 1938.5 789.5 1950.22 789.5 1964.69L789.5 2124.31C789.5 2138.78 777.776 2150.5 763.314 2150.5L150.686 2150.5C136.224 2150.5 124.5 2138.78 124.5 2124.31Z" stroke="#7030A0" stroke-width="6.875" stroke-miterlimit="8" fill="#E6CCFC" fill-rule="evenodd"/><text font-family="Calibri,Calibri_MSFontService,sans-serif" font-weight="400" font-size="83" transform="matrix(1 0 0 1 150.049 2022)">Person Interaction</text><path d="M399.951 2075.44 387.428 2099.07 400.64 2099.07 400.478 2089.34C400.424 2085.89 400.397 2083.02 400.397 2080.75 400.397 2079.02 400.411 2077.25 400.438 2075.44ZM399.384 2065.35 411.056 2065.35 412.798 2108.68C412.852 2110.22 412.961 2111.6 413.123 2112.83 413.285 2114.06 413.541 2115.06 413.893 2115.85 414.244 2116.63 414.683 2117.21 415.21 2117.57 415.737 2117.94 416.405 2118.17 417.216 2118.28L416.608 2120.95 395.655 2120.95 396.263 2118.28C397.452 2118.2 398.391 2117.9 399.08 2117.37 399.769 2116.84 400.248 2116.13 400.519 2115.22 400.789 2114.32 400.924 2113.05 400.924 2111.43 400.924 2110.27 400.897 2109.05 400.843 2107.78L400.762 2103.81 384.916 2103.81 384.348 2104.82C382.835 2107.55 381.829 2109.62 381.329 2111.03 380.829 2112.43 380.579 2113.73 380.579 2114.92 380.579 2116.86 381.727 2117.98 384.024 2118.28L383.416 2120.95 366.314 2120.95 366.921 2118.28C367.867 2118.06 368.698 2117.7 369.414 2117.19 370.13 2116.67 370.812 2115.98 371.461 2115.1 372.109 2114.22 373.028 2112.71 374.216 2110.58Z" fill-rule="evenodd"/><text fill="#000000" fill-opacity="0" font-family="Arial,Arial_MSFontService,sans-serif" font-size="55.6035" x="366.314" y="2114">ğ‘¨</text><path d="M453.081 2062.39 454.176 2065.51C447.853 2067.59 443.173 2071.65 440.133 2077.69 437.093 2083.73 435.574 2091.32 435.574 2100.45 435.574 2109.9 437.093 2117.7 440.133 2123.83 443.173 2129.97 447.813 2134.07 454.054 2136.15L453.081 2139.27C445.165 2137.19 439.1 2132.71 434.885 2125.84 430.67 2118.96 428.562 2110.63 428.562 2100.85 428.562 2091.1 430.677 2082.77 434.905 2075.87 439.133 2068.97 445.192 2064.47 453.081 2062.39Z" fill-rule="evenodd"/><text fill="#000000" fill-opacity="0" font-family="Arial,Arial_MSFontService,sans-serif" font-size="76.8804" x="428.562" y="2129.66">(</text><path d="M488.713 2070.38C487.2 2070.38 485.889 2070.4 484.782 2070.46L479.797 2093.27 481.904 2093.27C485.606 2093.27 488.456 2092.69 490.455 2091.53 492.455 2090.37 493.981 2088.63 495.035 2086.32 496.089 2084.01 496.616 2081.41 496.616 2078.52 496.616 2075.79 495.974 2073.75 494.691 2072.4 493.407 2071.05 491.415 2070.38 488.713 2070.38ZM469.098 2065.64 489.321 2065.64C492.158 2065.64 494.454 2065.72 496.21 2065.9 497.967 2066.07 499.675 2066.48 501.337 2067.11 502.999 2067.75 504.397 2068.59 505.532 2069.63 506.666 2070.67 507.531 2071.92 508.125 2073.4 508.72 2074.87 509.017 2076.55 509.017 2078.44 509.017 2081.47 508.456 2084.18 507.335 2086.57 506.214 2088.96 504.627 2091.02 502.573 2092.75 500.52 2094.48 497.906 2095.78 494.731 2096.66 491.556 2097.54 488.01 2097.98 484.093 2097.98L482.917 2097.98C481.269 2097.98 479.891 2097.91 478.784 2097.77L476.068 2110.01C475.879 2110.88 475.744 2111.63 475.663 2112.26 475.582 2112.9 475.541 2113.73 475.541 2114.75 475.541 2116 475.859 2116.88 476.494 2117.39 477.129 2117.9 478.122 2118.2 479.473 2118.28L478.905 2120.95 457.953 2120.95 458.52 2118.28C460.06 2117.85 461.195 2117.09 461.924 2116.01 462.654 2114.93 463.343 2112.93 463.991 2110.01L471.367 2076.58C471.718 2074.98 471.894 2073.4 471.894 2071.84 471.894 2070.7 471.631 2069.87 471.104 2069.34 470.577 2068.82 469.719 2068.47 468.53 2068.31Z" fill-rule="evenodd"/><text fill="#000000" fill-opacity="0" font-family="Arial,Arial_MSFontService,sans-serif" font-size="55.3198" x="457.953" y="2114.04">ğ‘·</text><path d="M514.996 2062.39C522.885 2064.47 528.944 2068.97 533.172 2075.87 537.4 2082.77 539.515 2091.1 539.515 2100.85 539.515 2110.63 537.407 2118.96 533.192 2125.84 528.977 2132.71 522.912 2137.19 514.996 2139.27L514.023 2136.15C520.264 2134.07 524.904 2129.97 527.944 2123.83 530.984 2117.7 532.503 2109.9 532.503 2100.45 532.503 2091.32 530.99 2083.73 527.964 2077.69 524.938 2071.65 520.251 2067.59 513.901 2065.51Z" fill-rule="evenodd"/><text fill="#000000" fill-opacity="0" font-family="Arial,Arial_MSFontService,sans-serif" font-size="76.8804" x="513.901" y="2129.66">)</text><path d="M2511.5 1967.69C2511.5 1953.22 2523.22 1941.5 2537.69 1941.5L3150.31 1941.5C3164.78 1941.5 3176.5 1953.22 3176.5 1967.69L3176.5 2127.31C3176.5 2141.78 3164.78 2153.5 3150.31 2153.5L2537.69 2153.5C2523.22 2153.5 2511.5 2141.78 2511.5 2127.31Z" stroke="#2F5597" stroke-width="6.875" stroke-miterlimit="8" fill="#75AAF7" fill-rule="evenodd"/><text font-family="Calibri,Calibri_MSFontService,sans-serif" font-weight="400" font-size="83" transform="matrix(1 0 0 1 2540.09 2025)">Object<tspan font-size="83" x="240.052" y="0">Interaction</tspan></text><path d="M2784.66 2078.55 2772.13 2102.17 2785.34 2102.17 2785.18 2092.45C2785.13 2088.99 2785.1 2086.12 2785.1 2083.86 2785.1 2082.13 2785.11 2080.36 2785.14 2078.55ZM2784.09 2068.46 2795.76 2068.46 2797.5 2111.78C2797.56 2113.32 2797.67 2114.7 2797.83 2115.93 2797.99 2117.16 2798.25 2118.17 2798.6 2118.95 2798.95 2119.74 2799.39 2120.31 2799.91 2120.67 2800.44 2121.04 2801.11 2121.28 2801.92 2121.38L2801.31 2124.06 2780.36 2124.06 2780.97 2121.38C2782.16 2121.3 2783.1 2121 2783.78 2120.47 2784.47 2119.95 2784.95 2119.23 2785.22 2118.32 2785.49 2117.42 2785.63 2116.16 2785.63 2114.53 2785.63 2113.37 2785.6 2112.16 2785.55 2110.89L2785.47 2106.92 2769.62 2106.92 2769.05 2107.93C2767.54 2110.66 2766.53 2112.72 2766.03 2114.13 2765.53 2115.53 2765.28 2116.83 2765.28 2118.02 2765.28 2119.97 2766.43 2121.09 2768.73 2121.38L2768.12 2124.06 2751.02 2124.06 2751.63 2121.38C2752.57 2121.17 2753.4 2120.8 2754.12 2120.29 2754.83 2119.78 2755.52 2119.08 2756.17 2118.2 2756.81 2117.32 2757.73 2115.82 2758.92 2113.68Z" fill-rule="evenodd"/><text fill="#000000" fill-opacity="0" font-family="Arial,Arial_MSFontService,sans-serif" font-size="55.6035" x="2751.02" y="2117.11">ğ‘¨</text><path d="M2837.79 2065.5 2838.88 2068.62C2832.56 2070.7 2827.88 2074.76 2824.84 2080.8 2821.8 2086.83 2820.28 2094.42 2820.28 2103.55 2820.28 2113.01 2821.8 2120.8 2824.84 2126.94 2827.88 2133.07 2832.52 2137.18 2838.76 2139.26L2837.79 2142.38C2829.87 2140.3 2823.8 2135.82 2819.59 2128.94 2815.37 2122.07 2813.27 2113.74 2813.27 2103.96 2813.27 2094.2 2815.38 2085.88 2819.61 2078.97 2823.84 2072.07 2829.9 2067.58 2837.79 2065.5Z" fill-rule="evenodd"/><text fill="#000000" fill-opacity="0" font-family="Arial,Arial_MSFontService,sans-serif" font-size="76.8804" x="2813.27" y="2132.77">(</text><path d="M2876.5 2072.83C2874.2 2072.83 2871.95 2073.85 2869.75 2075.87 2867.55 2077.9 2865.53 2080.82 2863.71 2084.63 2861.89 2088.44 2860.48 2092.74 2859.5 2097.53 2858.51 2102.33 2858.02 2106.28 2858.02 2109.39 2858.02 2113.12 2858.56 2115.81 2859.64 2117.47 2860.72 2119.13 2862.47 2119.97 2864.91 2119.97 2866.47 2119.97 2868.01 2119.51 2869.53 2118.59 2871.42 2117.45 2873.19 2115.67 2874.84 2113.24 2876.75 2110.43 2878.4 2107.04 2879.78 2103.07 2881 2099.58 2882.01 2095.35 2882.82 2090.38 2883.25 2087.79 2883.47 2085.42 2883.47 2083.29 2883.47 2079.67 2882.93 2077.02 2881.85 2075.34 2880.77 2073.67 2878.98 2072.83 2876.5 2072.83ZM2876.9 2068.09C2883.06 2068.09 2887.73 2069.7 2890.9 2072.91 2894.08 2076.13 2895.67 2080.8 2895.67 2086.94 2895.67 2089.53 2895.39 2092.41 2894.84 2095.59 2894.28 2098.76 2893.38 2101.95 2892.12 2105.15 2890.86 2108.35 2889.32 2111.2 2887.48 2113.68 2885.64 2116.17 2883.52 2118.24 2881.12 2119.9 2878.71 2121.57 2876.13 2122.78 2873.36 2123.55 2870.59 2124.32 2867.62 2124.71 2864.46 2124.71 2858.3 2124.71 2853.65 2123.09 2850.52 2119.86 2847.39 2116.64 2845.82 2111.89 2845.82 2105.62 2845.82 2103.48 2846.03 2101.04 2846.47 2098.28 2846.9 2095.53 2847.63 2092.62 2848.66 2089.55 2849.68 2086.48 2851.1 2083.59 2852.91 2080.86 2854.72 2078.13 2856.85 2075.8 2859.29 2073.87 2861.74 2071.93 2864.46 2070.49 2867.46 2069.53 2870.46 2068.57 2873.61 2068.09 2876.9 2068.09Z" fill-rule="evenodd"/><text fill="#000000" fill-opacity="0" font-family="Arial,Arial_MSFontService,sans-serif" font-size="56.6167" x="2845.82" y="2117.63">ğ‘¶</text><path d="M2903.14 2065.5C2911.03 2067.58 2917.09 2072.07 2921.31 2078.97 2925.54 2085.88 2927.66 2094.2 2927.66 2103.96 2927.66 2113.74 2925.55 2122.07 2921.33 2128.94 2917.12 2135.82 2911.05 2140.3 2903.14 2142.38L2902.16 2139.26C2908.41 2137.18 2913.05 2133.07 2916.09 2126.94 2919.13 2120.8 2920.65 2113.01 2920.65 2103.55 2920.65 2094.42 2919.13 2086.83 2916.11 2080.8 2913.08 2074.76 2908.39 2070.7 2902.04 2068.62Z" fill-rule="evenodd"/><text fill="#000000" fill-opacity="0" font-family="Arial,Arial_MSFontService,sans-serif" font-size="76.8804" x="2902.04" y="2132.77">)</text><path d="M1082.47 2152.01 1098.68 2152.01 1098.23 2154C1097.21 2154.22 1096.47 2154.46 1096.02 2154.73 1095.58 2155 1095.18 2155.41 1094.83 2155.95 1094.48 2156.49 1094.11 2157.33 1093.73 2158.48 1093.36 2159.63 1092.88 2161.5 1092.32 2164.09L1085.39 2195.54C1085.04 2197.13 1084.81 2198.4 1084.7 2199.33 1084.59 2200.26 1084.54 2201.11 1084.54 2201.86 1084.54 2203.08 1084.84 2203.94 1085.45 2204.44 1086.05 2204.94 1087.07 2205.24 1088.51 2205.35L1088.06 2207.33 1071.85 2207.33 1072.3 2205.35C1073.32 2205.19 1074.09 2204.92 1074.61 2204.56 1075.12 2204.19 1075.55 2203.69 1075.9 2203.04 1076.25 2202.39 1076.58 2201.6 1076.88 2200.67 1077.17 2199.74 1077.62 2197.93 1078.21 2195.26L1085.1 2164.05C1085.7 2161.35 1085.99 2159.17 1085.99 2157.53 1085.99 2156.26 1085.68 2155.37 1085.04 2154.87 1084.41 2154.37 1083.4 2154.08 1082.02 2154ZM1026.42 2152.01 1068.73 2152.01 1065.57 2166.28 1061.68 2166.28C1061.68 2163.66 1061.61 2161.69 1061.47 2160.38 1061.34 2159.07 1061.08 2158.07 1060.7 2157.38 1060.32 2156.7 1059.86 2156.22 1059.3 2155.97 1058.75 2155.71 1057.77 2155.58 1056.37 2155.58L1050.37 2155.58 1041.57 2195.54C1041.33 2196.59 1041.16 2197.43 1041.07 2198.05 1040.97 2198.67 1040.89 2199.33 1040.82 2200.02 1040.76 2200.71 1040.72 2201.32 1040.72 2201.86 1040.72 2202.7 1040.86 2203.36 1041.13 2203.83 1041.4 2204.3 1041.8 2204.65 1042.34 2204.86 1042.88 2205.08 1043.82 2205.24 1045.14 2205.35L1044.69 2207.33 1027.63 2207.33 1028.08 2205.35C1029.16 2205.19 1029.96 2204.97 1030.47 2204.7 1030.98 2204.43 1031.44 2204.01 1031.83 2203.44 1032.22 2202.88 1032.61 2201.98 1033 2200.77 1033.39 2199.55 1033.86 2197.72 1034.4 2195.26L1043.07 2155.58 1037.93 2155.58C1036.25 2155.58 1034.91 2155.82 1033.91 2156.31 1032.91 2156.8 1031.91 2157.7 1030.92 2159.03 1029.92 2160.35 1028.7 2162.56 1027.27 2165.67L1023.38 2165.67Z" fill-rule="evenodd"/><text fill="#000000" fill-opacity="0" font-family="Arial,Arial_MSFontService,sans-serif" font-size="55.3198" x="1023.38" y="2200.42">ğ‘‡ğ¼</text><path d="M1010.51 1887.01 996.08 1912.55 1011.93 1912.55 1011.24 1899.5C1011.16 1897.71 1011.09 1895.48 1011.03 1892.81 1010.98 1890.14 1010.95 1888.2 1010.95 1887.01ZM1010.75 1878.46 1016.87 1878.46 1019.79 1923.65C1019.92 1925.79 1020.17 1927.45 1020.52 1928.66 1020.87 1929.86 1021.35 1930.75 1021.96 1931.33 1022.56 1931.91 1023.45 1932.28 1024.61 1932.45L1024.17 1934.43 1007.31 1934.43 1007.75 1932.45C1009.35 1932.31 1010.53 1931.69 1011.32 1930.58 1012.1 1929.47 1012.49 1927.53 1012.49 1924.75 1012.49 1923.69 1012.45 1922.54 1012.37 1921.3L1012.09 1916.07 994.256 1916.07 992.027 1920.04C990.973 1921.91 990.203 1923.51 989.717 1924.85 989.23 1926.18 988.987 1927.37 988.987 1928.39 988.987 1930.66 990.352 1932.01 993.081 1932.45L992.635 1934.43 976.059 1934.43 976.505 1932.45C977.342 1932.34 978.133 1932.01 978.876 1931.45 979.619 1930.9 980.409 1930.06 981.247 1928.94 982.084 1927.82 983.259 1925.96 984.772 1923.37Z" fill-rule="evenodd"/><text fill="#000000" fill-opacity="0" font-family="Arial,Arial_MSFontService,sans-serif" font-size="55.9683" x="976.059" y="1927.44">ğ´</text><path d="M1128.96 1872.32C1136.85 1874.4 1142.91 1878.89 1147.13 1885.79 1151.36 1892.7 1153.48 1901.02 1153.48 1910.78 1153.48 1920.56 1151.37 1928.89 1147.15 1935.76 1142.94 1942.64 1136.87 1947.12 1128.96 1949.2L1127.99 1946.08C1134.23 1944 1138.87 1939.89 1141.91 1933.76 1144.95 1927.62 1146.47 1919.83 1146.47 1910.37 1146.47 1901.24 1144.95 1893.66 1141.93 1887.62 1138.9 1881.58 1134.21 1877.52 1127.86 1875.44ZM1061.34 1872.32 1062.43 1875.44C1056.11 1877.52 1051.43 1881.58 1048.39 1887.62 1045.35 1893.66 1043.83 1901.24 1043.83 1910.37 1043.83 1919.83 1045.35 1927.62 1048.39 1933.76 1051.43 1939.89 1056.07 1944 1062.31 1946.08L1061.34 1949.2C1053.42 1947.12 1047.36 1942.64 1043.14 1935.76 1038.93 1928.89 1036.82 1920.56 1036.82 1910.78 1036.82 1901.02 1038.93 1892.7 1043.16 1885.79 1047.39 1878.89 1053.45 1874.4 1061.34 1872.32Z" fill-rule="evenodd"/><path d="M1076.69 1879.11 1092.9 1879.11 1092.45 1881.1C1091.43 1881.31 1090.69 1881.56 1090.25 1881.83 1089.8 1882.1 1089.4 1882.5 1089.05 1883.04 1088.7 1883.58 1088.33 1884.43 1087.96 1885.58 1087.58 1886.72 1087.1 1888.6 1086.54 1891.19L1083.78 1903.59 1105.54 1903.59 1108.3 1891.15C1108.54 1890.04 1108.75 1888.86 1108.93 1887.6 1109.1 1886.35 1109.19 1885.35 1109.19 1884.62 1109.19 1883.35 1108.87 1882.47 1108.24 1881.97 1107.6 1881.47 1106.6 1881.18 1105.22 1881.1L1105.67 1879.11 1121.88 1879.11 1121.43 1881.1C1120.4 1881.31 1119.67 1881.56 1119.22 1881.83 1118.78 1882.1 1118.38 1882.5 1118.03 1883.04 1117.68 1883.58 1117.31 1884.43 1116.93 1885.58 1116.55 1886.72 1116.08 1888.6 1115.51 1891.19L1108.58 1922.64C1108.23 1924.23 1108 1925.5 1107.9 1926.43 1107.79 1927.36 1107.73 1928.2 1107.73 1928.96 1107.73 1930.18 1108.04 1931.03 1108.65 1931.53 1109.25 1932.03 1110.27 1932.34 1111.7 1932.45L1111.26 1934.43 1095.05 1934.43 1095.49 1932.45C1096.52 1932.28 1097.29 1932.02 1097.8 1931.66 1098.32 1931.29 1098.75 1930.78 1099.1 1930.14 1099.45 1929.49 1099.78 1928.7 1100.07 1927.77 1100.37 1926.83 1100.82 1925.03 1101.41 1922.35L1104.73 1907.32 1082.97 1907.32 1079.61 1922.64C1079.31 1923.99 1079.09 1925.1 1078.96 1925.98 1078.82 1926.86 1078.76 1927.85 1078.76 1928.96 1078.76 1930.12 1079.03 1930.96 1079.57 1931.47 1080.11 1931.99 1081.16 1932.31 1082.73 1932.45L1082.28 1934.43 1066.07 1934.43 1066.52 1932.45C1067.54 1932.28 1068.31 1932.02 1068.83 1931.66 1069.34 1931.29 1069.77 1930.78 1070.12 1930.14 1070.47 1929.49 1070.8 1928.7 1071.1 1927.77 1071.39 1926.83 1071.84 1925.03 1072.43 1922.35L1079.32 1891.15C1079.57 1890.04 1079.78 1888.86 1079.95 1887.6 1080.13 1886.35 1080.22 1885.35 1080.22 1884.62 1080.22 1883.35 1079.9 1882.47 1079.26 1881.97 1078.63 1881.47 1077.62 1881.18 1076.24 1881.1Z" fill-rule="evenodd"/><text fill="#000000" fill-opacity="0" font-family="Arial,Arial_MSFontService,sans-serif" font-size="55.3198" x="1066.07" y="1927.52">ğ»</text><path d="M1010.51 2023.47 996.08 2049 1011.93 2049 1011.24 2035.95C1011.16 2034.17 1011.09 2031.94 1011.03 2029.26 1010.98 2026.59 1010.95 2024.65 1010.95 2023.47ZM1010.75 2014.91 1016.87 2014.91 1019.79 2060.1C1019.92 2062.24 1020.17 2063.91 1020.52 2065.11 1020.87 2066.31 1021.35 2067.2 1021.96 2067.78 1022.56 2068.36 1023.45 2068.73 1024.61 2068.9L1024.17 2070.88 1007.31 2070.88 1007.75 2068.9C1009.35 2068.76 1010.53 2068.14 1011.32 2067.03 1012.1 2065.93 1012.49 2063.98 1012.49 2061.2 1012.49 2060.14 1012.45 2058.99 1012.37 2057.75L1012.09 2052.52 994.256 2052.52 992.027 2056.5C990.973 2058.36 990.203 2059.96 989.717 2061.3 989.23 2062.64 988.987 2063.82 988.987 2064.84 988.987 2067.11 990.352 2068.46 993.081 2068.9L992.635 2070.88 976.059 2070.88 976.505 2068.9C977.342 2068.79 978.133 2068.46 978.876 2067.9 979.619 2067.35 980.409 2066.51 981.247 2065.39 982.084 2064.27 983.259 2062.41 984.772 2059.82Z" fill-rule="evenodd"/><text fill="#000000" fill-opacity="0" font-family="Arial,Arial_MSFontService,sans-serif" font-size="55.9683" x="976.059" y="2063.89">ğ´</text><path d="M1121.51 2008.77C1129.4 2010.85 1135.46 2015.34 1139.69 2022.24 1143.91 2029.15 1146.03 2037.48 1146.03 2047.23 1146.03 2057.01 1143.92 2065.34 1139.71 2072.21 1135.49 2079.09 1129.43 2083.57 1121.51 2085.65L1120.54 2082.53C1126.78 2080.45 1131.42 2076.34 1134.46 2070.21 1137.5 2064.07 1139.02 2056.28 1139.02 2046.82 1139.02 2037.69 1137.5 2030.11 1134.48 2024.07 1131.45 2018.03 1126.76 2013.97 1120.42 2011.89ZM1061.34 2008.77 1062.43 2011.89C1056.11 2013.97 1051.43 2018.03 1048.39 2024.07 1045.35 2030.11 1043.83 2037.69 1043.83 2046.82 1043.83 2056.28 1045.35 2064.07 1048.39 2070.21 1051.43 2076.34 1056.07 2080.45 1062.31 2082.53L1061.34 2085.65C1053.42 2083.57 1047.36 2079.09 1043.14 2072.21 1038.93 2065.34 1036.82 2057.01 1036.82 2047.23 1036.82 2037.48 1038.93 2029.15 1043.16 2022.24 1047.39 2015.34 1053.45 2010.85 1061.34 2008.77Z" fill-rule="evenodd"/><path d="M1092.94 2019.13C1091.51 2019.13 1090 2019.18 1088.4 2019.29L1083.21 2042.76 1088 2042.76C1091.91 2042.76 1095.01 2042.23 1097.28 2041.18 1099.55 2040.12 1101.34 2038.39 1102.67 2035.99 1103.99 2033.58 1104.65 2030.99 1104.65 2028.21 1104.65 2027.05 1104.55 2026.01 1104.33 2025.11 1104.11 2024.2 1103.83 2023.45 1103.48 2022.86 1103.13 2022.26 1102.68 2021.74 1102.14 2021.28 1101.6 2020.82 1100.92 2020.42 1100.11 2020.08 1099.3 2019.74 1098.36 2019.5 1097.3 2019.35 1096.23 2019.2 1094.78 2019.13 1092.94 2019.13ZM1076.69 2015.56 1094.72 2015.56C1097.59 2015.56 1099.92 2015.73 1101.74 2016.07 1103.55 2016.41 1105.09 2016.91 1106.38 2017.59 1107.66 2018.26 1108.73 2019.14 1109.6 2020.2 1110.46 2021.27 1111.11 2022.47 1111.54 2023.81 1111.97 2025.15 1112.19 2026.57 1112.19 2028.09 1112.19 2032.25 1110.92 2035.79 1108.38 2038.7 1105.84 2041.62 1102.1 2043.84 1097.16 2045.35L1097.16 2045.8C1098.45 2046.77 1099.5 2047.93 1100.3 2049.28 1101.09 2050.63 1101.74 2052.51 1102.22 2054.92L1103.15 2059.62C1103.45 2061.1 1103.79 2062.44 1104.17 2063.63 1104.55 2064.82 1105 2065.76 1105.52 2066.47 1106.05 2067.17 1106.65 2067.69 1107.31 2068.05 1107.97 2068.4 1108.94 2068.68 1110.21 2068.9L1109.8 2070.88 1098.57 2070.88C1097.71 2068.48 1096.94 2065.61 1096.26 2062.29L1094.48 2053.7C1094.18 2052.21 1093.83 2050.96 1093.41 2049.95 1092.99 2048.94 1092.49 2048.15 1091.91 2047.6 1091.33 2047.05 1090.65 2046.68 1089.88 2046.51 1089.11 2046.33 1088.17 2046.24 1087.06 2046.24L1082.44 2046.24 1079.61 2059.09C1079.36 2060.14 1079.2 2060.98 1079.1 2061.6 1079.01 2062.22 1078.92 2062.88 1078.86 2063.57 1078.79 2064.26 1078.76 2064.87 1078.76 2065.41 1078.76 2066.25 1078.89 2066.9 1079.16 2067.38 1079.43 2067.85 1079.84 2068.19 1080.38 2068.41 1080.92 2068.63 1081.85 2068.79 1083.17 2068.9L1082.73 2070.88 1066.07 2070.88 1066.52 2068.9C1067.54 2068.73 1068.31 2068.47 1068.83 2068.11 1069.34 2067.74 1069.77 2067.24 1070.12 2066.59 1070.47 2065.94 1070.8 2065.15 1071.1 2064.22 1071.39 2063.28 1071.84 2061.48 1072.43 2058.81L1079.32 2027.6C1079.92 2024.9 1080.22 2022.76 1080.22 2021.2 1080.22 2019.87 1079.9 2018.95 1079.28 2018.44 1078.66 2017.93 1077.65 2017.63 1076.24 2017.55Z" fill-rule="evenodd"/><text fill="#000000" fill-opacity="0" font-family="Arial,Arial_MSFontService,sans-serif" font-size="55.3198" x="1066.07" y="2063.97">ğ‘…</text><path d="M1303.5 1546.16C1303.5 1540.27 1308.27 1535.5 1314.16 1535.5L2125.84 1535.5C2131.73 1535.5 2136.5 1540.27 2136.5 1546.16L2136.5 1642.84C2136.5 1648.73 2131.73 1653.5 2125.84 1653.5L1314.16 1653.5C1308.27 1653.5 1303.5 1648.73 1303.5 1642.84Z" stroke="#000000" stroke-width="6.875" stroke-miterlimit="8" fill="#FFE59D" fill-rule="evenodd"/><text font-family="Calibri,Calibri_MSFontService,sans-serif" font-weight="400" font-size="83" transform="matrix(1 0 0 1 1582.43 1622)">Softmax</text><path d="M1010.51 1754.9 996.08 1780.43 1011.93 1780.43 1011.24 1767.38C1011.16 1765.6 1011.09 1763.37 1011.03 1760.7 1010.98 1758.02 1010.95 1756.09 1010.95 1754.9ZM1010.75 1746.35 1016.87 1746.35 1019.79 1791.54C1019.92 1793.67 1020.17 1795.34 1020.52 1796.54 1020.87 1797.75 1021.35 1798.64 1021.96 1799.22 1022.56 1799.8 1023.45 1800.17 1024.61 1800.33L1024.17 1802.32 1007.31 1802.32 1007.75 1800.33C1009.35 1800.2 1010.53 1799.58 1011.32 1798.47 1012.1 1797.36 1012.49 1795.42 1012.49 1792.63 1012.49 1791.58 1012.45 1790.43 1012.37 1789.19L1012.09 1783.96 994.256 1783.96 992.027 1787.93C990.973 1789.8 990.203 1791.4 989.717 1792.73 989.23 1794.07 988.987 1795.25 988.987 1796.28 988.987 1798.55 990.352 1799.9 993.081 1800.33L992.635 1802.32 976.059 1802.32 976.505 1800.33C977.342 1800.22 978.133 1799.89 978.876 1799.34 979.619 1798.79 980.409 1797.95 981.247 1796.83 982.084 1795.71 983.259 1793.85 984.772 1791.25Z" fill-rule="evenodd"/><text fill="#000000" fill-opacity="0" font-family="Arial,Arial_MSFontService,sans-serif" font-size="55.9683" x="976.059" y="1795.32">ğ´</text><path d="M1123.98 1740.2C1131.87 1742.29 1137.93 1746.78 1142.16 1753.68 1146.39 1760.58 1148.5 1768.91 1148.5 1778.67 1148.5 1788.45 1146.4 1796.77 1142.18 1803.65 1137.97 1810.53 1131.9 1815 1123.98 1817.09L1123.01 1813.96C1129.25 1811.88 1133.89 1807.78 1136.93 1801.64 1139.97 1795.51 1141.49 1787.72 1141.49 1778.26 1141.49 1769.13 1139.98 1761.54 1136.95 1755.5 1133.93 1749.47 1129.24 1745.41 1122.89 1743.33ZM1061.34 1740.2 1062.43 1743.33C1056.11 1745.41 1051.43 1749.47 1048.39 1755.5 1045.35 1761.54 1043.83 1769.13 1043.83 1778.26 1043.83 1787.72 1045.35 1795.51 1048.39 1801.64 1051.43 1807.78 1056.07 1811.88 1062.31 1813.96L1061.34 1817.09C1053.42 1815 1047.36 1810.53 1043.14 1803.65 1038.93 1796.77 1036.82 1788.45 1036.82 1778.67 1036.82 1768.91 1038.93 1760.58 1043.16 1753.68 1047.39 1746.78 1053.45 1742.29 1061.34 1740.2Z" fill-rule="evenodd"/><path d="M1097.68 1749.92C1094.76 1749.92 1092.04 1750.96 1089.52 1753.04 1086.99 1755.12 1084.77 1758.09 1082.87 1761.95 1080.96 1765.82 1079.49 1770.06 1078.43 1774.68 1077.38 1779.3 1076.85 1783.38 1076.85 1786.92 1076.85 1795.27 1079.89 1799.44 1085.97 1799.44 1089.67 1799.44 1093.07 1797.74 1096.16 1794.33 1099.26 1790.93 1101.79 1786.16 1103.76 1780.01 1105.73 1773.86 1106.72 1767.97 1106.72 1762.32 1106.72 1754.05 1103.71 1749.92 1097.68 1749.92ZM1098.13 1746.35C1103.34 1746.35 1107.36 1747.86 1110.19 1750.89 1113.01 1753.92 1114.42 1758.29 1114.42 1764.02 1114.42 1768.21 1113.7 1772.92 1112.27 1778.14 1110.84 1783.37 1108.77 1787.9 1106.05 1791.72 1103.34 1795.54 1100.24 1798.38 1096.75 1800.23 1093.26 1802.08 1089.62 1803.01 1085.81 1803.01 1080.38 1803.01 1076.26 1801.49 1073.45 1798.47 1070.64 1795.44 1069.23 1791.12 1069.23 1785.5 1069.23 1781.45 1069.91 1776.87 1071.28 1771.76 1072.64 1766.65 1074.62 1762.15 1077.2 1758.25 1079.78 1754.34 1082.86 1751.38 1086.44 1749.37 1090.02 1747.36 1093.91 1746.35 1098.13 1746.35Z" fill-rule="evenodd"/><text fill="#000000" fill-opacity="0" font-family="Arial,Arial_MSFontService,sans-serif" font-size="56.6572" x="1069.23" y="1795.93">ğ‘‚</text><path d="M1355.25 1419.41C1353.98 1425.28 1353.34 1430.21 1353.34 1434.21 1353.34 1437.23 1353.8 1439.45 1354.72 1440.87 1355.64 1442.29 1357.12 1443 1359.18 1443 1362.2 1443 1365.07 1440.97 1367.79 1436.9 1370.5 1432.83 1372.81 1427 1374.7 1419.41ZM1371.86 1392.1C1368.7 1392.1 1365.78 1394.1 1363.09 1398.1 1360.4 1402.09 1358.11 1407.82 1356.22 1415.28L1375.63 1415.28C1376.9 1409.58 1377.54 1404.67 1377.54 1400.57 1377.54 1397.73 1377.08 1395.61 1376.16 1394.2 1375.24 1392.8 1373.81 1392.1 1371.86 1392.1ZM1372.35 1388.81C1380.18 1388.81 1384.1 1393.79 1384.1 1403.73 1384.1 1406.54 1383.78 1409.9 1383.15 1413.8 1382.51 1417.7 1381.51 1421.68 1380.13 1425.73 1378.75 1429.79 1377.01 1433.37 1374.9 1436.49 1372.79 1439.62 1370.36 1442.03 1367.61 1443.73 1364.85 1445.43 1361.88 1446.28 1358.69 1446.28 1354.66 1446.28 1351.67 1445.05 1349.69 1442.59 1347.72 1440.14 1346.73 1436.45 1346.73 1431.53 1346.73 1428.86 1347.03 1425.56 1347.63 1421.64 1348.22 1417.72 1349.2 1413.72 1350.56 1409.63 1351.93 1405.53 1353.68 1401.9 1355.83 1398.72 1357.98 1395.55 1360.45 1393.1 1363.25 1391.39 1366.05 1389.67 1369.08 1388.81 1372.35 1388.81Z" fill-rule="evenodd"/><text fill="#000000" fill-opacity="0" font-family="Arial,Arial_MSFontService,sans-serif" font-size="57.4678" x="1346.73" y="1439.1">ğœƒ</text><path d="M1410.92 1426.32C1409.13 1426.32 1407.52 1426.74 1406.08 1427.57 1404.64 1428.4 1403.36 1429.52 1402.25 1430.91 1401.14 1432.3 1400.18 1433.88 1399.38 1435.66 1398.57 1437.43 1397.91 1439.25 1397.38 1441.11 1396.85 1442.96 1396.47 1444.79 1396.23 1446.57 1395.99 1448.36 1395.88 1449.98 1395.88 1451.43 1395.88 1454.31 1396.45 1456.46 1397.59 1457.88 1398.73 1459.3 1400.47 1460.01 1402.82 1460.01 1404.48 1460.01 1406.01 1459.61 1407.4 1458.83 1408.79 1458.04 1410.04 1456.99 1411.16 1455.67 1412.27 1454.35 1413.24 1452.83 1414.07 1451.11 1414.91 1449.4 1415.6 1447.61 1416.16 1445.75 1416.72 1443.9 1417.14 1442.04 1417.42 1440.17 1417.71 1438.3 1417.86 1436.57 1417.86 1434.99 1417.86 1432.17 1417.28 1430.02 1416.13 1428.54 1414.98 1427.06 1413.24 1426.32 1410.92 1426.32ZM1411.1 1423.28C1413.2 1423.28 1415.06 1423.59 1416.67 1424.22 1418.27 1424.84 1419.61 1425.72 1420.69 1426.85 1421.76 1427.99 1422.57 1429.35 1423.11 1430.95 1423.66 1432.55 1423.93 1434.34 1423.93 1436.33 1423.93 1437.91 1423.77 1439.68 1423.46 1441.61 1423.14 1443.55 1422.64 1445.51 1421.95 1447.5 1421.27 1449.48 1420.36 1451.41 1419.24 1453.29 1418.12 1455.17 1416.77 1456.83 1415.21 1458.29 1413.64 1459.75 1411.81 1460.92 1409.73 1461.81 1407.64 1462.69 1405.27 1463.13 1402.61 1463.13 1400.6 1463.13 1398.8 1462.84 1397.22 1462.27 1395.63 1461.69 1394.28 1460.85 1393.16 1459.74 1392.05 1458.63 1391.2 1457.26 1390.6 1455.63 1390.01 1454 1389.71 1452.15 1389.71 1450.09 1389.71 1448.36 1389.88 1446.5 1390.22 1444.52 1390.55 1442.53 1391.08 1440.55 1391.79 1438.56 1392.51 1436.57 1393.43 1434.66 1394.56 1432.83 1395.7 1430.99 1397.06 1429.37 1398.65 1427.96 1400.23 1426.55 1402.06 1425.41 1404.13 1424.56 1406.19 1423.71 1408.51 1423.28 1411.1 1423.28Z" fill-rule="evenodd"/><text fill="#000000" fill-opacity="0" font-family="Arial,Arial_MSFontService,sans-serif" font-size="39.8525" x="1389.71" y="1458.15">ğ‘‚</text><path d="M1525.12 1419.41C1523.85 1425.28 1523.22 1430.21 1523.22 1434.21 1523.22 1437.23 1523.68 1439.45 1524.6 1440.87 1525.51 1442.29 1527 1443 1529.05 1443 1532.08 1443 1534.95 1440.97 1537.67 1436.9 1540.38 1432.83 1542.68 1427 1544.58 1419.41ZM1541.74 1392.1C1538.58 1392.1 1535.65 1394.1 1532.96 1398.1 1530.28 1402.09 1527.99 1407.82 1526.1 1415.28L1545.51 1415.28C1546.78 1409.58 1547.41 1404.67 1547.41 1400.57 1547.41 1397.73 1546.95 1395.61 1546.03 1394.2 1545.12 1392.8 1543.68 1392.1 1541.74 1392.1ZM1542.23 1388.81C1550.06 1388.81 1553.98 1393.79 1553.98 1403.73 1553.98 1406.54 1553.66 1409.9 1553.03 1413.8 1552.39 1417.7 1551.38 1421.68 1550.01 1425.73 1548.63 1429.79 1546.89 1433.37 1544.78 1436.49 1542.67 1439.62 1540.24 1442.03 1537.48 1443.73 1534.73 1445.43 1531.76 1446.28 1528.57 1446.28 1524.54 1446.28 1521.54 1445.05 1519.57 1442.59 1517.6 1440.14 1516.61 1436.45 1516.61 1431.53 1516.61 1428.86 1516.91 1425.56 1517.5 1421.64 1518.1 1417.72 1519.08 1413.72 1520.44 1409.63 1521.81 1405.53 1523.56 1401.9 1525.71 1398.72 1527.86 1395.55 1530.33 1393.1 1533.13 1391.39 1535.92 1389.67 1538.96 1388.81 1542.23 1388.81Z" fill-rule="evenodd"/><text fill="#000000" fill-opacity="0" font-family="Arial,Arial_MSFontService,sans-serif" font-size="57.4678" x="1516.61" y="1439.1">ğœƒ</text><path d="M1564.77 1423.85 1577.34 1423.85 1577.01 1425.63C1576.34 1425.79 1575.8 1425.94 1575.39 1426.08 1574.98 1426.22 1574.63 1426.5 1574.35 1426.91 1574.06 1427.33 1573.79 1427.96 1573.56 1428.79 1573.32 1429.62 1573.02 1430.83 1572.66 1432.39L1570.79 1440.7 1586.99 1440.7C1587.25 1439.65 1587.52 1438.54 1587.81 1437.35 1588.1 1436.17 1588.37 1435.01 1588.63 1433.85 1588.89 1432.7 1589.1 1431.63 1589.27 1430.64 1589.44 1429.64 1589.52 1428.82 1589.52 1428.17 1589.52 1427.29 1589.29 1426.67 1588.84 1426.3 1588.38 1425.94 1587.55 1425.74 1586.33 1425.72L1586.78 1423.85 1599.32 1423.85 1598.99 1425.63C1598.32 1425.83 1597.78 1426.01 1597.37 1426.15 1596.96 1426.3 1596.62 1426.59 1596.33 1427.02 1596.04 1427.45 1595.79 1428.07 1595.57 1428.88 1595.35 1429.69 1595.07 1430.87 1594.73 1432.39L1589.79 1454.17C1589.71 1454.64 1589.64 1455.08 1589.57 1455.46 1589.5 1455.85 1589.44 1456.21 1589.4 1456.54 1589.36 1456.86 1589.33 1457.16 1589.31 1457.43 1589.29 1457.7 1589.28 1457.97 1589.28 1458.25 1589.28 1459.08 1589.52 1459.67 1589.98 1460.02 1590.45 1460.37 1591.27 1460.58 1592.44 1460.66L1592.02 1462.48 1579.39 1462.48 1579.72 1460.66C1580.34 1460.54 1580.83 1460.4 1581.21 1460.24 1581.59 1460.08 1581.88 1459.88 1582.08 1459.62 1582.25 1459.44 1582.45 1459.08 1582.66 1458.53 1582.86 1457.98 1583.09 1457.31 1583.33 1456.52 1583.56 1455.73 1583.81 1454.82 1584.07 1453.81 1584.33 1452.8 1584.58 1451.74 1584.83 1450.64 1585.08 1449.54 1585.33 1448.41 1585.59 1447.26 1585.85 1446.11 1586.1 1444.98 1586.33 1443.89L1570.13 1443.89C1569.87 1445.06 1569.58 1446.3 1569.24 1447.61 1568.9 1448.93 1568.58 1450.23 1568.28 1451.52 1567.99 1452.81 1567.73 1454.04 1567.53 1455.21 1567.32 1456.38 1567.21 1457.39 1567.21 1458.25 1567.21 1459.04 1567.44 1459.62 1567.9 1459.99 1568.35 1460.36 1569.2 1460.58 1570.43 1460.66L1569.95 1462.48 1557.41 1462.48 1557.74 1460.66C1558.36 1460.56 1558.86 1460.44 1559.24 1460.29 1559.63 1460.14 1559.98 1459.85 1560.29 1459.42 1560.59 1459 1560.88 1458.36 1561.14 1457.5 1561.39 1456.65 1561.69 1455.46 1562.03 1453.93L1566.91 1432.22C1567.09 1431.42 1567.24 1430.66 1567.35 1429.92 1567.46 1429.19 1567.51 1428.6 1567.51 1428.17 1567.51 1427.29 1567.28 1426.67 1566.83 1426.3 1566.37 1425.94 1565.53 1425.74 1564.32 1425.72Z" fill-rule="evenodd"/><text fill="#000000" fill-opacity="0" font-family="Arial,Arial_MSFontService,sans-serif" font-size="38.6313" x="1557.41" y="1457.65">ğ»</text><path d="M1695 1419.41C1693.73 1425.28 1693.1 1430.21 1693.1 1434.21 1693.1 1437.23 1693.55 1439.45 1694.47 1440.87 1695.39 1442.29 1696.88 1443 1698.93 1443 1701.96 1443 1704.83 1440.97 1707.54 1436.9 1710.26 1432.83 1712.56 1427 1714.45 1419.41ZM1711.62 1392.1C1708.46 1392.1 1705.53 1394.1 1702.84 1398.1 1700.15 1402.09 1697.86 1407.82 1695.97 1415.28L1715.39 1415.28C1716.66 1409.58 1717.29 1404.67 1717.29 1400.57 1717.29 1397.73 1716.83 1395.61 1715.91 1394.2 1714.99 1392.8 1713.56 1392.1 1711.62 1392.1ZM1712.1 1388.81C1719.94 1388.81 1723.86 1393.79 1723.86 1403.73 1723.86 1406.54 1723.54 1409.9 1722.9 1413.8 1722.27 1417.7 1721.26 1421.68 1719.88 1425.73 1718.51 1429.79 1716.76 1433.37 1714.66 1436.49 1712.55 1439.62 1710.12 1442.03 1707.36 1443.73 1704.61 1445.43 1701.63 1446.28 1698.45 1446.28 1694.42 1446.28 1691.42 1445.05 1689.45 1442.59 1687.48 1440.14 1686.49 1436.45 1686.49 1431.53 1686.49 1428.86 1686.79 1425.56 1687.38 1421.64 1687.98 1417.72 1688.95 1413.72 1690.32 1409.63 1691.68 1405.53 1693.44 1401.9 1695.59 1398.72 1697.74 1395.55 1700.21 1393.1 1703 1391.39 1705.8 1389.67 1708.83 1388.81 1712.1 1388.81Z" fill-rule="evenodd"/><text fill="#000000" fill-opacity="0" font-family="Arial,Arial_MSFontService,sans-serif" font-size="57.4678" x="1686.49" y="1439.1">ğœƒ</text><path d="M1747.22 1427C1746.74 1427 1746.19 1427.01 1745.58 1427.03 1744.96 1427.05 1744.37 1427.06 1743.79 1427.06L1740.25 1442.64 1743.79 1442.64C1747.72 1442.64 1750.74 1441.84 1752.85 1440.24 1754.95 1438.64 1756 1436.22 1756 1432.96 1756 1431.87 1755.84 1430.94 1755.51 1430.18 1755.18 1429.41 1754.66 1428.8 1753.95 1428.33 1753.23 1427.86 1752.32 1427.52 1751.22 1427.32 1750.12 1427.11 1748.79 1427 1747.22 1427ZM1734.65 1423.85 1748.32 1423.85C1750.94 1423.85 1753.12 1424.07 1754.87 1424.53 1756.62 1424.99 1758.02 1425.62 1759.07 1426.42 1760.12 1427.23 1760.87 1428.17 1761.31 1429.27 1761.74 1430.36 1761.96 1431.54 1761.96 1432.81 1761.96 1435.75 1761.06 1438.2 1759.26 1440.17 1757.47 1442.13 1754.74 1443.63 1751.09 1444.67 1751.05 1444.75 1751.03 1444.81 1751.03 1444.87 1751.03 1444.93 1751.03 1445 1751.03 1445.08 1751.96 1445.72 1752.71 1446.51 1753.28 1447.47 1753.84 1448.42 1754.34 1449.68 1754.75 1451.25 1755.23 1453.12 1755.62 1454.62 1755.93 1455.78 1756.24 1456.93 1756.59 1457.84 1757 1458.5 1757.41 1459.17 1757.92 1459.65 1758.55 1459.96 1759.18 1460.27 1760.02 1460.5 1761.1 1460.66L1760.68 1462.48 1752.01 1462.48C1751.65 1461.7 1751.31 1460.76 1750.97 1459.63 1750.63 1458.51 1750.33 1457.41 1750.08 1456.34 1749.68 1454.77 1749.35 1453.42 1749.08 1452.28 1748.81 1451.13 1748.55 1450.17 1748.29 1449.39 1748.03 1448.6 1747.76 1447.98 1747.48 1447.51 1747.21 1447.04 1746.88 1446.67 1746.5 1446.39 1746.12 1446.12 1745.67 1445.93 1745.13 1445.84 1744.6 1445.75 1743.94 1445.69 1743.17 1445.65L1739.62 1445.65C1739.38 1446.7 1739.12 1447.83 1738.85 1449.04 1738.57 1450.26 1738.3 1451.44 1738.03 1452.59 1737.76 1453.74 1737.54 1454.82 1737.36 1455.82 1737.18 1456.82 1737.09 1457.63 1737.09 1458.25 1737.09 1458.67 1737.14 1459.02 1737.24 1459.31 1737.34 1459.59 1737.51 1459.83 1737.76 1460.01 1738.01 1460.18 1738.35 1460.32 1738.77 1460.42 1739.2 1460.52 1739.74 1460.6 1740.4 1460.66L1740.01 1462.48 1727.29 1462.48 1727.62 1460.66C1728.23 1460.56 1728.73 1460.44 1729.12 1460.29 1729.51 1460.14 1729.86 1459.85 1730.16 1459.42 1730.47 1459 1730.76 1458.36 1731.01 1457.5 1731.27 1456.65 1731.57 1455.46 1731.91 1453.93L1736.79 1432.22C1736.99 1431.34 1737.14 1430.57 1737.24 1429.89 1737.34 1429.22 1737.39 1428.66 1737.39 1428.22 1737.39 1427.33 1737.16 1426.7 1736.72 1426.32 1736.27 1425.94 1735.43 1425.74 1734.2 1425.72Z" fill-rule="evenodd"/><text fill="#000000" fill-opacity="0" font-family="Arial,Arial_MSFontService,sans-serif" font-size="38.6313" x="1727.29" y="1457.65">ğ‘…</text><path d="M1864.88 1419.41C1863.61 1425.28 1862.97 1430.21 1862.97 1434.21 1862.97 1437.23 1863.43 1439.45 1864.35 1440.87 1865.27 1442.29 1866.76 1443 1868.81 1443 1871.83 1443 1874.71 1440.97 1877.42 1436.9 1880.14 1432.83 1882.44 1427 1884.33 1419.41ZM1881.49 1392.1C1878.33 1392.1 1875.41 1394.1 1872.72 1398.1 1870.03 1402.09 1867.74 1407.82 1865.85 1415.28L1885.26 1415.28C1886.53 1409.58 1887.17 1404.67 1887.17 1400.57 1887.17 1397.73 1886.71 1395.61 1885.79 1394.2 1884.87 1392.8 1883.44 1392.1 1881.49 1392.1ZM1881.98 1388.81C1889.82 1388.81 1893.73 1393.79 1893.73 1403.73 1893.73 1406.54 1893.42 1409.9 1892.78 1413.8 1892.15 1417.7 1891.14 1421.68 1889.76 1425.73 1888.38 1429.79 1886.64 1433.37 1884.53 1436.49 1882.43 1439.62 1879.99 1442.03 1877.24 1443.73 1874.48 1445.43 1871.51 1446.28 1868.32 1446.28 1864.3 1446.28 1861.3 1445.05 1859.33 1442.59 1857.35 1440.14 1856.37 1436.45 1856.37 1431.53 1856.37 1428.86 1856.66 1425.56 1857.26 1421.64 1857.85 1417.72 1858.83 1413.72 1860.2 1409.63 1861.56 1405.53 1863.32 1401.9 1865.47 1398.72 1867.61 1395.55 1870.09 1393.1 1872.88 1391.39 1875.68 1389.67 1878.71 1388.81 1881.98 1388.81Z" fill-rule="evenodd"/><text fill="#000000" fill-opacity="0" font-family="Arial,Arial_MSFontService,sans-serif" font-size="57.4678" x="1856.37" y="1439.1">ğœƒ</text><path d="M1904.47 1423.85 1915.84 1423.85 1919.75 1450.71 1936.93 1423.85 1946.88 1423.85 1946.52 1425.63C1945.87 1425.81 1945.34 1425.97 1944.94 1426.11 1944.55 1426.25 1944.21 1426.52 1943.93 1426.93 1943.65 1427.34 1943.39 1427.96 1943.16 1428.79 1942.92 1429.62 1942.62 1430.83 1942.26 1432.39L1937.41 1454.17C1937.21 1455.14 1937.06 1455.93 1936.96 1456.54 1936.86 1457.14 1936.81 1457.71 1936.81 1458.25 1936.81 1459.08 1937.05 1459.67 1937.53 1460.02 1938 1460.37 1938.83 1460.58 1940 1460.66L1939.58 1462.48 1926.92 1462.48 1927.31 1460.66C1927.95 1460.54 1928.44 1460.4 1928.78 1460.24 1929.13 1460.08 1929.41 1459.88 1929.6 1459.62 1929.82 1459.42 1930.06 1458.99 1930.3 1458.32 1930.55 1457.66 1930.82 1456.84 1931.09 1455.87 1931.37 1454.89 1931.65 1453.81 1931.93 1452.6 1932.21 1451.4 1932.49 1450.15 1932.79 1448.84 1933.09 1447.53 1933.38 1446.2 1933.65 1444.86 1933.93 1443.52 1934.21 1442.23 1934.49 1441 1934.63 1440.29 1934.81 1439.44 1935.02 1438.46 1935.24 1437.47 1935.48 1436.49 1935.72 1435.52 1935.97 1434.55 1936.21 1433.64 1936.44 1432.8 1936.67 1431.95 1936.87 1431.3 1937.05 1430.85L1936.63 1430.85 1919.15 1458.13 1915.69 1458.13 1911.46 1429.92 1910.96 1429.92C1910.76 1431.19 1910.49 1432.79 1910.15 1434.7 1909.82 1436.62 1909.38 1438.87 1908.84 1441.45 1908.63 1442.36 1908.4 1443.34 1908.16 1444.37 1907.92 1445.4 1907.67 1446.46 1907.41 1447.56 1907.16 1448.65 1906.9 1449.73 1906.65 1450.8 1906.41 1451.87 1906.19 1452.88 1906 1453.82 1905.81 1454.77 1905.66 1455.63 1905.55 1456.4 1905.44 1457.18 1905.39 1457.79 1905.39 1458.25 1905.39 1459.08 1905.63 1459.67 1906.1 1460.02 1906.58 1460.37 1907.39 1460.58 1908.55 1460.66L1908.22 1462.48 1897.11 1462.48 1897.5 1460.66C1898.07 1460.56 1898.56 1460.45 1898.96 1460.32 1899.35 1460.19 1899.7 1459.92 1900.01 1459.5 1900.32 1459.08 1900.61 1458.45 1900.88 1457.59 1901.14 1456.74 1901.45 1455.52 1901.78 1453.93L1906.67 1432.22C1906.85 1431.42 1906.98 1430.68 1907.07 1430 1907.16 1429.31 1907.21 1428.7 1907.21 1428.17 1907.21 1427.29 1906.98 1426.67 1906.52 1426.3 1906.06 1425.94 1905.23 1425.74 1904.02 1425.72Z" fill-rule="evenodd"/><text fill="#000000" fill-opacity="0" font-family="Arial,Arial_MSFontService,sans-serif" font-size="38.6313" x="1897.11" y="1457.65">ğ‘€</text><path d="M2034.75 1419.41C2033.48 1425.28 2032.85 1430.21 2032.85 1434.21 2032.85 1437.23 2033.31 1439.45 2034.23 1440.87 2035.15 1442.29 2036.63 1443 2038.69 1443 2041.71 1443 2044.58 1440.97 2047.3 1436.9 2050.01 1432.83 2052.32 1427 2054.21 1419.41ZM2051.37 1392.1C2048.21 1392.1 2045.29 1394.1 2042.6 1398.1 2039.91 1402.09 2037.62 1407.82 2035.73 1415.28L2055.14 1415.28C2056.41 1409.58 2057.04 1404.67 2057.04 1400.57 2057.04 1397.73 2056.59 1395.61 2055.67 1394.2 2054.75 1392.8 2053.32 1392.1 2051.37 1392.1ZM2051.86 1388.81C2059.69 1388.81 2063.61 1393.79 2063.61 1403.73 2063.61 1406.54 2063.29 1409.9 2062.66 1413.8 2062.02 1417.7 2061.02 1421.68 2059.64 1425.73 2058.26 1429.79 2056.52 1433.37 2054.41 1436.49 2052.3 1439.62 2049.87 1442.03 2047.12 1443.73 2044.36 1445.43 2041.39 1446.28 2038.2 1446.28 2034.17 1446.28 2031.17 1445.05 2029.2 1442.59 2027.23 1440.14 2026.24 1436.45 2026.24 1431.53 2026.24 1428.86 2026.54 1425.56 2027.14 1421.64 2027.73 1417.72 2028.71 1413.72 2030.07 1409.63 2031.44 1405.53 2033.19 1401.9 2035.34 1398.72 2037.49 1395.55 2039.96 1393.1 2042.76 1391.39 2045.56 1389.67 2048.59 1388.81 2051.86 1388.81Z" fill-rule="evenodd"/><text fill="#000000" fill-opacity="0" font-family="Arial,Arial_MSFontService,sans-serif" font-size="57.4678" x="2026.24" y="1439.1">ğœƒ</text><path d="M2090.45 1429C2089.73 1429 2089.05 1429.01 2088.39 1429.03 2087.74 1429.05 2087.09 1429.08 2086.46 1429.12L2082.67 1445.23 2086.25 1445.23C2088.57 1445.27 2090.5 1445.04 2092.03 1444.55 2093.56 1444.05 2094.78 1443.34 2095.7 1442.43 2096.63 1441.52 2097.28 1440.44 2097.66 1439.21 2098.03 1437.98 2098.22 1436.64 2098.22 1435.19 2098.22 1433.03 2097.6 1431.45 2096.34 1430.47 2095.09 1429.49 2093.13 1429 2090.45 1429ZM2077.31 1425.84 2090.78 1425.84C2092.92 1425.84 2094.82 1426 2096.48 1426.33 2098.14 1426.66 2099.54 1427.19 2100.68 1427.91 2101.82 1428.63 2102.69 1429.58 2103.28 1430.74 2103.88 1431.9 2104.2 1433.33 2104.24 1435.01 2104.24 1437.22 2103.83 1439.16 2103 1440.84 2102.18 1442.51 2101.02 1443.91 2099.53 1445.02 2098.04 1446.13 2096.26 1446.97 2094.17 1447.54 2092.09 1448.1 2089.78 1448.38 2087.26 1448.36 2086.17 1448.36 2085.19 1448.35 2084.31 1448.33 2083.44 1448.31 2082.7 1448.28 2082.11 1448.24 2081.89 1449.27 2081.64 1450.39 2081.36 1451.6 2081.08 1452.82 2080.83 1453.98 2080.59 1455.1 2080.35 1456.23 2080.15 1457.25 2079.99 1458.17 2079.83 1459.1 2079.75 1459.79 2079.75 1460.24 2079.75 1460.64 2079.81 1460.98 2079.92 1461.27 2080.03 1461.56 2080.21 1461.8 2080.45 1462 2080.7 1462.2 2081.06 1462.35 2081.51 1462.45 2081.97 1462.55 2082.55 1462.61 2083.27 1462.65L2082.85 1464.47 2069.96 1464.47 2070.28 1462.65C2070.9 1462.56 2071.4 1462.43 2071.8 1462.28 2072.2 1462.13 2072.55 1461.85 2072.86 1461.42 2073.17 1460.99 2073.45 1460.35 2073.69 1459.5 2073.94 1458.64 2074.23 1457.45 2074.57 1455.92L2079.46 1434.21C2079.66 1433.34 2079.8 1432.56 2079.9 1431.89 2080 1431.21 2080.05 1430.66 2080.05 1430.22 2080.05 1429.32 2079.83 1428.69 2079.38 1428.31 2078.94 1427.93 2078.1 1427.74 2076.87 1427.72Z" fill-rule="evenodd"/><text fill="#000000" fill-opacity="0" font-family="Arial,Arial_MSFontService,sans-serif" font-size="38.6313" x="2069.96" y="1459.64">ğ‘ƒ</text><path d="M2102.11 1414.51 2104.22 1415.73C2103.29 1417.14 2102.4 1418.24 2101.56 1419.01 2100.71 1419.78 2099.9 1420.32 2099.13 1420.6 2098.35 1420.89 2097.47 1421.04 2096.48 1421.04 2095.82 1421.04 2095.25 1421 2094.75 1420.92 2094.25 1420.84 2093.77 1420.72 2093.29 1420.57 2092.81 1420.42 2092.07 1420.14 2091.06 1419.72 2090.4 1419.47 2089.88 1419.26 2089.49 1419.11 2089.11 1418.97 2088.7 1418.85 2088.29 1418.76 2087.87 1418.67 2087.43 1418.62 2086.98 1418.62 2086.32 1418.62 2085.78 1418.7 2085.35 1418.85 2084.93 1419 2084.49 1419.25 2084.06 1419.61 2083.62 1419.96 2083.06 1420.55 2082.36 1421.36L2080.36 1420.14C2081.54 1418.47 2082.49 1417.32 2083.24 1416.67 2083.98 1416.03 2084.74 1415.56 2085.52 1415.27 2086.29 1414.98 2087.22 1414.84 2088.29 1414.84 2088.88 1414.84 2089.42 1414.88 2089.9 1414.96 2090.37 1415.04 2090.81 1415.14 2091.22 1415.27 2091.63 1415.4 2092.33 1415.66 2093.32 1416.06 2094.02 1416.34 2094.58 1416.56 2095 1416.73 2095.43 1416.9 2095.86 1417.03 2096.3 1417.12 2096.74 1417.21 2097.24 1417.25 2097.82 1417.25 2098.59 1417.25 2099.29 1417.07 2099.9 1416.72 2100.52 1416.36 2101.25 1415.62 2102.11 1414.51Z" fill-rule="evenodd"/><text fill="#000000" fill-opacity="0" font-family="Arial,Arial_MSFontService,sans-serif" font-size="6.85059" x="2080.36" y="1420.51">à·¨</text><path d="M2307.5 1719.44C2307.5 1714.5 2311.5 1710.5 2316.44 1710.5L2397.56 1710.5C2402.5 1710.5 2406.5 1714.5 2406.5 1719.44L2406.5 2376.56C2406.5 2381.5 2402.5 2385.5 2397.56 2385.5L2316.44 2385.5C2311.5 2385.5 2307.5 2381.5 2307.5 2376.56Z" stroke="#000000" stroke-width="6.875" stroke-miterlimit="8" fill="#D8E7F5" fill-rule="evenodd"/><text font-family="Calibri,Calibri_MSFontService,sans-serif" font-weight="400" font-size="83" transform="matrix(6.12323e-17 1 -1 6.12323e-17 2327.83 1973)">Sum</text><path d="M789.502 2041.06 920.724 2041.12 920.721 2048 789.499 2047.94ZM916.146 2030.81 943.639 2044.57 916.133 2058.31Z"/><path d="M2.15755-2.67607 138.456 107.213 134.141 112.565-2.15755 2.67607ZM141.361 96.3079 154.139 124.273 124.1 117.716Z" transform="matrix(1 0 0 -1 789.5 2044.77)"/><path d="M2.98116-1.71146 145.71 246.906 139.748 250.329-2.98116 1.71146ZM152.372 237.797 154.139 268.492 128.523 251.488Z" transform="matrix(1 0 0 -1 789.5 2043.99)"/><path d="M791.779 2041.93 928.763 2163.26 924.205 2168.4 787.221 2047.07ZM932.17 2152.5 943.639 2181.02 913.936 2173.08Z"/><path d="M1357.19 1749.19 1408.81 1800.81M1408.81 1749.19 1357.19 1800.81" stroke="#000000" stroke-width="6.875" stroke-miterlimit="8" fill="none" fill-rule="evenodd"/><path d="M1346.5 1775C1346.5 1754.84 1362.84 1738.5 1383 1738.5 1403.16 1738.5 1419.5 1754.84 1419.5 1775 1419.5 1795.16 1403.16 1811.5 1383 1811.5 1362.84 1811.5 1346.5 1795.16 1346.5 1775Z" stroke="#000000" stroke-width="6.875" stroke-miterlimit="8" fill="none" fill-rule="evenodd"/><path d="M1527.19 1882.19 1578.81 1933.81M1578.81 1882.19 1527.19 1933.81" stroke="#000000" stroke-width="6.875" stroke-miterlimit="8" fill="none" fill-rule="evenodd"/><path d="M1516.5 1908C1516.5 1887.84 1532.84 1871.5 1553 1871.5 1573.16 1871.5 1589.5 1887.84 1589.5 1908 1589.5 1928.16 1573.16 1944.5 1553 1944.5 1532.84 1944.5 1516.5 1928.16 1516.5 1908Z" stroke="#000000" stroke-width="6.875" stroke-miterlimit="8" fill="none" fill-rule="evenodd"/><path d="M1697.19 2018.34 1748.81 2070.66M1748.81 2018.34 1697.19 2070.66" stroke="#000000" stroke-width="6.875" stroke-miterlimit="8" fill="none" fill-rule="evenodd"/><path d="M1686.5 2044.5C1686.5 2024.07 1702.84 2007.5 1723 2007.5 1743.16 2007.5 1759.5 2024.07 1759.5 2044.5 1759.5 2064.93 1743.16 2081.5 1723 2081.5 1702.84 2081.5 1686.5 2064.93 1686.5 2044.5Z" stroke="#000000" stroke-width="6.875" stroke-miterlimit="8" fill="none" fill-rule="evenodd"/><path d="M1867.19 2155.19 1918.81 2206.81M1918.81 2155.19 1867.19 2206.81" stroke="#000000" stroke-width="6.875" stroke-miterlimit="8" fill="none" fill-rule="evenodd"/><path d="M1856.5 2181C1856.5 2160.84 1872.84 2144.5 1893 2144.5 1913.16 2144.5 1929.5 2160.84 1929.5 2181 1929.5 2201.16 1913.16 2217.5 1893 2217.5 1872.84 2217.5 1856.5 2201.16 1856.5 2181Z" stroke="#000000" stroke-width="6.875" stroke-miterlimit="8" fill="none" fill-rule="evenodd"/><path d="M2037.19 2270.19 2088.81 2321.81M2088.81 2270.19 2037.19 2321.81" stroke="#000000" stroke-width="6.875" stroke-miterlimit="8" fill="none" fill-rule="evenodd"/><path d="M2026.5 2296C2026.5 2275.84 2042.84 2259.5 2063 2259.5 2083.16 2259.5 2099.5 2275.84 2099.5 2296 2099.5 2316.16 2083.16 2332.5 2063 2332.5 2042.84 2332.5 2026.5 2316.16 2026.5 2296Z" stroke="#000000" stroke-width="6.875" stroke-miterlimit="8" fill="none" fill-rule="evenodd"/><path d="M0.0175587-3.43745 142.073-2.71183 142.038 4.16308-0.0175587 3.43745ZM137.542-13.0476 164.972 0.842684 137.402 14.452Z" transform="matrix(1 0 0 -1 1181.5 1776.34)"/><path d="M1419.5 1772.06 2284.19 1772.06 2284.19 1778.94 1419.5 1778.94ZM2279.6 1761.75 2307.1 1775.5 2279.6 1789.25Z"/><path d="M1181.5 1905.06 1493.43 1905.06 1493.43 1911.94 1181.5 1911.94ZM1488.85 1894.75 1516.35 1908.5 1488.85 1922.25Z"/><path d="M1589.5 1905.06 2284.31 1905.06 2284.31 1911.94 1589.5 1911.94ZM2279.73 1894.75 2307.23 1908.5 2279.73 1922.25Z"/><path d="M0.000494038-3.4375 481.81-3.36825 481.809 3.50675-0.000494038 3.4375ZM477.229-13.6814 504.727 0.0725394 477.225 13.8186Z" transform="matrix(1 0 0 -1 1181.5 2044.57)"/><path d="M1759.5 2041.06 2284.43 2041.06 2284.43 2047.94 1759.5 2047.94ZM2279.85 2030.75 2307.35 2044.5 2279.85 2058.25Z"/><path d="M1181.5 2177.06 1833.19 2177.37 1833.19 2184.24 1181.5 2183.94ZM1828.61 2167.05 1856.1 2180.81 1828.6 2194.55Z"/><path d="M1929.5 2178.06 2284.55 2178.06 2284.55 2184.94 1929.5 2184.94ZM2279.97 2167.75 2307.47 2181.5 2279.97 2195.25Z"/><path d="M932.5 2293.06 2003.01 2293.06 2003.01 2299.94 932.5 2299.94ZM1998.42 2282.75 2025.92 2296.5 1998.42 2310.25Z"/><path d="M789.5 2044.5 932.287 2296.24" stroke="#000000" stroke-width="6.875" stroke-miterlimit="8" fill="none" fill-rule="evenodd"/><path d="M2099.5 2293.06 2284.68 2293.06 2284.68 2299.94 2099.5 2299.94ZM2280.09 2282.75 2307.59 2296.5 2280.09 2310.25Z"/><path d="M0.000697302-3.4375 82.0507-3.42086 82.0493 3.45414-0.000697302 3.4375ZM77.4694-13.7343 104.967 0.0212927 77.4638 13.7657Z" transform="matrix(1 0 0 -1 2406.5 2047.52)"/><path d="M1386.94 1485.5 1386.94 1512.4 1380.06 1512.4 1380.06 1485.5ZM1397.25 1507.82 1383.5 1535.32 1369.75 1507.82Z"/><path d="M1386.94 1653.5 1386.94 1715.71 1380.06 1715.71 1380.06 1653.5ZM1397.25 1711.13 1383.5 1738.63 1369.75 1711.13Z"/><path d="M1556.94 1653.5 1556.94 1848.67 1550.06 1848.67 1550.06 1653.5ZM1567.25 1844.08 1553.5 1871.58 1539.75 1844.08Z"/><path d="M1556.94 1485.5 1556.94 1512.4 1550.06 1512.4 1550.06 1485.5ZM1567.25 1507.82 1553.5 1535.32 1539.75 1507.82Z"/><path d="M1726.94 1653.5 1726.94 1985.29 1720.06 1985.29 1720.06 1653.5ZM1737.25 1980.71 1723.5 2008.21 1709.75 1980.71Z"/><path d="M1726.94 1485.5 1726.94 1512.4 1720.06 1512.4 1720.06 1485.5ZM1737.25 1507.82 1723.5 1535.32 1709.75 1507.82Z"/><path d="M1895.94 1653.5 1895.94 2122.13 1889.06 2122.13 1889.06 1653.5ZM1906.25 2117.55 1892.5 2145.05 1878.75 2117.55Z"/><path d="M1895.94 1485.5 1895.94 1512.4 1889.06 1512.4 1889.06 1485.5ZM1906.25 1507.82 1892.5 1535.32 1878.75 1507.82Z"/><path d="M2065.94 1653.5 2065.94 2237.03 2059.06 2237.03 2059.06 1653.5ZM2076.25 2232.45 2062.5 2259.95 2048.75 2232.45Z"/><path d="M2065.94 1485.5 2065.94 1512.4 2059.06 1512.4 2059.06 1485.5ZM2076.25 1507.82 2062.5 1535.32 2048.75 1507.82Z"/></g></svg>