<svg width="2148" height="1521" xmlns="http://www.w3.org/2000/svg" xmlns:xlink="http://www.w3.org/1999/xlink" overflow="hidden"><defs><clipPath id="clip0"><rect x="527" y="533" width="2148" height="1521"/></clipPath></defs><g clip-path="url(#clip0)" transform="translate(-527 -533)"><path d="M976.5 809.5 1029.7 674.5 1242.5 674.5 1189.3 809.5Z" stroke="#000000" stroke-width="4.58333" stroke-miterlimit="8" fill="#D0F0FD" fill-rule="evenodd"/><text font-family="Calibri,Calibri_MSFontService,sans-serif" font-weight="400" font-size="55" transform="matrix(1 0 0 1 1080.02 760)">B5</text><path d="M936.5 1251.5 1005.7 1077.5 1282.5 1077.5 1213.3 1251.5Z" stroke="#000000" stroke-width="4.58333" stroke-miterlimit="8" fill="#D0F0FD" fill-rule="evenodd"/><text font-family="Calibri,Calibri_MSFontService,sans-serif" font-weight="400" font-size="55" transform="matrix(1 0 0 1 1080.02 1182)">B4</text><path d="M903.5 1741.5 986.7 1531.5 1319.5 1531.5 1236.3 1741.5Z" stroke="#000000" stroke-width="4.58333" stroke-miterlimit="8" fill="#D0F0FD" fill-rule="evenodd"/><text font-family="Calibri,Calibri_MSFontService,sans-serif" font-weight="400" font-size="55" transform="matrix(1 0 0 1 1082.07 1654)">B3</text><path d="M1506.5 809.5 1559.7 674.5 1772.5 674.5 1719.3 809.5Z" stroke="#000000" stroke-width="4.58333" stroke-miterlimit="8" fill="#95BDF9" fill-rule="evenodd"/><text font-family="Calibri,Calibri_MSFontService,sans-serif" font-weight="400" font-size="55" transform="matrix(1 0 0 1 1610.53 760)">P5</text><path d="M1466.5 1251.5 1535.7 1077.5 1812.5 1077.5 1743.3 1251.5Z" stroke="#000000" stroke-width="4.58333" stroke-miterlimit="8" fill="#95BDF9" fill-rule="evenodd"/><text font-family="Calibri,Calibri_MSFontService,sans-serif" font-weight="400" font-size="55" transform="matrix(1 0 0 1 1610.53 1182)">P4</text><path d="M1432.5 1741.5 1515.9 1531.5 1849.5 1531.5 1766.1 1741.5Z" stroke="#000000" stroke-width="4.58333" stroke-miterlimit="8" fill="#95BDF9" fill-rule="evenodd"/><text font-family="Calibri,Calibri_MSFontService,sans-serif" font-weight="400" font-size="55" transform="matrix(1 0 0 1 1612.58 1654)">P3</text><path d="M1102.84 672.583 1102.84 584.927 1643.09 584.927 1643.09 642.219 1632.78 642.219 1632.78 590.083 1637.94 595.24 1108 595.24 1113.16 590.083 1113.16 672.583ZM1653.41 637.062 1637.94 668 1622.47 637.062Z"/><path d="M1103.84 1077.05 1103.84 988.844 1590.25 988.844 1590.25 999.156 1109 999.156 1114.16 994 1114.16 1077.05ZM1585.09 978.531 1616.03 994 1585.09 1009.47Z"/><path d="M1105.84 1530.69 1105.84 1441.84 1590.2 1441.84 1590.2 1452.16 1111 1452.16 1116.16 1447 1116.16 1530.69ZM1585.05 1431.53 1615.98 1447 1585.05 1462.47Z"/><path d="M1263.5 963.5C1263.5 954.664 1270.66 947.5 1279.5 947.5L1471.5 947.5C1480.34 947.5 1487.5 954.664 1487.5 963.5L1487.5 1027.5C1487.5 1036.34 1480.34 1043.5 1471.5 1043.5L1279.5 1043.5C1270.66 1043.5 1263.5 1036.34 1263.5 1027.5Z" stroke="#000000" stroke-width="4.58333" stroke-miterlimit="8" fill="#F4B183" fill-rule="evenodd"/><text font-family="Calibri,Calibri_MSFontService,sans-serif" font-weight="400" font-size="55" transform="matrix(1 0 0 1 1319.64 1013)">Conv</text><path d="M1263.5 1415.5C1263.5 1406.66 1270.66 1399.5 1279.5 1399.5L1471.5 1399.5C1480.34 1399.5 1487.5 1406.66 1487.5 1415.5L1487.5 1479.5C1487.5 1488.34 1480.34 1495.5 1471.5 1495.5L1279.5 1495.5C1270.66 1495.5 1263.5 1488.34 1263.5 1479.5Z" stroke="#000000" stroke-width="4.58333" stroke-miterlimit="8" fill="#F4B183" fill-rule="evenodd"/><text font-family="Calibri,Calibri_MSFontService,sans-serif" font-weight="400" font-size="55" transform="matrix(1 0 0 1 1319.64 1465)">Conv</text><path d="M1644.16 809 1644.16 1050.63 1633.84 1050.63 1633.84 809ZM1654.47 1045.47 1639 1076.41 1623.53 1045.47Z"/><path d="M1644.16 1253 1644.16 1494.63 1633.84 1494.63 1633.84 1253ZM1654.47 1489.47 1639 1520.41 1623.53 1489.47Z"/><path d="M5.15625-6.95874e-06 5.15658 241.631-5.15592 241.631-5.15625 6.95874e-06ZM15.4691 236.475 0.000360892 267.412-15.4684 236.475Z" transform="matrix(1 0 0 -1 1109 1076.41)"/><path d="M1105.89 1530.7 1104.03 1276.82 1114.34 1276.74 1116.2 1530.62ZM1093.76 1282.05 1109 1251 1124.69 1281.82Z"/><path d="M5.15625-1.3308e-05 5.15654 114.048-5.15596 114.048-5.15625 1.3308e-05ZM15.469 108.892 0.000360892 139.829-15.4685 108.892Z" transform="matrix(1 0 0 -1 1109 1880.83)"/><path d="M1494.5 1296.5C1494.5 1287.66 1501.66 1280.5 1510.5 1280.5L1790.5 1280.5C1799.34 1280.5 1806.5 1287.66 1806.5 1296.5L1806.5 1360.5C1806.5 1369.34 1799.34 1376.5 1790.5 1376.5L1510.5 1376.5C1501.66 1376.5 1494.5 1369.34 1494.5 1360.5Z" stroke="#000000" stroke-width="4.58333" stroke-miterlimit="8" fill="#C5E0B4" fill-rule="evenodd"/><text font-family="Calibri,Calibri_MSFontService,sans-serif" font-weight="400" font-size="55" transform="matrix(1 0 0 1 1537.56 1346)">Upsample</text><path d="M1494.5 848.5C1494.5 839.664 1501.66 832.5 1510.5 832.5L1790.5 832.5C1799.34 832.5 1806.5 839.664 1806.5 848.5L1806.5 912.5C1806.5 921.336 1799.34 928.5 1790.5 928.5L1510.5 928.5C1501.66 928.5 1494.5 921.336 1494.5 912.5Z" stroke="#000000" stroke-width="4.58333" stroke-miterlimit="8" fill="#C5E0B4" fill-rule="evenodd"/><text font-family="Calibri,Calibri_MSFontService,sans-serif" font-weight="400" font-size="55" transform="matrix(1 0 0 1 1537.56 898)">Upsample</text><path d="M1746 736.844 2073.79 736.844 2073.79 747.157 1746 747.156ZM2068.63 726.532 2099.57 742.001 2068.63 757.469Z"/><path d="M1777 1158.84 2072.62 1158.84 2072.62 1169.16 1777 1169.16ZM2067.46 1148.53 2098.4 1164 2067.46 1179.47Z"/><text font-family="Calibri,Calibri_MSFontService,sans-serif" font-weight="400" font-size="55" transform="matrix(1 0 0 1 1049.04 1952)">Input</text><path d="M1616.5 1448.5C1616.5 1435.25 1627.25 1424.5 1640.5 1424.5 1653.75 1424.5 1664.5 1435.25 1664.5 1448.5 1664.5 1461.75 1653.75 1472.5 1640.5 1472.5 1627.25 1472.5 1616.5 1461.75 1616.5 1448.5Z" stroke="#000000" stroke-width="4.58333" stroke-miterlimit="8" fill="#F9CBCB" fill-rule="evenodd"/><path d="M1623.5 1444.52 1635.52 1444.52 1635.52 1432.5 1644.48 1432.5 1644.48 1444.52 1656.5 1444.52 1656.5 1453.48 1644.48 1453.48 1644.48 1465.5 1635.52 1465.5 1635.52 1453.48 1623.5 1453.48Z" stroke="#000000" stroke-width="3.4375" stroke-miterlimit="8" fill="#FFFFFF" fill-rule="evenodd"/><path d="M1616.5 992.5C1616.5 979.245 1627.25 968.5 1640.5 968.5 1653.75 968.5 1664.5 979.245 1664.5 992.5 1664.5 1005.75 1653.75 1016.5 1640.5 1016.5 1627.25 1016.5 1616.5 1005.75 1616.5 992.5Z" stroke="#000000" stroke-width="4.58333" stroke-miterlimit="8" fill="#F9CBCB" fill-rule="evenodd"/><path d="M1623.5 989.16 1635.16 989.16 1635.16 977.5 1644.84 977.5 1644.84 989.16 1656.5 989.16 1656.5 997.841 1644.84 997.841 1644.84 1009.5 1635.16 1009.5 1635.16 997.841 1623.5 997.841Z" stroke="#000000" stroke-width="3.4375" stroke-miterlimit="8" fill="#FFFFFF" fill-rule="evenodd"/><path d="M1988.5 670.5 2041.9 535.5 2255.5 535.5 2202.1 670.5Z" stroke="#000000" stroke-width="4.58333" stroke-miterlimit="8" fill="#E6CCFC" fill-rule="evenodd"/><text font-family="Calibri,Calibri_MSFontService,sans-serif" font-weight="400" font-size="55" transform="matrix(1 0 0 1 2089.97 620)">N5</text><path d="M1949.5 1094.5 2018.5 920.5 2294.5 920.5 2225.5 1094.5Z" stroke="#000000" stroke-width="4.58333" stroke-miterlimit="8" fill="#E6CCFC" fill-rule="evenodd"/><text font-family="Calibri,Calibri_MSFontService,sans-serif" font-weight="400" font-size="55" transform="matrix(1 0 0 1 2089.97 1025)">N4<tspan font-size="55" x="-1450.76" y="623">High</tspan><tspan font-size="55" x="-1506.39" y="927">Location</tspan><tspan font-size="55" x="-1446.01" y="-267">Low</tspan></text><rect x="532" y="566" width="284" height="1483" stroke="#F4B183" stroke-width="10.3125" stroke-miterlimit="8" stroke-dasharray="82.5 30.9375" fill="none"/><path d="M685.123 1579.91 684.853 815.784 695.165 815.781 695.435 1579.9ZM674.542 820.943 690 790 705.48 820.932Z"/><path d="M0-5.15625 319.236-5.15625 319.236 515.744 308.923 515.744 308.923 0 314.08 5.15625 0 5.15625ZM329.548 510.586 314.08 541.524 298.611 510.586Z" transform="matrix(1 0 0 -1 1808 1635.52)"/><path d="M5.15625-1.48716e-05 5.1569 224.475-5.1556 224.475-5.15625 1.48716e-05ZM15.4694 219.318 0.000721785 250.256-15.4681 219.318Z" transform="matrix(1 0 0 -1 2122 920.256)"/><path d="M2010.5 1238.5C2010.5 1229.66 2017.66 1222.5 2026.5 1222.5L2218.5 1222.5C2227.34 1222.5 2234.5 1229.66 2234.5 1238.5L2234.5 1302.5C2234.5 1311.34 2227.34 1318.5 2218.5 1318.5L2026.5 1318.5C2017.66 1318.5 2010.5 1311.34 2010.5 1302.5Z" stroke="#000000" stroke-width="4.58333" stroke-miterlimit="8" fill="#F4B183" fill-rule="evenodd"/><text font-family="Calibri,Calibri_MSFontService,sans-serif" font-weight="400" font-size="55" transform="matrix(1 0 0 1 2066.37 1288)">Conv</text><path d="M2010.5 818.501C2010.5 809.664 2017.66 802.5 2026.5 802.5L2218.5 802.5C2227.34 802.5 2234.5 809.664 2234.5 818.501L2234.5 882.5C2234.5 891.337 2227.34 898.501 2218.5 898.501L2026.5 898.501C2017.66 898.501 2010.5 891.337 2010.5 882.5Z" stroke="#000000" stroke-width="4.58333" stroke-miterlimit="8" fill="#F4B183" fill-rule="evenodd"/><text font-family="Calibri,Calibri_MSFontService,sans-serif" font-weight="400" font-size="55" transform="matrix(1 0 0 1 2066.37 868)">Conv<tspan font-size="55" x="415.595" y="780">Low</tspan><tspan font-size="55" x="357.894" y="1084">Semantic</tspan><tspan font-size="55" x="410.573" y="-116">High</tspan></text><rect x="2387" y="566" width="283" height="1483" stroke="#F4B183" stroke-width="10.3125" stroke-miterlimit="8" stroke-dasharray="82.5 30.9375" fill="none"/><path d="M2533.16 784 2533.16 1554.11 2522.84 1554.11 2522.84 784ZM2543.47 1548.95 2528 1579.89 2512.53 1548.95Z"/><path d="M2099.5 742.5C2099.5 729.245 2110.25 718.5 2123.5 718.5 2136.75 718.5 2147.5 729.245 2147.5 742.5 2147.5 755.755 2136.75 766.5 2123.5 766.5 2110.25 766.5 2099.5 755.755 2099.5 742.5Z" stroke="#000000" stroke-width="4.58333" stroke-miterlimit="8" fill="#F9CBCB" fill-rule="evenodd"/><path d="M2106.5 738.524 2118.52 738.524 2118.52 726.5 2127.48 726.5 2127.48 738.524 2139.5 738.524 2139.5 747.476 2127.48 747.476 2127.48 759.5 2118.52 759.5 2118.52 747.476 2106.5 747.476Z" stroke="#000000" stroke-width="3.4375" stroke-miterlimit="8" fill="#FFFFFF" fill-rule="evenodd"/><path d="M2098.5 1164.5C2098.5 1151.25 2109.47 1140.5 2123 1140.5 2136.53 1140.5 2147.5 1151.25 2147.5 1164.5 2147.5 1177.75 2136.53 1188.5 2123 1188.5 2109.47 1188.5 2098.5 1177.75 2098.5 1164.5Z" stroke="#000000" stroke-width="4.58333" stroke-miterlimit="8" fill="#F9CBCB" fill-rule="evenodd"/><path d="M2106.5 1160.52 2118.52 1160.52 2118.52 1148.5 2127.48 1148.5 2127.48 1160.52 2139.5 1160.52 2139.5 1169.48 2127.48 1169.48 2127.48 1181.5 2118.52 1181.5 2118.52 1169.48 2106.5 1169.48Z" stroke="#000000" stroke-width="3.4375" stroke-miterlimit="8" fill="#FFFFFF" fill-rule="evenodd"/></g></svg>