<svg width="1431" height="1094" xmlns="http://www.w3.org/2000/svg" xmlns:xlink="http://www.w3.org/1999/xlink" overflow="hidden"><defs><clipPath id="clip0"><rect x="935" y="1253" width="1431" height="1094"/></clipPath></defs><g clip-path="url(#clip0)" transform="translate(-935 -1253)"><path d="M938.5 1307.38C938.5 1279.28 961.278 1256.5 989.375 1256.5L1512.62 1256.5C1540.72 1256.5 1563.5 1279.28 1563.5 1307.38L1563.5 2292.62C1563.5 2320.72 1540.72 2343.5 1512.62 2343.5L989.375 2343.5C961.278 2343.5 938.5 2320.72 938.5 2292.62Z" stroke="#000000" stroke-width="6.875" stroke-miterlimit="8" stroke-dasharray="55 20.625" fill="#95BDF9" fill-rule="evenodd"/><text font-family="Calibri,Calibri_MSFontService,sans-serif" font-weight="400" font-size="73" transform="matrix(1 0 0 1 1155.52 1356)">C2PSA</text><path d="M992.5 1454.67C992.5 1447.4 998.395 1441.5 1005.67 1441.5L1413.33 1441.5C1420.6 1441.5 1426.5 1447.4 1426.5 1454.67L1426.5 1507.33C1426.5 1514.6 1420.6 1520.5 1413.33 1520.5L1005.67 1520.5C998.395 1520.5 992.5 1514.6 992.5 1507.33Z" stroke="#000000" stroke-width="6.875" stroke-miterlimit="8" fill="#F6C09C" fill-rule="evenodd"/><text font-family="Calibri,Calibri_MSFontService,sans-serif" font-weight="400" font-size="64" transform="matrix(1 0 0 1 1144.15 1502)">Conv</text><path d="M992.5 1597.67C992.5 1590.4 998.395 1584.5 1005.67 1584.5L1413.33 1584.5C1420.6 1584.5 1426.5 1590.4 1426.5 1597.67L1426.5 1650.33C1426.5 1657.6 1420.6 1663.5 1413.33 1663.5L1005.67 1663.5C998.395 1663.5 992.5 1657.6 992.5 1650.33Z" stroke="#000000" stroke-width="6.875" stroke-miterlimit="8" fill="#57AFFF" fill-rule="evenodd"/><text font-family="Calibri,Calibri_MSFontService,sans-serif" font-weight="400" font-size="64" transform="matrix(1 0 0 1 1151.93 1645)">Split</text><path d="M992.5 2025.67C992.5 2018.4 998.395 2012.5 1005.67 2012.5L1413.33 2012.5C1420.6 2012.5 1426.5 2018.4 1426.5 2025.67L1426.5 2078.33C1426.5 2085.61 1420.6 2091.5 1413.33 2091.5L1005.67 2091.5C998.395 2091.5 992.5 2085.61 992.5 2078.33Z" stroke="#000000" stroke-width="6.875" stroke-miterlimit="8" fill="#FFE59D" fill-rule="evenodd"/><text font-family="Calibri,Calibri_MSFontService,sans-serif" font-weight="400" font-size="64" transform="matrix(1 0 0 1 1118.98 2073)">Concat</text><path d="M992.5 2168.67C992.5 2161.4 998.395 2155.5 1005.67 2155.5L1413.33 2155.5C1420.6 2155.5 1426.5 2161.4 1426.5 2168.67L1426.5 2221.33C1426.5 2228.61 1420.6 2234.5 1413.33 2234.5L1005.67 2234.5C998.395 2234.5 992.5 2228.61 992.5 2221.33Z" stroke="#000000" stroke-width="6.875" stroke-miterlimit="8" fill="#F6C09C" fill-rule="evenodd"/><text font-family="Calibri,Calibri_MSFontService,sans-serif" font-weight="400" font-size="64" transform="matrix(1 0 0 1 1144.15 2216)">Conv</text><path d="M992.5 1739.83C992.5 1732.47 998.47 1726.5 1005.83 1726.5L1413.17 1726.5C1420.53 1726.5 1426.5 1732.47 1426.5 1739.83L1426.5 1793.17C1426.5 1800.53 1420.53 1806.5 1413.17 1806.5L1005.83 1806.5C998.47 1806.5 992.5 1800.53 992.5 1793.17Z" stroke="#000000" stroke-width="6.875" stroke-miterlimit="8" fill="#9CD1C8" fill-rule="evenodd"/><text font-family="Calibri,Calibri_MSFontService,sans-serif" font-weight="400" font-size="64" transform="matrix(1 0 0 1 1159.62 1788)">PSA</text><path d="M992.5 1882.67C992.5 1875.4 998.395 1869.5 1005.67 1869.5L1413.33 1869.5C1420.6 1869.5 1426.5 1875.4 1426.5 1882.67L1426.5 1935.33C1426.5 1942.61 1420.6 1948.5 1413.33 1948.5L1005.67 1948.5C998.395 1948.5 992.5 1942.61 992.5 1935.33Z" stroke="#000000" stroke-width="6.875" stroke-miterlimit="8" fill="#9CD1C8" fill-rule="evenodd"/><text font-family="Calibri,Calibri_MSFontService,sans-serif" font-weight="400" font-size="64" transform="matrix(1 0 0 1 1159.62 1930)">PSA</text><path d="M1737.5 1307.38C1737.5 1279.28 1760.28 1256.5 1788.38 1256.5L2311.62 1256.5C2339.72 1256.5 2362.5 1279.28 2362.5 1307.38L2362.5 2292.62C2362.5 2320.72 2339.72 2343.5 2311.62 2343.5L1788.38 2343.5C1760.28 2343.5 1737.5 2320.72 1737.5 2292.62Z" stroke="#47978A" stroke-width="6.875" stroke-miterlimit="8" stroke-dasharray="55 20.625" fill="#9CD1C8" fill-rule="evenodd"/><text font-family="Calibri,Calibri_MSFontService,sans-serif" font-weight="400" font-size="73" transform="matrix(1 0 0 1 1992.9 1356)">PSA</text><path d="M1790.5 1454.67C1790.5 1447.4 1796.4 1441.5 1803.67 1441.5L2211.33 1441.5C2218.6 1441.5 2224.5 1447.4 2224.5 1454.67L2224.5 1507.33C2224.5 1514.6 2218.6 1520.5 2211.33 1520.5L1803.67 1520.5C1796.4 1520.5 1790.5 1514.6 1790.5 1507.33Z" stroke="#000000" stroke-width="6.875" stroke-miterlimit="8" fill="#E6AF00" fill-rule="evenodd"/><text font-family="Calibri,Calibri_MSFontService,sans-serif" font-weight="400" font-size="64" transform="matrix(1 0 0 1 1883.38 1502)">Attention</text><path d="M1790.5 2168.67C1790.5 2161.4 1796.4 2155.5 1803.67 2155.5L2211.33 2155.5C2218.6 2155.5 2224.5 2161.4 2224.5 2168.67L2224.5 2221.33C2224.5 2228.61 2218.6 2234.5 2211.33 2234.5L1803.67 2234.5C1796.4 2234.5 1790.5 2228.61 1790.5 2221.33Z" stroke="#000000" stroke-width="6.875" stroke-miterlimit="8" fill="#FFE59D" fill-rule="evenodd"/><text font-family="Calibri,Calibri_MSFontService,sans-serif" font-weight="400" font-size="64" transform="matrix(1 0 0 1 1916.69 2216)">Concat</text><path d="M1790.5 1597.67C1790.5 1590.4 1796.4 1584.5 1803.67 1584.5L2211.33 1584.5C2218.6 1584.5 2224.5 1590.4 2224.5 1597.67L2224.5 1650.33C2224.5 1657.6 2218.6 1663.5 2211.33 1663.5L1803.67 1663.5C1796.4 1663.5 1790.5 1657.6 1790.5 1650.33Z" stroke="#000000" stroke-width="6.875" stroke-miterlimit="8" fill="#FFE59D" fill-rule="evenodd"/><text font-family="Calibri,Calibri_MSFontService,sans-serif" font-weight="400" font-size="64" transform="matrix(1 0 0 1 1916.69 1645)">Concat</text><path d="M1790.5 1882.67C1790.5 1875.4 1796.4 1869.5 1803.67 1869.5L2211.33 1869.5C2218.6 1869.5 2224.5 1875.4 2224.5 1882.67L2224.5 1935.33C2224.5 1942.61 2218.6 1948.5 2211.33 1948.5L1803.67 1948.5C1796.4 1948.5 1790.5 1942.61 1790.5 1935.33Z" stroke="#000000" stroke-width="6.875" stroke-miterlimit="8" fill="#F6C09C" fill-rule="evenodd"/><text font-family="Calibri,Calibri_MSFontService,sans-serif" font-weight="400" font-size="64" transform="matrix(1 0 0 1 1941.87 1930)">Conv</text><path d="M1790.5 2025.67C1790.5 2018.4 1796.4 2012.5 1803.67 2012.5L2211.33 2012.5C2218.6 2012.5 2224.5 2018.4 2224.5 2025.67L2224.5 2078.33C2224.5 2085.61 2218.6 2091.5 2211.33 2091.5L1803.67 2091.5C1796.4 2091.5 1790.5 2085.61 1790.5 2078.33Z" stroke="#000000" stroke-width="6.875" stroke-miterlimit="8" fill="#F6C09C" fill-rule="evenodd"/><text font-family="Calibri,Calibri_MSFontService,sans-serif" font-weight="400" font-size="64" transform="matrix(1 0 0 1 1941.87 2073)">Conv</text><path d="M1790.5 1739.67C1790.5 1732.4 1796.4 1726.5 1803.67 1726.5L2211.33 1726.5C2218.6 1726.5 2224.5 1732.4 2224.5 1739.67L2224.5 1792.33C2224.5 1799.61 2218.6 1805.5 2211.33 1805.5L1803.67 1805.5C1796.4 1805.5 1790.5 1799.61 1790.5 1792.33Z" stroke="#000000" stroke-width="6.875" stroke-miterlimit="8" fill="#FFFCDB" fill-rule="evenodd"/><text font-family="Calibri,Calibri_MSFontService,sans-serif" font-weight="400" font-size="64" transform="matrix(1 0 0 1 1957.09 1787)">FFN</text><path d="M1212.94 1373.5 1212.94 1418.85 1206.06 1418.85 1206.06 1373.5ZM1223.25 1414.27 1209.5 1441.77 1195.75 1414.27Z"/><path d="M2010.94 1373.5 2010.94 1418.85 2004.06 1418.85 2004.06 1373.5ZM2021.25 1414.27 2007.5 1441.77 1993.75 1414.27Z"/><path d="M1212.94 1520.5 1212.94 1561.19 1206.06 1561.19 1206.06 1520.5ZM1223.25 1556.6 1209.5 1584.1 1195.75 1556.6Z"/><path d="M1212.94 1663.5 1212.94 1704.19 1206.06 1704.19 1206.06 1663.5ZM1223.25 1699.6 1209.5 1727.1 1195.75 1699.6Z"/><path d="M1212.94 1806.5 1212.94 1847.19 1206.06 1847.19 1206.06 1806.5ZM1223.25 1842.6 1209.5 1870.1 1195.75 1842.6Z"/><path d="M1212.94 1948.5 1212.94 1989.19 1206.06 1989.19 1206.06 1948.5ZM1223.25 1984.6 1209.5 2012.1 1195.75 1984.6Z"/><path d="M1212.94 2091.5 1212.94 2132.19 1206.06 2132.19 1206.06 2091.5ZM1223.25 2127.6 1209.5 2155.1 1195.75 2127.6Z"/><path d="M1212.94 2234.5 1212.94 2275.19 1206.06 2275.19 1206.06 2234.5ZM1223.25 2270.6 1209.5 2298.1 1195.75 2270.6Z"/><path d="M2010.94 1520.5 2010.94 1561.19 2004.06 1561.19 2004.06 1520.5ZM2021.25 1556.6 2007.5 1584.1 1993.75 1556.6Z"/><path d="M2010.94 1663.5 2010.94 1703.36 2004.06 1703.36 2004.06 1663.5ZM2021.25 1698.77 2007.5 1726.27 1993.75 1698.77Z"/><path d="M2010.94 1805.5 2010.94 1847.02 2004.06 1847.02 2004.06 1805.5ZM2021.25 1842.43 2007.5 1869.93 1993.75 1842.43Z"/><path d="M2010.94 1948.5 2010.94 1989.19 2004.06 1989.19 2004.06 1948.5ZM2021.25 1984.6 2007.5 2012.1 1993.75 1984.6Z"/><path d="M2010.94 2091.5 2010.94 2132.19 2004.06 2132.19 2004.06 2091.5ZM2021.25 2127.6 2007.5 2155.1 1993.75 2127.6Z"/><path d="M2010.94 2234.5 2010.94 2275.19 2004.06 2275.19 2004.06 2234.5ZM2021.25 2270.6 2007.5 2298.1 1993.75 2270.6Z"/><path d="M0-3.4375 25.9159-3.4375 25.9159 306.442 22.4784 303.005 531.406 303.005 527.968 306.442 527.968 239.985 534.843 239.985 534.843 309.88 19.0409 309.88 19.0409 0 22.4784 3.4375 0 3.4375ZM517.656 244.568 531.406 217.068 545.156 244.568Z" transform="matrix(1.83697e-16 1 1 -1.83697e-16 2007.5 1663.5)"/><path d="M0 3.4375-43.5405 3.4375-40.103 0-40.103 299.568-43.5405 296.13 182.315 296.13 178.877 299.568 178.877 239.985 185.752 239.985 185.752 303.005-46.978 303.005-46.978-3.4375 0-3.4375ZM168.565 244.568 182.315 217.068 196.065 244.568Z" transform="matrix(1.83697e-16 1 1 -1.83697e-16 2007.5 1441.5)"/><path d="M2224.5 1478.06 2282.94 1478.06 2282.94 1627.68 2252 1627.68 2252 1620.81 2279.5 1620.81 2276.06 1624.24 2276.06 1481.5 2279.5 1484.94 2224.5 1484.94ZM2256.58 1637.99 2229.08 1624.24 2256.58 1610.49Z"/><path d="M0-3.4375 24.4407-3.4375 24.4407 299.567 21.0032 296.13 388.662 296.13 385.224 299.567 385.224 239.985 392.099 239.985 392.099 303.005 17.5657 303.005 17.5657 0 21.0032 3.4375 0 3.4375ZM374.912 244.568 388.662 217.068 402.412 244.568Z" transform="matrix(1.83697e-16 1 1 -1.83697e-16 1209.5 1663.5)"/><path d="M0 0 319.511 439.001" stroke="#47978A" stroke-width="6.875" stroke-miterlimit="8" stroke-dasharray="27.5 20.625" fill="none" fill-rule="evenodd" transform="matrix(1 0 0 -1 1424.5 1720.5)"/><path d="M1424.5 1805.5 1744.01 2325.84" stroke="#47978A" stroke-width="6.875" stroke-miterlimit="8" stroke-dasharray="27.5 20.625" fill="none" fill-rule="evenodd"/></g></svg>