<svg width="2747" height="1102" xmlns="http://www.w3.org/2000/svg" xmlns:xlink="http://www.w3.org/1999/xlink" overflow="hidden"><defs><clipPath id="clip0"><rect x="287" y="1235" width="2747" height="1102"/></clipPath></defs><g clip-path="url(#clip0)" transform="translate(-287 -1235)"><path d="M2194.5 1306.55C2194.5 1268.97 2224.97 1238.5 2262.55 1238.5L2962.45 1238.5C3000.03 1238.5 3030.5 1268.97 3030.5 1306.55L3030.5 2257.45C3030.5 2295.03 3000.03 2325.5 2962.45 2325.5L2262.55 2325.5C2224.97 2325.5 2194.5 2295.03 2194.5 2257.45Z" stroke="#000000" stroke-width="6.875" stroke-miterlimit="8" stroke-dasharray="55 20.625" fill="#E6CCFC" fill-rule="evenodd"/><text font-family="Calibri,Calibri_MSFontService,sans-serif" font-weight="400" font-size="73" transform="matrix(1 0 0 1 2539.96 1343)">SPPF</text><path d="M290.5 1326.98C290.5 1278.11 330.114 1238.5 378.981 1238.5L2019.02 1238.5C2067.89 1238.5 2107.5 1278.11 2107.5 1326.98L2107.5 2237.02C2107.5 2285.89 2067.89 2325.5 2019.02 2325.5L378.981 2325.5C330.114 2325.5 290.5 2285.89 290.5 2237.02Z" stroke="#000000" stroke-width="6.875" stroke-miterlimit="8" stroke-dasharray="55 20.625" fill="#F3F3F3" fill-rule="evenodd"/><text font-family="Calibri,Calibri_MSFontService,sans-serif" font-weight="400" font-size="73" transform="matrix(1 0 0 1 1144.06 1349)">SPP</text><path d="M2270.5 1415.83C2270.5 1408.47 2276.47 1402.5 2283.83 1402.5L2803.17 1402.5C2810.53 1402.5 2816.5 1408.47 2816.5 1415.83L2816.5 1469.17C2816.5 1476.53 2810.53 1482.5 2803.17 1482.5L2283.83 1482.5C2276.47 1482.5 2270.5 1476.53 2270.5 1469.17Z" stroke="#000000" stroke-width="6.875" stroke-miterlimit="8" fill="#F6C09C" fill-rule="evenodd"/><text font-family="Calibri,Calibri_MSFontService,sans-serif" font-weight="400" font-size="64" transform="matrix(1 0 0 1 2477.97 1463)">Conv</text><path d="M2270.5 1575.67C2270.5 1568.39 2276.4 1562.5 2283.67 1562.5L2803.33 1562.5C2810.6 1562.5 2816.5 1568.39 2816.5 1575.67L2816.5 1628.33C2816.5 1635.6 2810.6 1641.5 2803.33 1641.5L2283.67 1641.5C2276.4 1641.5 2270.5 1635.6 2270.5 1628.33Z" stroke="#000000" stroke-width="6.875" stroke-miterlimit="8" fill="#FFB3B3" fill-rule="evenodd"/><text font-family="Calibri,Calibri_MSFontService,sans-serif" font-weight="400" font-size="64" transform="matrix(1 0 0 1 2324.13 1623)">Maxpooling<tspan font-size="64" x="309.49" y="0">, K=5</tspan></text><path d="M331.5 1734.67C331.5 1727.4 337.395 1721.5 344.667 1721.5L865.333 1721.5C872.605 1721.5 878.5 1727.4 878.5 1734.67L878.5 1787.33C878.5 1794.6 872.605 1800.5 865.333 1800.5L344.667 1800.5C337.395 1800.5 331.5 1794.6 331.5 1787.33Z" stroke="#000000" stroke-width="6.875" stroke-miterlimit="8" fill="#FFB3B3" fill-rule="evenodd"/><text font-family="Calibri,Calibri_MSFontService,sans-serif" font-weight="400" font-size="64" transform="matrix(1 0 0 1 385.825 1782)">Maxpooling<tspan font-size="64" x="309.49" y="0">, K=5</tspan></text><path d="M911.5 1734.67C911.5 1727.4 917.395 1721.5 924.667 1721.5L1444.33 1721.5C1451.6 1721.5 1457.5 1727.4 1457.5 1734.67L1457.5 1787.33C1457.5 1794.6 1451.6 1800.5 1444.33 1800.5L924.667 1800.5C917.395 1800.5 911.5 1794.6 911.5 1787.33Z" stroke="#000000" stroke-width="6.875" stroke-miterlimit="8" fill="#FFB3B3" fill-rule="evenodd"/><text font-family="Calibri,Calibri_MSFontService,sans-serif" font-weight="400" font-size="64" transform="matrix(1 0 0 1 965.071 1782)">Maxpooling<tspan font-size="64" x="309.49" y="0">, K=9</tspan></text><path d="M1490.5 1734.67C1490.5 1727.4 1496.4 1721.5 1503.67 1721.5L2024.33 1721.5C2031.6 1721.5 2037.5 1727.4 2037.5 1734.67L2037.5 1787.33C2037.5 1794.6 2031.6 1800.5 2024.33 1800.5L1503.67 1800.5C1496.4 1800.5 1490.5 1794.6 1490.5 1787.33Z" stroke="#000000" stroke-width="6.875" stroke-miterlimit="8" fill="#FFB3B3" fill-rule="evenodd"/><text font-family="Calibri,Calibri_MSFontService,sans-serif" font-weight="400" font-size="64" transform="matrix(1 0 0 1 1527.99 1782)">Maxpooling<tspan font-size="64" x="309.49" y="0">, K=13</tspan></text><path d="M911.5 1496.67C911.5 1489.4 917.395 1483.5 924.667 1483.5L1444.33 1483.5C1451.6 1483.5 1457.5 1489.4 1457.5 1496.67L1457.5 1549.33C1457.5 1556.6 1451.6 1562.5 1444.33 1562.5L924.667 1562.5C917.395 1562.5 911.5 1556.6 911.5 1549.33Z" stroke="#000000" stroke-width="6.875" stroke-miterlimit="8" fill="#F6C09C" fill-rule="evenodd"/><text font-family="Calibri,Calibri_MSFontService,sans-serif" font-weight="400" font-size="64" transform="matrix(1 0 0 1 1118.91 1544)">Conv</text><path d="M2270.5 1734.67C2270.5 1727.4 2276.4 1721.5 2283.67 1721.5L2803.33 1721.5C2810.6 1721.5 2816.5 1727.4 2816.5 1734.67L2816.5 1787.33C2816.5 1794.6 2810.6 1800.5 2803.33 1800.5L2283.67 1800.5C2276.4 1800.5 2270.5 1794.6 2270.5 1787.33Z" stroke="#000000" stroke-width="6.875" stroke-miterlimit="8" fill="#FFB3B3" fill-rule="evenodd"/><text font-family="Calibri,Calibri_MSFontService,sans-serif" font-weight="400" font-size="64" transform="matrix(1 0 0 1 2324.13 1782)">Maxpooling<tspan font-size="64" x="309.49" y="0">, K=5</tspan></text><path d="M2270.5 1894.67C2270.5 1887.39 2276.4 1881.5 2283.67 1881.5L2803.33 1881.5C2810.6 1881.5 2816.5 1887.39 2816.5 1894.67L2816.5 1947.33C2816.5 1954.6 2810.6 1960.5 2803.33 1960.5L2283.67 1960.5C2276.4 1960.5 2270.5 1954.6 2270.5 1947.33Z" stroke="#000000" stroke-width="6.875" stroke-miterlimit="8" fill="#FFB3B3" fill-rule="evenodd"/><text font-family="Calibri,Calibri_MSFontService,sans-serif" font-weight="400" font-size="64" transform="matrix(1 0 0 1 2324.13 1942)">Maxpooling<tspan font-size="64" x="309.49" y="0">, K=5</tspan></text><path d="M911.5 2046.67C911.5 2039.4 917.395 2033.5 924.667 2033.5L1444.33 2033.5C1451.6 2033.5 1457.5 2039.4 1457.5 2046.67L1457.5 2099.33C1457.5 2106.6 1451.6 2112.5 1444.33 2112.5L924.667 2112.5C917.395 2112.5 911.5 2106.6 911.5 2099.33Z" stroke="#000000" stroke-width="6.875" stroke-miterlimit="8" fill="#FFE59D" fill-rule="evenodd"/><text font-family="Calibri,Calibri_MSFontService,sans-serif" font-weight="400" font-size="64" transform="matrix(1 0 0 1 1093.74 2094)">Concat</text><path d="M2270.5 2046.67C2270.5 2039.4 2276.4 2033.5 2283.67 2033.5L2803.33 2033.5C2810.6 2033.5 2816.5 2039.4 2816.5 2046.67L2816.5 2099.33C2816.5 2106.6 2810.6 2112.5 2803.33 2112.5L2283.67 2112.5C2276.4 2112.5 2270.5 2106.6 2270.5 2099.33Z" stroke="#000000" stroke-width="6.875" stroke-miterlimit="8" fill="#FFE59D" fill-rule="evenodd"/><text font-family="Calibri,Calibri_MSFontService,sans-serif" font-weight="400" font-size="64" transform="matrix(1 0 0 1 2452.79 2094)">Concat</text><path d="M911.5 2192.83C911.5 2185.47 917.47 2179.5 924.834 2179.5L1444.17 2179.5C1451.53 2179.5 1457.5 2185.47 1457.5 2192.83L1457.5 2246.17C1457.5 2253.53 1451.53 2259.5 1444.17 2259.5L924.834 2259.5C917.47 2259.5 911.5 2253.53 911.5 2246.17Z" stroke="#000000" stroke-width="6.875" stroke-miterlimit="8" fill="#F6C09C" fill-rule="evenodd"/><text font-family="Calibri,Calibri_MSFontService,sans-serif" font-weight="400" font-size="64" transform="matrix(1 0 0 1 1118.91 2241)">Conv</text><path d="M2270.5 2194.67C2270.5 2187.4 2276.4 2181.5 2283.67 2181.5L2803.33 2181.5C2810.6 2181.5 2816.5 2187.4 2816.5 2194.67L2816.5 2247.33C2816.5 2254.6 2810.6 2260.5 2803.33 2260.5L2283.67 2260.5C2276.4 2260.5 2270.5 2254.6 2270.5 2247.33Z" stroke="#000000" stroke-width="6.875" stroke-miterlimit="8" fill="#F6C09C" fill-rule="evenodd"/><text font-family="Calibri,Calibri_MSFontService,sans-serif" font-weight="400" font-size="64" transform="matrix(1 0 0 1 2477.97 2242)">Conv</text><path d="M1187.94 1367.5 1187.94 1460.57 1181.06 1460.57 1181.06 1367.5ZM1198.25 1455.99 1184.5 1483.49 1170.75 1455.99Z"/><path d="M1187.94 1562.5 1187.94 1699.05 1181.06 1699.05 1181.06 1562.5ZM1198.25 1694.46 1184.5 1721.96 1170.75 1694.46Z"/><path d="M2546.94 1482.5 2546.94 1539.91 2540.06 1539.91 2540.06 1482.5ZM2557.25 1535.32 2543.5 1562.82 2529.75 1535.32Z"/><path d="M2546.94 1641.5 2546.94 1698.9 2540.06 1698.9 2540.06 1641.5ZM2557.25 1694.32 2543.5 1721.82 2529.75 1694.32Z"/><path d="M2546.94 1800.5 2546.94 1857.91 2540.06 1857.91 2540.06 1800.5ZM2557.25 1853.32 2543.5 1880.82 2529.75 1853.32Z"/><path d="M2546.94 1960.5 2546.94 2010.37 2540.06 2010.37 2540.06 1960.5ZM2557.25 2005.79 2543.5 2033.29 2529.75 2005.79Z"/><path d="M3.4375-1.80498e-05 3.43774 45.8135-3.43726 45.8135-3.4375 1.80498e-05ZM13.7502 41.2301 0.000360892 68.7301-13.7498 41.2302Z" transform="matrix(-1 0 0 1 2543.5 2112.5)"/><path d="M2546.94 1352.5 2546.94 1380.2 2540.06 1380.2 2540.06 1352.5ZM2557.25 1375.62 2543.5 1403.12 2529.75 1375.62Z"/><path d="M2546.94 2260.5 2546.94 2286.2 2540.06 2286.2 2540.06 2260.5ZM2557.25 2281.62 2543.5 2309.12 2529.75 2281.62Z"/><path d="M3.4375-4.98665e-05 3.43789 26.8388-3.43711 26.8389-3.4375 4.98665e-05ZM13.7503 22.2553 0.000721785 49.7555-13.7497 22.2557Z" transform="matrix(-1 0 0 1 1184.5 2259.5)"/><path d="M1187.94 2112.5 1187.94 2157.17 1181.06 2157.17 1181.06 2112.5ZM1198.25 2152.59 1184.5 2180.09 1170.75 2152.59Z"/><path d="M0-3.4375 71.5739-3.4375 71.5739 887.585 68.1364 884.147 510.424 884.147 506.987 887.585 506.987 296.334 513.862 296.334 513.862 891.022 64.6989 891.022 64.6989 0 68.1364 3.4375 0 3.4375ZM496.674 300.917 510.424 273.417 524.174 300.917Z" transform="matrix(1.83697e-16 1 1 -1.83697e-16 1184.5 1562.5)"/><path d="M0-3.4375 275.257-3.4375 275.257 282.911 268.382 282.911 268.382 0 271.819 3.4375 0 3.4375ZM285.569 278.327 271.819 305.827 258.069 278.327Z" transform="matrix(1.83697e-16 1 1 -1.83697e-16 605.5 1800.5)"/><path d="M1766.77 1800.5 1766.77 2075.76 1480.42 2075.76 1480.42 2068.88 1763.33 2068.88 1759.89 2072.32 1759.89 1800.5ZM1485 2086.07 1457.5 2072.32 1485 2058.57Z"/><path d="M3.4375-5.34155e-06 3.43783 209.332-3.43717 209.332-3.4375 5.34155e-06ZM13.7503 204.749 0.000360892 232.249-13.7497 204.749Z" transform="matrix(-1 0 0 1 1184.5 1800.5)"/><path d="M1188.18 1562.5 1188.18 1634.21 605.5 1634.21 608.937 1630.77 608.937 1699.05 602.062 1699.05 602.062 1627.34 1184.75 1627.34 1181.31 1630.77 1181.31 1562.5ZM619.25 1694.46 605.5 1721.96 591.75 1694.46Z"/><path d="M0-3.4375 71.7118-3.4375 71.7118 579.246 68.2743 575.808 136.547 575.808 136.547 582.683 64.8368 582.683 64.8368 0 68.2743 3.4375 0 3.4375ZM131.963 565.496 159.463 579.246 131.963 592.996Z" transform="matrix(1.83697e-16 1 1 -1.83697e-16 1184.5 1562.5)"/><path d="M0-3.4375 38.4035-3.4375 38.4035 443.003 34.966 439.565 590.746 439.565 587.308 443.003 587.308 296.335 594.183 296.335 594.183 446.44 31.5285 446.44 31.5285 0 34.966 3.4375 0 3.4375ZM576.996 300.918 590.746 273.418 604.496 300.918Z" transform="matrix(1.83697e-16 1 1 -1.83697e-16 2543.5 1482.5)"/><path d="M0-3.4375 34.2914-3.4375 34.2914 401.752 30.8539 398.315 431.283 398.315 427.845 401.752 427.845 296.335 434.72 296.335 434.72 405.19 27.4164 405.19 27.4164 0 30.8539 3.4375 0 3.4375ZM417.533 300.918 431.283 273.418 445.033 300.918Z" transform="matrix(1.83697e-16 1 1 -1.83697e-16 2543.5 1641.5)"/><path d="M0-3.4375 39.353-3.4375 39.353 355.919 35.9155 352.482 271.819 352.482 268.382 355.919 268.382 296.335 275.257 296.335 275.257 359.357 32.478 359.357 32.478 0 35.9155 3.4375 0 3.4375ZM258.069 300.918 271.819 273.418 285.569 300.918Z" transform="matrix(1.83697e-16 1 1 -1.83697e-16 2543.5 1800.5)"/></g></svg>