<svg width="3162" height="1148" xmlns="http://www.w3.org/2000/svg" xmlns:xlink="http://www.w3.org/1999/xlink" overflow="hidden"><defs><clipPath id="clip0"><rect x="72" y="1231" width="3162" height="1148"/></clipPath></defs><g clip-path="url(#clip0)" transform="translate(-72 -1231)"><path d="M440.5 1375.44C440.5 1297.6 503.599 1234.5 581.437 1234.5L2782.56 1234.5C2860.4 1234.5 2923.5 1297.6 2923.5 1375.44L2923.5 2234.56C2923.5 2312.4 2860.4 2375.5 2782.56 2375.5L581.437 2375.5C503.599 2375.5 440.5 2312.4 440.5 2234.56Z" stroke="#BFBFBF" stroke-width="6.875" stroke-miterlimit="8" fill="#D9D9D9" fill-rule="evenodd"/><text font-family="Calibri,Calibri_MSFontService,sans-serif" font-weight="400" font-size="83" transform="matrix(1 0 0 1 481.666 1352)">Attentive Fusion<tspan font-size="83" x="563.773" y="0">Module (AFM)</tspan></text><path d="M1747.5 1487.5C1747.5 1448.84 1778.84 1417.5 1817.5 1417.5L2828.5 1417.5C2867.16 1417.5 2898.5 1448.84 2898.5 1487.5L2898.5 2207.5C2898.5 2246.16 2867.16 2277.5 2828.5 2277.5L1817.5 2277.5C1778.84 2277.5 1747.5 2246.16 1747.5 2207.5Z" stroke="#000000" stroke-width="6.875" stroke-miterlimit="8" stroke-dasharray="27.5 20.625" fill="#FFFFFF" fill-rule="evenodd"/><text font-family="Calibri,Calibri_MSFontService,sans-serif" font-weight="400" font-size="83" transform="matrix(1 0 0 1 1800.74 1531)">Post<tspan font-size="83" x="142.954" y="0">-</tspan><tspan font-size="83" x="168.162" y="0">Processing</tspan></text><path d="M477.5 1487.5C477.5 1448.84 508.842 1417.5 547.504 1417.5L1651.5 1417.5C1690.16 1417.5 1721.5 1448.84 1721.5 1487.5L1721.5 2207.5C1721.5 2246.16 1690.16 2277.5 1651.5 2277.5L547.504 2277.5C508.842 2277.5 477.5 2246.16 477.5 2207.5Z" stroke="#000000" stroke-width="6.875" stroke-miterlimit="8" stroke-dasharray="27.5 20.625" fill="#FFFFFF" fill-rule="evenodd"/><text font-family="Calibri,Calibri_MSFontService,sans-serif" font-weight="400" font-size="83" transform="matrix(1 0 0 1 530.969 1531)">Non<tspan font-size="83" x="140.365" y="0">-</tspan><tspan font-size="83" x="165.573" y="0">local Block</tspan></text><path d="M75.5001 1697.25C75.5001 1691.31 80.3138 1686.5 86.2518 1686.5L273.748 1686.5C279.686 1686.5 284.5 1691.31 284.5 1697.25L284.5 1794.75C284.5 1800.69 279.686 1805.5 273.748 1805.5L86.2518 1805.5C80.3138 1805.5 75.5001 1800.69 75.5001 1794.75Z" stroke="#000000" stroke-width="6.875" stroke-miterlimit="8" fill="#FBE5D6" fill-rule="evenodd"/><path d="M125.391 1721.98 154.954 1721.98 152.735 1732.04 148.735 1732.04C148.631 1730.06 148.443 1728.68 148.172 1727.89 147.901 1727.09 147.485 1726.52 146.922 1726.17 146.36 1725.81 145.568 1725.64 144.547 1725.64L137.485 1725.64 134.047 1741.26 138.235 1741.26C139.464 1741.26 140.459 1740.86 141.219 1740.07 141.98 1739.28 142.745 1738 143.516 1736.23L146.954 1736.23 143.672 1750.17 140.454 1750.17C140.454 1748.71 140.375 1747.62 140.219 1746.92 140.063 1746.21 139.787 1745.7 139.391 1745.39 138.995 1745.07 138.381 1744.92 137.547 1744.92L133.266 1744.92 130.766 1756.2C130.62 1756.86 130.516 1757.44 130.454 1757.93 130.391 1758.42 130.36 1759.06 130.36 1759.85 130.36 1760.81 130.605 1761.49 131.094 1761.89 131.584 1762.28 132.349 1762.51 133.391 1762.57L132.954 1764.64 116.797 1764.64 117.235 1762.57C118.422 1762.24 119.297 1761.66 119.86 1760.82 120.422 1759.99 120.954 1758.45 121.454 1756.2L127.141 1730.42C127.412 1729.19 127.547 1727.97 127.547 1726.76 127.547 1725.89 127.344 1725.24 126.938 1724.84 126.532 1724.43 125.87 1724.17 124.954 1724.04Z" fill-rule="evenodd"/><text fill="#000000" fill-opacity="0" font-family="Arial,Arial_MSFontService,sans-serif" font-size="42.6562" x="116.797" y="1759.3">ğ‘­</text><path d="M231.121 1757.96C230.111 1757.96 229.082 1758.45 228.034 1759.44 226.986 1760.43 226.148 1761.57 225.521 1762.87 224.894 1764.17 224.32 1766.01 223.8 1768.38L223.616 1769.23C223.371 1770.36 223.249 1771.47 223.249 1772.56 223.249 1773.67 223.436 1774.48 223.811 1774.97 224.186 1775.46 224.817 1775.7 225.704 1775.7 226.469 1775.7 227.166 1775.53 227.793 1775.18 228.42 1774.84 229.013 1774.28 229.571 1773.5 230.13 1772.72 230.673 1771.71 231.201 1770.48 231.729 1769.25 232.184 1767.78 232.566 1766.06 232.949 1764.35 233.14 1762.76 233.14 1761.29 233.14 1760.16 232.976 1759.32 232.647 1758.78 232.318 1758.23 231.809 1757.96 231.121 1757.96ZM200.222 1756.97C198.845 1756.97 197.606 1757.66 196.504 1759.04 195.403 1760.42 194.504 1762.33 193.808 1764.78 193.112 1767.23 192.764 1769.43 192.764 1771.39 192.764 1772.5 192.928 1773.34 193.257 1773.89 193.586 1774.44 194.095 1774.71 194.783 1774.71 195.441 1774.71 196.107 1774.5 196.78 1774.08 197.453 1773.66 198.16 1773.01 198.903 1772.13 199.645 1771.25 200.268 1770.19 200.773 1768.95 201.278 1767.71 201.729 1766.15 202.127 1764.27L202.31 1763.42C202.555 1762.29 202.678 1761.19 202.678 1760.12 202.678 1759.06 202.486 1758.27 202.104 1757.75 201.721 1757.23 201.094 1756.97 200.222 1756.97ZM199.993 1754.59C201.079 1754.59 202.077 1754.71 202.987 1754.94 203.898 1755.18 204.827 1755.61 205.776 1756.24L207.841 1754.59 210.412 1754.95 208.438 1763.93C208.117 1765.4 207.826 1766.8 207.566 1768.15 206.74 1772.34 206.166 1775.14 205.845 1776.53 205.279 1778.9 204.697 1780.69 204.101 1781.9 203.473 1783.17 202.662 1784.25 201.668 1785.14 200.673 1786.04 199.427 1786.72 197.927 1787.18 196.214 1787.71 194.133 1787.98 191.685 1787.98 188.441 1787.98 186.009 1787.55 184.387 1786.68 182.765 1785.82 181.955 1784.52 181.955 1782.79 181.955 1781.84 182.291 1780.95 182.964 1780.11 183.637 1779.27 184.632 1778.46 185.948 1777.7L188.334 1779.63C187.921 1780.13 187.634 1780.6 187.474 1781.05 187.313 1781.49 187.233 1781.97 187.233 1782.49 187.233 1783.53 187.596 1784.31 188.323 1784.82 189.05 1785.34 190.14 1785.59 191.593 1785.59 193.934 1785.59 195.785 1784.72 197.147 1782.96 198.509 1781.21 199.671 1778.01 200.635 1773.36L200.337 1773.15C198.99 1774.87 197.698 1776.12 196.458 1776.91 195.219 1777.69 193.735 1778.09 192.006 1778.09 190.293 1778.09 188.95 1777.46 187.979 1776.21 187.007 1774.95 186.521 1773.14 186.521 1770.77 186.521 1768.67 186.827 1766.6 187.439 1764.56 188.051 1762.52 188.92 1760.76 190.044 1759.29 191.169 1757.82 192.569 1756.67 194.244 1755.84 195.919 1755 197.835 1754.59 199.993 1754.59ZM164.62 1754.59C165.889 1754.59 166.903 1754.94 167.66 1755.65 168.418 1756.37 168.796 1757.3 168.796 1758.47 168.796 1758.88 168.712 1759.4 168.544 1760.03L168.727 1760.1C170.013 1758.29 171.359 1756.92 172.767 1755.99 174.174 1755.05 175.735 1754.59 177.448 1754.59 178.458 1754.59 179.529 1754.73 180.661 1755.02L179.307 1761.2 175.199 1761.2C175.199 1760.17 175.088 1759.46 174.866 1759.06 174.645 1758.67 174.266 1758.47 173.73 1758.47 173.317 1758.47 172.866 1758.61 172.376 1758.9 171.887 1759.19 171.302 1759.76 170.621 1760.6 169.94 1761.44 169.427 1762.25 169.083 1763.01 168.739 1763.78 168.437 1764.75 168.177 1765.95L165.583 1777.72 158.997 1777.72 162.692 1761.77C162.921 1760.78 163.036 1760.02 163.036 1759.5 163.036 1758.99 162.952 1758.6 162.784 1758.33 162.615 1758.05 162.325 1757.92 161.912 1757.92 161.437 1757.92 160.925 1758.13 160.374 1758.56 159.823 1758.99 159.181 1759.62 158.446 1760.46L156.794 1758.81C158.324 1757.25 159.682 1756.16 160.867 1755.53 162.053 1754.9 163.304 1754.59 164.62 1754.59ZM226.485 1744.86 229.17 1744.86 225.659 1758.9 225.957 1758.99C227.288 1757.43 228.539 1756.31 229.709 1755.62 230.88 1754.93 232.276 1754.59 233.897 1754.59 235.642 1754.59 236.992 1755.22 237.948 1756.47 238.904 1757.72 239.382 1759.54 239.382 1761.91 239.382 1763.25 239.222 1764.74 238.9 1766.35 238.579 1767.96 238.128 1769.39 237.546 1770.64 236.965 1771.89 236.269 1772.98 235.458 1773.91 234.647 1774.84 233.741 1775.62 232.738 1776.23 231.736 1776.84 230.654 1777.3 229.491 1777.62 228.328 1777.93 227.081 1778.09 225.75 1778.09 224.741 1778.09 223.777 1777.97 222.859 1777.72 221.941 1777.48 220.992 1777.05 220.013 1776.44L217.879 1778.09 215.377 1777.72 221.184 1751.79C221.505 1750.35 221.665 1749.26 221.665 1748.51 221.665 1748.03 221.593 1747.69 221.447 1747.47 221.302 1747.26 221.107 1747.11 220.862 1747.01 220.617 1746.92 220.12 1746.82 219.371 1746.72L219.738 1745.22Z" fill-rule="evenodd"/><text fill="#000000" fill-opacity="0" font-family="Arial,Arial_MSFontService,sans-serif" font-size="43.1216" x="156.794" y="1782.59">ğ’“ğ’ˆğ’ƒ</text><path d="M75.5001 1954.16C75.5001 1948.27 80.2733 1943.5 86.1613 1943.5L273.839 1943.5C279.727 1943.5 284.5 1948.27 284.5 1954.16L284.5 2050.84C284.5 2056.73 279.727 2061.5 273.839 2061.5L86.1613 2061.5C80.2733 2061.5 75.5001 2056.73 75.5001 2050.84Z" stroke="#000000" stroke-width="6.875" stroke-miterlimit="8" fill="#FACBCA" fill-rule="evenodd"/><path d="M121.828 1978.12 151.39 1978.12 149.172 1988.18 145.172 1988.18C145.068 1986.2 144.88 1984.82 144.609 1984.03 144.338 1983.24 143.922 1982.66 143.359 1982.31 142.797 1981.95 142.005 1981.78 140.984 1981.78L133.922 1981.78 130.484 1997.4 134.672 1997.4C135.901 1997.4 136.896 1997.01 137.656 1996.21 138.416 1995.42 139.182 1994.14 139.953 1992.37L143.39 1992.37 140.109 2006.31 136.89 2006.31C136.89 2004.85 136.812 2003.77 136.656 2003.06 136.5 2002.35 136.224 2001.84 135.828 2001.53 135.432 2001.21 134.818 2001.06 133.984 2001.06L129.703 2001.06 127.203 2012.34C127.057 2013.01 126.953 2013.58 126.89 2014.07 126.828 2014.56 126.797 2015.2 126.797 2016 126.797 2016.95 127.041 2017.63 127.531 2018.03 128.021 2018.42 128.786 2018.65 129.828 2018.71L129.39 2020.78 113.234 2020.78 113.672 2018.71C114.859 2018.38 115.734 2017.8 116.297 2016.96 116.859 2016.13 117.39 2014.59 117.89 2012.34L123.578 1986.56C123.849 1985.33 123.984 1984.11 123.984 1982.9 123.984 1982.03 123.781 1981.39 123.375 1980.98 122.969 1980.57 122.307 1980.31 121.39 1980.18Z" fill-rule="evenodd"/><text fill="#000000" fill-opacity="0" font-family="Arial,Arial_MSFontService,sans-serif" font-size="42.6562" x="113.234" y="2015.45">ğ‘­</text><path d="M171.2 2014.1C170.19 2014.1 169.161 2014.6 168.113 2015.58 167.065 2016.57 166.228 2017.71 165.6 2019.01 164.973 2020.31 164.399 2022.15 163.879 2024.52L163.696 2025.37C163.451 2026.5 163.328 2027.61 163.328 2028.7 163.328 2029.82 163.516 2030.62 163.891 2031.11 164.266 2031.6 164.897 2031.84 165.784 2031.84 166.549 2031.84 167.245 2031.67 167.872 2031.33 168.5 2030.98 169.093 2030.42 169.651 2029.64 170.209 2028.86 170.753 2027.85 171.28 2026.62 171.808 2025.39 172.263 2023.92 172.646 2022.2 173.028 2020.49 173.22 2018.9 173.22 2017.43 173.22 2016.3 173.055 2015.46 172.726 2014.92 172.397 2014.37 171.888 2014.1 171.2 2014.1ZM248.744 2013.12C247.322 2013.12 246.04 2013.82 244.9 2015.23 243.761 2016.64 242.824 2018.69 242.089 2021.38 244.904 2021.3 247.058 2020.76 248.549 2019.76 250.041 2018.76 250.787 2017.34 250.787 2015.5 250.787 2014.72 250.607 2014.13 250.248 2013.72 249.888 2013.32 249.387 2013.12 248.744 2013.12ZM197.194 2013.12C195.909 2013.12 194.795 2013.74 193.855 2014.99 192.914 2016.23 192.103 2018.16 191.422 2020.77 190.741 2023.38 190.401 2025.64 190.401 2027.55 190.401 2028.99 190.634 2030.06 191.101 2030.78 191.567 2031.49 192.305 2031.84 193.315 2031.84 194.616 2031.84 195.744 2031.21 196.7 2029.95 197.656 2028.69 198.456 2026.78 199.098 2024.22 199.741 2021.67 200.062 2019.45 200.062 2017.57 200.062 2016.04 199.829 2014.91 199.362 2014.2 198.896 2013.48 198.173 2013.12 197.194 2013.12ZM249.318 2010.73C254 2010.73 256.341 2012.42 256.341 2015.8 256.341 2016.96 256.107 2017.99 255.641 2018.88 255.174 2019.76 254.398 2020.57 253.311 2021.29 252.225 2022.01 250.691 2022.59 248.71 2023.03 246.729 2023.47 244.338 2023.73 241.538 2023.79 241.339 2024.69 241.24 2025.62 241.24 2026.59 241.24 2028.01 241.538 2029.08 242.135 2029.8 242.732 2030.52 243.634 2030.88 244.843 2030.88 246.189 2030.88 247.406 2030.61 248.492 2030.06 249.578 2029.52 250.856 2028.55 252.325 2027.16L254.252 2029.09C252.707 2030.83 251.043 2032.13 249.261 2032.97 247.478 2033.81 245.547 2034.23 243.466 2034.23 241.676 2034.23 240.154 2033.92 238.899 2033.29 237.645 2032.66 236.7 2031.73 236.065 2030.5 235.43 2029.27 235.113 2027.8 235.113 2026.08 235.113 2025.29 235.22 2024.27 235.434 2023.03 235.725 2021.35 236.168 2019.85 236.765 2018.53 237.515 2016.91 238.494 2015.52 239.702 2014.36 240.911 2013.19 242.33 2012.3 243.96 2011.67 245.589 2011.04 247.375 2010.73 249.318 2010.73ZM223.276 2010.73C224.454 2010.73 225.72 2010.83 227.074 2011.02 228.428 2011.21 229.663 2011.46 230.78 2011.79L229.587 2017.27 226.672 2017.27C226.534 2015.85 226.171 2014.8 225.582 2014.13 224.993 2013.45 224.148 2013.12 223.046 2013.12 222.021 2013.12 221.199 2013.38 220.579 2013.91 219.96 2014.44 219.65 2015.15 219.65 2016.05 219.65 2016.85 219.91 2017.55 220.43 2018.14 220.95 2018.74 221.96 2019.49 223.459 2020.39 225.081 2021.36 226.244 2022.35 226.948 2023.37 227.651 2024.4 228.003 2025.6 228.003 2026.98 228.003 2028.54 227.586 2029.87 226.753 2030.97 225.919 2032.07 224.779 2032.89 223.333 2033.43 221.887 2033.96 220.239 2034.23 218.388 2034.23 215.419 2034.23 212.574 2033.86 209.85 2033.13L211.136 2027.44 214.05 2027.44C214.127 2028.81 214.482 2029.89 215.117 2030.67 215.752 2031.45 216.728 2031.84 218.043 2031.84 219.252 2031.84 220.185 2031.55 220.843 2030.96 221.501 2030.37 221.83 2029.54 221.83 2028.47 221.83 2027.83 221.723 2027.28 221.509 2026.84 221.294 2026.4 220.943 2025.96 220.453 2025.54 219.963 2025.12 219.168 2024.58 218.066 2023.9 216.536 2022.98 215.423 2022.03 214.727 2021.05 214.031 2020.06 213.683 2018.95 213.683 2017.73 213.683 2015.48 214.524 2013.75 216.207 2012.54 217.89 2011.33 220.246 2010.73 223.276 2010.73ZM197.721 2010.73C199.619 2010.73 201.21 2011.08 202.495 2011.77 203.78 2012.47 204.732 2013.44 205.352 2014.68 205.972 2015.92 206.282 2017.35 206.282 2018.99 206.282 2021.01 205.945 2023.04 205.272 2025.07 204.599 2027.11 203.669 2028.81 202.483 2030.19 201.298 2031.57 199.894 2032.59 198.272 2033.24 196.651 2033.9 194.815 2034.23 192.764 2034.23 191.082 2034.23 189.601 2033.93 188.324 2033.32 187.046 2032.72 186.044 2031.8 185.317 2030.57 184.591 2029.34 184.227 2027.83 184.227 2026.06 184.227 2024.25 184.51 2022.36 185.076 2020.38 185.643 2018.4 186.522 2016.65 187.716 2015.15 188.909 2013.64 190.351 2012.53 192.042 2011.81 193.732 2011.09 195.625 2010.73 197.721 2010.73ZM161.079 2010.73C162.349 2010.73 163.363 2011.09 164.12 2011.8 164.878 2012.51 165.256 2013.45 165.256 2014.61 165.256 2014.99 165.21 2015.36 165.118 2015.71L165.348 2015.89C166.756 2014.1 168.117 2012.8 169.433 2011.97 170.749 2011.14 172.271 2010.73 174 2010.73 175.729 2010.73 177.071 2011.36 178.027 2012.61 178.984 2013.87 179.462 2015.68 179.462 2018.05 179.462 2020.12 179.163 2022.17 178.567 2024.2 177.97 2026.24 177.113 2027.99 175.996 2029.47 174.88 2030.94 173.476 2032.11 171.785 2032.96 170.095 2033.81 168.186 2034.23 166.059 2034.23 164.698 2034.23 163.382 2033.99 162.112 2033.52L161.24 2037.6C161.102 2038.28 161.003 2038.8 160.942 2039.18 160.881 2039.55 160.85 2039.9 160.85 2040.22 160.85 2040.88 161.022 2041.35 161.366 2041.64 161.711 2041.93 162.303 2042.12 163.145 2042.22L162.892 2043.73 153.346 2043.73 159.152 2017.91C159.381 2016.89 159.496 2016.13 159.496 2015.64 159.496 2015.14 159.412 2014.75 159.243 2014.47 159.075 2014.2 158.784 2014.06 158.371 2014.06 157.897 2014.06 157.385 2014.27 156.834 2014.7 156.283 2015.13 155.64 2015.76 154.906 2016.6L153.254 2014.95C154.784 2013.39 156.141 2012.3 157.327 2011.67 158.513 2011.04 159.764 2010.73 161.079 2010.73Z" fill-rule="evenodd"/><text fill="#000000" fill-opacity="0" font-family="Arial,Arial_MSFontService,sans-serif" font-size="33.001" x="153.254" y="2039.61">ğ’‘ğ’ğ’”ğ’†</text><path d="M341.945 1849.43C343.841 1849.43 345.591 1849.52 347.195 1849.72 348.799 1849.92 350.633 1850.29 352.695 1850.83L352.695 1859.49 349.601 1859.49C349.101 1857.68 348.466 1856.23 347.695 1855.16 346.924 1854.09 346.028 1853.32 345.008 1852.86 343.987 1852.4 342.758 1852.18 341.32 1852.18 339.174 1852.18 337.263 1852.89 335.586 1854.32 333.909 1855.74 332.591 1857.89 331.633 1860.75 330.674 1863.62 330.195 1867.08 330.195 1871.14 330.195 1875.23 330.591 1878.71 331.383 1881.6 332.174 1884.48 333.341 1886.66 334.883 1888.13 336.424 1889.6 338.32 1890.33 340.57 1890.33 342.278 1890.33 343.674 1890.09 344.758 1889.6 345.841 1889.11 346.752 1888.33 347.492 1887.27 348.232 1886.21 348.935 1884.64 349.601 1882.58L352.695 1882.58 352.695 1891.52C350.737 1892.04 348.732 1892.43 346.68 1892.69 344.627 1892.95 342.372 1893.08 339.914 1893.08 334.622 1893.08 330.622 1891.29 327.914 1887.71 325.206 1884.12 323.851 1878.78 323.851 1871.68 323.851 1867.22 324.555 1863.31 325.961 1859.96 327.367 1856.6 329.435 1854.01 332.164 1852.18 334.893 1850.34 338.153 1849.43 341.945 1849.43Z" fill-rule="evenodd"/><text fill="#000000" fill-opacity="0" font-family="Arial,Arial_MSFontService,sans-serif" font-size="43.6562" x="323.851" y="1887.62">C</text><path d="M304.5 1870C304.5 1849.84 320.842 1833.5 341 1833.5 361.158 1833.5 377.5 1849.84 377.5 1870 377.5 1890.16 361.158 1906.5 341 1906.5 320.842 1906.5 304.5 1890.16 304.5 1870Z" stroke="#000000" stroke-width="6.875" stroke-miterlimit="8" fill="none" fill-rule="evenodd"/><path d="M1783.71 1311.01C1785.6 1311.01 1787.35 1311.1 1788.96 1311.3 1790.56 1311.5 1792.39 1311.87 1794.46 1312.41L1794.46 1321.07 1791.36 1321.07C1790.86 1319.26 1790.23 1317.81 1789.46 1316.74 1788.68 1315.67 1787.79 1314.9 1786.77 1314.44 1785.75 1313.98 1784.52 1313.76 1783.08 1313.76 1780.93 1313.76 1779.02 1314.47 1777.35 1315.9 1775.67 1317.32 1774.35 1319.47 1773.39 1322.33 1772.43 1325.2 1771.96 1328.66 1771.96 1332.72 1771.96 1336.81 1772.35 1340.29 1773.14 1343.18 1773.93 1346.06 1775.1 1348.24 1776.64 1349.71 1778.18 1351.18 1780.08 1351.91 1782.33 1351.91 1784.04 1351.91 1785.43 1351.67 1786.52 1351.18 1787.6 1350.69 1788.51 1349.91 1789.25 1348.85 1789.99 1347.79 1790.7 1346.22 1791.36 1344.16L1794.46 1344.16 1794.46 1353.1C1792.5 1353.62 1790.49 1354.01 1788.44 1354.27 1786.39 1354.53 1784.13 1354.66 1781.67 1354.66 1776.38 1354.66 1772.38 1352.87 1769.67 1349.29 1766.97 1345.7 1765.61 1340.36 1765.61 1333.26 1765.61 1328.8 1766.32 1324.89 1767.72 1321.54 1769.13 1318.18 1771.2 1315.59 1773.92 1313.76 1776.65 1311.92 1779.91 1311.01 1783.71 1311.01Z" fill-rule="evenodd"/><text fill="#000000" fill-opacity="0" font-family="Arial,Arial_MSFontService,sans-serif" font-size="43.6562" x="1765.61" y="1349.2">C</text><path d="M1745.5 1332C1745.5 1311.84 1761.84 1295.5 1782 1295.5 1802.16 1295.5 1818.5 1311.84 1818.5 1332 1818.5 1352.16 1802.16 1368.5 1782 1368.5 1761.84 1368.5 1745.5 1352.16 1745.5 1332Z" stroke="#000000" stroke-width="6.875" stroke-miterlimit="8" fill="none" fill-rule="evenodd"/><text font-family="Arial,Arial_MSFontService,sans-serif" font-weight="400" font-size="83" transform="matrix(1 0 0 1 1832.91 1360)">: channel<tspan font-size="83" x="334.583" y="0">-</tspan>wise concatenate</text><path d="M1197.5 1747C1197.5 1726.84 1213.84 1710.5 1234 1710.5 1254.16 1710.5 1270.5 1726.84 1270.5 1747 1270.5 1767.16 1254.16 1783.5 1234 1783.5 1213.84 1783.5 1197.5 1767.16 1197.5 1747Z" stroke="#000000" stroke-width="6.875" stroke-miterlimit="8" fill="none" fill-rule="evenodd"/><path d="M1243 1746.5C1243 1751.75 1238.75 1756 1233.5 1756 1228.25 1756 1224 1751.75 1224 1746.5 1224 1741.25 1228.25 1737 1233.5 1737 1238.75 1737 1243 1741.25 1243 1746.5Z" fill-rule="evenodd"/><path d="M1326.5 1699.07C1326.5 1693.23 1331.23 1688.5 1337.07 1688.5L1613.93 1688.5C1619.77 1688.5 1624.5 1693.23 1624.5 1699.07L1624.5 1794.93C1624.5 1800.77 1619.77 1805.5 1613.93 1805.5L1337.07 1805.5C1331.23 1805.5 1326.5 1800.77 1326.5 1794.93Z" stroke="#000000" stroke-width="6.875" stroke-miterlimit="8" fill="#FFE59D" fill-rule="evenodd"/><text font-family="Calibri,Calibri_MSFontService,sans-serif" font-weight="400" font-size="64" transform="matrix(1 0 0 1 1367.9 1768)">Softmax</text><path d="M1624.5 1977C1624.5 1956.84 1640.84 1940.5 1661 1940.5 1681.16 1940.5 1697.5 1956.84 1697.5 1977 1697.5 1997.16 1681.16 2013.5 1661 2013.5 1640.84 2013.5 1624.5 1997.16 1624.5 1977Z" stroke="#000000" stroke-width="6.875" stroke-miterlimit="8" fill="none" fill-rule="evenodd"/><path d="M1670 1977C1670 1982.52 1665.75 1987 1660.5 1987 1655.25 1987 1651 1982.52 1651 1977 1651 1971.48 1655.25 1967 1660.5 1967 1665.75 1967 1670 1971.48 1670 1977Z" fill-rule="evenodd"/><path d="M1789.5 1928.25C1789.5 1922.31 1794.31 1917.5 1800.25 1917.5L2017.75 1917.5C2023.69 1917.5 2028.5 1922.31 2028.5 1928.25L2028.5 2025.75C2028.5 2031.69 2023.69 2036.5 2017.75 2036.5L1800.25 2036.5C1794.31 2036.5 1789.5 2031.69 1789.5 2025.75Z" stroke="#000000" stroke-width="6.875" stroke-miterlimit="8" fill="#E6CCFC" fill-rule="evenodd"/><text font-family="Calibri,Calibri_MSFontService,sans-serif" font-weight="400" font-size="64" transform="matrix(1 0 0 1 1834.2 1998)">Norm</text><path d="M595.5 1594.83C595.5 1580.29 607.29 1568.5 621.834 1568.5L807.166 1568.5C821.71 1568.5 833.5 1580.29 833.5 1594.83L833.5 1700.17C833.5 1714.71 821.71 1726.5 807.166 1726.5L621.834 1726.5C607.29 1726.5 595.5 1714.71 595.5 1700.17Z" stroke="#000000" stroke-width="6.875" stroke-miterlimit="8" fill="#F6C09C" fill-rule="evenodd"/><text font-family="Calibri,Calibri_MSFontService,sans-serif" font-weight="400" font-size="64" transform="matrix(1 0 0 1 637.154 1630)">1x1x1 <tspan font-size="64" x="11.9854" y="77">Conv</tspan></text><path d="M2336.5 2131.34C2336.5 2125.35 2341.35 2120.5 2347.34 2120.5L2534.66 2120.5C2540.65 2120.5 2545.5 2125.35 2545.5 2131.34L2545.5 2229.66C2545.5 2235.65 2540.65 2240.5 2534.66 2240.5L2347.34 2240.5C2341.35 2240.5 2336.5 2235.65 2336.5 2229.66Z" stroke="#000000" stroke-width="6.875" stroke-miterlimit="8" fill="#D8E7F5" fill-rule="evenodd"/><text font-family="Calibri,Calibri_MSFontService,sans-serif" font-weight="400" font-size="64" transform="matrix(1 0 0 1 2383.94 2202)">Sum</text><path d="M284.5 1743.06 343.773 1743.06 343.773 1811.26 336.898 1811.26 336.898 1746.5 340.335 1749.94 284.5 1749.94ZM354.085 1806.68 340.335 1834.18 326.585 1806.68Z"/><path d="M0-3.4375 59.2726-3.4375 59.2726 72.3304 52.3976 72.3304 52.3976 0 55.8351 3.4375 0 3.4375ZM69.5851 67.7471 55.8351 95.2471 42.0851 67.7471Z" transform="matrix(1 0 0 -1 284.5 2001.75)"/><path d="M0-3.4375 139.382-3.4375 139.382 223.151 135.944 219.714 195.689 219.714 195.689 226.589 132.507 226.589 132.507 0 135.944 3.4375 0 3.4375ZM191.106 209.401 218.606 223.151 191.106 236.901Z" transform="matrix(1 0 0 -1 377.5 1870.65)"/><path d="M377.5 1867.06 516.88 1867.06 516.88 2092.76 513.442 2089.32 573.189 2089.32 573.189 2096.2 510.005 2096.2 510.005 1870.5 513.442 1873.94 377.5 1873.94ZM568.606 2079.01 596.106 2092.76 568.606 2106.51Z"/><path d="M377.5 1867.06 412.087 1867.06 412.087 2323.4 408.65 2319.96 2441.81 2319.96 2438.37 2323.4 2438.37 2263.82 2445.25 2263.82 2445.25 2326.84 405.212 2326.84 405.212 1870.5 408.65 1873.94 377.5 1873.94ZM2428.06 2268.4 2441.81 2240.9 2455.56 2268.4Z"/><path d="M392.5 1867.06 572.607 1867.06 572.607 1873.94 392.5 1873.94ZM568.024 1856.75 595.524 1870.5 568.024 1884.25Z"/><path d="M0.013725-3.43747 36.2103-3.29295 36.1829 3.582-0.013725 3.43747ZM31.6682-13.6237 59.1131 0.236024 31.5584 13.8761Z" transform="matrix(1 0 0 -1 833.5 1869.74)"/><path d="M833.541 2089.06 868.1 2089.48 868.017 2096.35 833.459 2095.94ZM863.64 2079.11 890.974 2093.19 863.311 2106.61Z"/><path d="M1189.5 1644.06 1237.56 1644.06 1237.56 1687.68 1230.68 1687.68 1230.68 1647.5 1234.12 1650.94 1189.5 1650.94ZM1247.87 1683.09 1234.12 1710.59 1220.37 1683.09Z"/><path d="M0-3.4375 46.4162-3.4375 46.4162 63.5517 39.5412 63.5517 39.5412 0 42.9787 3.4375 0 3.4375ZM56.7287 58.9684 42.9787 86.4684 29.2287 58.9684Z" transform="matrix(1 0 0 -1 1191.5 1869.97)"/><path d="M1270.5 1743.06 1303.28 1743.06 1303.28 1749.94 1270.5 1749.94ZM1298.69 1732.75 1326.19 1746.5 1298.69 1760.25Z"/><path d="M1624.5 1743.06 1664.39 1743.06 1664.39 1917.54 1657.52 1917.54 1657.52 1746.5 1660.96 1749.94 1624.5 1749.94ZM1674.71 1912.95 1660.96 1940.45 1647.21 1912.95Z"/><path d="M0-3.4375 474.876-3.4375 474.876 56.5988 468.001 56.5988 468.001 0 471.438 3.4375 0 3.4375ZM485.188 52.0154 471.438 79.5154 457.688 52.0154Z" transform="matrix(1 0 0 -1 1189.5 2093.02)"/><path d="M1697.5 1974.06 1767.03 1974.06 1767.03 1980.94 1697.5 1980.94ZM1762.44 1963.75 1789.94 1977.5 1762.44 1991.25Z"/><path d="M2028.54 1974.06 2066.07 1974.54 2065.99 1981.42 2028.46 1980.94ZM2061.62 1964.17 2088.95 1978.27 2061.27 1991.67Z"/><path d="M2326.5 1975.06 2444.92 1975.06 2444.92 2098.09 2438.05 2098.09 2438.05 1978.5 2441.49 1981.94 2326.5 1981.94ZM2455.24 2093.51 2441.49 2121.01 2427.74 2093.51Z"/><path d="M0.0160862-3.43746 41.1855-3.2448 41.1533 3.63012-0.0160862 3.43746ZM36.6505-13.5786 64.0858 0.299902 36.5218 13.9211Z" transform="matrix(1 0 0 -1 2545.5 2180.8)"/><path d="M0.010121-3.43749 100.892-3.14046 100.872 3.73451-0.010121 3.43749ZM96.339-13.4664 123.798 0.364501 96.258 14.0335Z" transform="matrix(1 0 0 -1 2847.5 2180.86)"/><text font-family="Calibri,Calibri_MSFontService,sans-serif" font-weight="400" font-size="64" transform="matrix(1 0 0 1 522.388 1622)">Q<tspan font-size="64" x="0" y="227">K</tspan><tspan font-size="64" x="0" y="454">V</tspan></text><path d="M595.5 1817C595.5 1802.36 607.365 1790.5 622 1790.5L807 1790.5C821.635 1790.5 833.5 1802.36 833.5 1817L833.5 1923C833.5 1937.64 821.635 1949.5 807 1949.5L622 1949.5C607.365 1949.5 595.5 1937.64 595.5 1923Z" stroke="#000000" stroke-width="6.875" stroke-miterlimit="8" fill="#F6C09C" fill-rule="evenodd"/><text font-family="Calibri,Calibri_MSFontService,sans-serif" font-weight="400" font-size="64" transform="matrix(1 0 0 1 637.154 1853)">1x1x1 <tspan font-size="64" x="11.9854" y="77">Conv</tspan></text><path d="M595.5 2039.83C595.5 2025.29 607.29 2013.5 621.834 2013.5L807.166 2013.5C821.71 2013.5 833.5 2025.29 833.5 2039.83L833.5 2145.17C833.5 2159.71 821.71 2171.5 807.166 2171.5L621.834 2171.5C607.29 2171.5 595.5 2159.71 595.5 2145.17Z" stroke="#000000" stroke-width="6.875" stroke-miterlimit="8" fill="#F6C09C" fill-rule="evenodd"/><text font-family="Calibri,Calibri_MSFontService,sans-serif" font-weight="400" font-size="64" transform="matrix(1 0 0 1 637.154 2075)">1x1x1 <tspan font-size="64" x="11.9854" y="77">Conv</tspan></text><path d="M891.5 1599.16C891.5 1593.27 896.273 1588.5 902.161 1588.5L1178.84 1588.5C1184.73 1588.5 1189.5 1593.27 1189.5 1599.16L1189.5 1695.84C1189.5 1701.73 1184.73 1706.5 1178.84 1706.5L902.161 1706.5C896.273 1706.5 891.5 1701.73 891.5 1695.84Z" stroke="#000000" stroke-width="6.875" stroke-miterlimit="8" fill="#D5EEF9" fill-rule="evenodd"/><text font-family="Calibri,Calibri_MSFontService,sans-serif" font-weight="400" font-size="64" transform="matrix(1 0 0 1 935.054 1668)">reshape</text><path d="M892.5 1822.07C892.5 1816.23 897.233 1811.5 903.071 1811.5L1180.93 1811.5C1186.77 1811.5 1191.5 1816.23 1191.5 1822.07L1191.5 1917.93C1191.5 1923.77 1186.77 1928.5 1180.93 1928.5L903.071 1928.5C897.233 1928.5 892.5 1923.77 892.5 1917.93Z" stroke="#000000" stroke-width="6.875" stroke-miterlimit="8" fill="#D5EEF9" fill-rule="evenodd"/><text font-family="Calibri,Calibri_MSFontService,sans-serif" font-weight="400" font-size="64" transform="matrix(1 0 0 1 936.693 1891)">reshape</text><path d="M891.5 2045.16C891.5 2039.27 896.273 2034.5 902.161 2034.5L1178.84 2034.5C1184.73 2034.5 1189.5 2039.27 1189.5 2045.16L1189.5 2141.84C1189.5 2147.73 1184.73 2152.5 1178.84 2152.5L902.161 2152.5C896.273 2152.5 891.5 2147.73 891.5 2141.84Z" stroke="#000000" stroke-width="6.875" stroke-miterlimit="8" fill="#D5EEF9" fill-rule="evenodd"/><text font-family="Calibri,Calibri_MSFontService,sans-serif" font-weight="400" font-size="64" transform="matrix(1 0 0 1 935.054 2114)">reshape</text><path d="M833.5 1644.06 868.057 1644.06 868.057 1650.94 833.5 1650.94ZM863.474 1633.75 890.974 1647.5 863.474 1661.25Z"/><path d="M2088.5 1925C2088.5 1910.36 2100.36 1898.5 2115 1898.5L2300 1898.5C2314.64 1898.5 2326.5 1910.36 2326.5 1925L2326.5 2031C2326.5 2045.63 2314.64 2057.5 2300 2057.5L2115 2057.5C2100.36 2057.5 2088.5 2045.63 2088.5 2031Z" stroke="#000000" stroke-width="6.875" stroke-miterlimit="8" fill="#F6C09C" fill-rule="evenodd"/><text font-family="Calibri,Calibri_MSFontService,sans-serif" font-weight="400" font-size="64" transform="matrix(1 0 0 1 2129.93 1961)">1x1x1 <tspan font-size="64" x="11.9854" y="77">Conv</tspan></text><path d="M2610.5 2127.83C2610.5 2113.29 2622.29 2101.5 2636.83 2101.5L2821.17 2101.5C2835.71 2101.5 2847.5 2113.29 2847.5 2127.83L2847.5 2233.17C2847.5 2247.71 2835.71 2259.5 2821.17 2259.5L2636.83 2259.5C2622.29 2259.5 2610.5 2247.71 2610.5 2233.17Z" stroke="#000000" stroke-width="6.875" stroke-miterlimit="8" fill="#F6C09C" fill-rule="evenodd"/><text font-family="Calibri,Calibri_MSFontService,sans-serif" font-weight="400" font-size="64" transform="matrix(1 0 0 1 2651.44 2163)">1x1x1 <tspan font-size="64" x="11.9856" y="77">Conv</tspan></text><path d="M2971.5 2131.25C2971.5 2125.31 2976.31 2120.5 2982.25 2120.5L3219.75 2120.5C3225.69 2120.5 3230.5 2125.31 3230.5 2131.25L3230.5 2228.75C3230.5 2234.69 3225.69 2239.5 3219.75 2239.5L2982.25 2239.5C2976.31 2239.5 2971.5 2234.69 2971.5 2228.75Z" stroke="#000000" stroke-width="6.875" stroke-miterlimit="8" fill="#FFBDDE" fill-rule="evenodd"/><path d="M3020.75 2155.8 3050.31 2155.8 3048.09 2165.87 3044.09 2165.87C3043.99 2163.89 3043.8 2162.5 3043.53 2161.71 3043.26 2160.92 3042.84 2160.34 3042.28 2159.99 3041.71 2159.64 3040.92 2159.46 3039.9 2159.46L3032.84 2159.46 3029.4 2175.08 3033.59 2175.08C3034.82 2175.08 3035.81 2174.69 3036.57 2173.9 3037.33 2173.1 3038.1 2171.82 3038.87 2170.05L3042.31 2170.05 3039.03 2183.99 3035.81 2183.99C3035.81 2182.53 3035.73 2181.45 3035.57 2180.74 3035.42 2180.03 3035.14 2179.52 3034.75 2179.21 3034.35 2178.9 3033.74 2178.74 3032.9 2178.74L3028.62 2178.74 3026.12 2190.02C3025.98 2190.69 3025.87 2191.27 3025.81 2191.76 3025.75 2192.25 3025.71 2192.89 3025.71 2193.68 3025.71 2194.64 3025.96 2195.31 3026.45 2195.71 3026.94 2196.1 3027.7 2196.33 3028.75 2196.4L3028.31 2198.46 3012.15 2198.46 3012.59 2196.4C3013.78 2196.06 3014.65 2195.48 3015.21 2194.65 3015.78 2193.81 3016.31 2192.27 3016.81 2190.02L3022.5 2164.24C3022.77 2163.01 3022.9 2161.79 3022.9 2160.58 3022.9 2159.71 3022.7 2159.07 3022.29 2158.66 3021.89 2158.26 3021.23 2157.99 3020.31 2157.87Z" fill-rule="evenodd"/><text fill="#000000" fill-opacity="0" font-family="Arial,Arial_MSFontService,sans-serif" font-size="42.6562" x="3012.15" y="2193.13">ğ‘­</text><path d="M3173.73 2190.8C3172.31 2190.8 3171.05 2191.51 3169.94 2192.94 3168.84 2194.37 3167.96 2196.3 3167.28 2198.72 3166.61 2201.13 3166.27 2203.3 3166.27 2205.21 3166.27 2206.33 3166.44 2207.16 3166.77 2207.71 3167.09 2208.26 3167.6 2208.54 3168.29 2208.54 3169.3 2208.54 3170.33 2208.04 3171.38 2207.06 3172.43 2206.07 3173.27 2204.91 3173.91 2203.58 3174.56 2202.25 3175.13 2200.43 3175.64 2198.12L3175.82 2197.27C3176.06 2196.14 3176.19 2195.01 3176.19 2193.9 3176.19 2192.87 3176 2192.1 3175.61 2191.58 3175.23 2191.06 3174.6 2190.8 3173.73 2190.8ZM3147.66 2190.8C3146.24 2190.8 3144.96 2191.5 3143.82 2192.91 3142.68 2194.32 3141.74 2196.37 3141.01 2199.06 3143.82 2198.98 3145.98 2198.44 3147.47 2197.44 3148.96 2196.44 3149.7 2195.02 3149.7 2193.19 3149.7 2192.41 3149.53 2191.81 3149.17 2191.41 3148.81 2191 3148.3 2190.8 3147.66 2190.8ZM3148.24 2188.41C3152.92 2188.41 3155.26 2190.1 3155.26 2193.48 3155.26 2194.65 3155.03 2195.67 3154.56 2196.56 3154.09 2197.45 3153.32 2198.25 3152.23 2198.97 3151.14 2199.69 3149.61 2200.27 3147.63 2200.71 3145.65 2201.16 3143.26 2201.41 3140.46 2201.47 3140.26 2202.37 3140.16 2203.31 3140.16 2204.27 3140.16 2205.69 3140.46 2206.76 3141.05 2207.48 3141.65 2208.2 3142.55 2208.56 3143.76 2208.56 3145.11 2208.56 3146.32 2208.29 3147.41 2207.75 3148.5 2207.2 3149.77 2206.24 3151.24 2204.84L3153.17 2206.77C3151.62 2208.52 3149.96 2209.81 3148.18 2210.65 3146.4 2211.49 3144.46 2211.91 3142.38 2211.91 3140.59 2211.91 3139.07 2211.6 3137.82 2210.97 3136.56 2210.34 3135.62 2209.41 3134.98 2208.18 3134.35 2206.95 3134.03 2205.48 3134.03 2203.76 3134.03 2202.97 3134.14 2201.95 3134.35 2200.71 3134.64 2199.03 3135.09 2197.53 3135.68 2196.21 3136.43 2194.59 3137.41 2193.2 3138.62 2192.04 3139.83 2190.88 3141.25 2189.98 3142.88 2189.35 3144.51 2188.73 3146.29 2188.41 3148.24 2188.41ZM3123.19 2188.41C3124.37 2188.41 3125.64 2188.51 3126.99 2188.7 3128.35 2188.89 3129.58 2189.15 3130.7 2189.47L3129.5 2194.95 3126.59 2194.95C3126.45 2193.53 3126.09 2192.48 3125.5 2191.81 3124.91 2191.14 3124.07 2190.8 3122.96 2190.8 3121.94 2190.8 3121.12 2191.06 3120.5 2191.59 3119.88 2192.12 3119.57 2192.83 3119.57 2193.74 3119.57 2194.53 3119.83 2195.23 3120.35 2195.82 3120.87 2196.42 3121.88 2197.17 3123.38 2198.07 3125 2199.04 3126.16 2200.03 3126.87 2201.06 3127.57 2202.08 3127.92 2203.28 3127.92 2204.66 3127.92 2206.22 3127.5 2207.55 3126.67 2208.65 3125.84 2209.75 3124.7 2210.57 3123.25 2211.11 3121.81 2211.64 3120.16 2211.91 3118.31 2211.91 3115.34 2211.91 3112.49 2211.54 3109.77 2210.81L3111.05 2205.12 3113.97 2205.12C3114.04 2206.5 3114.4 2207.57 3115.04 2208.35 3115.67 2209.14 3116.65 2209.53 3117.96 2209.53 3119.17 2209.53 3120.1 2209.23 3120.76 2208.64 3121.42 2208.05 3121.75 2207.22 3121.75 2206.15 3121.75 2205.51 3121.64 2204.97 3121.43 2204.52 3121.21 2204.08 3120.86 2203.65 3120.37 2203.23 3119.88 2202.8 3119.09 2202.26 3117.98 2201.58 3116.45 2200.67 3115.34 2199.71 3114.65 2198.73 3113.95 2197.74 3113.6 2196.64 3113.6 2195.41 3113.6 2193.16 3114.44 2191.43 3116.13 2190.22 3117.81 2189.02 3120.16 2188.41 3123.19 2188.41ZM3086.11 2188.41C3087.72 2188.41 3088.9 2188.82 3089.66 2189.63 3090.42 2190.44 3090.79 2191.62 3090.79 2193.16 3090.79 2194.25 3090.57 2195.66 3090.13 2197.41L3089.12 2201.26C3088.49 2203.67 3088.18 2205.42 3088.18 2206.52 3088.18 2207.88 3088.71 2208.56 3089.78 2208.56 3090.27 2208.56 3090.8 2208.38 3091.37 2208.01 3091.93 2207.64 3092.56 2207.08 3093.26 2206.32 3093.96 2205.57 3094.53 2204.73 3094.97 2203.81 3095.41 2202.89 3095.77 2201.81 3096.05 2200.55L3098.62 2188.78 3105.18 2188.78 3101.44 2204.68C3101.26 2205.46 3101.17 2206.24 3101.17 2207 3101.17 2207.51 3101.25 2207.9 3101.42 2208.17 3101.59 2208.45 3101.88 2208.58 3102.29 2208.58 3102.77 2208.58 3103.28 2208.37 3103.83 2207.94 3104.38 2207.51 3105.02 2206.88 3105.76 2206.04L3107.41 2207.69C3105.8 2209.3 3104.42 2210.4 3103.26 2211.01 3102.09 2211.61 3100.87 2211.91 3099.58 2211.91 3098.3 2211.91 3097.28 2211.56 3096.53 2210.84 3095.78 2210.13 3095.41 2209.2 3095.41 2208.03 3095.41 2207.65 3095.45 2207.28 3095.54 2206.93L3095.31 2206.75C3093.89 2208.51 3092.53 2209.81 3091.22 2210.65 3089.91 2211.49 3088.4 2211.91 3086.69 2211.91 3085.13 2211.91 3083.91 2211.47 3083.03 2210.58 3082.15 2209.69 3081.71 2208.48 3081.71 2206.95 3081.71 2206.47 3081.76 2205.85 3081.85 2205.12 3081.95 2204.38 3082.07 2203.73 3082.21 2203.17L3084.02 2196.01C3084.28 2194.98 3084.41 2194.09 3084.41 2193.32 3084.41 2192.73 3084.31 2192.31 3084.12 2192.08 3083.92 2191.85 3083.63 2191.74 3083.27 2191.74 3082.82 2191.74 3082.33 2191.95 3081.79 2192.37 3081.24 2192.79 3080.59 2193.43 3079.82 2194.29L3078.17 2192.63C3079.75 2191.06 3081.12 2189.96 3082.28 2189.34 3083.44 2188.72 3084.72 2188.41 3086.11 2188.41ZM3183.58 2178.68 3186.17 2178.68 3180.36 2204.38C3180.13 2205.39 3180.02 2206.27 3180.02 2207 3180.02 2207.51 3180.1 2207.9 3180.27 2208.17 3180.44 2208.45 3180.73 2208.58 3181.14 2208.58 3181.62 2208.58 3182.13 2208.37 3182.68 2207.94 3183.23 2207.51 3183.87 2206.88 3184.61 2206.04L3186.26 2207.69C3184.66 2209.3 3183.27 2210.4 3182.11 2211.01 3180.94 2211.61 3179.72 2211.91 3178.44 2211.91 3177.15 2211.91 3176.13 2211.56 3175.38 2210.84 3174.63 2210.13 3174.26 2209.2 3174.26 2208.03 3174.26 2207.65 3174.3 2207.28 3174.4 2206.93L3174.1 2206.86C3172.65 2208.62 3171.29 2209.9 3170.02 2210.71 3168.76 2211.51 3167.25 2211.91 3165.49 2211.91 3163.76 2211.91 3162.42 2211.28 3161.46 2210.03 3160.51 2208.78 3160.03 2206.96 3160.03 2204.59 3160.03 2202.53 3160.33 2200.48 3160.93 2198.44 3161.52 2196.41 3162.38 2194.65 3163.5 2193.17 3164.61 2191.7 3166.02 2190.53 3167.71 2189.69 3169.4 2188.84 3171.31 2188.41 3173.43 2188.41 3174.79 2188.41 3176.11 2188.65 3177.38 2189.12L3178.16 2185.61C3178.25 2185.23 3178.36 2184.68 3178.48 2183.96 3178.6 2183.24 3178.67 2182.7 3178.67 2182.33 3178.67 2181.99 3178.63 2181.73 3178.56 2181.54 3178.49 2181.35 3178.39 2181.19 3178.25 2181.07 3178.11 2180.95 3177.93 2180.85 3177.7 2180.78 3177.47 2180.71 3177.02 2180.63 3176.35 2180.54L3176.71 2179.05ZM3073.45 2178.59C3074.98 2178.59 3076.41 2178.73 3077.76 2179L3076.73 2183.59 3073.77 2183.59C3073.71 2182.64 3073.55 2181.97 3073.31 2181.57 3073.06 2181.18 3072.68 2180.98 3072.16 2180.98 3071.55 2180.98 3071.05 2181.19 3070.67 2181.62 3070.29 2182.05 3069.96 2182.63 3069.7 2183.36 3069.44 2184.1 3069.18 2185.06 3068.92 2186.25L3068.35 2188.78 3073.26 2188.78 3072.64 2191.65 3067.71 2191.65 3063.55 2210.83C3062.74 2214.55 3061.44 2217.31 3059.63 2219.11 3057.82 2220.9 3055.57 2221.8 3052.86 2221.8 3052.2 2221.8 3051.67 2221.76 3051.28 2221.69L3051.83 2219.12C3052.13 2219.16 3052.41 2219.19 3052.65 2219.19 3053.53 2219.19 3054.25 2218.7 3054.82 2217.74 3055.4 2216.78 3055.9 2215.33 3056.35 2213.4L3061.26 2191.65 3057.79 2191.65 3058.21 2189.79C3059.26 2189.77 3060.01 2189.7 3060.44 2189.56 3060.88 2189.42 3061.24 2189.17 3061.52 2188.8 3061.81 2188.43 3062.08 2187.75 3062.34 2186.76 3062.72 2185.31 3063.2 2184.1 3063.78 2183.15 3064.37 2182.19 3065.12 2181.35 3066.06 2180.64 3066.99 2179.93 3068.08 2179.41 3069.33 2179.08 3070.57 2178.75 3071.95 2178.59 3073.45 2178.59Z" fill-rule="evenodd"/><text fill="#000000" fill-opacity="0" font-family="Arial,Arial_MSFontService,sans-serif" font-size="43.2134" x="3051.28" y="2216.4">ğ’‡ğ’–ğ’”ğ’†ğ’…</text></g></svg>