<svg width="1309" height="723" xmlns="http://www.w3.org/2000/svg" xmlns:xlink="http://www.w3.org/1999/xlink" overflow="hidden"><defs><clipPath id="clip0"><rect x="547" y="1382" width="1309" height="723"/></clipPath></defs><g clip-path="url(#clip0)" transform="translate(-547 -1382)"><path d="M550 1385.08 692.913 1385.08 692.913 1528 550 1528Z" fill="#E7E6E6" fill-rule="evenodd"/><path d="M692.913 1385.08 835.827 1385.08 835.827 1528 692.913 1528Z" fill="#E7E6E6" fill-rule="evenodd"/><path d="M835.827 1385.08 978.74 1385.08 978.74 1528 835.827 1528Z" fill="#E7E6E6" fill-rule="evenodd"/><path d="M978.74 1385.08 1121.65 1385.08 1121.65 1528 978.74 1528Z" fill="#E7E6E6" fill-rule="evenodd"/><path d="M1121.65 1385.08 1264.57 1385.08 1264.57 1528 1121.65 1528Z" fill="#E7E6E6" fill-rule="evenodd"/><path d="M550 1528 692.913 1528 692.913 1670.91 550 1670.91Z" fill="#E7E6E6" fill-rule="evenodd"/><path d="M692.913 1528 835.827 1528 835.827 1670.91 692.913 1670.91Z" fill="#E7E6E6" fill-rule="evenodd"/><path d="M835.827 1528 978.74 1528 978.74 1670.91 835.827 1670.91Z" fill="#E7E6E6" fill-rule="evenodd"/><path d="M978.74 1528 1121.65 1528 1121.65 1670.91 978.74 1670.91Z" fill="#E7E6E6" fill-rule="evenodd"/><path d="M1121.65 1528 1264.57 1528 1264.57 1670.91 1121.65 1670.91Z" fill="#E7E6E6" fill-rule="evenodd"/><path d="M550 1670.91 692.913 1670.91 692.913 1813.82 550 1813.82Z" fill="#E7E6E6" fill-rule="evenodd"/><path d="M692.913 1670.91 835.827 1670.91 835.827 1813.82 692.913 1813.82Z" fill="#E7E6E6" fill-rule="evenodd"/><path d="M835.827 1670.91 978.74 1670.91 978.74 1813.82 835.827 1813.82Z" fill="#E7E6E6" fill-rule="evenodd"/><path d="M978.74 1670.91 1121.65 1670.91 1121.65 1813.82 978.74 1813.82Z" fill="#E7E6E6" fill-rule="evenodd"/><path d="M1121.65 1670.91 1264.57 1670.91 1264.57 1813.82 1121.65 1813.82Z" fill="#E7E6E6" fill-rule="evenodd"/><path d="M550 1813.82 692.913 1813.82 692.913 1956.74 550 1956.74Z" fill="#E7E6E6" fill-rule="evenodd"/><path d="M692.913 1813.82 835.827 1813.82 835.827 1956.74 692.913 1956.74Z" fill="#E7E6E6" fill-rule="evenodd"/><path d="M835.827 1813.82 978.74 1813.82 978.74 1956.74 835.827 1956.74Z" fill="#E7E6E6" fill-rule="evenodd"/><path d="M978.74 1813.82 1121.65 1813.82 1121.65 1956.74 978.74 1956.74Z" fill="#E7E6E6" fill-rule="evenodd"/><path d="M1121.65 1813.82 1264.57 1813.82 1264.57 1956.74 1121.65 1956.74Z" fill="#E7E6E6" fill-rule="evenodd"/><path d="M550 1956.74 692.913 1956.74 692.913 2099.65 550 2099.65Z" fill="#E7E6E6" fill-rule="evenodd"/><path d="M692.913 1956.74 835.827 1956.74 835.827 2099.65 692.913 2099.65Z" fill="#E7E6E6" fill-rule="evenodd"/><path d="M835.827 1956.74 978.74 1956.74 978.74 2099.65 835.827 2099.65Z" fill="#E7E6E6" fill-rule="evenodd"/><path d="M978.74 1956.74 1121.65 1956.74 1121.65 2099.65 978.74 2099.65Z" fill="#E7E6E6" fill-rule="evenodd"/><path d="M1121.65 1956.74 1264.57 1956.74 1264.57 2099.65 1121.65 2099.65Z" fill="#E7E6E6" fill-rule="evenodd"/><path d="M692.913 1382.79 692.913 2101.94" stroke="#000000" stroke-width="4.58333" stroke-linejoin="round" stroke-miterlimit="10" stroke-dasharray="4.58333 4.58333" fill="none" fill-rule="evenodd"/><path d="M835.827 1382.79 835.827 2101.94" stroke="#000000" stroke-width="4.58333" stroke-linejoin="round" stroke-miterlimit="10" stroke-dasharray="4.58333 4.58333" fill="none" fill-rule="evenodd"/><path d="M978.74 1382.79 978.74 2101.94" stroke="#000000" stroke-width="4.58333" stroke-linejoin="round" stroke-miterlimit="10" stroke-dasharray="4.58333 4.58333" fill="none" fill-rule="evenodd"/><path d="M1121.65 1382.79 1121.65 2101.94" stroke="#000000" stroke-width="4.58333" stroke-linejoin="round" stroke-miterlimit="10" stroke-dasharray="4.58333 4.58333" fill="none" fill-rule="evenodd"/><path d="M547.708 1528 1266.86 1528" stroke="#000000" stroke-width="4.58333" stroke-linejoin="round" stroke-miterlimit="10" stroke-dasharray="4.58333 4.58333" fill="none" fill-rule="evenodd"/><path d="M547.708 1670.91 1266.86 1670.91" stroke="#000000" stroke-width="4.58333" stroke-linejoin="round" stroke-miterlimit="10" stroke-dasharray="4.58333 4.58333" fill="none" fill-rule="evenodd"/><path d="M547.708 1813.82 1266.86 1813.82" stroke="#000000" stroke-width="4.58333" stroke-linejoin="round" stroke-miterlimit="10" stroke-dasharray="4.58333 4.58333" fill="none" fill-rule="evenodd"/><path d="M547.708 1956.74 1266.86 1956.74" stroke="#000000" stroke-width="4.58333" stroke-linejoin="round" stroke-miterlimit="10" stroke-dasharray="4.58333 4.58333" fill="none" fill-rule="evenodd"/><path d="M550 1382.79 550 2101.94" stroke="#000000" stroke-width="4.58333" stroke-linejoin="round" stroke-miterlimit="10" stroke-dasharray="4.58333 4.58333" fill="none" fill-rule="evenodd"/><path d="M1264.57 1382.79 1264.57 2101.94" stroke="#000000" stroke-width="4.58333" stroke-linejoin="round" stroke-miterlimit="10" stroke-dasharray="4.58333 4.58333" fill="none" fill-rule="evenodd"/><path d="M547.708 1385.08 1266.86 1385.08" stroke="#000000" stroke-width="4.58333" stroke-linejoin="round" stroke-miterlimit="10" stroke-dasharray="4.58333 4.58333" fill="none" fill-rule="evenodd"/><path d="M547.708 2099.65 1266.86 2099.65" stroke="#000000" stroke-width="4.58333" stroke-linejoin="round" stroke-miterlimit="10" stroke-dasharray="4.58333 4.58333" fill="none" fill-rule="evenodd"/><path d="M778.48 1611.78 843.44 1611.78 843.44 1676.74 778.48 1676.74Z" fill="#E2F0D9" fill-rule="evenodd" fill-opacity="0.74902"/><path d="M843.44 1611.78 908.401 1611.78 908.401 1676.74 843.44 1676.74Z" fill="#E2F0D9" fill-rule="evenodd" fill-opacity="0.74902"/><path d="M908.401 1611.78 973.361 1611.78 973.361 1676.74 908.401 1676.74Z" fill="#E2F0D9" fill-rule="evenodd" fill-opacity="0.74902"/><path d="M973.361 1611.78 1038.32 1611.78 1038.32 1676.74 973.361 1676.74Z" fill="#E2F0D9" fill-rule="evenodd" fill-opacity="0.74902"/><path d="M1038.32 1611.78 1103.28 1611.78 1103.28 1676.74 1038.32 1676.74Z" fill="#E2F0D9" fill-rule="evenodd" fill-opacity="0.74902"/><path d="M1103.28 1611.78 1168.24 1611.78 1168.24 1676.74 1103.28 1676.74Z" fill="#E2F0D9" fill-rule="evenodd" fill-opacity="0.74902"/><path d="M778.48 1676.74 843.44 1676.74 843.44 1741.7 778.48 1741.7Z" fill="#E2F0D9" fill-rule="evenodd" fill-opacity="0.74902"/><path d="M843.44 1676.74 908.401 1676.74 908.401 1741.7 843.44 1741.7Z" fill="#E2F0D9" fill-rule="evenodd" fill-opacity="0.74902"/><path d="M908.401 1676.74 973.361 1676.74 973.361 1741.7 908.401 1741.7Z" fill="#E2F0D9" fill-rule="evenodd" fill-opacity="0.74902"/><path d="M973.361 1676.74 1038.32 1676.74 1038.32 1741.7 973.361 1741.7Z" fill="#E2F0D9" fill-rule="evenodd" fill-opacity="0.74902"/><path d="M1038.32 1676.74 1103.28 1676.74 1103.28 1741.7 1038.32 1741.7Z" fill="#E2F0D9" fill-rule="evenodd" fill-opacity="0.74902"/><path d="M1103.28 1676.74 1168.24 1676.74 1168.24 1741.7 1103.28 1741.7Z" fill="#E2F0D9" fill-rule="evenodd" fill-opacity="0.74902"/><path d="M778.48 1741.7 843.44 1741.7 843.44 1806.66 778.48 1806.66Z" fill="#E2F0D9" fill-rule="evenodd" fill-opacity="0.74902"/><path d="M843.44 1741.7 908.401 1741.7 908.401 1806.66 843.44 1806.66Z" fill="#E2F0D9" fill-rule="evenodd" fill-opacity="0.74902"/><path d="M908.401 1741.7 973.361 1741.7 973.361 1806.66 908.401 1806.66Z" fill="#E2F0D9" fill-rule="evenodd" fill-opacity="0.74902"/><path d="M973.361 1741.7 1038.32 1741.7 1038.32 1806.66 973.361 1806.66Z" fill="#E2F0D9" fill-rule="evenodd" fill-opacity="0.74902"/><path d="M1038.32 1741.7 1103.28 1741.7 1103.28 1806.66 1038.32 1806.66Z" fill="#E2F0D9" fill-rule="evenodd" fill-opacity="0.74902"/><path d="M1103.28 1741.7 1168.24 1741.7 1168.24 1806.66 1103.28 1806.66Z" fill="#E2F0D9" fill-rule="evenodd" fill-opacity="0.74902"/><path d="M778.48 1806.66 843.44 1806.66 843.44 1871.62 778.48 1871.62Z" fill="#E2F0D9" fill-rule="evenodd" fill-opacity="0.74902"/><path d="M843.44 1806.66 908.401 1806.66 908.401 1871.62 843.44 1871.62Z" fill="#E2F0D9" fill-rule="evenodd" fill-opacity="0.74902"/><path d="M908.401 1806.66 973.361 1806.66 973.361 1871.62 908.401 1871.62Z" fill="#E2F0D9" fill-rule="evenodd" fill-opacity="0.74902"/><path d="M973.361 1806.66 1038.32 1806.66 1038.32 1871.62 973.361 1871.62Z" fill="#E2F0D9" fill-rule="evenodd" fill-opacity="0.74902"/><path d="M1038.32 1806.66 1103.28 1806.66 1103.28 1871.62 1038.32 1871.62Z" fill="#E2F0D9" fill-rule="evenodd" fill-opacity="0.74902"/><path d="M1103.28 1806.66 1168.24 1806.66 1168.24 1871.62 1103.28 1871.62Z" fill="#E2F0D9" fill-rule="evenodd" fill-opacity="0.74902"/><path d="M778.48 1871.62 843.44 1871.62 843.44 1936.58 778.48 1936.58Z" fill="#E2F0D9" fill-rule="evenodd" fill-opacity="0.74902"/><path d="M843.44 1871.62 908.401 1871.62 908.401 1936.58 843.44 1936.58Z" fill="#E2F0D9" fill-rule="evenodd" fill-opacity="0.74902"/><path d="M908.401 1871.62 973.361 1871.62 973.361 1936.58 908.401 1936.58Z" fill="#E2F0D9" fill-rule="evenodd" fill-opacity="0.74902"/><path d="M973.361 1871.62 1038.32 1871.62 1038.32 1936.58 973.361 1936.58Z" fill="#E2F0D9" fill-rule="evenodd" fill-opacity="0.74902"/><path d="M1038.32 1871.62 1103.28 1871.62 1103.28 1936.58 1038.32 1936.58Z" fill="#E2F0D9" fill-rule="evenodd" fill-opacity="0.74902"/><path d="M1103.28 1871.62 1168.24 1871.62 1168.24 1936.58 1103.28 1936.58Z" fill="#E2F0D9" fill-rule="evenodd" fill-opacity="0.74902"/><path d="M778.48 1936.58 843.44 1936.58 843.44 2001.54 778.48 2001.54Z" fill="#E2F0D9" fill-rule="evenodd" fill-opacity="0.74902"/><path d="M843.44 1936.58 908.401 1936.58 908.401 2001.54 843.44 2001.54Z" fill="#E2F0D9" fill-rule="evenodd" fill-opacity="0.74902"/><path d="M908.401 1936.58 973.361 1936.58 973.361 2001.54 908.401 2001.54Z" fill="#E2F0D9" fill-rule="evenodd" fill-opacity="0.74902"/><path d="M973.361 1936.58 1038.32 1936.58 1038.32 2001.54 973.361 2001.54Z" fill="#E2F0D9" fill-rule="evenodd" fill-opacity="0.74902"/><path d="M1038.32 1936.58 1103.28 1936.58 1103.28 2001.54 1038.32 2001.54Z" fill="#E2F0D9" fill-rule="evenodd" fill-opacity="0.74902"/><path d="M1103.28 1936.58 1168.24 1936.58 1168.24 2001.54 1103.28 2001.54Z" fill="#E2F0D9" fill-rule="evenodd" fill-opacity="0.74902"/><path d="M908.401 1609.49 908.401 2003.83" stroke="#000000" stroke-width="4.58333" stroke-linejoin="round" stroke-miterlimit="10" fill="none" fill-rule="evenodd"/><path d="M1038.32 1609.49 1038.32 2003.83" stroke="#000000" stroke-width="4.58333" stroke-linejoin="round" stroke-miterlimit="10" fill="none" fill-rule="evenodd"/><path d="M776.188 1741.7 1170.54 1741.7" stroke="#000000" stroke-width="4.58333" stroke-linejoin="round" stroke-miterlimit="10" fill="none" fill-rule="evenodd"/><path d="M776.188 1871.62 1170.54 1871.62" stroke="#000000" stroke-width="4.58333" stroke-linejoin="round" stroke-miterlimit="10" fill="none" fill-rule="evenodd"/><path d="M778.48 1609.49 778.48 2003.83" stroke="#000000" stroke-width="4.58333" stroke-linejoin="round" stroke-miterlimit="10" fill="none" fill-rule="evenodd"/><path d="M1168.24 1609.49 1168.24 2003.83" stroke="#000000" stroke-width="4.58333" stroke-linejoin="round" stroke-miterlimit="10" fill="none" fill-rule="evenodd"/><path d="M776.188 1611.78 1170.54 1611.78" stroke="#000000" stroke-width="4.58333" stroke-linejoin="round" stroke-miterlimit="10" fill="none" fill-rule="evenodd"/><path d="M776.188 2001.54 1170.54 2001.54" stroke="#000000" stroke-width="4.58333" stroke-linejoin="round" stroke-miterlimit="10" fill="none" fill-rule="evenodd"/><text fill="#548235" font-family="Microsoft JhengHei,Microsoft JhengHei_MSFontService,sans-serif" font-weight="700" font-size="28" transform="matrix(1 0 0 1 797.21 1654)">●<tspan font-size="28" x="64.9606" y="0">●</tspan><tspan font-size="28" x="129.921" y="0">●</tspan><tspan font-size="28" x="194.882" y="0">●</tspan><tspan font-size="28" x="259.842" y="0">●</tspan><tspan font-size="28" x="324.803" y="0">●</tspan><tspan font-weight="400" font-size="28" x="0" y="65">●</tspan><tspan font-weight="400" font-size="28" x="64.9606" y="65">●</tspan><tspan font-weight="400" font-size="28" x="129.921" y="65">●</tspan><tspan font-weight="400" font-size="28" x="194.882" y="65">●</tspan><tspan font-weight="400" font-size="28" x="259.842" y="65">●</tspan><tspan font-weight="400" font-size="28" x="324.803" y="65">●</tspan><tspan font-weight="400" font-size="28" x="0" y="130">●</tspan><tspan font-weight="400" font-size="28" x="64.9606" y="130">●</tspan><tspan font-weight="400" font-size="28" x="129.921" y="130">●</tspan><tspan font-weight="400" font-size="28" x="194.882" y="130">●</tspan><tspan font-weight="400" font-size="28" x="259.842" y="130">●</tspan><tspan font-weight="400" font-size="28" x="324.803" y="130">●</tspan><tspan font-weight="400" font-size="28" x="0" y="195">●</tspan><tspan font-weight="400" font-size="28" x="64.9606" y="195">●</tspan><tspan font-weight="400" font-size="28" x="129.921" y="195">●</tspan><tspan font-weight="400" font-size="28" x="194.882" y="195">●</tspan><tspan font-weight="400" font-size="28" x="259.842" y="195">●</tspan><tspan font-weight="400" font-size="28" x="324.803" y="195">●</tspan><tspan font-weight="400" font-size="28" x="0" y="260">●</tspan><tspan font-weight="400" font-size="28" x="64.9606" y="260">●</tspan><tspan font-weight="400" font-size="28" x="129.921" y="260">●</tspan><tspan font-weight="400" font-size="28" x="194.882" y="260">●</tspan><tspan font-weight="400" font-size="28" x="259.842" y="260">●</tspan><tspan font-weight="400" font-size="28" x="324.803" y="260">●</tspan><tspan font-weight="400" font-size="28" x="0" y="325">●</tspan><tspan font-weight="400" font-size="28" x="64.9606" y="325">●</tspan><tspan font-weight="400" font-size="28" x="129.921" y="325">●</tspan><tspan font-weight="400" font-size="28" x="194.882" y="325">●</tspan><tspan font-weight="400" font-size="28" x="259.842" y="325">●</tspan><tspan font-weight="400" font-size="28" x="324.803" y="325">●</tspan></text><path d="M26.9966 40.1928 31.4688 37.0556 37.672 33.6023 44.2551 30.2474 51.2156 27.0835 58.6058 24.0517 66.3146 21.2083 82.7317 15.9246 100.405 11.2705 119.13 7.24888 138.787 3.92042 159.248 1.28433 180.331-0.660852 201.914-1.8529 223.806-2.29199 245.949-1.97834 268.159-0.849054 290.248 1.09627 312.088 3.92049 332.496 7.37403 351.726 11.5217 369.577 16.2987 378.028 18.9476 386.089 21.7188 393.78 24.6185 401.115 27.6539 407.947 30.8801 414.4 34.1695 420.432 37.5984 426.039 41.1664 431.15 44.872 435.702 48.6024 432.797 52.1476 428.297 48.4601 428.405 48.5429 423.405 44.9179 423.52 44.9959 418.02 41.4959 418.118 41.5548 412.18 38.1798 412.272 38.2292 405.897 34.9792 405.959 35.0097 399.209 31.8222 399.311 31.8675 392.061 28.8675 392.129 28.8943 384.504 26.0193 384.568 26.0422 376.568 23.2922 376.627 23.3118 368.252 20.6868 368.345 20.7138 350.595 15.9638 350.704 15.9902 331.579 11.8652 331.68 11.8845 311.368 8.44704 311.456 8.46024 289.706 5.64774 289.799 5.65783 267.799 3.72033 267.884 3.72621 245.759 2.60121 245.843 2.60394 223.78 2.29144 223.858 2.29121 202.046 2.72871 202.126 2.72568 180.626 3.91318 180.711 3.90697 159.711 5.84447 159.793 5.83538 139.418 8.46038 139.508 8.447 119.945 11.7595 120.044 11.7406 101.419 15.7406 101.521 15.7161 83.9586 20.3411 84.0771 20.3065 67.7646 25.5565 67.8556 25.5251 60.2306 28.3376 60.3073 28.3077 52.9948 31.3077 53.0733 31.2738 46.1983 34.3988 46.2905 34.3543 39.7905 37.6668 39.8647 37.6273 33.8022 41.0023 34.0036 40.8761 29.6288 43.945ZM37.371 46.8628 17.125 50.0625 26.7129 31.9459Z" fill="#E60000" transform="matrix(-1 0 0 1 1583.5 1710.5)"/><path d="M1415.5 1963.5 1853.44 1963.5" stroke="#000000" stroke-width="4.58333" stroke-miterlimit="8" fill="none" fill-rule="evenodd"/><path d="M1415.5 1525.5 1415.5 1963.44" stroke="#000000" stroke-width="4.58333" stroke-miterlimit="8" fill="none" fill-rule="evenodd"/><path d="M1516.5 1525.5 1516.5 1963.44" stroke="#767171" stroke-width="3.4375" stroke-miterlimit="8" stroke-dasharray="13.75 10.3125" fill="none" fill-rule="evenodd"/><path d="M1788.5 1525.5 1788.5 1963.44" stroke="#767171" stroke-width="3.4375" stroke-miterlimit="8" stroke-dasharray="13.75 10.3125" fill="none" fill-rule="evenodd"/><path d="M1415.5 1877.5 1853.44 1877.5" stroke="#767171" stroke-width="3.4375" stroke-miterlimit="8" stroke-dasharray="13.75 10.3125" fill="none" fill-rule="evenodd"/><path d="M1415.5 1598.5 1853.44 1598.5" stroke="#767171" stroke-width="3.4375" stroke-miterlimit="8" stroke-dasharray="13.75 10.3125" fill="none" fill-rule="evenodd"/><path d="M1415.5 1791.5 1853.44 1791.5" stroke="#767171" stroke-width="3.4375" stroke-miterlimit="8" stroke-dasharray="13.75 10.3125" fill="none" fill-rule="evenodd"/><path d="M1605.5 1525.5 1605.5 1963.44" stroke="#767171" stroke-width="3.4375" stroke-miterlimit="8" stroke-dasharray="13.75 10.3125" fill="none" fill-rule="evenodd"/><path d="M1594 1791C1594 1784.92 1598.92 1780 1605 1780 1611.08 1780 1616 1784.92 1616 1791 1616 1797.07 1611.08 1802 1605 1802 1598.92 1802 1594 1797.07 1594 1791Z" fill="#548235" fill-rule="evenodd"/><path d="M1505 1598.5C1505 1592.7 1509.7 1588 1515.5 1588 1521.3 1588 1526 1592.7 1526 1598.5 1526 1604.3 1521.3 1609 1515.5 1609 1509.7 1609 1505 1604.3 1505 1598.5Z" stroke="#000000" stroke-width="2.29167" stroke-miterlimit="8" fill="#FFC000" fill-rule="evenodd"/><path d="M1777 1598.5C1777 1592.7 1781.7 1588 1787.5 1588 1793.3 1588 1798 1592.7 1798 1598.5 1798 1604.3 1793.3 1609 1787.5 1609 1781.7 1609 1777 1604.3 1777 1598.5Z" stroke="#000000" stroke-width="2.29167" stroke-miterlimit="8" fill="#FFC000" fill-rule="evenodd"/><path d="M1505 1877C1505 1870.92 1509.7 1866 1515.5 1866 1521.3 1866 1526 1870.92 1526 1877 1526 1883.07 1521.3 1888 1515.5 1888 1509.7 1888 1505 1883.07 1505 1877Z" stroke="#000000" stroke-width="2.29167" stroke-miterlimit="8" fill="#FFC000" fill-rule="evenodd"/><path d="M1777 1877C1777 1870.92 1781.7 1866 1787.5 1866 1793.3 1866 1798 1870.92 1798 1877 1798 1883.07 1793.3 1888 1787.5 1888 1781.7 1888 1777 1883.07 1777 1877Z" stroke="#000000" stroke-width="2.29167" stroke-miterlimit="8" fill="#FFC000" fill-rule="evenodd"/><path d="M1595 1598.5C1595 1592.7 1599.7 1588 1605.5 1588 1611.3 1588 1616 1592.7 1616 1598.5 1616 1604.3 1611.3 1609 1605.5 1609 1599.7 1609 1595 1604.3 1595 1598.5Z" stroke="#000000" stroke-width="2.29167" stroke-miterlimit="8" fill="#F4B183" fill-rule="evenodd"/><path d="M1595 1877C1595 1870.92 1599.7 1866 1605.5 1866 1611.3 1866 1616 1870.92 1616 1877 1616 1883.07 1611.3 1888 1605.5 1888 1599.7 1888 1595 1883.07 1595 1877Z" stroke="#000000" stroke-width="2.29167" stroke-miterlimit="8" fill="#F4B183" fill-rule="evenodd"/><path d="M1.74992 13.7462 2.12064 177.23-1.31685 177.238-1.68757 13.754ZM-9.12507 18.3541 0 0 9.20821 18.3125ZM9.55814 172.63 0.433071 190.984-8.77514 172.672Z" transform="matrix(-1 0 0 1 1606.93 1600.5)"/><path d="M13.7579-1.65413 77.2031-1.35604 77.187 2.08143 13.7418 1.78333ZM18.2901 9.2527 0 0 18.3762-9.08043ZM72.6548-8.82541 90.9449 0.427297 72.5687 9.50772Z" transform="matrix(-1 0 0 1 1605.44 1791.5)"/><text font-family="Cambria Math,Cambria Math_MSFontService,sans-serif" font-weight="400" font-size="32" transform="translate(1454.82 1571)">Q<tspan font-size="23" x="21.4729" y="6">1</tspan><tspan font-size="23" x="35.2229" y="6">2</tspan><tspan font-size="32" x="277.125" y="0">Q</tspan><tspan font-size="23" x="299.332" y="6">2</tspan><tspan font-size="23" x="313.082" y="6">2</tspan><tspan font-size="32" x="0" y="286">Q</tspan><tspan font-size="23" x="21.4729" y="292">1</tspan><tspan font-size="23" x="35.2229" y="292">1</tspan><tspan font-size="32" x="277.125" y="286">Q</tspan><tspan font-size="23" x="299.332" y="292">2</tspan><tspan font-size="23" x="313.082" y="292">1</tspan><tspan font-size="32" x="98.8511" y="251">𝑎</tspan><tspan font-size="32" x="166.476" y="131">𝑏</tspan><tspan font-size="32" x="116.112" y="205">𝑃</tspan><tspan font-size="32" x="-89.3289" y="33">𝑦</tspan><tspan font-size="23" x="-72.5309" y="40">2</tspan><tspan font-size="32" x="-89.2372" y="307">𝑦</tspan><tspan font-size="23" x="-73.1726" y="313">1</tspan><tspan font-size="32" x="43.7358" y="432">𝑥</tspan><tspan font-size="23" x="59.8691" y="439">1</tspan><tspan font-size="32" x="315.161" y="432">𝑥</tspan><tspan font-size="23" x="332.027" y="439">2</tspan><tspan font-size="32" x="-89.4205" y="229">𝑦</tspan><tspan font-size="32" x="132.292" y="432">𝑥</tspan></text></g></svg>