<svg width="2853" height="1223" xmlns="http://www.w3.org/2000/svg" xmlns:xlink="http://www.w3.org/1999/xlink" overflow="hidden"><defs><clipPath id="clip0"><rect x="224" y="1121" width="2853" height="1223"/></clipPath></defs><g clip-path="url(#clip0)" transform="translate(-224 -1121)"><path d="M2473.5 1173.34C2473.5 1146.37 2495.37 1124.5 2522.34 1124.5L3024.66 1124.5C3051.63 1124.5 3073.5 1146.37 3073.5 1173.34L3073.5 2276.66C3073.5 2303.63 3051.63 2325.5 3024.66 2325.5L2522.34 2325.5C2495.37 2325.5 2473.5 2303.63 2473.5 2276.66Z" stroke="#86B41E" stroke-width="6.875" stroke-miterlimit="8" stroke-dasharray="55 20.625" fill="#CDEB8B" fill-rule="evenodd"/><text font-family="Calibri,Calibri_MSFontService,sans-serif" font-weight="400" font-size="73" transform="matrix(1 0 0 1 2715.63 1224)">C3K</text><path d="M2524.5 1905.67C2524.5 1898.4 2530.4 1892.5 2537.67 1892.5L2946.33 1892.5C2953.6 1892.5 2959.5 1898.4 2959.5 1905.67L2959.5 1958.33C2959.5 1965.6 2953.6 1971.5 2946.33 1971.5L2537.67 1971.5C2530.4 1971.5 2524.5 1965.6 2524.5 1958.33Z" stroke="#000000" stroke-width="6.875" stroke-miterlimit="8" fill="#7DD17D" fill-rule="evenodd"/><text font-family="Calibri,Calibri_MSFontService,sans-serif" font-weight="400" font-size="64" transform="matrix(1 0 0 1 2601.29 1953)">Bottleneck</text><path d="M2524.5 2046.67C2524.5 2039.4 2530.4 2033.5 2537.67 2033.5L2946.33 2033.5C2953.6 2033.5 2959.5 2039.4 2959.5 2046.67L2959.5 2099.33C2959.5 2106.61 2953.6 2112.5 2946.33 2112.5L2537.67 2112.5C2530.4 2112.5 2524.5 2106.61 2524.5 2099.33Z" stroke="#000000" stroke-width="6.875" stroke-miterlimit="8" fill="#FFE59D" fill-rule="evenodd"/><text font-family="Calibri,Calibri_MSFontService,sans-serif" font-weight="400" font-size="64" transform="matrix(1 0 0 1 2651.24 2094)">Concat</text><path d="M2524.5 2187.67C2524.5 2180.4 2530.4 2174.5 2537.67 2174.5L2946.33 2174.5C2953.6 2174.5 2959.5 2180.4 2959.5 2187.67L2959.5 2240.33C2959.5 2247.6 2953.6 2253.5 2946.33 2253.5L2537.67 2253.5C2530.4 2253.5 2524.5 2247.6 2524.5 2240.33Z" stroke="#000000" stroke-width="6.875" stroke-miterlimit="8" fill="#F6C09C" fill-rule="evenodd"/><text font-family="Calibri,Calibri_MSFontService,sans-serif" font-weight="400" font-size="64" transform="matrix(1 0 0 1 2676.41 2235)">Conv</text><path d="M2524.5 1479.67C2524.5 1472.4 2530.4 1466.5 2537.67 1466.5L2946.33 1466.5C2953.6 1466.5 2959.5 1472.4 2959.5 1479.67L2959.5 1532.33C2959.5 1539.6 2953.6 1545.5 2946.33 1545.5L2537.67 1545.5C2530.4 1545.5 2524.5 1539.6 2524.5 1532.33Z" stroke="#000000" stroke-width="6.875" stroke-miterlimit="8" fill="#7DD17D" fill-rule="evenodd"/><text font-family="Calibri,Calibri_MSFontService,sans-serif" font-weight="400" font-size="64" transform="matrix(1 0 0 1 2601.29 1527)">Bottleneck</text><path d="M2744.94 1971.5 2744.94 2010.58 2738.06 2010.58 2738.06 1971.5ZM2755.25 2005.99 2741.5 2033.49 2727.75 2005.99Z"/><path d="M2744.94 2112.5 2744.94 2151.58 2738.06 2151.58 2738.06 2112.5ZM2755.25 2146.99 2741.5 2174.49 2727.75 2146.99Z"/><path d="M893.5 1181.48C893.5 1150.01 919.011 1124.5 950.48 1124.5L1536.52 1124.5C1567.99 1124.5 1593.5 1150.01 1593.5 1181.48L1593.5 2268.52C1593.5 2299.99 1567.99 2325.5 1536.52 2325.5L950.48 2325.5C919.011 2325.5 893.5 2299.99 893.5 2268.52Z" stroke="#000000" stroke-width="6.875" stroke-miterlimit="8" stroke-dasharray="55 20.625" fill="#F3F3F3" fill-rule="evenodd"/><text font-family="Calibri,Calibri_MSFontService,sans-serif" font-weight="400" font-size="73" transform="matrix(1 0 0 1 1187.78 1227)">C2F</text><path d="M944.5 1333.67C944.5 1326.4 950.395 1320.5 957.667 1320.5L1365.33 1320.5C1372.6 1320.5 1378.5 1326.4 1378.5 1333.67L1378.5 1386.33C1378.5 1393.6 1372.6 1399.5 1365.33 1399.5L957.667 1399.5C950.395 1399.5 944.5 1393.6 944.5 1386.33Z" stroke="#000000" stroke-width="6.875" stroke-miterlimit="8" fill="#F6C09C" fill-rule="evenodd"/><text font-family="Calibri,Calibri_MSFontService,sans-serif" font-weight="400" font-size="64" transform="matrix(1 0 0 1 1096.35 1381)">Conv</text><path d="M944.5 1905.67C944.5 1898.4 950.395 1892.5 957.667 1892.5L1365.33 1892.5C1372.6 1892.5 1378.5 1898.4 1378.5 1905.67L1378.5 1958.33C1378.5 1965.6 1372.6 1971.5 1365.33 1971.5L957.667 1971.5C950.395 1971.5 944.5 1965.6 944.5 1958.33Z" stroke="#000000" stroke-width="6.875" stroke-miterlimit="8" fill="#7DD17D" fill-rule="evenodd"/><text font-family="Calibri,Calibri_MSFontService,sans-serif" font-weight="400" font-size="64" transform="matrix(1 0 0 1 1021.23 1953)">Bottleneck</text><path d="M944.5 2046.67C944.5 2039.4 950.395 2033.5 957.667 2033.5L1365.33 2033.5C1372.6 2033.5 1378.5 2039.4 1378.5 2046.67L1378.5 2099.33C1378.5 2106.61 1372.6 2112.5 1365.33 2112.5L957.667 2112.5C950.395 2112.5 944.5 2106.61 944.5 2099.33Z" stroke="#000000" stroke-width="6.875" stroke-miterlimit="8" fill="#FFE59D" fill-rule="evenodd"/><text font-family="Calibri,Calibri_MSFontService,sans-serif" font-weight="400" font-size="64" transform="matrix(1 0 0 1 1071.18 2094)">Concat</text><path d="M944.5 2187.67C944.5 2180.4 950.395 2174.5 957.667 2174.5L1365.33 2174.5C1372.6 2174.5 1378.5 2180.4 1378.5 2187.67L1378.5 2240.33C1378.5 2247.6 1372.6 2253.5 1365.33 2253.5L957.667 2253.5C950.395 2253.5 944.5 2247.6 944.5 2240.33Z" stroke="#000000" stroke-width="6.875" stroke-miterlimit="8" fill="#F6C09C" fill-rule="evenodd"/><text font-family="Calibri,Calibri_MSFontService,sans-serif" font-weight="400" font-size="64" transform="matrix(1 0 0 1 1096.35 2235)">Conv</text><path d="M944.5 1610.67C944.5 1603.4 950.395 1597.5 957.667 1597.5L1365.33 1597.5C1372.6 1597.5 1378.5 1603.4 1378.5 1610.67L1378.5 1663.33C1378.5 1670.6 1372.6 1676.5 1365.33 1676.5L957.667 1676.5C950.395 1676.5 944.5 1670.6 944.5 1663.33Z" stroke="#000000" stroke-width="6.875" stroke-miterlimit="8" fill="#7DD17D" fill-rule="evenodd"/><text font-family="Calibri,Calibri_MSFontService,sans-serif" font-weight="400" font-size="64" transform="matrix(1 0 0 1 1021.23 1658)">Bottleneck</text><path d="M1378.5 1633.06 1491.94 1633.06 1491.94 2076.11 1406 2076.11 1406 2069.24 1488.5 2069.24 1485.06 2072.67 1485.06 1636.5 1488.5 1639.94 1378.5 1639.94ZM1410.58 2086.42 1383.08 2072.67 1410.58 2058.92Z"/><path d="M1378.5 1928.06 1460.27 1928.06 1460.27 2076.07 1406 2076.07 1406 2069.2 1456.83 2069.2 1453.39 2072.63 1453.39 1931.5 1456.83 1934.94 1378.5 1934.94ZM1410.58 2086.38 1383.08 2072.63 1410.58 2058.88Z"/><path d="M1164.94 1399.5 1164.94 1436.43 1158.06 1436.43 1158.06 1399.5ZM1175.25 1431.85 1161.5 1459.35 1147.75 1431.85Z"/><path d="M1164.94 1971.5 1164.94 2010.58 1158.06 2010.58 1158.06 1971.5ZM1175.25 2005.99 1161.5 2033.49 1147.75 2005.99Z"/><path d="M1164.94 2112.5 1164.94 2151.58 1158.06 2151.58 1158.06 2112.5ZM1175.25 2146.99 1161.5 2174.49 1147.75 2146.99Z"/><path d="M944.5 1472.67C944.5 1465.4 950.395 1459.5 957.667 1459.5L1365.33 1459.5C1372.6 1459.5 1378.5 1465.4 1378.5 1472.67L1378.5 1525.33C1378.5 1532.61 1372.6 1538.5 1365.33 1538.5L957.667 1538.5C950.395 1538.5 944.5 1532.61 944.5 1525.33Z" stroke="#000000" stroke-width="6.875" stroke-miterlimit="8" fill="#57AFFF" fill-rule="evenodd"/><text font-family="Calibri,Calibri_MSFontService,sans-serif" font-weight="400" font-size="64" transform="matrix(1 0 0 1 1104.13 1520)">Split</text><path d="M1164.94 1538.5 1164.94 1574.11 1158.06 1574.11 1158.06 1538.5ZM1175.25 1569.53 1161.5 1597.03 1147.75 1569.53Z"/><path d="M1378.5 1495.06 1553.81 1495.06 1553.81 2075.78 1406 2075.78 1406 2068.91 1550.37 2068.91 1546.94 2072.35 1546.94 1498.5 1550.37 1501.94 1378.5 1501.94ZM1410.58 2086.1 1383.08 2072.35 1410.58 2058.6Z"/><path d="M0-3.4375 23.9163-3.4375 23.9163 354.568 20.4788 351.131 534.275 351.131 530.837 354.568 530.837 239.985 537.712 239.985 537.712 358.006 17.0413 358.006 17.0413 0 20.4788 3.4375 0 3.4375ZM520.525 244.568 534.275 217.068 548.025 244.568Z" transform="matrix(1.83697e-16 1 1 -1.83697e-16 1161.5 1538.5)"/><path d="M1164.94 1260.5 1164.94 1297.43 1158.06 1297.43 1158.06 1260.5ZM1175.25 1292.85 1161.5 1320.35 1147.75 1292.85Z"/><path d="M1164.94 2253.5 1164.94 2290.43 1158.06 2290.43 1158.06 2253.5ZM1175.25 2285.85 1161.5 2313.35 1147.75 2285.85Z"/><path d="M2744.94 2253.5 2744.94 2292.58 2738.06 2292.58 2738.06 2253.5ZM2755.25 2287.99 2741.5 2315.49 2727.75 2287.99Z"/><path d="M2635.94 1260.45 2636.43 1297.39 2629.55 1297.48 2629.06 1260.55ZM2646.68 1292.67 2633.3 1320.35 2619.18 1293.03Z"/><path d="M1688.5 1181.48C1688.5 1150.01 1714.01 1124.5 1745.48 1124.5L2331.52 1124.5C2362.99 1124.5 2388.5 1150.01 2388.5 1181.48L2388.5 2268.52C2388.5 2299.99 2362.99 2325.5 2331.52 2325.5L1745.48 2325.5C1714.01 2325.5 1688.5 2299.99 1688.5 2268.52Z" stroke="#57AFFF" stroke-width="6.875" stroke-miterlimit="8" stroke-dasharray="55 20.625" fill="#D0F0FD" fill-rule="evenodd"/><text font-family="Calibri,Calibri_MSFontService,sans-serif" font-weight="400" font-size="73" transform="matrix(1 0 0 1 1962.1 1227)">C3K2</text><path d="M1740.5 1333.67C1740.5 1326.4 1746.4 1320.5 1753.67 1320.5L2161.33 1320.5C2168.6 1320.5 2174.5 1326.4 2174.5 1333.67L2174.5 1386.33C2174.5 1393.6 2168.6 1399.5 2161.33 1399.5L1753.67 1399.5C1746.4 1399.5 1740.5 1393.6 1740.5 1386.33Z" stroke="#000000" stroke-width="6.875" stroke-miterlimit="8" fill="#F6C09C" fill-rule="evenodd"/><text font-family="Calibri,Calibri_MSFontService,sans-serif" font-weight="400" font-size="64" transform="matrix(1 0 0 1 1891.58 1381)">Conv</text><path d="M1740.5 1905.67C1740.5 1898.4 1746.4 1892.5 1753.67 1892.5L2161.33 1892.5C2168.6 1892.5 2174.5 1898.4 2174.5 1905.67L2174.5 1958.33C2174.5 1965.6 2168.6 1971.5 2161.33 1971.5L1753.67 1971.5C1746.4 1971.5 1740.5 1965.6 1740.5 1958.33Z" stroke="#000000" stroke-width="6.875" stroke-miterlimit="8" fill="#CDEB8B" fill-rule="evenodd"/><text font-family="Calibri,Calibri_MSFontService,sans-serif" font-weight="400" font-size="64" transform="matrix(1 0 0 1 1774.18 1953)">C3K<tspan font-size="64" x="114.583" y="0">(3X3 n=2)</tspan></text><path d="M1740.5 2046.67C1740.5 2039.4 1746.4 2033.5 1753.67 2033.5L2161.33 2033.5C2168.6 2033.5 2174.5 2039.4 2174.5 2046.67L2174.5 2099.33C2174.5 2106.61 2168.6 2112.5 2161.33 2112.5L1753.67 2112.5C1746.4 2112.5 1740.5 2106.61 1740.5 2099.33Z" stroke="#000000" stroke-width="6.875" stroke-miterlimit="8" fill="#FFE59D" fill-rule="evenodd"/><text font-family="Calibri,Calibri_MSFontService,sans-serif" font-weight="400" font-size="64" transform="matrix(1 0 0 1 1866.41 2094)">Concat</text><path d="M1740.5 2187.67C1740.5 2180.4 1746.4 2174.5 1753.67 2174.5L2161.33 2174.5C2168.6 2174.5 2174.5 2180.4 2174.5 2187.67L2174.5 2240.33C2174.5 2247.6 2168.6 2253.5 2161.33 2253.5L1753.67 2253.5C1746.4 2253.5 1740.5 2247.6 1740.5 2240.33Z" stroke="#000000" stroke-width="6.875" stroke-miterlimit="8" fill="#F6C09C" fill-rule="evenodd"/><text font-family="Calibri,Calibri_MSFontService,sans-serif" font-weight="400" font-size="64" transform="matrix(1 0 0 1 1891.58 2235)">Conv</text><path d="M1740.5 1610.67C1740.5 1603.4 1746.4 1597.5 1753.67 1597.5L2161.33 1597.5C2168.6 1597.5 2174.5 1603.4 2174.5 1610.67L2174.5 1663.33C2174.5 1670.6 2168.6 1676.5 2161.33 1676.5L1753.67 1676.5C1746.4 1676.5 1740.5 1670.6 1740.5 1663.33Z" stroke="#000000" stroke-width="6.875" stroke-miterlimit="8" fill="#CDEB8B" fill-rule="evenodd"/><text font-family="Calibri,Calibri_MSFontService,sans-serif" font-weight="400" font-size="64" transform="matrix(1 0 0 1 1774.18 1658)">C3K<tspan font-size="64" x="114.583" y="0">(3X3 n=2)</tspan></text><path d="M2174.5 1633.06 2287.94 1633.06 2287.94 2076.11 2202 2076.11 2202 2069.24 2284.5 2069.24 2281.06 2072.67 2281.06 1636.5 2284.5 1639.94 2174.5 1639.94ZM2206.58 2086.42 2179.08 2072.67 2206.58 2058.92Z"/><path d="M2174.5 1928.06 2256.27 1928.06 2256.27 2076.07 2202 2076.07 2202 2069.2 2252.83 2069.2 2249.4 2072.63 2249.4 1931.5 2252.83 1934.94 2174.5 1934.94ZM2206.58 2086.38 2179.08 2072.63 2206.58 2058.88Z"/><path d="M1960.94 1399.5 1960.94 1436.43 1954.06 1436.43 1954.06 1399.5ZM1971.25 1431.85 1957.5 1459.35 1943.75 1431.85Z"/><path d="M1960.94 1971.5 1960.94 2010.58 1954.06 2010.58 1954.06 1971.5ZM1971.25 2005.99 1957.5 2033.49 1943.75 2005.99Z"/><path d="M1960.94 2112.5 1960.94 2151.58 1954.06 2151.58 1954.06 2112.5ZM1971.25 2146.99 1957.5 2174.49 1943.75 2146.99Z"/><path d="M1740.5 1472.67C1740.5 1465.4 1746.4 1459.5 1753.67 1459.5L2161.33 1459.5C2168.6 1459.5 2174.5 1465.4 2174.5 1472.67L2174.5 1525.33C2174.5 1532.61 2168.6 1538.5 2161.33 1538.5L1753.67 1538.5C1746.4 1538.5 1740.5 1532.61 1740.5 1525.33Z" stroke="#000000" stroke-width="6.875" stroke-miterlimit="8" fill="#57AFFF" fill-rule="evenodd"/><text font-family="Calibri,Calibri_MSFontService,sans-serif" font-weight="400" font-size="64" transform="matrix(1 0 0 1 1899.36 1520)">Split</text><path d="M1960.94 1538.5 1960.94 1574.11 1954.06 1574.11 1954.06 1538.5ZM1971.25 1569.53 1957.5 1597.03 1943.75 1569.53Z"/><path d="M2174.5 1495.06 2349.81 1495.06 2349.81 2075.78 2202 2075.78 2202 2068.91 2346.38 2068.91 2342.94 2072.35 2342.94 1498.5 2346.38 1501.94 2174.5 1501.94ZM2206.58 2086.1 2179.08 2072.35 2206.58 2058.6Z"/><path d="M0-3.4375 23.9163-3.4375 23.9163 354.568 20.4788 351.131 534.275 351.131 530.837 354.568 530.837 239.985 537.712 239.985 537.712 358.006 17.0413 358.006 17.0413 0 20.4788 3.4375 0 3.4375ZM520.525 244.568 534.275 217.068 548.025 244.568Z" transform="matrix(1.83697e-16 1 1 -1.83697e-16 1957.5 1538.5)"/><path d="M1960.94 1260.5 1960.94 1297.43 1954.06 1297.43 1954.06 1260.5ZM1971.25 1292.85 1957.5 1320.35 1943.75 1292.85Z"/><path d="M1960.94 2253.5 1960.94 2290.43 1954.06 2290.43 1954.06 2253.5ZM1971.25 2285.85 1957.5 2313.35 1943.75 2285.85Z"/><path d="M1164.94 1676.5 1164.94 1704 1158.06 1704 1158.06 1676.5ZM1164.94 1724.62 1164.94 1752.12 1158.06 1752.12 1158.06 1724.62ZM1164.94 1772.75 1164.94 1800.25 1158.06 1800.25 1158.06 1772.75ZM1164.94 1820.88 1164.94 1848.38 1158.06 1848.38 1158.06 1820.88ZM1164.94 1869 1164.94 1869.48 1158.06 1869.48 1158.06 1869ZM1175.25 1864.9 1161.5 1892.4 1147.75 1864.9Z"/><path d="M1960.94 1676.5 1960.94 1704 1954.06 1704 1954.06 1676.5ZM1960.94 1724.62 1960.94 1752.12 1954.06 1752.12 1954.06 1724.62ZM1960.94 1772.75 1960.94 1800.25 1954.06 1800.25 1954.06 1772.75ZM1960.94 1820.88 1960.94 1848.38 1954.06 1848.38 1954.06 1820.88ZM1960.94 1869 1960.94 1869.48 1954.06 1869.48 1954.06 1869ZM1971.25 1864.9 1957.5 1892.4 1943.75 1864.9Z"/><path d="M2744.94 1545.5 2744.94 1573 2738.06 1573 2738.06 1545.5ZM2744.94 1593.62 2744.94 1621.12 2738.06 1621.12 2738.06 1593.62ZM2744.94 1641.75 2744.94 1669.25 2738.06 1669.25 2738.06 1641.75ZM2744.94 1689.88 2744.94 1717.38 2738.06 1717.38 2738.06 1689.88ZM2744.94 1738 2744.94 1765.5 2738.06 1765.5 2738.06 1738ZM2744.94 1786.12 2744.94 1813.62 2738.06 1813.62 2738.06 1786.12ZM2744.94 1834.25 2744.94 1861.75 2738.06 1861.75 2738.06 1834.25ZM2755.25 1864.31 2741.5 1891.81 2727.75 1864.31Z"/><text font-family="Calibri,Calibri_MSFontService,sans-serif" font-weight="400" font-size="73" transform="matrix(1 0 0 1 2760.65 1729)">n<tspan font-size="73" x="-780.378" y="54">n</tspan><tspan font-size="73" x="-1581.95" y="54">n</tspan></text><path d="M2524.5 1333.67C2524.5 1326.39 2530.4 1320.5 2537.67 1320.5L2728.33 1320.5C2735.6 1320.5 2741.5 1326.39 2741.5 1333.67L2741.5 1386.33C2741.5 1393.6 2735.6 1399.5 2728.33 1399.5L2537.67 1399.5C2530.4 1399.5 2524.5 1393.6 2524.5 1386.33Z" stroke="#000000" stroke-width="6.875" stroke-miterlimit="8" fill="#F6C09C" fill-rule="evenodd"/><text font-family="Calibri,Calibri_MSFontService,sans-serif" font-weight="400" font-size="64" transform="matrix(1 0 0 1 2567.48 1381)">Conv</text><path d="M0 3.4375-41.25 3.4375-37.8125 0-37.8125 712.836-41.25 709.398 9.10928 709.398 9.10928 716.273-44.6875 716.273-44.6875-3.4375 0-3.4375ZM4.52595 699.086 32.026 712.836 4.52595 726.586Z" transform="matrix(-1 0 0 1 2991.53 1359.5)"/><path d="M2632.5 1277.06 2886.63 1277.06 2886.63 1297.15 2879.75 1297.15 2879.75 1280.5 2883.19 1283.94 2632.5 1283.94ZM2896.94 1292.57 2883.19 1320.07 2869.44 1292.57Z"/><path d="M0 0 309.395 458.004" stroke="#86B41E" stroke-width="6.875" stroke-miterlimit="8" stroke-dasharray="27.5 20.625" fill="none" fill-rule="evenodd" transform="matrix(1 0 0 -1 2174.5 1597.5)"/><path d="M2174.5 1676.5 2484.47 2309.16" stroke="#86B41E" stroke-width="6.875" stroke-miterlimit="8" stroke-dasharray="27.5 20.625" fill="none" fill-rule="evenodd"/><path d="M2774.5 1333.67C2774.5 1326.39 2780.4 1320.5 2787.67 1320.5L2978.33 1320.5C2985.61 1320.5 2991.5 1326.39 2991.5 1333.67L2991.5 1386.33C2991.5 1393.6 2985.61 1399.5 2978.33 1399.5L2787.67 1399.5C2780.4 1399.5 2774.5 1393.6 2774.5 1386.33Z" stroke="#000000" stroke-width="6.875" stroke-miterlimit="8" fill="#F6C09C" fill-rule="evenodd"/><text font-family="Calibri,Calibri_MSFontService,sans-serif" font-weight="400" font-size="64" transform="matrix(1 0 0 1 2817.37 1381)">Conv</text><path d="M0-3.4375 26.6813-3.4375 26.6813 108.932 23.2438 105.495 44.196 105.495 44.196 112.37 19.8063 112.37 19.8063 0 23.2438 3.4375 0 3.4375ZM39.6126 95.1825 67.1126 108.932 39.6126 122.682Z" transform="matrix(1.83697e-16 1 1 -1.83697e-16 2633.5 1399.5)"/><path d="M227.5 1383.79C227.5 1357.67 248.674 1336.5 274.793 1336.5L761.207 1336.5C787.326 1336.5 808.5 1357.67 808.5 1383.79L808.5 1924.21C808.5 1950.33 787.326 1971.5 761.207 1971.5L274.793 1971.5C248.674 1971.5 227.5 1950.33 227.5 1924.21Z" stroke="#7DD17D" stroke-width="6.875" stroke-miterlimit="8" stroke-dasharray="55 20.625" fill="#F3F3F3" fill-rule="evenodd"/><text font-family="Calibri,Calibri_MSFontService,sans-serif" font-weight="400" font-size="73" transform="matrix(1 0 0 1 357.574 1436)">Bottleneck</text><path d="M278.5 1535.67C278.5 1528.4 284.395 1522.5 291.667 1522.5L699.333 1522.5C706.605 1522.5 712.5 1528.4 712.5 1535.67L712.5 1588.33C712.5 1595.6 706.605 1601.5 699.333 1601.5L291.667 1601.5C284.395 1601.5 278.5 1595.6 278.5 1588.33Z" stroke="#000000" stroke-width="6.875" stroke-miterlimit="8" fill="#F6C09C" fill-rule="evenodd"/><text font-family="Calibri,Calibri_MSFontService,sans-serif" font-weight="400" font-size="64" transform="matrix(1 0 0 1 429.695 1583)">Conv</text><path d="M278.5 1676.67C278.5 1669.4 284.395 1663.5 291.667 1663.5L699.333 1663.5C706.605 1663.5 712.5 1669.4 712.5 1676.67L712.5 1729.33C712.5 1736.6 706.605 1742.5 699.333 1742.5L291.667 1742.5C284.395 1742.5 278.5 1736.6 278.5 1729.33Z" stroke="#000000" stroke-width="6.875" stroke-miterlimit="8" fill="#F6C09C" fill-rule="evenodd"/><text font-family="Calibri,Calibri_MSFontService,sans-serif" font-weight="400" font-size="64" transform="matrix(1 0 0 1 429.695 1724)">Conv</text><path d="M498.937 1463.5 498.938 1499.11 492.063 1499.11 492.062 1463.5ZM509.25 1494.53 495.5 1522.03 481.75 1494.53Z"/><path d="M498.937 1601.5 498.938 1640.58 492.063 1640.58 492.062 1601.5ZM509.25 1635.99 495.5 1663.49 481.75 1635.99Z"/><path d="M498.937 1742.5 498.938 1781.58 492.063 1781.58 492.062 1742.5ZM509.25 1776.99 495.5 1804.49 481.75 1776.99Z"/><path d="M278.5 1817.67C278.5 1810.4 284.395 1804.5 291.667 1804.5L699.333 1804.5C706.605 1804.5 712.5 1810.4 712.5 1817.67L712.5 1870.33C712.5 1877.6 706.605 1883.5 699.333 1883.5L291.667 1883.5C284.395 1883.5 278.5 1877.6 278.5 1870.33Z" stroke="#000000" stroke-width="6.875" stroke-miterlimit="8" fill="#F9F8CB" fill-rule="evenodd"/><text font-family="Calibri,Calibri_MSFontService,sans-serif" font-weight="400" font-size="64" transform="matrix(1 0 0 1 442.345 1865)">Add</text><path d="M0-3.4375 4.22447-3.4375 4.22447 269.489 0.786968 266.052 367.707 266.052 364.27 269.489 364.27 239.984 371.145 239.984 371.145 272.927-2.65053 272.927-2.65053 0 0.786968 3.4375 0 3.4375ZM353.957 244.568 367.707 217.068 381.457 244.568Z" transform="matrix(1.83697e-16 1 1 -1.83697e-16 495.5 1476.5)"/><path d="M803.5 1359.5 937.992 1596.59" stroke="#7DD17D" stroke-width="6.875" stroke-miterlimit="8" stroke-dasharray="27.5 20.625" fill="none" fill-rule="evenodd"/><path d="M0 0 140.931 269.285" stroke="#7DD17D" stroke-width="6.875" stroke-miterlimit="8" stroke-dasharray="27.5 20.625" fill="none" fill-rule="evenodd" transform="matrix(1 0 0 -1 803.5 1945.79)"/><path d="M498.937 1883.5 498.938 1922.58 492.063 1922.58 492.062 1883.5ZM509.25 1917.99 495.5 1945.49 481.75 1917.99Z"/></g></svg>