<svg width="2871" height="556" xmlns="http://www.w3.org/2000/svg" xmlns:xlink="http://www.w3.org/1999/xlink" overflow="hidden"><defs><clipPath id="clip0"><rect x="239" y="1772" width="2871" height="556"/></clipPath></defs><g clip-path="url(#clip0)" transform="translate(-239 -1772)"><path d="M485.5 1787.79C485.5 1781 491.001 1775.5 497.787 1775.5L718.212 1775.5C724.999 1775.5 730.5 1781 730.5 1787.79L730.5 1899.21C730.5 1906 724.999 1911.5 718.212 1911.5L497.787 1911.5C491.001 1911.5 485.5 1906 485.5 1899.21Z" stroke="#000000" stroke-width="6.875" stroke-miterlimit="8" fill="#FBE5D6" fill-rule="evenodd"/><path d="M561.556 1829.08 572.174 1829.08 574.606 1861.06C578.415 1854.84 581.164 1850.12 582.853 1846.87 584.542 1843.63 585.791 1840.83 586.602 1838.46 587.412 1836.1 588.034 1833.63 588.466 1831.07L588.912 1829.08 594.748 1829.08 597.706 1861.1C601.921 1855.1 605.13 1849.87 607.332 1845.39 609.534 1840.92 610.635 1837.28 610.635 1834.47 610.635 1833.2 610.364 1832.34 609.824 1831.88 609.284 1831.42 608.365 1831.15 607.068 1831.07L607.473 1829.08 617.93 1829.08 619.024 1831.11C618.078 1833.51 617.322 1835.36 616.754 1836.66 616.187 1837.96 615.444 1839.52 614.525 1841.34 613.607 1843.17 612.634 1844.98 611.607 1846.79 610.581 1848.6 609.371 1850.6 607.98 1852.77 606.589 1854.95 605.028 1857.31 603.299 1859.86 601.57 1862.42 599.53 1865.29 597.18 1868.47L592.357 1868.47 590.695 1851.53C590.56 1850.21 590.418 1848.48 590.27 1846.35 590.121 1844.21 590.02 1842.56 589.966 1841.4L589.52 1841.36C588.061 1844.96 586.075 1848.95 583.562 1853.36 581.05 1857.76 577.943 1862.8 574.241 1868.47L568.81 1868.47 565.73 1837.96C565.568 1836.39 565.366 1835.12 565.122 1834.15 564.879 1833.18 564.474 1832.45 563.907 1831.96 563.339 1831.47 562.407 1831.18 561.11 1831.07Z" fill-rule="evenodd"/><text fill="#000000" fill-opacity="0" font-family="Arial,Arial_MSFontService,sans-serif" font-size="39.3926" x="561.11" y="1863.55">ğ‘¤</text><path d="M635.361 1857.21C634.189 1857.21 633.102 1857.46 632.099 1857.97 631.097 1858.47 630.178 1859.17 629.344 1860.05 628.51 1860.94 627.766 1861.96 627.11 1863.12 626.455 1864.28 625.904 1865.52 625.457 1866.84 625.011 1868.16 624.673 1869.51 624.445 1870.89 624.216 1872.27 624.102 1873.62 624.102 1874.93 624.102 1877.07 624.405 1878.67 625.011 1879.71 625.616 1880.75 626.594 1881.27 627.944 1881.27 628.878 1881.27 629.895 1880.95 630.997 1880.31 632.099 1879.66 633.172 1878.75 634.214 1877.58 635.257 1876.41 636.205 1874.99 637.059 1873.34 637.913 1871.68 638.558 1869.84 638.995 1867.81 639.253 1866.74 639.471 1865.66 639.65 1864.58 639.829 1863.5 639.918 1862.52 639.918 1861.65 639.918 1860.04 639.556 1858.9 638.831 1858.22 638.106 1857.55 636.95 1857.21 635.361 1857.21ZM634.825 1854.26C636.334 1854.26 637.689 1854.44 638.891 1854.81 640.092 1855.18 641.199 1855.68 642.212 1856.31L645.041 1854.26 647.454 1854.88C646.143 1860.78 644.848 1866.62 643.567 1872.4 642.286 1878.18 641.09 1883.62 639.978 1888.72 639.6 1890.09 639.412 1891.2 639.412 1892.06 639.412 1892.79 639.69 1893.31 640.246 1893.62 640.802 1893.93 641.755 1894.14 643.105 1894.26L642.688 1896.23 632.472 1896.23C633.306 1892.97 634.085 1889.95 634.81 1887.16 635.535 1884.37 636.324 1881.34 637.178 1878.09L636.701 1877.97C635.708 1879.26 634.74 1880.36 633.797 1881.27 632.854 1882.19 631.931 1882.94 631.027 1883.52 630.124 1884.11 629.22 1884.54 628.317 1884.8 627.413 1885.07 626.505 1885.21 625.591 1885.21 623.228 1885.21 621.402 1884.36 620.111 1882.66 618.82 1880.96 618.175 1878.49 618.175 1875.26 618.175 1873.33 618.378 1871.48 618.786 1869.7 619.193 1867.93 619.768 1866.26 620.513 1864.7 621.258 1863.14 622.146 1861.72 623.179 1860.44 624.211 1859.16 625.343 1858.06 626.574 1857.15 627.805 1856.24 629.116 1855.53 630.506 1855.02 631.896 1854.51 633.336 1854.26 634.825 1854.26Z" fill-rule="evenodd"/><text fill="#000000" fill-opacity="0" font-family="Arial,Arial_MSFontService,sans-serif" font-size="41.9673" x="618.175" y="1890.98">ğ‘</text><path d="M485.5 1994.79C485.5 1988 491.001 1982.5 497.787 1982.5L718.212 1982.5C724.999 1982.5 730.5 1988 730.5 1994.79L730.5 2106.21C730.5 2113 724.999 2118.5 718.212 2118.5L497.787 2118.5C491.001 2118.5 485.5 2113 485.5 2106.21Z" stroke="#000000" stroke-width="6.875" stroke-miterlimit="8" fill="#FBE5D6" fill-rule="evenodd"/><path d="M560.043 2038.62 570.662 2038.62 573.093 2070.6C576.903 2064.38 579.652 2059.66 581.341 2056.41 583.029 2053.17 584.279 2050.37 585.089 2048 585.9 2045.64 586.521 2043.17 586.954 2040.61L587.399 2038.62 593.235 2038.62 596.194 2070.64C600.409 2064.64 603.617 2059.41 605.819 2054.93 608.021 2050.46 609.122 2046.82 609.122 2044.01 609.122 2042.74 608.852 2041.88 608.312 2041.42 607.771 2040.96 606.853 2040.69 605.556 2040.61L605.961 2038.62 616.417 2038.62 617.511 2040.65C616.566 2043.05 615.809 2044.9 615.242 2046.2 614.674 2047.5 613.931 2049.06 613.013 2050.88 612.094 2052.7 611.121 2054.52 610.095 2056.33 609.068 2058.14 607.859 2060.13 606.468 2062.31 605.076 2064.48 603.516 2066.85 601.787 2069.4 600.057 2071.96 598.018 2074.83 595.667 2078.01L590.844 2078.01 589.183 2061.07C589.048 2059.75 588.906 2058.02 588.757 2055.89 588.608 2053.75 588.507 2052.1 588.453 2050.94L588.007 2050.9C586.548 2054.49 584.562 2058.49 582.05 2062.9 579.537 2067.3 576.43 2072.34 572.729 2078.01L567.298 2078.01 564.218 2047.5C564.056 2045.93 563.853 2044.66 563.61 2043.69 563.367 2042.71 562.961 2041.99 562.394 2041.5 561.827 2041.01 560.895 2040.72 559.598 2040.61Z" fill-rule="evenodd"/><text fill="#000000" fill-opacity="0" font-family="Arial,Arial_MSFontService,sans-serif" font-size="39.3926" x="559.598" y="2073.09">ğ‘¤</text><path d="M631.432 2053.55 633.576 2053.55 628.334 2076.73 629.168 2076.73C629.923 2076.73 630.737 2076.57 631.611 2076.25 632.484 2075.93 633.353 2075.52 634.217 2075.01 635.081 2074.51 635.91 2073.94 636.704 2073.3 637.498 2072.66 638.198 2072.02 638.804 2071.38 639.409 2070.73 639.891 2070.12 640.248 2069.55 640.606 2068.97 640.784 2068.48 640.784 2068.09 640.784 2067.61 640.625 2067.22 640.308 2066.93 639.99 2066.63 639.414 2066.43 638.58 2066.33L638.938 2064.42 649.66 2064.42 650.405 2066.27C649.154 2067.34 647.953 2068.34 646.801 2069.25 645.649 2070.16 644.522 2071.04 643.42 2071.89 642.318 2072.73 641.216 2073.56 640.114 2074.37 639.012 2075.19 637.885 2076.03 636.734 2076.9 637.21 2078.41 637.697 2079.95 638.193 2081.51 638.689 2083.06 639.186 2084.61 639.682 2086.14 639.921 2086.95 640.144 2087.65 640.352 2088.24 640.561 2088.82 640.784 2089.3 641.023 2089.67 641.261 2090.03 641.519 2090.31 641.797 2090.49 642.075 2090.66 642.413 2090.75 642.81 2090.75 643.088 2090.75 643.376 2090.7 643.674 2090.61 643.971 2090.51 644.304 2090.33 644.671 2090.07 645.039 2089.81 645.456 2089.46 645.922 2089.01 646.389 2088.56 646.92 2088 647.516 2087.33L649.541 2089.26C648.608 2090.22 647.739 2091.04 646.935 2091.74 646.131 2092.43 645.366 2093 644.642 2093.45 643.917 2093.9 643.217 2094.22 642.542 2094.43 641.867 2094.64 641.182 2094.75 640.487 2094.75 639.236 2094.75 638.228 2094.43 637.463 2093.81 636.699 2093.18 636.049 2092.29 635.512 2091.13 634.976 2089.96 634.485 2088.56 634.038 2086.91 633.591 2085.26 633.07 2083.43 632.474 2081.4 632.335 2080.93 632.201 2080.54 632.072 2080.25 631.943 2079.97 631.779 2079.75 631.581 2079.6 631.382 2079.45 631.134 2079.36 630.836 2079.32 630.538 2079.28 630.161 2079.26 629.704 2079.26L627.798 2079.26 624.522 2094.21 618.803 2094.21 626.011 2062.22C626.249 2061.17 626.418 2060.34 626.517 2059.73 626.617 2059.13 626.666 2058.59 626.666 2058.11 626.666 2057.73 626.602 2057.4 626.473 2057.13 626.344 2056.85 626.13 2056.63 625.832 2056.46 625.534 2056.29 625.137 2056.16 624.641 2056.08 624.144 2056 623.529 2055.96 622.794 2055.94L623.241 2053.91Z" fill-rule="evenodd"/><text fill="#000000" fill-opacity="0" font-family="Arial,Arial_MSFontService,sans-serif" font-size="41.1929" x="618.803" y="2089.6">ğ‘˜</text><path d="M485.5 2201.7C485.5 2194.96 490.961 2189.5 497.697 2189.5L718.303 2189.5C725.039 2189.5 730.5 2194.96 730.5 2201.7L730.5 2312.3C730.5 2319.04 725.039 2324.5 718.303 2324.5L497.697 2324.5C490.961 2324.5 485.5 2319.04 485.5 2312.3Z" stroke="#000000" stroke-width="6.875" stroke-miterlimit="8" fill="#FBE5D6" fill-rule="evenodd"/><path d="M562.839 2245.34 573.457 2245.34 575.889 2277.32C579.699 2271.1 582.448 2266.38 584.136 2263.13 585.825 2259.89 587.075 2257.09 587.885 2254.72 588.696 2252.36 589.317 2249.89 589.749 2247.33L590.195 2245.34 596.031 2245.34 598.99 2277.36C603.205 2271.36 606.413 2266.13 608.615 2261.65 610.817 2257.18 611.918 2253.54 611.918 2250.73 611.918 2249.46 611.648 2248.6 611.107 2248.14 610.567 2247.68 609.648 2247.41 608.352 2247.33L608.757 2245.34 619.213 2245.34 620.307 2247.37C619.361 2249.77 618.605 2251.62 618.038 2252.92 617.47 2254.22 616.727 2255.78 615.809 2257.6 614.89 2259.43 613.917 2261.24 612.891 2263.05 611.864 2264.86 610.655 2266.86 609.263 2269.03 607.872 2271.21 606.312 2273.57 604.582 2276.12 602.853 2278.68 600.813 2281.55 598.463 2284.73L593.64 2284.73 591.978 2267.79C591.843 2266.47 591.702 2264.74 591.553 2262.61 591.404 2260.47 591.303 2258.82 591.249 2257.66L590.803 2257.62C589.344 2261.22 587.358 2265.21 584.846 2269.62 582.333 2274.02 579.226 2279.06 575.524 2284.73L570.094 2284.73 567.014 2254.22C566.852 2252.65 566.649 2251.38 566.406 2250.41 566.163 2249.44 565.757 2248.71 565.19 2248.22 564.622 2247.73 563.69 2247.44 562.393 2247.33Z" fill-rule="evenodd"/><text fill="#000000" fill-opacity="0" font-family="Arial,Arial_MSFontService,sans-serif" font-size="39.3926" x="562.393" y="2279.81">ğ‘¤</text><path d="M626.994 2270.52C627.848 2270.52 628.538 2270.69 629.064 2271.03 629.59 2271.36 630.007 2271.8 630.315 2272.35 630.623 2272.9 630.831 2273.5 630.94 2274.15 631.05 2274.81 631.104 2275.45 631.104 2276.09 631.104 2276.47 631.065 2276.97 630.985 2277.61L629.109 2288.39C628.93 2289.42 628.781 2290.44 628.662 2291.43 628.543 2292.42 628.483 2293.29 628.483 2294.05 628.483 2294.8 628.533 2295.42 628.632 2295.9 628.731 2296.37 628.831 2296.61 628.93 2296.61 629.565 2296.61 630.379 2296.36 631.372 2295.85 632.365 2295.35 633.413 2294.65 634.515 2293.77 635.617 2292.88 636.719 2291.84 637.821 2290.62 638.923 2289.41 639.911 2288.1 640.784 2286.68 641.658 2285.26 642.368 2283.77 642.914 2282.21 643.46 2280.65 643.733 2279.08 643.733 2277.49 643.733 2276.56 643.559 2275.88 643.212 2275.46 642.864 2275.05 642.393 2274.84 641.797 2274.84 641.162 2274.84 640.487 2275.14 639.772 2275.75 639.057 2276.35 638.312 2277.14 637.538 2278.11L635.781 2276.36C636.257 2275.58 636.823 2274.84 637.478 2274.14 638.134 2273.43 638.829 2272.81 639.563 2272.28 640.298 2271.74 641.057 2271.31 641.842 2271 642.626 2270.68 643.396 2270.52 644.15 2270.52 645.719 2270.52 646.851 2271.01 647.546 2271.99 648.241 2272.98 648.588 2274.29 648.588 2275.94 648.588 2276.89 648.414 2277.99 648.067 2279.22 647.719 2280.45 647.228 2281.75 646.593 2283.12 645.957 2284.49 645.203 2285.89 644.329 2287.33 643.455 2288.77 642.487 2290.17 641.425 2291.53 640.362 2292.89 639.231 2294.17 638.029 2295.38 636.828 2296.58 635.577 2297.62 634.276 2298.52 632.976 2299.41 631.655 2300.12 630.315 2300.65 628.975 2301.17 627.639 2301.44 626.309 2301.44 625.594 2301.44 624.998 2301.29 624.522 2301 624.045 2300.72 623.678 2300.31 623.42 2299.78 623.162 2299.26 622.983 2298.64 622.884 2297.92 622.784 2297.21 622.735 2296.42 622.735 2295.57 622.735 2294.44 622.804 2293.23 622.943 2291.93 623.082 2290.64 623.261 2289.34 623.479 2288.03 624.532 2281.66 625.058 2277.96 625.058 2276.92 625.098 2276.19 625.013 2275.69 624.805 2275.42 624.596 2275.15 624.303 2275.02 623.926 2275.02 623.529 2275.02 623.107 2275.13 622.66 2275.34 622.213 2275.56 621.762 2275.84 621.305 2276.18 620.848 2276.52 620.406 2276.88 619.979 2277.27 619.553 2277.65 619.15 2278.02 618.773 2278.35L617.135 2276.36C617.79 2275.66 618.49 2274.97 619.235 2274.27 619.979 2273.58 620.769 2272.95 621.603 2272.38 622.437 2271.81 623.31 2271.36 624.224 2271.03 625.137 2270.69 626.061 2270.52 626.994 2270.52Z" fill-rule="evenodd"/><text fill="#000000" fill-opacity="0" font-family="Arial,Arial_MSFontService,sans-serif" font-size="30.917" x="617.135" y="2297.57">ğ‘£</text><path d="M315.976 1821.9C314.463 1821.9 313.153 1821.93 312.045 1821.98L307.06 1844.8 309.168 1844.8C312.869 1844.8 315.72 1844.22 317.719 1843.06 319.718 1841.9 321.245 1840.16 322.298 1837.85 323.352 1835.54 323.879 1832.94 323.879 1830.05 323.879 1827.32 323.237 1825.28 321.954 1823.93 320.671 1822.58 318.678 1821.9 315.976 1821.9ZM296.361 1817.16 316.584 1817.16C319.421 1817.16 321.718 1817.25 323.474 1817.42 325.23 1817.6 326.939 1818.01 328.6 1818.64 330.262 1819.28 331.66 1820.11 332.795 1821.15 333.93 1822.19 334.794 1823.45 335.389 1824.92 335.983 1826.39 336.28 1828.08 336.28 1829.97 336.28 1832.99 335.72 1835.7 334.599 1838.09 333.477 1840.48 331.89 1842.54 329.837 1844.27 327.783 1846 325.169 1847.31 321.995 1848.18 318.82 1849.06 315.274 1849.5 311.356 1849.5L310.181 1849.5C308.533 1849.5 307.155 1849.43 306.047 1849.3L303.332 1861.54C303.143 1862.4 303.007 1863.15 302.926 1863.79 302.845 1864.42 302.805 1865.25 302.805 1866.28 302.805 1867.52 303.122 1868.4 303.757 1868.91 304.392 1869.43 305.385 1869.72 306.736 1869.81L306.169 1872.48 285.216 1872.48 285.783 1869.81C287.323 1869.37 288.458 1868.62 289.188 1867.54 289.917 1866.46 290.606 1864.46 291.255 1861.54L298.63 1828.1C298.982 1826.51 299.157 1824.93 299.157 1823.36 299.157 1822.23 298.894 1821.4 298.367 1820.87 297.84 1820.34 296.982 1820 295.794 1819.84Z" fill-rule="evenodd"/><text fill="#000000" fill-opacity="0" font-family="Arial,Arial_MSFontService,sans-serif" font-size="55.3198" x="285.216" y="1865.57">ğ‘·</text><path d="M301.455 1801.1C302.374 1801.1 303.239 1801.16 304.049 1801.27 304.86 1801.37 305.697 1801.54 306.562 1801.75 307.426 1801.97 308.352 1802.25 309.338 1802.6 310.324 1802.95 311.452 1803.37 312.722 1803.86 313.938 1804.32 315.005 1804.7 315.924 1805.01 316.842 1805.33 317.68 1805.58 318.436 1805.76 319.193 1805.95 319.902 1806.08 320.564 1806.15 321.226 1806.22 321.922 1806.25 322.651 1806.25 323.732 1806.25 324.711 1806.15 325.589 1805.95 326.468 1805.74 327.292 1805.44 328.062 1805.03 328.832 1804.63 329.588 1804.12 330.331 1803.52 331.074 1802.91 331.864 1802.18 332.702 1801.35L334.931 1803.05C333.796 1804.64 332.689 1805.97 331.608 1807.04 330.527 1808.11 329.446 1808.97 328.366 1809.61 327.285 1810.26 326.184 1810.72 325.063 1810.99 323.941 1811.26 322.786 1811.4 321.598 1811.4 320.733 1811.4 319.882 1811.34 319.044 1811.22 318.207 1811.09 317.342 1810.91 316.451 1810.67 315.559 1810.42 314.62 1810.13 313.634 1809.8 312.648 1809.46 311.587 1809.06 310.453 1808.6 308.291 1807.76 306.454 1807.16 304.941 1806.8 303.428 1806.43 302.036 1806.25 300.766 1806.25 299.848 1806.25 298.963 1806.3 298.112 1806.39 297.261 1806.49 296.41 1806.7 295.559 1807.02 294.708 1807.34 293.85 1807.83 292.985 1808.48 292.121 1809.13 291.202 1810.01 290.229 1811.11L287.879 1809.41C288.878 1807.95 289.871 1806.7 290.858 1805.64 291.844 1804.59 292.877 1803.73 293.958 1803.07 295.039 1802.41 296.187 1801.91 297.403 1801.59 298.619 1801.27 299.969 1801.1 301.455 1801.1Z" fill-rule="evenodd"/><text fill="#000000" fill-opacity="0" font-family="Arial,Arial_MSFontService,sans-serif" font-size="10.2939" x="287.879" y="1810.11">à·©</text><path d="M306.315 2017.13 319.932 2017.13 318.96 2035.93 334.846 2025.88 341.655 2037.55 324.796 2046.31 341.655 2055.06 334.846 2066.73 318.96 2056.68 319.932 2075.48 306.315 2075.48 307.288 2056.68 291.401 2066.73 284.593 2055.06 301.128 2046.31 284.593 2037.55 291.401 2025.88 307.288 2035.93Z" fill-rule="evenodd"/><text fill="#000000" fill-opacity="0" font-family="Arial,Arial_MSFontService,sans-serif" font-size="58.3594" x="284.593" y="2068.19">âœ±</text><path d="M835.266 1917.27 901.734 1983.73M901.734 1917.27 835.266 1983.73" stroke="#000000" stroke-width="6.875" stroke-miterlimit="8" fill="none" fill-rule="evenodd"/><path d="M821.5 1950.5C821.5 1924.54 842.543 1903.5 868.5 1903.5 894.457 1903.5 915.5 1924.54 915.5 1950.5 915.5 1976.46 894.457 1997.5 868.5 1997.5 842.543 1997.5 821.5 1976.46 821.5 1950.5Z" stroke="#000000" stroke-width="6.875" stroke-miterlimit="8" fill="none" fill-rule="evenodd"/><path d="M1005.5 1895.7C1005.5 1888.96 1010.96 1883.5 1017.7 1883.5L1277.3 1883.5C1284.04 1883.5 1289.5 1888.96 1289.5 1895.7L1289.5 2006.3C1289.5 2013.04 1284.04 2018.5 1277.3 2018.5L1017.7 2018.5C1010.96 2018.5 1005.5 2013.04 1005.5 2006.3Z" stroke="#000000" stroke-width="6.875" stroke-miterlimit="8" fill="#C5E0B4" fill-rule="evenodd"/><text font-family="Calibri,Calibri_MSFontService,sans-serif" font-weight="400" font-size="83" transform="matrix(1 0 0 1 1060.91 1978)">Scale</text><path d="M1381.5 1895.7C1381.5 1888.96 1386.96 1883.5 1393.7 1883.5L1769.3 1883.5C1776.04 1883.5 1781.5 1888.96 1781.5 1895.7L1781.5 2006.3C1781.5 2013.04 1776.04 2018.5 1769.3 2018.5L1393.7 2018.5C1386.96 2018.5 1381.5 2013.04 1381.5 2006.3Z" stroke="#000000" stroke-width="6.875" stroke-miterlimit="8" fill="#FFE59D" fill-rule="evenodd"/><text font-family="Calibri,Calibri_MSFontService,sans-serif" font-weight="400" font-size="83" transform="matrix(1 0 0 1 1443.94 1978)">Softmax</text><path d="M1887.27 2114.12 1953.73 2179.88M1953.73 2114.12 1887.27 2179.88" stroke="#000000" stroke-width="6.875" stroke-miterlimit="8" fill="none" fill-rule="evenodd"/><path d="M1873.5 2147C1873.5 2121.32 1894.54 2100.5 1920.5 2100.5 1946.46 2100.5 1967.5 2121.32 1967.5 2147 1967.5 2172.68 1946.46 2193.5 1920.5 2193.5 1894.54 2193.5 1873.5 2172.68 1873.5 2147Z" stroke="#000000" stroke-width="6.875" stroke-miterlimit="8" fill="none" fill-rule="evenodd"/><path d="M2054.5 2091.7C2054.5 2084.96 2059.96 2079.5 2066.7 2079.5L2336.3 2079.5C2343.04 2079.5 2348.5 2084.96 2348.5 2091.7L2348.5 2202.3C2348.5 2209.04 2343.04 2214.5 2336.3 2214.5L2066.7 2214.5C2059.96 2214.5 2054.5 2209.04 2054.5 2202.3Z" stroke="#000000" stroke-width="6.875" stroke-miterlimit="8" fill="#E6CCFC" fill-rule="evenodd"/><text font-family="Calibri,Calibri_MSFontService,sans-serif" font-weight="400" font-size="83" transform="matrix(1 0 0 1 2105.36 2174)">Norm</text><path d="M2437.5 2091.7C2437.5 2084.96 2442.96 2079.5 2449.7 2079.5L2719.3 2079.5C2726.04 2079.5 2731.5 2084.96 2731.5 2091.7L2731.5 2202.3C2731.5 2209.04 2726.04 2214.5 2719.3 2214.5L2449.7 2214.5C2442.96 2214.5 2437.5 2209.04 2437.5 2202.3Z" stroke="#000000" stroke-width="6.875" stroke-miterlimit="8" fill="#D9D9D9" fill-rule="evenodd"/><text font-family="Calibri,Calibri_MSFontService,sans-serif" font-weight="400" font-size="83" transform="matrix(1 0 0 1 2480.47 2174)">Linear</text><path d="M2894.35 2127.28 2881.83 2150.9 2895.04 2150.9 2894.88 2141.18C2894.83 2137.72 2894.8 2134.85 2894.8 2132.58 2894.8 2130.86 2894.81 2129.09 2894.84 2127.28ZM2893.79 2117.18 2905.46 2117.18 2907.2 2160.51C2907.25 2162.05 2907.36 2163.43 2907.52 2164.66 2907.69 2165.89 2907.94 2166.9 2908.29 2167.68 2908.65 2168.46 2909.08 2169.04 2909.61 2169.4 2910.14 2169.77 2910.81 2170 2911.62 2170.11L2911.01 2172.79 2890.06 2172.79 2890.66 2170.11C2891.85 2170.03 2892.79 2169.73 2893.48 2169.2 2894.17 2168.67 2894.65 2167.96 2894.92 2167.05 2895.19 2166.15 2895.33 2164.88 2895.33 2163.26 2895.33 2162.1 2895.3 2160.89 2895.24 2159.62L2895.16 2155.64 2879.32 2155.64 2878.75 2156.66C2877.24 2159.39 2876.23 2161.45 2875.73 2162.86 2875.23 2164.26 2874.98 2165.56 2874.98 2166.75 2874.98 2168.69 2876.13 2169.82 2878.43 2170.11L2877.82 2172.79 2860.72 2172.79 2861.32 2170.11C2862.27 2169.9 2863.1 2169.53 2863.82 2169.02 2864.53 2168.51 2865.21 2167.81 2865.86 2166.93 2866.51 2166.05 2867.43 2164.55 2868.62 2162.41Z" fill-rule="evenodd"/><text fill="#000000" fill-opacity="0" font-family="Arial,Arial_MSFontService,sans-serif" font-size="55.6035" x="2860.72" y="2165.84">ğ‘¨</text><path d="M3035.04 2110.67C3042.93 2112.75 3048.99 2117.25 3053.22 2124.15 3057.45 2131.05 3059.56 2139.38 3059.56 2149.13 3059.56 2158.91 3057.45 2167.24 3053.24 2174.12 3049.02 2181 3042.96 2185.47 3035.04 2187.55L3034.07 2184.43C3040.31 2182.35 3044.95 2178.25 3047.99 2172.11 3051.03 2165.98 3052.55 2158.19 3052.55 2148.73 3052.55 2139.6 3051.04 2132.01 3048.01 2125.97 3044.98 2119.93 3040.3 2115.87 3033.95 2113.79ZM2947.48 2110.67 2948.58 2113.79C2942.25 2115.87 2937.57 2119.93 2934.53 2125.97 2931.5 2132.01 2929.98 2139.6 2929.98 2148.73 2929.98 2158.19 2931.5 2165.98 2934.53 2172.11 2937.57 2178.25 2942.21 2182.35 2948.46 2184.43L2947.48 2187.55C2939.57 2185.47 2933.5 2181 2929.29 2174.12 2925.07 2167.24 2922.96 2158.91 2922.96 2149.13 2922.96 2139.38 2925.08 2131.05 2929.31 2124.15 2933.53 2117.25 2939.59 2112.75 2947.48 2110.67Z" fill-rule="evenodd"/><path d="M2984.6 2113.78 2998.22 2113.78 2997.24 2132.58 3013.13 2122.53 3019.94 2134.21 3003.08 2142.96 3019.94 2151.71 3013.13 2163.39 2997.24 2153.33 2998.22 2172.14 2984.6 2172.14 2985.57 2153.33 2969.68 2163.39 2962.88 2151.71 2979.41 2142.96 2962.88 2134.21 2969.68 2122.53 2985.57 2132.58Z" fill-rule="evenodd"/><text fill="#000000" fill-opacity="0" font-family="Arial,Arial_MSFontService,sans-serif" font-size="58.3594" x="2962.88" y="2164.84">âœ±</text><path d="M0.0241526-3.43742 79.0623-2.88206 79.014 3.99277-0.0241526 3.43742ZM74.5516-13.2265 101.954 0.716371 74.3583 14.2728Z" transform="matrix(1 0 0 -1 383.5 1844.22)"/><path d="M382.52 2046.06 462.825 2046.52 462.786 2053.39 382.48 2052.94ZM458.301 2036.18 485.722 2050.09 458.144 2063.68Z"/><path d="M306.315 2225.08 319.932 2225.08 318.96 2243.89 334.846 2233.83 341.655 2245.51 324.796 2254.26 341.655 2263.01 334.846 2274.69 318.96 2264.64 319.932 2283.44 306.315 2283.44 307.288 2264.64 291.401 2274.69 284.593 2263.01 301.128 2254.26 284.593 2245.51 291.401 2233.83 307.288 2243.89Z" fill-rule="evenodd"/><text fill="#000000" fill-opacity="0" font-family="Arial,Arial_MSFontService,sans-serif" font-size="58.3594" x="284.593" y="2276.14">âœ±</text><path d="M0.0215247-3.43743 80.327-2.93457 80.284 3.94029-0.0215247 3.43743ZM75.8084-13.2756 103.222 0.646358 75.6362 14.2239Z" transform="matrix(1 0 0 -1 382.5 2258.15)"/><path d="M730.5 1840.06 871.368 1840.06 871.368 1880.87 864.493 1880.87 864.493 1843.5 867.93 1846.94 730.5 1846.94ZM881.68 1876.29 867.93 1903.79 854.18 1876.29Z"/><path d="M0-3.4375 140.868-3.4375 140.868 29.87 133.993 29.87 133.993 0 137.43 3.4375 0 3.4375ZM151.18 25.2866 137.43 52.7866 123.68 25.2866Z" transform="matrix(1 0 0 -1 730.5 2050.29)"/><path d="M1.37241e-05-3.4375 67.4764-3.43723 67.4764 3.43777-1.37241e-05 3.4375ZM62.8931-13.7497 90.3931 0.000360892 62.893 13.7503Z" transform="matrix(1 0 0 -1 915.5 1950.5)"/><path d="M1289.5 1947.06 1359.2 1947.06 1359.2 1953.94 1289.5 1953.94ZM1354.62 1936.75 1382.12 1950.5 1354.62 1964.25Z"/><path d="M1781.5 1947.06 1924.38 1947.06 1924.38 2077.02 1917.51 2077.02 1917.51 1950.5 1920.94 1953.94 1781.5 1953.94ZM1934.69 2072.44 1920.94 2099.94 1907.19 2072.44Z"/><path d="M0-3.4375 1193.46-3.4375 1193.46 40.3297 1186.59 40.3297 1186.59 0 1190.02 3.4375 0 3.4375ZM1203.77 35.7464 1190.02 63.2464 1176.27 35.7464Z" transform="matrix(1 0 0 -1 730.5 2256.75)"/><path d="M1967.5 2144.06 2031.53 2144.06 2031.52 2150.94 1967.5 2150.94ZM2026.94 2133.75 2054.44 2147.5 2026.94 2161.25Z"/><path d="M2348.5 2144.06 2414.5 2144.06 2414.5 2150.94 2348.5 2150.94ZM2409.92 2133.75 2437.42 2147.5 2409.92 2161.25Z"/><path d="M0.0231152-3.43742 64.0485-3.00688 64.0022 3.86797-0.0231152 3.43742ZM59.5346-13.35 86.9415 0.584646 59.3497 14.1494Z" transform="matrix(1 0 0 -1 2731.5 2147.08)"/></g></svg>