<?xml version="1.0" encoding="UTF-8" standalone="no"?>
<svg
   width="92.002151"
   height="104.96405"
   viewBox="0 0 92.002151 104.96405"
   version="1.1"
   id="svg122"
   sodipodi:docname="svgexport-1 (4).svg"
   inkscape:version="1.1.2 (b8e25be833, 2022-02-05)"
   xmlns:inkscape="http://www.inkscape.org/namespaces/inkscape"
   xmlns:sodipodi="http://sodipodi.sourceforge.net/DTD/sodipodi-0.dtd"
   xmlns="http://www.w3.org/2000/svg"
   xmlns:svg="http://www.w3.org/2000/svg">
  <defs
     id="defs126" />
  <sodipodi:namedview
     id="namedview124"
     pagecolor="#505050"
     bordercolor="#ffffff"
     borderopacity="1"
     inkscape:pageshadow="0"
     inkscape:pageopacity="0"
     inkscape:pagecheckerboard="1"
     showgrid="false"
     fit-margin-top="0"
     fit-margin-left="0"
     fit-margin-right="0"
     fit-margin-bottom="0"
     inkscape:zoom="3.2318182"
     inkscape:cx="33.727145"
     inkscape:cy="89.578059"
     inkscape:window-width="1920"
     inkscape:window-height="991"
     inkscape:window-x="-9"
     inkscape:window-y="-9"
     inkscape:window-maximized="1"
     inkscape:current-layer="svg122" />
  <g
     id="Group_47732"
     data-name="Group 47732"
     transform="matrix(1.4052759,0,0,1.4052759,-0.00456505,8.3933816e-5)">
    <path
       id="Path_81692"
       data-name="Path 81692"
       d="m 930.756,765.476 v 0 a 21.055,21.055 0 0 0 15.293,6.878 20.691,20.691 0 0 0 19.736,-14.424 v 0 a 84.174,84.174 0 0 1 -10.216,3.551 l -5.644,1.43 -5.041,1.111 a 6.852,6.852 0 0 1 -0.991,1.073 5.282,5.282 0 0 1 -6.654,0.579 6.29,6.29 0 0 1 -0.827,-0.652 z"
       transform="translate(-912.616,-730.032)"
       fill="#003084"
       fill-rule="evenodd" />
    <g
       id="Group_47731"
       data-name="Group 47731">
      <path
         id="Path_81693"
         data-name="Path 81693"
         d="m 989.454,760.375 c -0.923,-5.006 -8.537,-7.945 -19.01,-8.295 a 21.2,21.2 0 0 0 -30.831,5.527 c -10.221,4.329 -16.368,10.5 -15.4,15.767 1.116,6.087 10.593,9.266 23.988,7.994 a 4.412,4.412 0 0 0 7.389,-1.092 c 0.609,-0.115 1.239,-0.237 1.864,-0.377 23.934,-5.269 33.364,-12.106 32,-19.524 z m -32.588,15.26 c -0.606,0.12 -1.209,0.246 -1.8,0.371 a 4.4,4.4 0 0 0 -7.612,1.056 c -11.185,0.912 -18.958,-1.556 -19.834,-6.337 -0.715,-3.884 3.748,-8.456 11.346,-12 a 20.811,20.811 0 0 0 -2.5,9.908 19.781,19.781 0 0 0 0.991,6.507 l 0.128,0.188 c 0,0 7.656,0.418 8.84,0.172 0,0 0.781,-2.516 4.342,-2.915 a 7.064,7.064 0 0 1 4.894,1.859 c 0,0 13.728,-2.828 22,-7.036 l 0.811,-0.357 a 20.225,20.225 0 0 0 -7.069,-14.176 c 7.822,0.521 13.3,2.743 13.985,6.414 1.102,6.02 -7.308,11.741 -28.523,16.346 z"
         transform="translate(-924.11,-747.708)"
         fill="#003084"
         fill-rule="evenodd" />
    </g>
  </g>
  <g
     id="Group_47753"
     data-name="Group 47753"
     transform="matrix(0.66178982,0,0,0.66178982,1.2342059,65.21396)">
    <g
       id="Group_47734"
       data-name="Group 47734"
       transform="translate(0,5.782)">
      <g
         id="Group_47733"
         data-name="Group 47733">
        <path
           id="Path_81694"
           data-name="Path 81694"
           d="m 964.2,771.744 -1.324,-0.666 -0.6,-2.688 -1.343,-0.933 -4.793,0.423 -3.726,0.51 -0.412,-2.279 0.947,-4.2 0.243,-2.309 -0.134,-2.716 0.772,-1.111 1.578,0.177 2.677,-0.275 5.641,-0.489 1.294,0.846 -0.259,4.765 0.107,2.462 0.243,1.212 0.352,1.217 -0.18,0.7 -0.415,0.537 -0.393,0.579 -0.1,0.778 0.458,0.2 0.448,-0.077 1.007,-0.314 0.295,-0.407 0.437,-0.36 1.032,-0.756 0.622,-1.37 0.36,-1.506 0.153,-1.556 0.06,-1.591 0.106,-3.245 0.207,-1.529 0.437,-1.425 1.657,-0.336 1.758,-0.046 1.837,0.259 1.812,0.513 0.368,-0.063 0.311,-0.117 0.548,-0.431 0.579,-0.349 0.786,-0.06 0.625,1.256 -0.256,1.673 -0.112,1.66 0.082,3.349 0.543,6.864 -0.281,0.249 -0.188,0.469 -0.412,1.225 -0.442,0.158 -0.458,-0.036 -1.032,-0.355 -0.057,-2.186 -0.409,-2.355 -0.4,-0.379 h -4.5 l -1.064,0.639 -1.015,0.931 -0.802,1.12 -1.416,2.238 -0.633,0.609 -0.3,0.3 -0.467,0.183 -1.19,0.42 z m -7.044,-6.239 2.4,-0.123 -0.27,-0.663 -0.085,-0.194 -0.057,-0.126 -0.328,-0.393 -0.467,-0.2 -0.521,0.33 -0.295,0.456 -0.377,0.917 z m -2.243,-4.987 0.469,-0.21 0.295,-0.295 0.156,-0.9 -0.295,-0.884 -0.625,-0.516 v 2.8 z m -0.393,5.41 0.953,-0.254 -0.036,-0.6 0.148,-0.518 0.142,-0.491 -0.022,-0.513 0.483,-0.5 1.883,-0.516 1.662,-0.145 1.485,0.661 0.237,1.179 0.016,1 0.469,0.439 0.516,-0.2 0.175,-1.01 v -0.86 l -0.175,-1.7 -0.581,-0.2 -0.483,0.09 -0.87,0.317 -1.679,-1.176 -0.057,-1.1 V 757.8 l -0.194,-0.928 -0.265,0.431 -0.289,1.209 -0.464,1.119 -0.953,1.982 -1.406,0.775 -0.325,0.977 -0.082,0.863 -0.087,0.841 -0.2,0.857 z m 5.846,-5.805 h 1.52 l -0.074,-0.783 v -0.84 l -0.194,-0.658 -0.641,-0.259 -0.532,0.6 -0.158,0.685 0.079,1.25 z m 11.758,3.008 0.871,-0.2 2.025,0.093 1.842,0.112 -0.2,-1.706 h -3.245 l -0.884,0.521 -0.636,0.535 0.227,0.65 z m 0.284,-4.086 2.287,-0.371 2.167,-0.043 -0.36,-1.553 -2.377,-0.052 -2.227,0.052 0.1,0.562 0.153,0.472 z"
           transform="translate(-952.007,-753.722)"
           fill="#003084"
           fill-rule="evenodd" />
      </g>
    </g>
    <g
       id="Group_47736"
       data-name="Group 47736"
       transform="translate(37.951,1.71)">
      <g
         id="Group_47735"
         data-name="Group 47735">
        <path
           id="Path_81695"
           data-name="Path 81695"
           d="m 990.6,779.725 -5.426,-2.47 -2.9,-1.321 -3.022,-1.144 -3.068,-0.838 -3.125,-0.415 h -1.578 l -1.567,0.145 -1.6,0.371 -1.567,0.521 -0.666,-0.448 -0.177,-0.666 0.177,-0.513 0.066,-0.521 0.076,-0.494 0.276,-0.377 0.59,-0.218 h 0.636 l 0.688,-0.025 1.329,-0.139 0.358,-0.756 0.3,-1.021 h 1.3 l 0.387,0.423 0.273,0.4 0.314,0.385 0.527,0.278 h 0.661 l 1.043,0.289 0.486,0.2 0.42,0.349 0.628,-0.385 0.071,-3.8 0.1,-3.958 0.917,-0.827 0.45,-0.115 0.415,-0.148 1.048,-0.377 0.461,-0.349 0.134,-0.557 -0.076,-0.589 -0.279,-0.456 -0.66,0.62 -1.245,-0.164 -1.261,0.112 -1.261,0.344 -1.386,0.549 -0.453,-0.172 v -1.288 l 0.557,-0.56 0.66,-0.306 0.7,-0.21 0.669,-0.448 -0.39,-2.167 -0.1,-1.184 0.063,-1.144 h 0.666 l 0.554,0.418 0.7,0.387 0.663,0.48 0.491,0.63 -0.063,0.9 -0.185,1.051 0.628,0.415 0.66,-0.21 0.393,-0.628 -0.215,-1.529 -0.59,-1.706 -0.45,-0.42 v -0.663 l 0.7,-0.589 1.067,-0.453 0.6,0.213 0.581,0.966 0.325,1.25 0.134,2.931 3.171,0.139 3.275,0.489 0.172,1.081 -0.1,0.494 -0.284,0.371 -1.708,-0.1 -1.8,-0.175 -1.741,-0.066 -1.6,0.142 0.24,1.247 0.936,0.215 h 0.9 l 2.061,0.027 1.258,0.663 -0.033,4.072 0.068,2.154 0.371,2.132 -0.56,1.146 -0.344,1.427 -0.486,0.038 -0.42,-0.248 -1.012,-0.827 -0.936,-0.177 h -0.9 l -3.608,0.42 0.1,0.246 1.739,0.339 1.253,0.21 0.759,0.276 0.7,0.428 0.813,0.415 0.974,0.409 2.4,0.137 2.323,-0.137 4.915,-0.448 0.139,0.516 -0.1,0.7 -0.486,1.367 -0.943,1.294 -1.182,1.28 -0.9,0.213 -0.453,0.177 -0.6,0.055 z m -12.46,-14.654 2.885,-0.207 3.644,-0.207 -0.066,-0.355 -0.2,-0.48 -0.863,-0.51 -1.073,0.085 -2.088,0.27 -1.913,0.4 -0.322,1 z m 0,2.822 2.647,-0.387 h 4 l -0.126,-0.756 -1.062,-0.363 -1.591,0.06 -1.255,0.068 -1.348,0.172 -1.152,0.068 -0.112,1.138 z m 0.273,2.609 1.163,-0.379 1.286,0.1 1.105,-0.3 1.031,-0.309 1.752,0.221 v -1.245 l -2.306,0.1 -2.148,0.2 -1.266,0.153 -0.814,0.267 z"
           transform="translate(-965.912,-752.23)"
           fill="#003084"
           fill-rule="evenodd" />
      </g>
    </g>
    <g
       id="Group_47738"
       data-name="Group 47738"
       transform="translate(78.283,3.732)">
      <g
         id="Group_47737"
         data-name="Group 47737">
        <path
           id="Path_81696"
           data-name="Path 81696"
           d="m 991.265,773.927 -0.66,-0.21 -0.862,-1.316 0.1,-3.136 -0.1,-3.248 -0.42,-0.453 -1.04,0.286 -1.127,0.063 -2.323,0.1 -0.767,0.279 -0.734,0.423 -0.77,0.483 -0.972,0.273 -0.652,-0.439 -0.249,-0.631 0.03,-0.7 0.281,-0.589 0.314,-0.6 0.276,-0.732 -0.276,-3.13 -0.377,-3.3 1.976,-0.423 2.3,-0.145 2.4,-0.2 1.215,-0.213 1.16,-0.314 0.055,-0.56 0.044,-0.619 0.107,-1.357 0.409,-0.39 0.5,-0.164 1.206,0.1 0.385,0.45 0.207,0.625 0.027,1.531 1.051,0.355 1.051,0.167 h 2.293 l 2.364,-0.276 2.273,-0.03 0.663,1.04 -0.42,2.513 -0.633,2.664 0.136,1.056 0.53,0.9 v 1.25 l -0.453,0.743 -0.41,0.308 -0.68,0.243 -1.594,-0.66 -1.706,-0.592 -1.81,-0.377 -1.984,-0.076 -0.863,0.412 v 1.889 l 0.164,1.921 0.071,1.911 -0.071,1.007 -0.164,1.054 -1.474,0.832 z m -6.924,-10.137 2.582,-0.415 2.4,-0.418 0.42,-1.081 -0.254,-2.579 -0.731,-0.057 -0.685,0.033 -1.444,0.276 -1.381,0.2 -0.631,-0.033 -0.7,-0.218 -0.2,0.426 0.1,1.073 0.21,0.953 0.216,0.933 0.1,0.9 z m 13.786,-1.037 0.63,-0.7 0.344,-0.7 0.076,-0.833 0.068,-0.838 -0.636,-1.037 h -1.389 l -1.31,0.262 -1.264,0.153 -1.247,-0.218 -0.347,0.841 -0.15,0.838 0.071,1.589 2.642,0.142 1.253,0.139 z"
           transform="translate(-980.689,-752.971)"
           fill="#003084"
           fill-rule="evenodd" />
      </g>
    </g>
    <g
       id="Group_47740"
       data-name="Group 47740"
       transform="translate(110.794,12.895)">
      <g
         id="Group_47739"
         data-name="Group 47739">
        <path
           id="Path_81697"
           data-name="Path 81697"
           d="m 994.1,774.149 -1.269,-0.645 -0.117,-1.218 -0.115,-1.373 1.053,-0.829 4.433,0.338 2.287,0.029 2.359,-0.184 1.274,-0.861 0.72,-0.813 0.573,-1.072 v -2.209 l -0.1,-1.119 -0.365,-1.208 -1.668,0.37 -1.519,0.3 -1.551,0.32 -1.687,0.512 -0.184,0.624 h -0.666 l -0.88,-1.069 0.224,-1.292 1.61,-0.411 1.781,-0.28 3.715,-0.365 v -0.44 l -0.1,-0.32 -0.426,-0.432 -0.344,-0.472 v -0.717 l 0.344,-0.165 0.4,-0.048 0.877,0.147 1.164,0.544 0.445,-0.307 v -0.594 l -0.222,-0.61 -0.762,-0.19 h -0.773 l -1.7,0.19 -0.634,0.376 -0.232,0.341 -0.208,0.568 -0.235,0.6 -0.416,0.432 -1.263,0.632 -0.419,-0.688 -0.226,-1.229 1.058,-1.3 0.8,-0.738 1.144,-0.568 2.817,0.021 1.509,-0.091 1.492,-0.315 1.013,0.133 0.866,0.522 0.28,0.256 0.1,0.437 -0.123,1.213 -0.89,0.25 -1.064,0.4 -0.042,0.259 -0.184,0.181 -0.469,0.261 -0.384,0.3 -0.05,0.3 0.1,0.392 1.058,0.179 1.074,0.029 1.133,-0.029 1.2,0.072 1.533,-0.314 1.687,-0.091 0.157,1.181 -0.157,1.375 -0.44,0.41 -0.823,0.142 -0.811,-0.032 -1.541,-0.336 -1.567,-0.41 -0.786,-0.048 -0.877,0.048 -0.112,3.025 -0.24,1.583 -0.49,1.6 -0.288,0.445 -0.44,0.472 -1.037,1.029 -1.2,0.672 -1.287,0.544 -1.4,0.368 -1.471,0.253 z"
           transform="translate(-992.601,-756.328)"
           fill="#003084"
           fill-rule="evenodd" />
      </g>
    </g>
    <g
       id="Group_47742"
       data-name="Group 47742"
       transform="translate(39.26,15.073)">
      <g
         id="Group_47741"
         data-name="Group 47741">
        <path
           id="Path_81698"
           data-name="Path 81698"
           d="m 966.607,760.314 -0.216,-1.3 1.378,-0.181 0.64,-0.2 0.552,-0.469 0.389,-0.65 1.245,-0.36 0.7,-0.024 0.663,0.149 v 1.3 l -0.456,0.288 -0.453,0.411 -0.527,0.448 -0.688,0.381 z"
           transform="translate(-966.392,-757.126)"
           fill="#003084"
           fill-rule="evenodd" />
      </g>
    </g>
    <g
       id="Group_47744"
       data-name="Group 47744"
       transform="translate(110.695,0.778)">
      <g
         id="Group_47743"
         data-name="Group 47743">
        <path
           id="Path_81699"
           data-name="Path 81699"
           d="m 992.618,768.017 -0.053,-2.692 0.517,-0.69 0.131,-0.629 0.1,-1.208 0.813,-0.4 2.716,-0.024 3.492,-0.547 3.524,-0.568 1.818,-0.123 1.815,0.043 0.307,-0.205 0.181,-0.227 0.109,-0.578 V 759.5 l 0.245,-0.672 0.429,-0.44 0.765,-0.293 0.864,-0.045 0.848,-0.1 0.418,-0.165 0.309,-0.227 -0.384,-1.3 -0.757,0.035 -0.773,0.291 -0.81,0.272 -0.909,0.048 0.237,-1.29 0.672,-0.637 h 2.532 l 0.448,-1.77 -1.831,0.443 -0.882,0.147 -0.938,0.088 -0.021,-0.5 0.213,-0.36 0.264,-0.445 0.216,-0.645 1.021,-0.053 1.13,0.093 2.338,0.218 0.432,0.621 -0.277,3.129 0.016,3.291 -0.613,0.437 -2.6,-0.179 -1.037,0.229 -0.493,0.213 -0.4,0.36 0.944,0.261 0.986,0.184 2.132,0.1 2.213,0.08 2.159,0.253 0.2,1.007 v 1.157 l -0.171,1.184 -0.293,1.168 -0.8,0.853 -0.466,0.376 -0.671,0.293 -0.44,-0.227 -0.181,-0.658 0.03,-0.693 0.221,-0.571 0.336,-0.573 0.245,-0.728 -0.408,-0.64 -1.282,-0.672 -3.34,0.341 -3.339,0.125 -3.366,0.1 -3.492,0.325 -1.293,0.661 h -2.57 l -1.106,1.037 -0.187,0.773 -0.074,0.858 -0.16,0.874 -0.421,0.727 z"
           transform="translate(-992.564,-751.889)"
           fill="#003084"
           fill-rule="evenodd" />
      </g>
    </g>
    <g
       id="Group_47746"
       data-name="Group 47746"
       transform="translate(39.476,11.346)">
      <g
         id="Group_47745"
         data-name="Group 47745">
        <path
           id="Path_81700"
           data-name="Path 81700"
           d="m 966.471,759 v -0.653 l 1.005,-0.408 0.885,-0.629 1.765,-1.549 1.261,0.264 0.685,1.047 -0.685,1.1 -1.111,0.229 -1.162,0.36 -1.271,0.24 z"
           transform="translate(-966.471,-755.761)"
           fill="#003084"
           fill-rule="evenodd" />
      </g>
    </g>
    <g
       id="Group_47748"
       data-name="Group 47748"
       transform="translate(38.17,5.57)">
      <g
         id="Group_47747"
         data-name="Group 47747">
        <path
           id="Path_81701"
           data-name="Path 81701"
           d="m 966.643,759.42 -0.227,-0.858 -0.424,-1.034 1.306,-0.261 0.885,-0.472 1.064,-0.794 0.378,-0.722 0.264,-1.221 0.41,-0.413 h 0.653 l 0.877,0.571 1.069,0.93 v 1.319 l -0.373,0.229 -0.535,0.213 -0.6,0.227 -0.434,0.394 -0.235,0.616 -0.677,0.648 -1.58,0.386 z"
           transform="translate(-965.992,-753.644)"
           fill="#003084"
           fill-rule="evenodd" />
      </g>
    </g>
    <g
       id="Group_47750"
       data-name="Group 47750"
       transform="translate(112.436)">
      <g
         id="Group_47749"
         data-name="Group 47749">
        <path
           id="Path_81702"
           data-name="Path 81702"
           d="m 994.759,762.092 -1.277,-0.624 -0.235,-1.266 -0.045,-1.242 0.28,-2.644 0.549,-0.773 0.49,-0.293 0.717,-0.022 0.4,-1.269 0.773,-0.171 0.773,-0.3 0.781,-0.253 0.909,0.08 0.261,0.1 0.1,0.184 -0.027,0.445 -0.2,0.563 -0.13,0.621 -0.885,0.181 -1.064,-0.181 -0.85,0.283 -0.469,0.213 -0.365,0.387 0.195,1.29 0.853,-0.152 0.666,-0.389 0.746,-0.392 0.936,-0.152 0.65,0.44 v 0.645 l -0.65,0.653 -1.534,-0.054 -0.821,0.1 -0.853,0.339 v 1.466 l 2.165,-0.693 2.332,0.1 1.063,-0.253 0.488,-0.235 0.378,-0.389 1.2,-0.757 -0.149,-0.933 -1.631,0.418 -0.272,-0.655 1.079,-0.871 0.413,-0.477 -0.36,-0.8 -0.68,-0.664 -0.453,-0.237 -0.125,-0.437 -0.072,-1.213 0.744,-0.133 0.938,0.133 0.187,0.045 0.117,0.179 0.115,0.52 0.227,0.493 0.261,0.181 0.389,0.08 0.288,-0.867 0.224,-0.456 0.371,-0.389 1.3,0.213 -0.112,0.5 -0.235,0.376 -0.285,0.41 -0.243,0.6 -0.661,0.456 -0.339,0.691 -0.072,1.261 0.336,-0.077 0.208,-0.16 0.229,-0.573 0.264,-0.589 0.277,-0.208 0.365,-0.123 0.68,0.469 v 0.506 l -0.237,0.677 -0.176,0.666 v 0.7 l 1.071,1.045 -0.658,1.29 -1.287,-0.616 h -0.661 l -0.989,0.36 -0.968,0.256 -0.922,0.467 -0.744,0.855 -1.069,-0.1 -0.5,-0.267 -0.379,-0.514 -1.117,0.336 -0.933,0.549 -0.909,0.592 z"
           transform="translate(-993.202,-751.604)"
           fill="#003084"
           fill-rule="evenodd" />
      </g>
    </g>
    <g
       id="Group_47752"
       data-name="Group 47752"
       transform="translate(56.151,1.476)">
      <g
         id="Group_47751"
         data-name="Group 47751">
        <path
           id="Path_81703"
           data-name="Path 81703"
           d="m 973.534,757.326 -0.667,-0.208 -0.24,-0.365 -0.048,-0.565 0.048,-0.57 0.24,-0.443 0.667,-0.216 v -0.56 l 0.24,-0.65 0.176,-0.7 v -0.674 l 0.389,-0.235 0.469,0.072 0.413,0.24 0.85,0.767 0.192,1.224 0.016,0.7 -0.208,0.674 -0.768,0.832 -0.464,0.416 -0.5,0.259 z"
           transform="translate(-972.58,-752.145)"
           fill="#003084"
           fill-rule="evenodd" />
      </g>
    </g>
  </g>
  <g
     id="Group_47771"
     data-name="Group 47771"
     transform="matrix(0.67112516,0,0,0.67112516,0.95480195,88.405138)">
    <g
       id="Group_47754"
       data-name="Group 47754"
       transform="translate(0,0.161)">
      <path
         id="Path_81704"
         data-name="Path 81704"
         d="m 957.092,768.931 1.859,-4.392 h 2.789 v 0.186 h -0.224 a 0.854,0.854 0 0 0 -0.48,0.106 0.47,0.47 0 0 0 -0.21,0.229 1.729,1.729 0 0 0 -0.06,0.609 v 4.381 a 1.958,1.958 0 0 0 0.06,0.636 0.634,0.634 0 0 0 0.232,0.224 0.918,0.918 0 0 0 0.459,0.1 h 0.224 v 0.191 h -3.57 V 771 h 0.224 a 0.978,0.978 0 0 0 0.478,-0.1 0.493,0.493 0 0 0 0.2,-0.248 1.456,1.456 0 0 0 0.06,-0.609 v -4.921 l -2.62,6.067 h -0.128 l -2.664,-6.024 v 4.681 a 3.661,3.661 0 0 0 0.025,0.6 0.627,0.627 0 0 0 0.286,0.393 1.189,1.189 0 0 0 0.7,0.161 v 0.191 h -2.35 V 771 h 0.063 a 1.087,1.087 0 0 0 0.426,-0.079 0.668,0.668 0 0 0 0.3,-0.2 1.394,1.394 0 0 0 0.153,-0.352 v -4.708 a 2.424,2.424 0 0 0 -0.038,-0.633 0.529,0.529 0 0 0 -0.237,-0.2 0.79,0.79 0 0 0 -0.456,-0.106 h -0.213 v -0.186 h 2.795 z"
         transform="translate(-952.381,-764.539)"
         fill="#003084" />
    </g>
    <g
       id="Group_47755"
       data-name="Group 47755"
       transform="translate(9.965,0.161)">
      <path
         id="Path_81705"
         data-name="Path 81705"
         d="m 959.61,771 v 0.191 h -3.578 V 771 h 0.216 a 1.028,1.028 0 0 0 0.491,-0.1 0.465,0.465 0 0 0 0.2,-0.248 1.941,1.941 0 0 0 0.052,-0.609 v -4.372 a 2.284,2.284 0 0 0 -0.052,-0.641 0.467,0.467 0 0 0 -0.235,-0.2 0.765,0.765 0 0 0 -0.453,-0.106 h -0.216 v -0.186 h 3.578 v 0.186 h -0.235 a 0.868,0.868 0 0 0 -0.478,0.106 0.51,0.51 0 0 0 -0.218,0.229 2.361,2.361 0 0 0 -0.041,0.617 v 4.372 a 1.964,1.964 0 0 0 0.052,0.636 0.466,0.466 0 0 0 0.229,0.224 0.919,0.919 0 0 0 0.456,0.1 z"
         transform="translate(-956.032,-764.539)"
         fill="#003084" />
    </g>
    <g
       id="Group_47756"
       data-name="Group 47756"
       transform="translate(14.127,0.161)">
      <path
         id="Path_81706"
         data-name="Path 81706"
         d="m 959.986,764.539 3.373,4.121 v -2.849 a 1.363,1.363 0 0 0 -0.172,-0.805 0.965,0.965 0 0 0 -0.811,-0.281 v -0.186 h 2.252 v 0.186 a 1.968,1.968 0 0 0 -0.581,0.131 0.515,0.515 0 0 0 -0.227,0.289 1.671,1.671 0 0 0 -0.082,0.666 v 5.527 h -0.172 l -4.626,-5.527 v 4.214 a 0.911,0.911 0 0 0 0.265,0.781 0.977,0.977 0 0 0 0.611,0.2 h 0.169 v 0.191 h -2.429 V 771 a 1.152,1.152 0 0 0 0.8,-0.224 1.1,1.1 0 0 0 0.218,-0.756 v -4.678 l -0.15,-0.178 a 1.145,1.145 0 0 0 -0.388,-0.338 0.878,0.878 0 0 0 -0.478,-0.106 v -0.186 z"
         transform="translate(-957.557,-764.539)"
         fill="#003084" />
    </g>
    <g
       id="Group_47757"
       data-name="Group 47757"
       transform="translate(22.069)">
      <path
         id="Path_81707"
         data-name="Path 81707"
         d="m 967.184,764.483 v 2.35 H 967 a 2.981,2.981 0 0 0 -1.021,-1.457 2.4,2.4 0 0 0 -1.474,-0.494 1.966,1.966 0 0 0 -1.283,0.412 2.31,2.31 0 0 0 -0.718,1.165 5.361,5.361 0 0 0 -0.214,1.541 5.138,5.138 0 0 0 0.24,1.687 1.866,1.866 0 0 0 0.745,1.053 2.159,2.159 0 0 0 1.228,0.341 1.968,1.968 0 0 0 0.5,-0.066 4.261,4.261 0 0 0 0.548,-0.139 v -1.381 a 1.046,1.046 0 0 0 -0.074,-0.5 0.464,0.464 0 0 0 -0.218,-0.207 0.823,0.823 0 0 0 -0.42,-0.093 h -0.177 V 768.5 h 3.327 v 0.186 a 1.44,1.44 0 0 0 -0.535,0.093 0.563,0.563 0 0 0 -0.224,0.251 1.178,1.178 0 0 0 -0.047,0.458 v 1.381 a 6.508,6.508 0 0 1 -1.37,0.426 6.426,6.426 0 0 1 -1.466,0.142 4,4 0 0 1 -2.751,-0.925 3.088,3.088 0 0 1 -1.13,-2.462 3.419,3.419 0 0 1 1.081,-2.538 3.888,3.888 0 0 1 2.738,-1.034 5.6,5.6 0 0 1 0.922,0.079 5.979,5.979 0 0 1 0.718,0.232 3.569,3.569 0 0 0 0.587,0.188 0.445,0.445 0 0 0 0.268,-0.1 1.043,1.043 0 0 0 0.218,-0.4 z"
         transform="translate(-960.467,-764.48)"
         fill="#003084" />
    </g>
    <g
       id="Group_47758"
       data-name="Group 47758"
       transform="translate(30.036,0.161)">
      <path
         id="Path_81708"
         data-name="Path 81708"
         d="M 963.386,771.2 V 771 h 0.226 a 0.846,0.846 0 0 0 0.456,-0.1 0.5,0.5 0 0 0 0.24,-0.251 3.257,3.257 0 0 0 0.038,-0.609 v -4.372 a 1.863,1.863 0 0 0 -0.065,-0.641 0.4,0.4 0 0 0 -0.213,-0.2 0.8,0.8 0 0 0 -0.456,-0.106 h -0.226 v -0.186 h 3.062 a 4.979,4.979 0 0 1 1.97,0.328 2.911,2.911 0 0 1 1.392,1.2 3.682,3.682 0 0 1 0.459,1.823 3.5,3.5 0 0 1 -0.221,1.288 2.824,2.824 0 0 1 -0.609,0.974 2.735,2.735 0 0 1 -0.841,0.617 4.544,4.544 0 0 1 -1.193,0.355 5.269,5.269 0 0 1 -0.958,0.071 z M 966,764.913 v 5.187 a 2.141,2.141 0 0 0 0.03,0.513 0.326,0.326 0 0 0 0.147,0.15 0.886,0.886 0 0 0 0.379,0.06 1.534,1.534 0 0 0 1.286,-0.551 3.7,3.7 0 0 0 0.614,-2.345 4.371,4.371 0 0 0 -0.415,-2.047 1.8,1.8 0 0 0 -0.846,-0.816 3.392,3.392 0 0 0 -1.195,-0.151 z"
         transform="translate(-963.386,-764.539)"
         fill="#003084" />
    </g>
    <g
       id="Group_47759"
       data-name="Group 47759"
       transform="translate(37.646,0.027)">
      <path
         id="Path_81709"
         data-name="Path 81709"
         d="m 970.391,769.376 h -2.41 l -0.284,0.649 a 1.4,1.4 0 0 0 -0.147,0.543 0.416,0.416 0 0 0 0.232,0.4 1.841,1.841 0 0 0 0.674,0.126 v 0.191 h -2.282 v -0.191 a 0.985,0.985 0 0 0 0.606,-0.295 3.5,3.5 0 0 0 0.581,-1.007 l 2.456,-5.3 h 0.093 l 2.47,5.448 a 3.33,3.33 0 0 0 0.584,0.977 0.925,0.925 0 0 0 0.486,0.175 v 0.191 h -3.3 v -0.191 h 0.12 a 1.057,1.057 0 0 0 0.57,-0.109 0.274,0.274 0 0 0 0.115,-0.227 0.683,0.683 0 0 0 -0.041,-0.18 3.974,3.974 0 0 0 -0.155,-0.371 z m -0.164,-0.36 -1.024,-2.287 -1.048,2.287 z"
         transform="translate(-966.174,-764.49)"
         fill="#003084" />
    </g>
    <g
       id="Group_47760"
       data-name="Group 47760"
       transform="translate(45.64,0.073)">
      <path
         id="Path_81710"
         data-name="Path 81710"
         d="m 972.7,764.513 a 3.409,3.409 0 0 1 2.658,0.92 3.308,3.308 0 0 1 1.021,2.467 3.484,3.484 0 0 1 -0.77,2.222 3.438,3.438 0 0 1 -2.844,1.272 3.5,3.5 0 0 1 -2.852,-1.22 3.368,3.368 0 0 1 -0.808,-2.273 3.256,3.256 0 0 1 1.04,-2.467 3.322,3.322 0 0 1 2.555,-0.921 z m 0.066,0.295 a 1.561,1.561 0 0 0 -1.43,0.944 4.674,4.674 0 0 0 -0.4,2.194 4.074,4.074 0 0 0 0.62,2.505 1.379,1.379 0 0 0 1.193,0.579 1.492,1.492 0 0 0 0.868,-0.246 1.989,1.989 0 0 0 0.693,-1 5.5,5.5 0 0 0 0.243,-1.8 5.91,5.91 0 0 0 -0.243,-1.965 1.892,1.892 0 0 0 -0.652,-0.922 1.5,1.5 0 0 0 -0.895,-0.29 z"
         transform="translate(-969.103,-764.507)"
         fill="#003084" />
    </g>
    <g
       id="Group_47761"
       data-name="Group 47761"
       transform="translate(56.5,0.161)">
      <path
         id="Path_81711"
         data-name="Path 81711"
         d="m 975.686,767.992 v 2.058 a 2.237,2.237 0 0 0 0.06,0.636 0.512,0.512 0 0 0 0.232,0.224 0.873,0.873 0 0 0 0.456,0.1 h 0.224 v 0.191 h -3.576 V 771 h 0.218 a 1.01,1.01 0 0 0 0.489,-0.1 0.509,0.509 0 0 0 0.2,-0.248 1.79,1.79 0 0 0 0.057,-0.609 v -4.372 a 2.106,2.106 0 0 0 -0.057,-0.641 0.45,0.45 0 0 0 -0.215,-0.2 0.814,0.814 0 0 0 -0.472,-0.106 h -0.218 v -0.186 h 3.576 v 0.186 h -0.224 a 0.864,0.864 0 0 0 -0.483,0.106 0.447,0.447 0 0 0 -0.2,0.229 2.066,2.066 0 0 0 -0.06,0.617 v 1.886 h 2.424 v -1.886 a 2.38,2.38 0 0 0 -0.06,-0.641 0.419,0.419 0 0 0 -0.229,-0.2 0.789,0.789 0 0 0 -0.459,-0.106 h -0.224 v -0.186 h 3.578 v 0.186 H 980.5 a 0.867,0.867 0 0 0 -0.489,0.106 0.407,0.407 0 0 0 -0.2,0.229 1.7,1.7 0 0 0 -0.057,0.617 v 4.372 a 1.832,1.832 0 0 0 0.057,0.636 0.46,0.46 0 0 0 0.227,0.224 0.908,0.908 0 0 0 0.461,0.1 h 0.216 v 0.191 h -3.578 V 771 h 0.224 a 0.9,0.9 0 0 0 0.478,-0.1 0.51,0.51 0 0 0 0.21,-0.248 2.008,2.008 0 0 0 0.06,-0.609 v -2.058 z"
         transform="translate(-973.082,-764.539)"
         fill="#003084" />
    </g>
    <g
       id="Group_47762"
       data-name="Group 47762"
       transform="translate(64.724,0.161)">
      <path
         id="Path_81712"
         data-name="Path 81712"
         d="m 979.689,771 v 0.191 h -3.594 V 771 h 0.243 a 0.949,0.949 0 0 0 0.472,-0.1 0.514,0.514 0 0 0 0.2,-0.248 1.956,1.956 0 0 0 0.052,-0.609 v -4.372 a 2.3,2.3 0 0 0 -0.052,-0.641 0.48,0.48 0 0 0 -0.221,-0.2 0.786,0.786 0 0 0 -0.453,-0.106 h -0.243 v -0.186 h 3.594 v 0.186 h -0.224 a 0.883,0.883 0 0 0 -0.489,0.106 0.5,0.5 0 0 0 -0.213,0.229 2.445,2.445 0 0 0 -0.044,0.617 v 4.372 a 1.906,1.906 0 0 0 0.057,0.636 0.467,0.467 0 0 0 0.216,0.224 0.966,0.966 0 0 0 0.472,0.1 z"
         transform="translate(-976.095,-764.539)"
         fill="#003084" />
    </g>
    <g
       id="Group_47763"
       data-name="Group 47763"
       transform="translate(69.17)">
      <path
         id="Path_81713"
         data-name="Path 81713"
         d="m 984.433,764.483 v 2.35 h -0.188 a 2.994,2.994 0 0 0 -1.007,-1.457 2.416,2.416 0 0 0 -1.477,-0.494 1.958,1.958 0 0 0 -1.28,0.412 2.288,2.288 0 0 0 -0.715,1.165 5.656,5.656 0 0 0 -0.213,1.537 5.728,5.728 0 0 0 0.227,1.687 1.9,1.9 0 0 0 0.748,1.053 2.234,2.234 0 0 0 1.234,0.341 2.024,2.024 0 0 0 0.5,-0.066 3.314,3.314 0 0 0 0.524,-0.139 v -1.381 a 1.258,1.258 0 0 0 -0.049,-0.5 0.457,0.457 0 0 0 -0.229,-0.207 0.748,0.748 0 0 0 -0.418,-0.093 h -0.169 V 768.5 h 3.319 v 0.186 a 1.374,1.374 0 0 0 -0.521,0.093 0.617,0.617 0 0 0 -0.243,0.251 1.548,1.548 0 0 0 -0.046,0.458 v 1.381 a 6.44,6.44 0 0 1 -1.357,0.426 6.536,6.536 0 0 1 -1.477,0.142 4.151,4.151 0 0 1 -1.619,-0.259 4.282,4.282 0 0 1 -1.133,-0.666 3.4,3.4 0 0 1 -0.77,-0.944 3.144,3.144 0 0 1 -0.355,-1.517 3.332,3.332 0 0 1 1.095,-2.538 3.819,3.819 0 0 1 2.721,-1.034 5.406,5.406 0 0 1 0.917,0.079 5.322,5.322 0 0 1 0.726,0.232 3.564,3.564 0 0 0 0.587,0.188 0.389,0.389 0 0 0 0.259,-0.1 0.86,0.86 0 0 0 0.216,-0.4 z"
         transform="translate(-977.724,-764.48)"
         fill="#003084" />
    </g>
    <g
       id="Group_47764"
       data-name="Group 47764"
       transform="translate(77.21,0.161)">
      <path
         id="Path_81714"
         data-name="Path 81714"
         d="m 983.293,767.992 v 2.058 a 2.351,2.351 0 0 0 0.052,0.636 0.466,0.466 0 0 0 0.229,0.224 0.893,0.893 0 0 0 0.453,0.1 h 0.224 v 0.191 H 980.67 V 771 h 0.235 a 1.013,1.013 0 0 0 0.486,-0.1 0.49,0.49 0 0 0 0.194,-0.248 1.894,1.894 0 0 0 0.049,-0.609 v -4.372 a 2.222,2.222 0 0 0 -0.049,-0.641 0.523,0.523 0 0 0 -0.21,-0.2 0.832,0.832 0 0 0 -0.469,-0.106 h -0.235 v -0.186 h 3.581 v 0.186 h -0.224 a 0.883,0.883 0 0 0 -0.48,0.106 0.427,0.427 0 0 0 -0.2,0.229 2.347,2.347 0 0 0 -0.049,0.617 v 1.886 h 2.4 v -1.886 a 2.569,2.569 0 0 0 -0.035,-0.641 0.5,0.5 0 0 0 -0.229,-0.2 0.82,0.82 0 0 0 -0.461,-0.106 h -0.221 v -0.186 h 3.573 v 0.186 H 988.1 a 0.837,0.837 0 0 0 -0.48,0.106 0.457,0.457 0 0 0 -0.21,0.229 1.982,1.982 0 0 0 -0.052,0.617 v 4.372 a 2.142,2.142 0 0 0 0.052,0.636 0.5,0.5 0 0 0 0.237,0.224 0.856,0.856 0 0 0 0.453,0.1 h 0.218 v 0.191 h -3.573 V 771 h 0.221 a 0.951,0.951 0 0 0 0.478,-0.1 0.465,0.465 0 0 0 0.213,-0.248 2.2,2.2 0 0 0 0.035,-0.609 v -2.058 z"
         transform="translate(-980.67,-764.539)"
         fill="#003084" />
    </g>
    <g
       id="Group_47765"
       data-name="Group 47765"
       transform="translate(88.57,0.003)">
      <path
         id="Path_81715"
         data-name="Path 81715"
         d="m 989.164,764.481 0.044,2.219 H 989 a 2.2,2.2 0 0 0 -0.718,-1.327 1.829,1.829 0 0 0 -1.234,-0.521 1.155,1.155 0 0 0 -0.813,0.284 0.74,0.74 0 0 0 -0.309,0.6 0.731,0.731 0 0 0 0.109,0.4 1.715,1.715 0 0 0 0.472,0.453 c 0.153,0.109 0.53,0.286 1.1,0.573 a 4.924,4.924 0 0 1 1.6,1.081 1.726,1.726 0 0 1 0.428,1.155 1.881,1.881 0 0 1 -0.666,1.446 2.515,2.515 0 0 1 -1.708,0.592 2.448,2.448 0 0 1 -0.606,-0.06 5.842,5.842 0 0 1 -0.723,-0.235 1.112,1.112 0 0 0 -0.4,-0.1 0.486,0.486 0 0 0 -0.281,0.1 0.659,0.659 0 0 0 -0.238,0.295 h -0.191 v -2.506 h 0.191 a 2.774,2.774 0 0 0 0.86,1.608 1.994,1.994 0 0 0 1.37,0.565 1.3,1.3 0 0 0 0.89,-0.295 0.92,0.92 0 0 0 0.336,-0.7 0.91,0.91 0 0 0 -0.123,-0.459 1.412,1.412 0 0 0 -0.4,-0.412 4.981,4.981 0 0 0 -0.92,-0.529 7.805,7.805 0 0 1 -1.354,-0.756 2.462,2.462 0 0 1 -0.622,-0.7 1.681,1.681 0 0 1 -0.216,-0.857 1.753,1.753 0 0 1 0.6,-1.351 2.134,2.134 0 0 1 1.506,-0.57 2.319,2.319 0 0 1 0.655,0.1 2.5,2.5 0 0 1 0.573,0.21 1.3,1.3 0 0 0 0.478,0.161 0.226,0.226 0 0 0 0.2,-0.085 0.96,0.96 0 0 0 0.137,-0.385 z"
         transform="translate(-984.832,-764.481)"
         fill="#003084" />
    </g>
    <g
       id="Group_47766"
       data-name="Group 47766"
       transform="translate(94.397,0.003)">
      <path
         id="Path_81716"
         data-name="Path 81716"
         d="m 993.463,764.481 v 2.319 h -0.2 a 2.556,2.556 0 0 0 -0.827,-1.4 2.229,2.229 0 0 0 -1.373,-0.467 2.1,2.1 0 0 0 -1.174,0.355 2.192,2.192 0 0 0 -0.783,0.931 4.327,4.327 0 0 0 -0.319,1.665 5.134,5.134 0 0 0 0.24,1.608 2.139,2.139 0 0 0 0.726,1.119 2.031,2.031 0 0 0 1.266,0.366 2.427,2.427 0 0 0 1.2,-0.276 4.166,4.166 0 0 0 1.127,-0.939 v 0.573 a 3.507,3.507 0 0 1 -1.2,0.846 3.794,3.794 0 0 1 -1.46,0.259 4.289,4.289 0 0 1 -1.943,-0.429 3.075,3.075 0 0 1 -1.307,-1.215 3.376,3.376 0 0 1 0.044,-3.507 3.646,3.646 0 0 1 1.386,-1.332 3.967,3.967 0 0 1 1.848,-0.475 4.288,4.288 0 0 1 1.52,0.314 2.874,2.874 0 0 0 0.592,0.183 0.418,0.418 0 0 0 0.289,-0.126 0.528,0.528 0 0 0 0.145,-0.371 z"
         transform="translate(-986.967,-764.481)"
         fill="#003084" />
    </g>
    <g
       id="Group_47767"
       data-name="Group 47767"
       transform="translate(101.881,0.161)">
      <path
         id="Path_81717"
         data-name="Path 81717"
         d="m 992.318,767.992 v 2.058 a 2.346,2.346 0 0 0 0.06,0.636 0.558,0.558 0 0 0 0.237,0.224 0.846,0.846 0 0 0 0.448,0.1 h 0.221 v 0.191 h -3.575 V 771 h 0.229 a 1.042,1.042 0 0 0 0.486,-0.1 0.507,0.507 0 0 0 0.2,-0.248 1.79,1.79 0 0 0 0.057,-0.609 v -4.372 a 2.106,2.106 0 0 0 -0.057,-0.641 0.475,0.475 0 0 0 -0.229,-0.2 0.759,0.759 0 0 0 -0.453,-0.106 h -0.229 v -0.186 h 3.575 v 0.186 h -0.221 a 0.886,0.886 0 0 0 -0.486,0.106 0.521,0.521 0 0 0 -0.207,0.229 2.727,2.727 0 0 0 -0.052,0.617 v 1.886 h 2.421 v -1.886 a 2.2,2.2 0 0 0 -0.057,-0.641 0.472,0.472 0 0 0 -0.224,-0.2 0.825,0.825 0 0 0 -0.461,-0.106 h -0.218 v -0.186 h 3.576 v 0.186 h -0.227 a 0.841,0.841 0 0 0 -0.483,0.106 0.368,0.368 0 0 0 -0.2,0.229 1.685,1.685 0 0 0 -0.066,0.617 v 4.372 a 1.821,1.821 0 0 0 0.066,0.636 0.4,0.4 0 0 0 0.216,0.224 0.939,0.939 0 0 0 0.464,0.1 h 0.227 v 0.191 H 993.78 V 771 H 994 a 1,1 0 0 0 0.489,-0.1 0.491,0.491 0 0 0 0.2,-0.248 1.869,1.869 0 0 0 0.057,-0.609 v -2.058 z"
         transform="translate(-989.709,-764.539)"
         fill="#003084" />
    </g>
    <g
       id="Group_47768"
       data-name="Group 47768"
       transform="translate(110.323,0.073)">
      <path
         id="Path_81718"
         data-name="Path 81718"
         d="m 996.38,764.513 a 3.412,3.412 0 0 1 2.661,0.92 3.283,3.283 0 0 1 1.026,2.467 3.481,3.481 0 0 1 -0.767,2.222 3.439,3.439 0 0 1 -2.858,1.272 3.507,3.507 0 0 1 -2.849,-1.22 3.41,3.41 0 0 1 -0.792,-2.273 3.261,3.261 0 0 1 1.034,-2.467 3.294,3.294 0 0 1 2.545,-0.921 z m 0.063,0.295 a 1.552,1.552 0 0 0 -1.428,0.944 4.983,4.983 0 0 0 -0.393,2.194 4.172,4.172 0 0 0 0.611,2.505 1.371,1.371 0 0 0 1.2,0.579 1.491,1.491 0 0 0 0.868,-0.246 2.094,2.094 0 0 0 0.709,-1 7.643,7.643 0 0 0 -0.019,-3.769 1.847,1.847 0 0 0 -0.642,-0.922 1.534,1.534 0 0 0 -0.906,-0.286 z"
         transform="translate(-992.802,-764.507)"
         fill="#003084" />
    </g>
    <g
       id="Group_47769"
       data-name="Group 47769"
       transform="translate(118.574,0.073)">
      <path
         id="Path_81719"
         data-name="Path 81719"
         d="m 999.4,764.513 a 3.413,3.413 0 0 1 2.658,0.92 3.313,3.313 0 0 1 1.026,2.467 3.519,3.519 0 0 1 -0.756,2.222 3.466,3.466 0 0 1 -2.86,1.272 3.511,3.511 0 0 1 -2.86,-1.22 3.435,3.435 0 0 1 -0.786,-2.273 3.246,3.246 0 0 1 1.029,-2.467 3.321,3.321 0 0 1 2.549,-0.921 z m 0.06,0.295 a 1.549,1.549 0 0 0 -1.428,0.944 4.928,4.928 0 0 0 -0.4,2.194 4.128,4.128 0 0 0 0.62,2.505 1.358,1.358 0 0 0 1.19,0.579 1.54,1.54 0 0 0 0.879,-0.246 2.032,2.032 0 0 0 0.688,-1 5.6,5.6 0 0 0 0.257,-1.8 5.983,5.983 0 0 0 -0.257,-1.965 1.948,1.948 0 0 0 -0.638,-0.922 1.622,1.622 0 0 0 -0.908,-0.29 z"
         transform="translate(-995.825,-764.507)"
         fill="#003084" />
    </g>
    <g
       id="Group_47770"
       data-name="Group 47770"
       transform="translate(126.606,0.161)">
      <path
         id="Path_81720"
         data-name="Path 81720"
         d="m 1005.095,768.86 -0.254,2.336 h -6.073 V 771 h 0.224 a 0.98,0.98 0 0 0 0.475,-0.1 0.42,0.42 0 0 0 0.2,-0.248 1.911,1.911 0 0 0 0.055,-0.609 v -4.372 a 2.252,2.252 0 0 0 -0.055,-0.641 0.413,0.413 0 0 0 -0.218,-0.2 0.76,0.76 0 0 0 -0.453,-0.106 h -0.224 v -0.186 h 3.633 v 0.186 h -0.287 a 0.87,0.87 0 0 0 -0.483,0.106 0.519,0.519 0 0 0 -0.207,0.229 2.113,2.113 0 0 0 -0.049,0.617 v 4.236 a 1.862,1.862 0 0 0 0.063,0.652 0.341,0.341 0 0 0 0.232,0.2 2.211,2.211 0 0 0 0.6,0.046 h 0.587 a 1.907,1.907 0 0 0 0.9,-0.183 1.618,1.618 0 0 0 0.633,-0.595 5.9,5.9 0 0 0 0.513,-1.179 z"
         transform="translate(-998.768,-764.539)"
         fill="#003084" />
    </g>
  </g>
  <g
     id="Group_47799"
     data-name="Group 47799"
     transform="matrix(0.78160604,0,0,0.78160604,27.308079,98.998835)">
    <g
       id="Group_47774"
       data-name="Group 47774"
       transform="translate(0,0.09)">
      <g
         id="Group_47772"
         data-name="Group 47772"
         transform="translate(0.09,0.087)">
        <path
           id="Path_81721"
           data-name="Path 81721"
           d="m 931.5,766.239 -0.071,-0.016 a 0.989,0.989 0 0 0 -0.295,-0.748 1.256,1.256 0 0 0 -1.556,0.038 1.029,1.029 0 0 0 -0.308,0.759 1.312,1.312 0 0 0 0.207,0.7 4.124,4.124 0 0 0 0.816,0.78 4.728,4.728 0 0 1 1.1,1.092 1.519,1.519 0 0 1 0.245,0.873 2.043,2.043 0 0 1 -0.87,1.662 3.444,3.444 0 0 1 -2.173,0.685 2.063,2.063 0 0 1 -0.985,-0.194 0.564,0.564 0 0 1 -0.363,-0.519 0.673,0.673 0 0 1 0.164,-0.415 4.03,4.03 0 0 1 0.595,-0.519 l 0.079,0.049 a 1.139,1.139 0 0 0 0.374,0.83 1.181,1.181 0 0 0 0.863,0.311 1.359,1.359 0 0 0 0.958,-0.36 1.363,1.363 0 0 0 0.153,-1.668 2.751,2.751 0 0 0 -0.721,-0.761 c -0.049,-0.041 -0.128,-0.112 -0.232,-0.186 -0.783,-0.65 -1.171,-1.217 -1.171,-1.733 a 1.9,1.9 0 0 1 0.775,-1.49 2.918,2.918 0 0 1 1.894,-0.633 2.03,2.03 0 0 1 0.917,0.18 q 0.352,0.176 0.352,0.434 a 0.558,0.558 0 0 1 -0.158,0.339 3.639,3.639 0 0 1 -0.589,0.51 z"
           transform="translate(-927.254,-764.773)"
           fill="#003084" />
      </g>
      <g
         id="Group_47773"
         data-name="Group 47773">
        <path
           id="Path_81722"
           data-name="Path 81722"
           d="m 928.659,772.2 a 2.1,2.1 0 0 1 -1.018,-0.213 v 0 a 0.668,0.668 0 0 1 -0.42,-0.584 v 0 a 0.774,0.774 0 0 1 0.183,-0.459 v 0 a 3.472,3.472 0 0 1 0.63,-0.53 v 0 l 0.027,-0.019 0.052,0.019 0.112,0.052 v 0.038 a 1.124,1.124 0 0 0 0.347,0.783 v 0 a 1.151,1.151 0 0 0 0.813,0.287 v 0 a 1.283,1.283 0 0 0 0.9,-0.339 v 0 a 1.193,1.193 0 0 0 0.355,-0.87 v 0 a 1.3,1.3 0 0 0 -0.213,-0.7 v 0 a 3.266,3.266 0 0 0 -0.7,-0.734 v 0 c -0.052,-0.044 -0.131,-0.1 -0.221,-0.185 v 0 c -0.8,-0.652 -1.223,-1.239 -1.223,-1.793 v 0 a 1.947,1.947 0 0 1 0.816,-1.556 v 0 a 2.939,2.939 0 0 1 1.943,-0.655 v 0 a 2.087,2.087 0 0 1 0.947,0.188 v 0 c 0.257,0.134 0.409,0.3 0.4,0.513 v 0 a 0.773,0.773 0 0 1 -0.186,0.4 v 0 a 4.836,4.836 0 0 1 -0.6,0.521 v 0 l -0.03,0.022 -0.027,-0.016 -0.128,-0.038 -0.005,-0.049 a 1,1 0 0 0 -0.265,-0.682 v 0 a 1.033,1.033 0 0 0 -0.718,-0.24 v 0 a 1,1 0 0 0 -0.74,0.278 v 0 a 0.976,0.976 0 0 0 -0.292,0.693 v 0 a 1.213,1.213 0 0 0 0.216,0.65 v 0 a 3.583,3.583 0 0 0 0.789,0.764 v 0 a 5.3,5.3 0 0 1 1.13,1.116 v 0 a 1.655,1.655 0 0 1 0.254,0.912 v 0 a 2.142,2.142 0 0 1 -0.909,1.728 v 0 a 3.536,3.536 0 0 1 -2.219,0.7 z m -1.125,-1.16 a 0.676,0.676 0 0 0 -0.15,0.363 v 0 a 0.494,0.494 0 0 0 0.325,0.442 v 0 a 1.9,1.9 0 0 0 0.95,0.2 v 0 a 3.272,3.272 0 0 0 2.118,-0.685 v 0 a 1.973,1.973 0 0 0 0.852,-1.594 v 0 a 1.562,1.562 0 0 0 -0.235,-0.838 v 0 a 5.357,5.357 0 0 0 -1.086,-1.059 v 0 a 3.386,3.386 0 0 1 -0.811,-0.813 v 0 a 1.189,1.189 0 0 1 -0.24,-0.731 v 0 a 1.065,1.065 0 0 1 0.325,-0.805 v 0 a 1.172,1.172 0 0 1 0.849,-0.325 v 0 a 1.079,1.079 0 0 1 0.813,0.295 v 0 a 0.972,0.972 0 0 1 0.325,0.7 v 0 a 3.473,3.473 0 0 0 0.519,-0.469 v 0 a 0.415,0.415 0 0 0 0.145,-0.281 v 0 c 0,-0.137 -0.087,-0.254 -0.3,-0.369 v 0 a 1.835,1.835 0 0 0 -0.89,-0.175 v 0 a 2.876,2.876 0 0 0 -1.851,0.622 v 0 a 1.8,1.8 0 0 0 -0.745,1.43 v 0 c -0.011,0.48 0.363,1.04 1.149,1.665 v 0 c 0.1,0.079 0.18,0.142 0.232,0.188 v 0 a 3.158,3.158 0 0 1 0.74,0.786 v 0 a 1.481,1.481 0 0 1 0.232,0.775 v 0 a 1.359,1.359 0 0 1 -0.4,0.988 v 0 a 1.423,1.423 0 0 1 -1.01,0.39 v 0 a 1.288,1.288 0 0 1 -0.917,-0.341 v 0 a 1.211,1.211 0 0 1 -0.4,-0.832 v 0 a 4.121,4.121 0 0 0 -0.535,0.469 z m 4.026,-4.746 0.03,-0.076 z"
           transform="translate(-927.221,-764.741)"
           fill="#003084" />
      </g>
    </g>
    <g
       id="Group_47777"
       data-name="Group 47777"
       transform="translate(6.152)">
      <g
         id="Group_47775"
         data-name="Group 47775"
         transform="translate(0.096,0.076)">
        <path
           id="Path_81723"
           data-name="Path 81723"
           d="m 931.557,770.6 0.18,0.136 a 6.147,6.147 0 0 1 -0.914,1.015 1.269,1.269 0 0 1 -0.723,0.363 0.253,0.253 0 0 1 -0.232,-0.109 0.53,0.53 0 0 1 -0.076,-0.338 8.615,8.615 0 0 1 0.273,-1.79 9,9 0 0 0 0.262,-1.722 0.366,0.366 0 0 0 -0.022,-0.148 0.121,0.121 0 0 0 -0.1,-0.046 0.374,0.374 0 0 0 -0.207,0.1 3.111,3.111 0 0 0 -0.322,0.287 l -0.169,-0.156 a 7.011,7.011 0 0 1 0.95,-0.947 1.207,1.207 0 0 1 0.666,-0.338 0.253,0.253 0 0 1 0.227,0.1 0.42,0.42 0 0 1 0.076,0.295 10.682,10.682 0 0 1 -0.167,1.242 c -0.036,0.221 -0.068,0.4 -0.1,0.543 -0.068,0.461 -0.134,0.838 -0.175,1.135 -0.041,0.297 -0.074,0.483 -0.074,0.549 a 0.355,0.355 0 0 0 0.035,0.164 0.134,0.134 0 0 0 0.123,0.06 0.274,0.274 0 0 0 0.191,-0.109 1.748,1.748 0 0 0 0.289,-0.286 z m -0.33,-5.865 a 0.473,0.473 0 0 1 0.355,0.142 0.427,0.427 0 0 1 0.156,0.355 0.834,0.834 0 0 1 -0.213,0.587 0.578,0.578 0 0 1 -0.486,0.24 0.471,0.471 0 0 1 -0.357,-0.136 0.516,0.516 0 0 1 -0.134,-0.393 0.9,0.9 0 0 1 0.2,-0.56 0.675,0.675 0 0 1 0.479,-0.234 z"
           transform="translate(-929.51,-764.736)"
           fill="#003084" />
      </g>
      <g
         id="Group_47776"
         data-name="Group 47776">
        <path
           id="Path_81724"
           data-name="Path 81724"
           d="m 929.852,772.1 a 0.8,0.8 0 0 1 -0.085,-0.388 v 0 a 8.386,8.386 0 0 1 0.281,-1.812 v 0 a 9.526,9.526 0 0 0 0.265,-1.7 v 0 c 0,-0.055 -0.008,-0.1 -0.019,-0.1 v 0 c -0.011,-0.027 -0.011,-0.016 -0.025,-0.027 v 0 a 0.3,0.3 0 0 0 -0.158,0.093 v 0 a 2.43,2.43 0 0 0 -0.306,0.281 v 0 l -0.057,0.06 -0.055,-0.06 -0.218,-0.215 0.035,-0.055 a 6.664,6.664 0 0 1 0.956,-0.955 v 0 a 1.353,1.353 0 0 1 0.72,-0.355 v 0 a 0.4,0.4 0 0 1 0.3,0.134 v 0 a 0.616,0.616 0 0 1 0.1,0.344 v 0 c 0,0.145 -0.063,0.551 -0.174,1.242 v 0 c -0.046,0.235 -0.082,0.412 -0.1,0.554 v 0 c -0.079,0.461 -0.142,0.841 -0.177,1.141 v 0 a 2.493,2.493 0 0 0 -0.063,0.532 v 0 a 0.232,0.232 0 0 0 0.011,0.115 v 0 a 0.06,0.06 0 0 0 0.06,0.03 v 0 a 0.584,0.584 0 0 0 0.15,-0.09 v 0 a 1.511,1.511 0 0 0 0.265,-0.289 v 0 l 0.046,-0.06 0.066,0.055 0.243,0.2 -0.044,0.063 a 6.43,6.43 0 0 1 -0.939,1.024 v 0 a 1.272,1.272 0 0 1 -0.764,0.376 h -0.005 a 0.373,0.373 0 0 1 -0.3,-0.139 z m 0.568,-4.078 a 0.3,0.3 0 0 1 0.047,0.178 v 0 a 8.836,8.836 0 0 1 -0.279,1.741 v 0 a 9.441,9.441 0 0 0 -0.259,1.771 v 0 a 0.557,0.557 0 0 0 0.049,0.286 v 0 a 0.186,0.186 0 0 0 0.183,0.079 v 0 a 1.2,1.2 0 0 0 0.663,-0.341 v 0 a 6,6 0 0 0 0.868,-0.931 v 0 l -0.066,-0.054 c -0.087,0.109 -0.175,0.18 -0.246,0.257 v 0 a 0.462,0.462 0 0 1 -0.243,0.1 v 0 a 0.2,0.2 0 0 1 -0.18,-0.082 v 0 a 0.357,0.357 0 0 1 -0.052,-0.213 v 0 a 3.755,3.755 0 0 1 0.074,-0.557 v 0 c 0.035,-0.3 0.1,-0.674 0.18,-1.144 v 0 a 5.1,5.1 0 0 1 0.1,-0.546 v 0 c 0.109,-0.693 0.158,-1.114 0.158,-1.223 v 0 a 0.4,0.4 0 0 0 -0.049,-0.259 v 0 a 0.218,0.218 0 0 0 -0.178,-0.06 v 0 a 1.186,1.186 0 0 0 -0.619,0.322 v 0 a 7.034,7.034 0 0 0 -0.884,0.884 v 0 l 0.057,0.054 a 1.738,1.738 0 0 1 0.273,-0.251 v 0 a 0.471,0.471 0 0 1 0.257,-0.109 h 0.014 a 0.142,0.142 0 0 1 0.137,0.093 z m 0.262,-2.017 a 0.573,0.573 0 0 1 -0.158,-0.431 v 0 a 0.9,0.9 0 0 1 0.224,-0.6 v 0 a 0.662,0.662 0 0 1 0.54,-0.273 v 0 0.156 a 0.56,0.56 0 0 0 -0.428,0.218 v 0 a 0.76,0.76 0 0 0 -0.177,0.5 v 0 a 0.531,0.531 0 0 0 0.115,0.333 v 0 a 0.379,0.379 0 0 0 0.3,0.126 v 0 a 0.494,0.494 0 0 0 0.428,-0.221 v 0 a 0.8,0.8 0 0 0 0.186,-0.535 v 0 a 0.425,0.425 0 0 0 -0.117,-0.3 v 0 a 0.4,0.4 0 0 0 -0.3,-0.117 v 0 -0.156 a 0.57,0.57 0 0 1 0.415,0.169 v 0 a 0.552,0.552 0 0 1 0.166,0.4 v 0 a 0.97,0.97 0 0 1 -0.221,0.641 v 0 a 0.739,0.739 0 0 1 -0.554,0.276 v 0 a 0.518,0.518 0 0 1 -0.412,-0.188 z"
           transform="translate(-929.475,-764.708)"
           fill="#003084" />
      </g>
    </g>
    <g
       id="Group_47780"
       data-name="Group 47780"
       transform="translate(9.727,2.167)">
      <g
         id="Group_47778"
         data-name="Group 47778"
         transform="translate(0.096,0.079)">
        <path
           id="Path_81725"
           data-name="Path 81725"
           d="m 931.1,770.78 c 0.2,-0.9 0.352,-1.714 0.461,-2.476 a 13.81,13.81 0 0 0 0.164,-1.5 0.608,0.608 0 0 0 -0.038,-0.229 0.2,0.2 0 0 0 -0.125,-0.068 0.363,0.363 0 0 0 -0.224,0.12 c -0.1,0.082 -0.213,0.191 -0.341,0.319 l -0.177,-0.142 a 8.111,8.111 0 0 1 1.013,-0.956 1.315,1.315 0 0 1 0.721,-0.316 0.286,0.286 0 0 1 0.229,0.109 0.653,0.653 0 0 1 0.068,0.363 6.7,6.7 0 0 1 -0.079,0.778 c -0.057,0.371 -0.134,0.8 -0.235,1.313 a 11.315,11.315 0 0 1 1.668,-1.837 2.523,2.523 0 0 1 1.258,-0.726 0.287,0.287 0 0 1 0.232,0.079 0.316,0.316 0 0 1 0.1,0.24 11.889,11.889 0 0 1 -0.276,1.725 11.129,11.129 0 0 0 -0.27,1.932 0.32,0.32 0 0 0 0.038,0.167 c 0.022,0.03 0.044,0.052 0.074,0.052 a 0.377,0.377 0 0 0 0.218,-0.087 1.7,1.7 0 0 0 0.289,-0.289 l 0.172,0.142 a 5.981,5.981 0 0 1 -0.854,0.911 1.079,1.079 0 0 1 -0.663,0.3 0.319,0.319 0 0 1 -0.267,-0.128 0.8,0.8 0 0 1 -0.1,-0.434 10.66,10.66 0 0 1 0.248,-1.774 10.363,10.363 0 0 0 0.248,-1.684 0.372,0.372 0 0 0 -0.041,-0.164 0.154,0.154 0 0 0 -0.109,-0.06 c -0.112,0 -0.284,0.107 -0.51,0.32 a 5.827,5.827 0 0 0 -0.734,0.843 5.4,5.4 0 0 0 -0.718,1.283 6.073,6.073 0 0 0 -0.325,1.411 c -0.156,0.06 -0.33,0.131 -0.486,0.2 a 6.7,6.7 0 0 0 -0.629,0.263 z"
           transform="translate(-930.82,-765.531)"
           fill="#003084" />
      </g>
      <g
         id="Group_47779"
         data-name="Group 47779">
        <path
           id="Path_81726"
           data-name="Path 81726"
           d="m 931.093,770.813 c 0.183,-0.893 0.328,-1.714 0.442,-2.467 v 0 a 13.887,13.887 0 0 0 0.167,-1.493 v 0 a 0.284,0.284 0 0 0 -0.038,-0.183 v 0 c -0.008,-0.033 -0.019,-0.033 -0.041,-0.046 v 0 a 0.66,0.66 0 0 0 -0.172,0.112 v 0 a 2.725,2.725 0 0 0 -0.336,0.322 v 0 l -0.055,0.049 -0.057,-0.049 -0.218,-0.2 0.049,-0.068 a 6.564,6.564 0 0 1 1.021,-0.944 v 0 a 1.314,1.314 0 0 1 0.759,-0.338 v 0 a 0.333,0.333 0 0 1 0.292,0.158 v 0 a 0.671,0.671 0 0 1 0.09,0.393 v 0 a 5.4,5.4 0 0 1 -0.09,0.8 v 0 c -0.033,0.289 -0.09,0.6 -0.161,0.963 v 0 a 11.148,11.148 0 0 1 1.468,-1.577 v 0 a 2.58,2.58 0 0 1 1.31,-0.737 v 0 a 0.45,0.45 0 0 1 0.295,0.1 v 0 a 0.436,0.436 0 0 1 0.107,0.295 v 0 a 11,11 0 0 1 -0.276,1.733 v 0 a 11.731,11.731 0 0 0 -0.262,1.924 v 0 a 0.586,0.586 0 0 0 0.022,0.131 v 0 l 0.008,0.011 v 0 a 0.326,0.326 0 0 0 0.175,-0.071 v 0 a 2.52,2.52 0 0 0 0.267,-0.281 v 0 l 0.066,-0.052 0.057,0.044 0.229,0.191 -0.049,0.068 a 7.853,7.853 0 0 1 -0.868,0.923 v 0 a 1.111,1.111 0 0 1 -0.715,0.319 v 0 a 0.4,0.4 0 0 1 -0.336,-0.175 v 0 a 0.85,0.85 0 0 1 -0.1,-0.472 v 0 a 9.574,9.574 0 0 1 0.24,-1.793 v 0 a 9.167,9.167 0 0 0 0.243,-1.665 v 0 a 0.572,0.572 0 0 0 -0.019,-0.117 v 0 c -0.025,-0.033 -0.027,-0.033 -0.044,-0.033 v 0 a 1.018,1.018 0 0 0 -0.461,0.306 v 0 a 7.363,7.363 0 0 0 -0.729,0.832 v 0 a 5.431,5.431 0 0 0 -0.693,1.25 v 0 a 5.437,5.437 0 0 0 -0.314,1.414 v 0 l -0.022,0.047 -0.047,0.014 c -0.15,0.057 -0.314,0.117 -0.48,0.183 v 0 c -0.18,0.079 -0.374,0.161 -0.619,0.27 v 0 l -0.134,0.063 0.033,-0.15 z m 0.153,0.027 -0.085,-0.011 z m 0.568,-4.255 a 0.54,0.54 0 0 1 0.049,0.268 v 0 a 14.28,14.28 0 0 1 -0.161,1.506 v 0 c -0.112,0.734 -0.251,1.5 -0.426,2.339 v 0 c 0.185,-0.082 0.347,-0.147 0.478,-0.2 v 0 a 4.2,4.2 0 0 1 0.45,-0.175 v 0 a 5.242,5.242 0 0 1 0.328,-1.405 v 0 a 5.919,5.919 0 0 1 0.71,-1.291 v 0 a 5.267,5.267 0 0 1 0.759,-0.851 v 0 c 0.229,-0.221 0.4,-0.336 0.56,-0.341 v 0 a 0.181,0.181 0 0 1 0.169,0.1 v 0 a 0.383,0.383 0 0 1 0.06,0.2 v 0 a 9.065,9.065 0 0 1 -0.254,1.695 v 0 a 9.923,9.923 0 0 0 -0.235,1.763 v 0 a 0.675,0.675 0 0 0 0.074,0.385 v 0 a 0.24,0.24 0 0 0 0.2,0.1 v 0 a 1.041,1.041 0 0 0 0.614,-0.287 v 0 a 5.78,5.78 0 0 0 0.8,-0.83 v 0 l -0.055,-0.054 a 1.382,1.382 0 0 1 -0.251,0.245 v 0 a 0.406,0.406 0 0 1 -0.267,0.107 v 0 a 0.148,0.148 0 0 1 -0.139,-0.1 v 0 a 0.339,0.339 0 0 1 -0.055,-0.2 v 0 a 10.5,10.5 0 0 1 0.27,-1.949 v 0 a 9.617,9.617 0 0 0 0.262,-1.709 v 0 a 0.247,0.247 0 0 0 -0.049,-0.18 v 0 a 0.239,0.239 0 0 0 -0.183,-0.06 v 0 a 2.448,2.448 0 0 0 -1.212,0.71 v 0 a 10.255,10.255 0 0 0 -1.646,1.823 v 0 l -0.137,-0.066 c 0.1,-0.5 0.169,-0.933 0.224,-1.31 v 0 a 5.53,5.53 0 0 0 0.079,-0.764 v 0 a 0.545,0.545 0 0 0 -0.063,-0.311 v 0 a 0.166,0.166 0 0 0 -0.156,-0.082 v 0 a 1.281,1.281 0 0 0 -0.68,0.306 v 0 A 6.563,6.563 0 0 0 931,766.843 v 0 l 0.055,0.049 a 1.984,1.984 0 0 1 0.292,-0.273 v 0 a 0.528,0.528 0 0 1 0.273,-0.139 h 0.005 a 0.257,0.257 0 0 1 0.186,0.106 z"
           transform="translate(-930.785,-765.502)"
           fill="#003084" />
      </g>
    </g>
    <g
       id="Group_47783"
       data-name="Group 47783"
       transform="translate(16.286,2.159)">
      <g
         id="Group_47781"
         data-name="Group 47781"
         transform="translate(0.079,0.074)">
        <path
           id="Path_81727"
           data-name="Path 81727"
           d="m 936.132,766.678 a 2.356,2.356 0 0 0 -0.406,-0.357 0.722,0.722 0 0 0 -0.369,-0.123 c -0.267,0 -0.513,0.287 -0.721,0.843 a 5.571,5.571 0 0 0 -0.3,1.932 1.247,1.247 0 0 0 0.15,0.71 0.507,0.507 0 0 0 0.445,0.243 1.088,1.088 0 0 0 0.611,-0.229 3.884,3.884 0 0 0 0.723,-0.658 l 0.186,0.18 a 4.772,4.772 0 0 1 -1.223,1.108 2.069,2.069 0 0 1 -1.141,0.423 0.783,0.783 0 0 1 -0.66,-0.278 1.54,1.54 0 0 1 -0.208,-0.868 5.613,5.613 0 0 1 0.218,-1.506 4.481,4.481 0 0 1 0.6,-1.239 3.773,3.773 0 0 1 1.059,-0.933 2.118,2.118 0 0 1 1.1,-0.4 0.779,0.779 0 0 1 0.472,0.147 0.409,0.409 0 0 1 0.2,0.338 0.523,0.523 0 0 1 -0.2,0.325 2.056,2.056 0 0 1 -0.536,0.342 z"
           transform="translate(-933.217,-765.526)"
           fill="#003084" />
      </g>
      <g
         id="Group_47782"
         data-name="Group 47782">
        <path
           id="Path_81728"
           data-name="Path 81728"
           d="m 933.412,770.57 a 1.572,1.572 0 0 1 -0.224,-0.92 v 0 a 5.409,5.409 0 0 1 0.224,-1.518 v 0 a 4.226,4.226 0 0 1 0.609,-1.269 v 0 a 3.76,3.76 0 0 1 1.084,-0.961 v 0 a 2.258,2.258 0 0 1 1.141,-0.4 v 0 a 0.852,0.852 0 0 1 0.519,0.153 v 0 a 0.5,0.5 0 0 1 0.221,0.406 v 0 a 0.544,0.544 0 0 1 -0.215,0.382 v 0 a 2.445,2.445 0 0 1 -0.562,0.366 v 0 l -0.047,0.016 -0.049,-0.041 a 1.476,1.476 0 0 0 -0.379,-0.352 v 0 a 0.637,0.637 0 0 0 -0.325,-0.1 v 0 c -0.2,-0.011 -0.431,0.229 -0.638,0.778 v 0 a 5.349,5.349 0 0 0 -0.319,1.91 v 0 a 1.21,1.21 0 0 0 0.15,0.674 v 0 a 0.4,0.4 0 0 0 0.379,0.191 v 0 a 0.972,0.972 0 0 0 0.57,-0.207 v 0 a 4.322,4.322 0 0 0 0.715,-0.658 v 0 l 0.049,-0.047 0.055,0.047 0.237,0.24 -0.047,0.054 a 5.879,5.879 0 0 1 -1.247,1.138 v 0 a 2.168,2.168 0 0 1 -1.176,0.423 h -0.008 a 0.877,0.877 0 0 1 -0.715,-0.306 z m 1.769,-4.528 a 3.479,3.479 0 0 0 -1.034,0.906 v 0 a 3.6,3.6 0 0 0 -0.579,1.225 v 0 a 4.747,4.747 0 0 0 -0.221,1.477 v 0 a 1.406,1.406 0 0 0 0.188,0.824 v 0 a 0.723,0.723 0 0 0 0.6,0.24 v 0 a 2.136,2.136 0 0 0 1.1,-0.4 v 0 a 5.052,5.052 0 0 0 1.166,-1.051 v 0 l -0.077,-0.082 a 3.631,3.631 0 0 1 -0.682,0.614 v 0 a 1.216,1.216 0 0 1 -0.66,0.246 v 0 a 0.6,0.6 0 0 1 -0.513,-0.281 v 0 a 1.294,1.294 0 0 1 -0.169,-0.742 v 0 a 5.533,5.533 0 0 1 0.325,-1.968 v 0 c 0.2,-0.56 0.453,-0.876 0.786,-0.876 v 0 a 0.682,0.682 0 0 1 0.409,0.128 v 0 a 1.811,1.811 0 0 1 0.385,0.325 v 0 a 1.989,1.989 0 0 0 0.456,-0.3 v 0 c 0.123,-0.123 0.175,-0.2 0.175,-0.273 v 0 a 0.336,0.336 0 0 0 -0.164,-0.275 v 0 a 0.642,0.642 0 0 0 -0.423,-0.131 v 0 a 2.176,2.176 0 0 0 -1.064,0.39 z m 1,0.682 0.055,-0.044 z"
           transform="translate(-933.188,-765.499)"
           fill="#003084" />
      </g>
    </g>
    <g
       id="Group_47786"
       data-name="Group 47786"
       transform="translate(20.784,2.159)">
      <g
         id="Group_47784"
         data-name="Group 47784"
         transform="translate(0.082,0.074)">
        <path
           id="Path_81729"
           data-name="Path 81729"
           d="m 936.124,768.021 a 4.517,4.517 0 0 0 -0.1,0.565 3.884,3.884 0 0 0 -0.03,0.472 1.167,1.167 0 0 0 0.144,0.639 0.548,0.548 0 0 0 0.464,0.229 1.093,1.093 0 0 0 0.589,-0.229 3.4,3.4 0 0 0 0.71,-0.658 l 0.194,0.18 a 4.794,4.794 0 0 1 -1.2,1.127 2.206,2.206 0 0 1 -1.138,0.426 0.842,0.842 0 0 1 -0.663,-0.284 1.185,1.185 0 0 1 -0.232,-0.791 5.045,5.045 0 0 1 0.284,-1.611 3.408,3.408 0 0 1 1.648,-2.2 2.012,2.012 0 0 1 0.988,-0.36 0.758,0.758 0 0 1 0.524,0.175 0.717,0.717 0 0 1 0.2,0.5 1.479,1.479 0 0 1 -0.693,1.092 3.7,3.7 0 0 1 -1.689,0.732 z m 0.052,-0.314 a 1.378,1.378 0 0 0 0.92,-0.319 1.054,1.054 0 0 0 0.355,-0.811 0.492,0.492 0 0 0 -0.087,-0.333 0.293,0.293 0 0 0 -0.267,-0.115 c -0.2,0 -0.371,0.131 -0.535,0.4 a 4.357,4.357 0 0 0 -0.386,1.178 z"
           transform="translate(-934.866,-765.526)"
           fill="#003084" />
      </g>
      <g
         id="Group_47785"
         data-name="Group 47785">
        <path
           id="Path_81730"
           data-name="Path 81730"
           d="m 935.092,770.595 a 1.3,1.3 0 0 1 -0.257,-0.851 v 0 a 5.664,5.664 0 0 1 0.273,-1.635 v 0 a 4.876,4.876 0 0 1 0.682,-1.367 v 0 a 4.257,4.257 0 0 1 1.01,-0.879 v 0 a 2.192,2.192 0 0 1 1.037,-0.363 v 0 a 0.786,0.786 0 0 1 0.573,0.2 v 0 a 0.707,0.707 0 0 1 0.215,0.549 v 0 a 1.528,1.528 0 0 1 -0.707,1.152 v 0 a 4.072,4.072 0 0 1 -1.679,0.737 v 0 c -0.041,0.188 -0.063,0.347 -0.082,0.5 v 0 a 3.918,3.918 0 0 0 -0.038,0.469 v 0 a 0.984,0.984 0 0 0 0.15,0.59 v 0 a 0.394,0.394 0 0 0 0.385,0.191 v 0 a 0.9,0.9 0 0 0 0.535,-0.207 v 0 a 3.523,3.523 0 0 0 0.71,-0.647 v 0 l 0.055,-0.058 0.063,0.052 0.246,0.224 -0.057,0.066 a 5.281,5.281 0 0 1 -1.215,1.138 v 0 a 2.152,2.152 0 0 1 -1.179,0.448 H 935.8 a 0.883,0.883 0 0 1 -0.7,-0.306 z M 936.883,766 a 3.675,3.675 0 0 0 -0.958,0.833 v 0 a 3.873,3.873 0 0 0 -0.661,1.329 v 0 a 5.182,5.182 0 0 0 -0.265,1.578 v 0 a 1.126,1.126 0 0 0 0.213,0.756 v 0 a 0.722,0.722 0 0 0 0.6,0.248 v 0 a 2.1,2.1 0 0 0 1.095,-0.418 v 0 a 5.62,5.62 0 0 0 1.149,-1.064 v 0 l -0.1,-0.068 a 3.12,3.12 0 0 1 -0.68,0.606 v 0 a 1.022,1.022 0 0 1 -0.625,0.24 v 0 a 0.574,0.574 0 0 1 -0.519,-0.262 v 0 a 1.133,1.133 0 0 1 -0.169,-0.677 v 0 a 3.113,3.113 0 0 1 0.036,-0.477 v 0 a 5.445,5.445 0 0 1 0.09,-0.584 v 0 l 0.011,-0.04 0.057,-0.005 a 3.643,3.643 0 0 0 1.651,-0.723 v 0 a 1.366,1.366 0 0 0 0.66,-1.026 v 0 a 0.592,0.592 0 0 0 -0.156,-0.423 v 0 a 0.634,0.634 0 0 0 -0.478,-0.175 v 0 a 1.919,1.919 0 0 0 -0.955,0.358 z m -0.655,1.834 h -0.1 l 0.03,-0.1 a 3.461,3.461 0 0 1 0.4,-1.2 v 0 a 0.733,0.733 0 0 1 0.595,-0.45 v 0 a 0.4,0.4 0 0 1 0.328,0.139 v 0 a 0.66,0.66 0 0 1 0.106,0.39 v 0 a 1.141,1.141 0 0 1 -0.39,0.87 v 0 a 1.442,1.442 0 0 1 -0.95,0.344 h -0.014 z m 0.464,-1.215 a 3.1,3.1 0 0 0 -0.363,1.056 v 0 a 1.166,1.166 0 0 0 0.753,-0.306 v 0 a 0.981,0.981 0 0 0 0.349,-0.75 v 0 a 0.485,0.485 0 0 0 -0.079,-0.292 v 0 a 0.245,0.245 0 0 0 -0.2,-0.087 v 0 c -0.156,0 -0.311,0.115 -0.456,0.379 z"
           transform="translate(-934.836,-765.499)"
           fill="#003084" />
      </g>
    </g>
    <g
       id="Group_47789"
       data-name="Group 47789"
       transform="translate(27.321,0.082)">
      <g
         id="Group_47787"
         data-name="Group 47787"
         transform="translate(0.098,0.096)">
        <path
           id="Path_81731"
           data-name="Path 81731"
           d="m 940.654,764.773 0.224,0.1 c -0.224,0.988 -0.4,2.047 -0.562,3.155 -0.162,1.108 -0.276,2.276 -0.385,3.491 l 1.425,0.169 -0.044,0.281 c -0.344,0 -0.753,-0.011 -1.209,-0.011 -0.486,-0.008 -0.772,-0.016 -0.9,-0.025 -0.2,0 -0.461,0 -0.786,0.016 -0.325,0.016 -0.712,0.019 -1.152,0.019 l 0.052,-0.281 1.389,-0.169 c 0.2,-0.9 0.369,-1.84 0.5,-2.83 0.145,-0.969 0.265,-1.987 0.341,-3.027 -0.229,0.076 -0.453,0.136 -0.693,0.2 -0.24,0.064 -0.478,0.117 -0.718,0.161 l 0.036,-0.284 a 11.649,11.649 0 0 0 1.307,-0.417 10.058,10.058 0 0 0 1.175,-0.548 z"
           transform="translate(-937.267,-764.773)"
           fill="#003084" />
      </g>
      <g
         id="Group_47788"
         data-name="Group 47788">
        <path
           id="Path_81732"
           data-name="Path 81732"
           d="m 941.366,772.113 c -0.336,0 -0.745,-0.014 -1.209,-0.014 v 0 c -0.478,-0.011 -0.775,-0.011 -0.89,-0.022 v 0 c -0.2,0 -0.461,0.011 -0.786,0.011 v 0 c -0.325,0.011 -0.712,0.022 -1.146,0.024 h -0.1 l 0.036,-0.093 0.063,-0.33 1.381,-0.175 c 0.194,-0.884 0.352,-1.81 0.486,-2.765 v 0 c 0.136,-0.942 0.251,-1.908 0.33,-2.926 v 0 a 4.293,4.293 0 0 1 -0.592,0.172 v 0 c -0.237,0.057 -0.483,0.12 -0.723,0.167 v 0 l -0.109,0.016 0.014,-0.109 0.041,-0.341 0.055,-0.006 a 9.519,9.519 0 0 0 1.3,-0.412 v 0 c 0.412,-0.172 0.8,-0.357 1.16,-0.546 v 0 l 0.046,-0.027 0.03,0.027 0.289,0.131 -0.022,0.054 c -0.213,1 -0.393,2.039 -0.562,3.147 v 0 c -0.142,1.086 -0.273,2.216 -0.363,3.417 v 0 l 1.422,0.175 -0.008,0.079 -0.063,0.344 z m -1.2,-0.175 c 0.434,0.011 0.811,0.014 1.135,0.014 v 0 l 0.033,-0.131 -1.419,-0.156 0.008,-0.085 c 0.1,-1.215 0.221,-2.4 0.38,-3.5 v 0 c 0.15,-1.1 0.336,-2.121 0.551,-3.1 v 0 l -0.137,-0.065 a 7.979,7.979 0 0 1 -1.144,0.529 v 0 a 8.575,8.575 0 0 1 -1.272,0.412 v 0 l -0.011,0.126 c 0.2,-0.038 0.406,-0.087 0.617,-0.142 v 0 c 0.232,-0.057 0.459,-0.123 0.679,-0.194 v 0 l 0.118,-0.036 -0.011,0.115 c -0.09,1.042 -0.2,2.052 -0.336,3.035 v 0 c -0.145,0.977 -0.309,1.927 -0.519,2.83 v 0 0.071 l -1.395,0.161 -0.011,0.125 c 0.385,0 0.734,-0.014 1.037,-0.014 v 0 c 0.336,-0.011 0.595,-0.011 0.8,-0.011 v 0 c 0.126,0 0.412,0.011 0.9,0.011 z"
           transform="translate(-937.231,-764.738)"
           fill="#003084" />
      </g>
    </g>
    <g
       id="Group_47792"
       data-name="Group 47792"
       transform="translate(32.605,0.12)">
      <g
         id="Group_47790"
         data-name="Group 47790"
         transform="translate(0.071,0.079)">
        <path
           id="Path_81733"
           data-name="Path 81733"
           d="m 939.523,770.892 a 1.834,1.834 0 0 0 0.508,0.464 1.388,1.388 0 0 0 0.644,0.177 1.909,1.909 0 0 0 1.6,-0.879 6.279,6.279 0 0 0 0.942,-2.639 4.259,4.259 0 0 1 -1.089,0.857 2.442,2.442 0 0 1 -1.105,0.289 1.269,1.269 0 0 1 -0.993,-0.374 1.553,1.553 0 0 1 -0.355,-1.092 2.83,2.83 0 0 1 0.213,-1.007 3.5,3.5 0 0 1 0.633,-0.92 2.961,2.961 0 0 1 1.07,-0.721 3.076,3.076 0 0 1 1.234,-0.267 1.513,1.513 0 0 1 1.212,0.461 2.118,2.118 0 0 1 0.393,1.414 6.218,6.218 0 0 1 -0.483,2.44 4.889,4.889 0 0 1 -2.626,2.667 3.444,3.444 0 0 1 -1.34,0.284 1.068,1.068 0 0 1 -0.565,-0.139 0.5,0.5 0 0 1 -0.224,-0.4 0.742,0.742 0 0 1 0.093,-0.311 1.136,1.136 0 0 1 0.237,-0.3 z m 2.735,-5.674 a 1.233,1.233 0 0 0 -1.04,0.6 2.532,2.532 0 0 0 -0.415,1.479 1.443,1.443 0 0 0 0.248,0.893 0.832,0.832 0 0 0 0.7,0.336 1.381,1.381 0 0 0 1.1,-0.6 2.1,2.1 0 0 0 0.489,-1.4 1.437,1.437 0 0 0 -0.287,-0.966 0.958,0.958 0 0 0 -0.795,-0.342 z"
           transform="translate(-939.193,-764.781)"
           fill="#003084" />
      </g>
      <g
         id="Group_47791"
         data-name="Group 47791">
        <path
           id="Path_81734"
           data-name="Path 81734"
           d="m 939.415,772.007 a 0.537,0.537 0 0 1 -0.248,-0.45 v 0 a 0.723,0.723 0 0 1 0.1,-0.339 v 0 a 0.923,0.923 0 0 1 0.251,-0.344 v 0 l 0.074,-0.063 0.041,0.085 a 1.511,1.511 0 0 0 0.486,0.44 v 0 a 1.251,1.251 0 0 0 0.6,0.175 v 0 a 1.831,1.831 0 0 0 1.542,-0.852 v 0 a 5.53,5.53 0 0 0 0.86,-2.347 v 0 a 3.792,3.792 0 0 1 -0.914,0.69 v 0 a 2.384,2.384 0 0 1 -1.141,0.289 v 0 a 1.292,1.292 0 0 1 -1.04,-0.415 v 0 a 1.591,1.591 0 0 1 -0.376,-1.13 v 0 a 2.392,2.392 0 0 1 0.229,-1.04 v 0 a 3.13,3.13 0 0 1 0.642,-0.944 v 0 a 2.976,2.976 0 0 1 1.083,-0.734 v 0 a 3.25,3.25 0 0 1 1.266,-0.276 v 0 a 1.579,1.579 0 0 1 1.275,0.491 v 0 a 2.178,2.178 0 0 1 0.415,1.463 v 0 a 6.378,6.378 0 0 1 -0.5,2.47 v 0 a 4.927,4.927 0 0 1 -1.345,1.894 v 0 a 5.082,5.082 0 0 1 -1.329,0.816 v 0 a 3.485,3.485 0 0 1 -1.362,0.295 v 0 a 0.978,0.978 0 0 1 -0.611,-0.175 z m -0.008,-0.723 a 0.532,0.532 0 0 0 -0.082,0.273 v 0 a 0.4,0.4 0 0 0 0.175,0.33 v 0 a 0.956,0.956 0 0 0 0.527,0.142 v 0 a 3.636,3.636 0 0 0 1.318,-0.284 v 0 a 4.942,4.942 0 0 0 1.269,-0.8 v 0 a 4.592,4.592 0 0 0 1.3,-1.834 v 0 a 6.087,6.087 0 0 0 0.489,-2.407 v 0 a 2.086,2.086 0 0 0 -0.377,-1.357 v 0 a 1.4,1.4 0 0 0 -1.157,-0.44 v 0 a 3.147,3.147 0 0 0 -1.212,0.268 v 0 a 2.892,2.892 0 0 0 -1.026,0.7 v 0 a 2.987,2.987 0 0 0 -0.625,0.89 v 0 a 2.729,2.729 0 0 0 -0.2,0.983 v 0 a 1.5,1.5 0 0 0 0.322,1.032 v 0 a 1.3,1.3 0 0 0 0.941,0.363 v 0 a 2.363,2.363 0 0 0 1.076,-0.284 v 0 a 4,4 0 0 0 1.048,-0.841 v 0 l 0.188,-0.194 -0.046,0.251 a 6.451,6.451 0 0 1 -0.953,2.675 v 0 a 1.988,1.988 0 0 1 -1.659,0.917 v 0 a 1.561,1.561 0 0 1 -0.682,-0.188 v 0 a 1.748,1.748 0 0 1 -0.478,-0.426 v 0 a 1.1,1.1 0 0 0 -0.153,0.232 z m 2.386,-2.62 a 0.894,0.894 0 0 1 -0.756,-0.371 v 0 a 1.471,1.471 0 0 1 -0.265,-0.942 v 0 a 2.535,2.535 0 0 1 0.434,-1.531 v 0 a 1.293,1.293 0 0 1 1.092,-0.628 v 0 0.158 a 1.133,1.133 0 0 0 -0.969,0.573 v 0 a 2.4,2.4 0 0 0 -0.4,1.427 v 0 a 1.392,1.392 0 0 0 0.237,0.846 v 0 a 0.743,0.743 0 0 0 0.631,0.3 v 0 a 1.318,1.318 0 0 0 1.031,-0.549 v 0 a 2.062,2.062 0 0 0 0.478,-1.37 v 0 a 1.436,1.436 0 0 0 -0.268,-0.92 v 0 a 0.886,0.886 0 0 0 -0.737,-0.311 v 0 -0.158 a 1.058,1.058 0 0 1 0.854,0.368 v 0 a 1.607,1.607 0 0 1 0.3,1.021 v 0 a 2.147,2.147 0 0 1 -0.51,1.452 v 0 a 1.462,1.462 0 0 1 -1.152,0.63 z"
           transform="translate(-939.167,-764.752)"
           fill="#003084" />
      </g>
    </g>
    <g
       id="Group_47795"
       data-name="Group 47795"
       transform="translate(39.122,0.128)">
      <g
         id="Group_47793"
         data-name="Group 47793"
         transform="translate(0.065,0.085)">
        <path
           id="Path_81735"
           data-name="Path 81735"
           d="m 945.261,769.377 a 1.4,1.4 0 0 0 -0.256,-0.936 0.826,0.826 0 0 0 -0.72,-0.336 1.393,1.393 0 0 0 -1.122,0.622 2.318,2.318 0 0 0 -0.486,1.485 1.606,1.606 0 0 0 0.286,1.013 0.97,0.97 0 0 0 0.767,0.374 1.3,1.3 0 0 0 1.083,-0.652 2.666,2.666 0 0 0 0.448,-1.569 z m 0.966,-3.474 a 1.188,1.188 0 0 0 -1.083,-0.59 1.691,1.691 0 0 0 -1.414,0.849 6.441,6.441 0 0 0 -0.917,2.467 4.162,4.162 0 0 1 1.086,-0.879 2.5,2.5 0 0 1 1.144,-0.308 1.293,1.293 0 0 1 1,0.393 1.578,1.578 0 0 1 0.347,1.108 2.89,2.89 0 0 1 -0.966,2.167 3.2,3.2 0 0 1 -2.257,0.92 1.464,1.464 0 0 1 -1.171,-0.48 2.08,2.08 0 0 1 -0.412,-1.343 6.362,6.362 0 0 1 0.494,-2.475 5.061,5.061 0 0 1 1.332,-1.894 4.736,4.736 0 0 1 1.234,-0.781 3.306,3.306 0 0 1 1.25,-0.27 0.9,0.9 0 0 1 0.518,0.12 0.415,0.415 0 0 1 0.186,0.369 0.7,0.7 0 0 1 -0.1,0.314 1.469,1.469 0 0 1 -0.271,0.31 z"
           transform="translate(-941.579,-764.786)"
           fill="#003084" />
      </g>
      <g
         id="Group_47794"
         data-name="Group 47794">
        <path
           id="Path_81736"
           data-name="Path 81736"
           d="m 941.975,771.66 a 2.118,2.118 0 0 1 -0.42,-1.4 v 0 a 6.46,6.46 0 0 1 0.489,-2.508 v 0 a 5.414,5.414 0 0 1 1.351,-1.935 v 0 a 4.805,4.805 0 0 1 1.258,-0.767 v 0 a 3.356,3.356 0 0 1 1.277,-0.295 v 0 a 0.942,0.942 0 0 1 0.568,0.15 v 0 a 0.444,0.444 0 0 1 0.2,0.423 v 0 a 0.629,0.629 0 0 1 -0.085,0.355 v 0 a 1.272,1.272 0 0 1 -0.284,0.328 v 0 l -0.071,0.054 -0.049,-0.074 a 1.318,1.318 0 0 0 -0.456,-0.407 v 0 a 1.211,1.211 0 0 0 -0.565,-0.142 v 0 a 1.62,1.62 0 0 0 -1.357,0.811 v 0 a 6.571,6.571 0 0 0 -0.846,2.181 v 0 a 4.14,4.14 0 0 1 0.923,-0.693 v 0 a 2.422,2.422 0 0 1 1.179,-0.319 v 0 a 1.324,1.324 0 0 1 1.048,0.426 v 0 a 1.623,1.623 0 0 1 0.385,1.149 v 0 a 2.948,2.948 0 0 1 -1,2.222 v 0 a 3.254,3.254 0 0 1 -2.312,0.944 h -0.011 a 1.554,1.554 0 0 1 -1.217,-0.5 z m 2.74,-6.463 a 4.487,4.487 0 0 0 -1.212,0.745 v 0 a 4.865,4.865 0 0 0 -1.313,1.881 v 0 a 6.275,6.275 0 0 0 -0.478,2.437 v 0 a 1.9,1.9 0 0 0 0.388,1.291 v 0 a 1.345,1.345 0 0 0 1.1,0.45 v 0 a 3.105,3.105 0 0 0 2.205,-0.884 v 0 a 2.846,2.846 0 0 0 0.947,-2.121 v 0 a 1.5,1.5 0 0 0 -0.336,-1.051 v 0 a 1.2,1.2 0 0 0 -0.936,-0.368 v 0 a 2.311,2.311 0 0 0 -1.105,0.3 v 0 a 3.616,3.616 0 0 0 -1.059,0.857 v 0 l -0.2,0.221 0.052,-0.284 a 7,7 0 0 1 0.931,-2.5 v 0 a 1.805,1.805 0 0 1 1.485,-0.882 v 0 a 1.427,1.427 0 0 1 0.641,0.156 v 0 a 1.367,1.367 0 0 1 0.459,0.388 v 0 a 1.055,1.055 0 0 0 0.2,-0.24 v 0 a 0.511,0.511 0 0 0 0.073,-0.262 v 0 a 0.3,0.3 0 0 0 -0.147,-0.289 v 0 a 0.808,0.808 0 0 0 -0.48,-0.123 v 0 a 3.027,3.027 0 0 0 -1.215,0.281 z m 1.553,0.759 0.066,-0.038 z m -3.319,5.369 a 1.7,1.7 0 0 1 -0.316,-1.059 v 0 a 2.436,2.436 0 0 1 0.51,-1.545 v 0 a 1.5,1.5 0 0 1 1.182,-0.644 v 0 a 0.967,0.967 0 0 1 0.791,0.366 v 0 a 1.618,1.618 0 0 1 0.27,0.988 v 0 a 2.655,2.655 0 0 1 -0.48,1.61 v 0 a 1.357,1.357 0 0 1 -1.135,0.685 v 0 a 1.013,1.013 0 0 1 -0.819,-0.4 z m 0.311,-2.492 a 2.242,2.242 0 0 0 -0.458,1.433 v 0 a 1.43,1.43 0 0 0 0.27,0.952 v 0 a 0.836,0.836 0 0 0 0.7,0.347 v 0 a 1.186,1.186 0 0 0 1.01,-0.612 v 0 a 2.5,2.5 0 0 0 0.448,-1.523 v 0 a 1.519,1.519 0 0 0 -0.243,-0.887 v 0 a 0.766,0.766 0 0 0 -0.66,-0.308 v 0 a 1.357,1.357 0 0 0 -1.065,0.6 z"
           transform="translate(-941.555,-764.755)"
           fill="#003084" />
      </g>
    </g>
    <g
       id="Group_47798"
       data-name="Group 47798"
       transform="translate(45.263,0.12)">
      <g
         id="Group_47796"
         data-name="Group 47796"
         transform="translate(0.085,0.079)">
        <path
           id="Path_81737"
           data-name="Path 81737"
           d="m 944.155,770.892 a 1.708,1.708 0 0 0 0.5,0.464 1.394,1.394 0 0 0 0.655,0.177 1.9,1.9 0 0 0 1.591,-0.879 6.249,6.249 0 0 0 0.936,-2.639 3.764,3.764 0 0 1 -1.089,0.857 2.394,2.394 0 0 1 -1.1,0.289 1.309,1.309 0 0 1 -0.993,-0.374 1.606,1.606 0 0 1 -0.355,-1.092 2.341,2.341 0 0 1 0.237,-1.007 2.786,2.786 0 0 1 0.622,-0.92 2.923,2.923 0 0 1 1.048,-0.721 3.146,3.146 0 0 1 1.245,-0.267 1.567,1.567 0 0 1 1.226,0.461 2.167,2.167 0 0 1 0.379,1.414 6.046,6.046 0 0 1 -0.5,2.44 4.659,4.659 0 0 1 -1.307,1.859 5.022,5.022 0 0 1 -1.307,0.808 3.449,3.449 0 0 1 -1.335,0.284 1.033,1.033 0 0 1 -0.562,-0.139 0.455,0.455 0 0 1 -0.213,-0.4 0.6,0.6 0 0 1 0.082,-0.311 1,1 0 0 1 0.237,-0.3 z m 2.735,-5.674 a 1.257,1.257 0 0 0 -1.048,0.6 2.533,2.533 0 0 0 -0.412,1.479 1.482,1.482 0 0 0 0.257,0.893 0.8,0.8 0 0 0 0.685,0.336 1.4,1.4 0 0 0 1.105,-0.6 2.109,2.109 0 0 0 0.478,-1.4 1.514,1.514 0 0 0 -0.278,-0.966 0.949,0.949 0 0 0 -0.787,-0.342 z"
           transform="translate(-943.836,-764.781)"
           fill="#003084" />
      </g>
      <g
         id="Group_47797"
         data-name="Group 47797">
        <path
           id="Path_81738"
           data-name="Path 81738"
           d="m 944.051,772.007 a 0.534,0.534 0 0 1 -0.246,-0.45 v 0 a 0.713,0.713 0 0 1 0.093,-0.339 v 0 a 0.927,0.927 0 0 1 0.265,-0.344 v 0 l 0.063,-0.063 0.049,0.085 a 1.71,1.71 0 0 0 0.469,0.44 v 0 a 1.341,1.341 0 0 0 0.622,0.175 v 0 a 1.835,1.835 0 0 0 1.534,-0.852 v 0 a 5.958,5.958 0 0 0 0.865,-2.347 v 0 a 3.623,3.623 0 0 1 -0.922,0.69 v 0 a 2.489,2.489 0 0 1 -1.138,0.289 v 0 a 1.288,1.288 0 0 1 -1.04,-0.415 v 0 a 1.6,1.6 0 0 1 -0.382,-1.122 v 0 a 2.648,2.648 0 0 1 0.221,-1.048 v 0 a 3.858,3.858 0 0 1 0.65,-0.958 v 0 a 3.508,3.508 0 0 1 1.086,-0.731 v 0 a 3.489,3.489 0 0 1 1.269,-0.265 v 0 a 1.594,1.594 0 0 1 1.275,0.486 v 0 a 2.28,2.28 0 0 1 0.412,1.469 v 0 a 6.184,6.184 0 0 1 -0.5,2.47 v 0 a 4.984,4.984 0 0 1 -1.346,1.894 v 0 a 4.892,4.892 0 0 1 -1.326,0.816 v 0 a 3.5,3.5 0 0 1 -1.362,0.295 v 0 a 0.991,0.991 0 0 1 -0.614,-0.175 z m 0,-0.723 a 0.566,0.566 0 0 0 -0.085,0.273 v 0 a 0.374,0.374 0 0 0 0.186,0.33 v 0 a 0.917,0.917 0 0 0 0.516,0.142 v 0 a 3.606,3.606 0 0 0 1.31,-0.284 v 0 a 4.664,4.664 0 0 0 1.275,-0.8 v 0 a 4.555,4.555 0 0 0 1.31,-1.834 v 0 a 6.133,6.133 0 0 0 0.48,-2.407 v 0 a 2.039,2.039 0 0 0 -0.376,-1.357 v 0 a 1.421,1.421 0 0 0 -1.155,-0.44 v 0 a 2.893,2.893 0 0 0 -1.206,0.268 v 0 a 2.979,2.979 0 0 0 -1.034,0.7 v 0 a 2.909,2.909 0 0 0 -0.617,0.89 v 0 a 2.446,2.446 0 0 0 -0.208,0.991 v 0 a 1.463,1.463 0 0 0 0.327,1.023 v 0 a 1.257,1.257 0 0 0 0.934,0.363 v 0 a 2.262,2.262 0 0 0 1.064,-0.284 v 0 a 4.026,4.026 0 0 0 1.067,-0.841 v 0 l 0.172,-0.194 -0.036,0.251 a 6.54,6.54 0 0 1 -0.941,2.675 v 0 a 2.026,2.026 0 0 1 -1.665,0.917 v 0 a 1.523,1.523 0 0 1 -0.7,-0.2 v 0 a 1.62,1.62 0 0 1 -0.469,-0.418 v 0 a 1,1 0 0 0 -0.15,0.232 z m 2.377,-2.62 a 0.875,0.875 0 0 1 -0.745,-0.371 v 0 a 1.488,1.488 0 0 1 -0.265,-0.942 v 0 a 2.551,2.551 0 0 1 0.426,-1.531 v 0 a 1.293,1.293 0 0 1 1.1,-0.628 v 0 0.158 a 1.139,1.139 0 0 0 -0.977,0.573 v 0 a 2.359,2.359 0 0 0 -0.4,1.427 v 0 a 1.375,1.375 0 0 0 0.229,0.846 v 0 a 0.762,0.762 0 0 0 0.633,0.3 v 0 a 1.343,1.343 0 0 0 1.045,-0.549 v 0 a 2.178,2.178 0 0 0 0.472,-1.37 v 0 a 1.453,1.453 0 0 0 -0.267,-0.92 v 0 a 0.883,0.883 0 0 0 -0.731,-0.311 v 0 -0.158 a 1.072,1.072 0 0 1 0.857,0.368 v 0 a 1.6,1.6 0 0 1 0.289,1.021 v 0 a 2.168,2.168 0 0 1 -0.5,1.452 v 0 a 1.451,1.451 0 0 1 -1.154,0.63 h -0.008 z"
           transform="translate(-943.805,-764.752)"
           fill="#003084" />
      </g>
    </g>
  </g>
</svg>
