<?xml version="1.0" encoding="UTF-8" standalone="no"?>
<!-- Created with Inkscape (http://www.inkscape.org/) -->

<svg
   version="1.1"
   id="svg2"
   xml:space="preserve"
   width="340"
   height="293.83304"
   viewBox="0 0 340 293.83303"
   xmlns="http://www.w3.org/2000/svg"
   xmlns:svg="http://www.w3.org/2000/svg"><defs
     id="defs6"><clipPath
       clipPathUnits="userSpaceOnUse"
       id="clipPath24"><path
         d="M 0,8503.937 H 9921.26 V 0 H 0 Z"
         id="path22" /></clipPath></defs><g
     id="g8"
     transform="matrix(1.3333333,0,0,-1.3333333,-354.66679,11079.235)"><g
       id="g302"
       transform="matrix(0.02687039,0,0,0.02687039,258.85257,8086.1486)"><g
         id="g10"
         transform="translate(814.6821,8002.4731)"><path
           d="M 0,0 H 8392.65 L 4196.316,-7268.235 Z M -548.682,306.953 4196.316,-7894.446 8941.318,306.953 Z"
           style="fill:#c0ae67;fill-opacity:1;fill-rule:nonzero;stroke:none"
           id="path12" /></g><g
         id="g14"
         transform="translate(5081.4033,3684.2778)"><path
           d="M 0,0 -74.576,145.048 -150.1,0.472 -209.105,152.546 -299.344,16.656 -342.128,174.061 -446.054,48.343 -472.165,209.349 -588.67,95.185 l -9.125,162.858 -127.798,-101.355 7.951,162.929 -137.707,-87.459 24.942,161.198 -146.082,-72.585 41.635,157.72 -152.862,-56.908 57.903,152.494 -157.982,-40.619 73.529,145.608 -161.355,-23.891 88.331,137.131 -162.978,-6.888 102.207,127.144 -162.804,10.18 114.918,115.765 -160.833,27.144 126.383,103.12 -157.125,43.806 136.483,89.34 -151.673,59.991 145.05,74.586 -144.577,75.523 152.074,59.005 -135.891,90.228 157.409,42.788 -125.722,103.931 161.009,26.102 -114.166,116.5 162.858,9.132 -101.353,127.807 162.926,-7.951 -87.457,137.698 161.198,-24.933 -72.569,146.08 157.703,-41.641 -56.907,152.862 152.493,-57.904 -40.619,157.981 145.608,-73.519 -23.892,161.355 137.133,-88.343 -6.889,162.973 127.151,-102.192 10.172,162.796 115.757,-114.916 27.162,160.839 103.12,-126.39 43.797,157.126 89.331,-136.485 60.002,151.69 74.595,-145.074 75.519,144.585 58.988,-152.075 90.242,135.898 42.784,-157.405 103.94,125.719 26.093,-161.016 116.511,114.176 9.12,-162.868 127.816,101.362 -7.952,-162.929 137.692,87.46 -24.942,-161.206 146.097,72.577 -41.649,-157.713 152.861,56.91 -57.888,-152.495 157.967,40.618 -73.512,-145.608 161.335,23.884 -88.333,-137.123 162.983,6.885 -102.193,-127.133 162.788,-10.19 -114.915,-115.764 160.846,-27.143 -126.399,-103.111 157.126,-43.817 -136.485,-89.337 151.691,-59.993 -145.065,-74.577 144.575,-75.531 -152.057,-59.005 135.874,-90.222 -157.39,-42.793 125.719,-103.933 -161.022,-26.104 114.166,-116.498 -162.861,-9.132 101.375,-127.798 -162.946,7.952 87.457,-137.707 -161.201,24.941 72.588,-146.08 -157.721,41.633 56.909,-152.862 -152.493,57.903 40.617,-157.981 -145.59,73.529 23.873,-161.356 -137.111,88.35 L 576.486,152.44 449.354,254.651 439.163,91.844 323.406,206.764 296.267,45.914 193.146,172.314 149.332,15.206 60.001,151.673 Z M 180.266,-184.251 230.234,-5.016 347.86,-149.19 378.832,34.273 510.877,-96.81 522.498,88.909 667.531,-27.686 l -7.848,185.912 156.41,-100.777 -27.248,184.093 166.126,-83.893 -46.353,180.233 173.957,-66.05 -64.926,174.377 179.914,-47.522 -82.792,166.651 183.884,-28.437 -99.747,157.074 185.843,-9.071 -115.615,145.783 185.788,10.417 -130.243,132.901 183.673,29.775 -143.406,118.56 179.551,48.815 -155.009,102.919 173.449,67.315 -164.902,86.15 165.459,85.072 -173.013,68.443 155.676,101.914 -179.233,49.978 144.187,117.625 -183.497,30.972 131.12,132.054 -185.737,11.612 116.594,145.032 -185.928,-7.857 100.791,156.428 -184.075,-27.248 83.877,166.101 -180.215,-46.334 66.05,173.957 -174.377,-64.921 47.506,179.908 -166.636,-82.793 28.419,183.893 -157.071,-99.765 9.069,185.862 -145.782,-115.635 -10.4,185.78 L 387.903,2827.382 358.12,3011.065 239.566,2867.65 190.752,3047.209 87.842,2892.19 20.517,3065.658 -65.63,2900.727 l -85.082,165.489 -68.446,-173.031 -101.895,155.685 -49.986,-179.235 -117.626,144.183 -30.969,-183.483 -132.047,131.102 -11.622,-185.719 -145.03,116.576 7.863,-185.911 -156.427,100.779 27.231,-184.07 -166.091,83.877 46.337,-180.215 -173.96,66.049 64.929,-174.386 -179.917,47.515 82.793,-166.651 -183.884,28.445 99.747,-157.074 -185.843,9.062 115.632,-145.783 -185.788,-10.416 130.246,-132.902 -183.693,-29.774 143.422,-118.56 -179.565,-48.817 155.029,-102.917 -173.469,-67.308 164.92,-86.156 -165.482,-85.075 173.032,-68.442 -155.692,-101.914 179.236,-49.977 -144.174,-117.627 183.48,-30.969 -131.102,-132.046 185.72,-11.624 -116.594,-145.03 185.93,7.866 -100.794,-156.428 184.095,27.231 -83.894,-166.092 180.212,46.351 -66.046,-173.974 174.392,64.93 -47.521,-179.9 166.65,82.794 -28.437,-183.903 157.075,99.746 -9.072,-185.842 145.782,115.633 10.419,-185.79 132.898,130.246 29.786,-183.675 118.551,143.407 48.815,-179.568 102.927,155.029 67.308,-173.469 86.146,164.921 85.085,-165.48 68.442,173.03 z"
           style="fill:#c0ae67;fill-opacity:1;fill-rule:nonzero;stroke:none"
           id="path16" /></g><g
         id="g18"><g
           id="g20"
           clip-path="url(#clipPath24)"><g
             id="g26"
             transform="translate(5839.7158,4996.0747)"><path
               d="M 0,0 H -704.031 V 140.263 H -953.4 V 0 h -704.032 -287.873 v 0 c 9.793,-72.263 26.369,-142.371 49.187,-209.607 h 26.826 v 0 h 317.839 598.054 v -127.46 -16.483 l -249.014,-249.016 c -140.417,69.608 -258.543,177.268 -341.153,309.431 h -7.887 -312.284 c 93.324,-216.346 252.28,-397.734 452.028,-518.722 75.537,-45.753 156.891,-82.848 242.674,-109.991 l 238.191,238.191 98.174,98.175 3.953,3.954 3.957,-3.954 98.175,-98.175 238.19,-238.191 c 85.779,27.143 167.133,64.238 242.669,109.991 199.758,120.988 358.709,302.376 452.032,518.722 h -312.287 -7.882 C -196.474,-425.298 -314.6,-532.958 -455.017,-602.566 L -704.03,-353.55 v 16.483 127.46 h 598.049 0.003 317.842 26.826 C 261.508,-142.371 278.083,-72.263 287.876,0 h -0.005 z"
               style="fill:#c0ae67;fill-opacity:1;fill-rule:nonzero;stroke:none"
               id="path28" /></g><g
             id="g30"
             transform="translate(5152.0342,5449.915)"><path
               d="m 0,0 h -0.005 -282.058 -28.239 l 28.239,52.12 141.027,260.277 L -0.005,52.12 28.238,0 Z M 953.345,0 H 812.742 C 715.066,346.193 433.936,615.301 80.999,696.112 V 490.337 c 127.263,-37.09 241.312,-105.101 333.3,-195.626 H 191.876 L 304.788,128.649 h 238.51 C 567.062,87.909 587.415,44.947 603.69,0 H 265.391 L 0.623,463.343 l -0.628,0.231 v 9.618 36.282 0.001 L 0,509.474 v 201.779 114.568 h -0.005 -282.058 v -114.568 -201.778 -0.001 -36.282 -9.618 l -0.628,-0.231 L -547.458,0 h -338.301 c 16.28,44.947 36.633,87.909 60.393,128.649 h 238.505 l 112.917,166.062 h -222.418 c 91.983,90.525 206.032,158.536 333.295,195.626 V 696.112 C -716.004,615.301 -997.134,346.193 -1094.811,0 h -140.604 -25.969 v -147.741 -65.018 h 131.088 199.635 246.742 l -111.362,-163.904 h 242.698 l 96.152,163.904 h 630.793 l 96.149,-163.904 H 513.217 L 401.851,-212.759 H 648.593 848.229 979.316 V -147.741 0 Z"
               style="fill:#c0ae67;fill-opacity:1;fill-rule:nonzero;stroke:none"
               id="path32" /></g><g
             id="g34"
             transform="translate(3125.6172,5924.3452)"><path
               d="M 0,0 229.37,33.675 54.841,116.008 81.815,173.206 366.227,39.024 342.128,-11.992 113.161,-45.839 287.316,-128.028 260.312,-185.227 -24.07,-51.044 Z"
               style="fill:#c0ae67;fill-opacity:1;fill-rule:nonzero;stroke:none"
               id="path36" /></g><g
             id="g38"
             transform="translate(3248.9004,5606.8916)"><path
               d="M 0,0 -98.925,70.484 -120.81,-7.074 Z m -233.827,-12.539 58.723,3.279 31.288,110.831 -48.255,33.963 17.916,63.525 L 96.424,0.288 82.937,-47.479 -251.743,-76.092 Z"
               style="fill:#c0ae67;fill-opacity:1;fill-rule:nonzero;stroke:none"
               id="path40" /></g><g
             id="g42"
             transform="translate(3232.02,5332.7178)"><path
               d="M 0,0 -257.063,36.694 -248.091,99.3 8.886,62.605 20.849,146.375 75.085,138.64 42.187,-91.535 -11.992,-83.799 Z"
               style="fill:#c0ae67;fill-opacity:1;fill-rule:nonzero;stroke:none"
               id="path44" /></g><g
             id="g46"
             transform="translate(2961.0669,5214.0356)"><path
               d="M 0,0 314.434,-11.618 312.076,-74.827 -2.329,-63.18 Z"
               style="fill:#c0ae67;fill-opacity:1;fill-rule:nonzero;stroke:none"
               id="path48" /></g><g
             id="g50"
             transform="translate(3213.0977,4923.4702)"><path
               d="m 0,0 c 9.403,9.893 14.896,24.473 13.544,41.727 -1.408,17.197 -9.173,31.231 -20.015,39.484 -14.177,11.158 -28.958,13.171 -89.321,8.311 -60.333,-4.802 -74.596,-9.145 -86.847,-22.431 -9.403,-9.892 -14.867,-24.961 -13.487,-42.187 1.352,-17.255 9.087,-30.77 19.958,-39.024 14.177,-11.215 29.016,-13.66 89.349,-8.828 C -26.515,-18.117 -12.222,-13.314 0,0 m -209.441,-63.841 c -23.84,20.906 -38.362,47.593 -41.295,84.374 -2.934,36.723 7.16,65.826 27.377,90.27 29.102,35.227 68.356,37.47 122.535,41.813 54.179,4.342 93.347,8.397 127.626,-21.741 C 50.642,109.969 65.193,82.822 68.126,46.098 71.031,9.346 60.937,-19.325 40.72,-43.769 11.618,-78.968 -27.636,-81.671 -81.787,-85.985 c -54.207,-4.342 -93.346,-7.966 -127.654,22.144"
               style="fill:#c0ae67;fill-opacity:1;fill-rule:nonzero;stroke:none"
               id="path52" /></g><g
             id="g54"
             transform="translate(3036.9004,4542.6929)"><path
               d="m 0,0 155.895,171.567 -187.241,-47.22 -15.5,61.311 305.088,76.926 13.775,-54.696 L 116.583,36.436 303.392,83.569 318.834,22.258 13.804,-54.697 Z"
               style="fill:#c0ae67;fill-opacity:1;fill-rule:nonzero;stroke:none"
               id="path56" /></g><g
             id="g58"
             transform="translate(3333.7349,4375.8418)"><path
               d="m 0,0 -121.241,-8.34 32.294,-73.763 z m -172.861,-158.051 43.338,39.801 -46.214,105.424 -58.866,-4.4 L -261.06,43.165 74.424,61.34 94.325,15.932 -146.404,-218.47 Z"
               style="fill:#c0ae67;fill-opacity:1;fill-rule:nonzero;stroke:none"
               id="path60" /></g><g
             id="g62"
             transform="translate(3223.4214,4097.1528)"><path
               d="M 0,0 266.294,167.397 299.998,113.88 80.118,-24.357 158.396,-148.791 112.01,-177.922 Z"
               style="fill:#c0ae67;fill-opacity:1;fill-rule:nonzero;stroke:none"
               id="path64" /></g><g
             id="g66"
             transform="translate(3530.0913,3685.4038)"><path
               d="m 0,0 c -24.559,25.651 -35.746,55.243 -35.516,86.963 0.317,45.638 29.391,72.152 68.673,109.681 39.254,37.557 67.034,65.336 112.672,63.668 31.691,-1.208 60.764,-13.688 85.295,-39.339 41.842,-43.741 50.296,-101.141 10.582,-154.83 l -44.344,46.385 c 13.804,21.971 16.536,47.278 -5.492,70.254 -11.992,12.51 -26.199,18.434 -39.801,18.002 -18.088,-0.287 -31.461,-8.022 -75.2,-49.865 C 33.128,109.135 24.76,96.107 23.725,78.076 22.661,64.503 27.952,50.009 39.886,37.5 61.915,14.494 87.279,16.075 109.882,28.872 l 44.373,-46.356 C 98.782,-54.754 41.525,-43.424 0,0"
               style="fill:#c0ae67;fill-opacity:1;fill-rule:nonzero;stroke:none"
               id="path68" /></g><g
             id="g70"
             transform="translate(3816.4868,3439.9585)"><path
               d="M 0,0 79.399,104.907 -7.966,171.136 -87.336,66.2 -137.72,104.419 51.993,355.098 102.376,316.907 24.846,214.444 112.183,148.187 189.742,250.65 240.125,212.489 50.412,-38.247 Z"
               style="fill:#c0ae67;fill-opacity:1;fill-rule:nonzero;stroke:none"
               id="path72" /></g><g
             id="g74"
             transform="translate(4058.9697,3288.7524)"><path
               d="M 0,0 C -58.953,30.713 -85.438,93.864 -54.496,152.961 L 41.324,336.088 97.373,306.842 2.588,125.67 C -14.206,93.576 -4.889,64.302 25.364,48.484 55.588,32.697 85.381,41.583 102.204,73.647 L 197.018,254.849 252.692,225.774 156.814,42.618 C 125.9,-16.449 58.867,-30.771 0,0"
               style="fill:#c0ae67;fill-opacity:1;fill-rule:nonzero;stroke:none"
               id="path76" /></g><g
             id="g78"
             transform="translate(4443.9458,3136.7114)"><path
               d="M 0,0 -63.123,223.071 -122.19,39.254 -182.409,58.637 -86.157,358.088 -32.438,340.805 30.799,118.164 89.723,301.521 149.97,282.197 53.719,-17.255 Z"
               style="fill:#c0ae67;fill-opacity:1;fill-rule:nonzero;stroke:none"
               id="path80" /></g><g
             id="g82"
             transform="translate(4806.0601,3100.103)"><path
               d="m 0,0 c -29.419,-22.028 -61.455,-27.204 -95.647,-22.229 -35.113,5.119 -62.145,21.539 -81.499,46.702 -27.837,36.176 -21.252,74.942 -13.401,128.661 7.822,53.776 12.596,92.771 49.607,119.487 25.709,18.606 55.415,26.716 91.419,21.482 C 24.789,283.29 55.703,230.577 56.624,176.916 l -63.066,9.174 c -2.933,30.31 -19.009,49.204 -50.958,53.862 -17.14,2.474 -32.065,-2.042 -42.532,-10.755 -14.091,-11.359 -19.325,-25.306 -28.039,-85.151 -8.742,-59.873 -7.736,-75.2 2.502,-90.068 7.534,-11.36 20.619,-19.527 37.701,-22.029 18.922,-2.731 35.17,1.582 47.134,11.015 12.02,9.835 18.117,23.236 20.504,39.397 l 1.668,11.791 -58.953,8.627 7.391,50.642 L 51.073,135.764 44.488,90.356 C 37.902,45.351 25.824,19.411 0,0"
               style="fill:#c0ae67;fill-opacity:1;fill-rule:nonzero;stroke:none"
               id="path84" /></g><g
             id="g86"
             transform="translate(5216.1123,3067.7798)"><path
               d="m 0,0 -9.576,131.277 -109.336,-7.936 9.576,-131.307 -63.064,-4.544 -22.892,313.658 63.065,4.573 9.375,-128.201 109.336,7.965 -9.375,128.202 63.094,4.572 L 63.094,4.601 Z"
               style="fill:#c0ae67;fill-opacity:1;fill-rule:nonzero;stroke:none"
               id="path88" /></g><g
             id="g90"
             transform="translate(5471.6807,3107.9829)"><path
               d="m 0,0 c -47.853,-11.216 -86.474,-9.835 -124.664,13.43 l 30.77,47.996 c 24.445,-14.638 53,-14.781 82.247,-7.938 36.321,8.541 52.655,26.429 46.932,50.959 -2.559,10.755 -7.764,19.008 -15.846,23.466 -7.505,4.17 -15.327,5.522 -30.454,4.198 l -39.311,-3.71 c -27.895,-2.472 -49.75,1.036 -67.063,11.015 -18.491,11.101 -30.655,29.131 -36.752,54.927 -12.796,54.582 19.786,102.636 88.027,118.624 43.395,10.151 77.271,7.189 110.257,-11.848 L 13.947,254.59 c -24.271,13.804 -48.801,10.812 -69.622,5.894 -32.755,-7.706 -44.545,-29.015 -39.628,-50.094 1.841,-7.737 6.442,-15.299 14.465,-19.757 7.535,-4.112 18.836,-6.471 32.065,-5.205 l 38.449,3.594 c 29.678,2.819 49.692,-0.632 65.768,-9.547 C 75.919,167.943 88.717,147.353 95.101,120.234 109.048,60.937 65.969,15.442 0,0"
               style="fill:#c0ae67;fill-opacity:1;fill-rule:nonzero;stroke:none"
               id="path92" /></g><g
             id="g94"
             transform="translate(5664.3262,3165.1235)"><path
               d="M 0,0 -105.252,296.519 -45.638,317.713 59.557,21.137 Z"
               style="fill:#c0ae67;fill-opacity:1;fill-rule:nonzero;stroke:none"
               id="path96" /></g><g
             id="g98"
             transform="translate(5989.4014,3306.3228)"><path
               d="m 0,0 -201.36,114.915 86.732,-172.545 -56.479,-28.441 -141.286,281.19 50.355,25.307 201.158,-114.512 -86.531,172.199 56.479,28.413 L 50.383,25.364 Z"
               style="fill:#c0ae67;fill-opacity:1;fill-rule:nonzero;stroke:none"
               id="path100" /></g><g
             id="g102"
             transform="translate(6273.6973,3534.1685)"><path
               d="m 0,0 c -5.55,-36.407 -24.789,-62.49 -52.684,-82.908 -28.67,-20.993 -59.47,-28.211 -90.874,-23.84 -45.235,6.298 -67.723,38.563 -99.816,82.419 -32.122,43.855 -56.077,75.057 -48.399,120.062 5.292,31.26 20.792,57.918 50.153,79.4 60.592,44.373 119.66,28.441 157.907,-9.232 l -51.39,-37.614 c -23.351,19.584 -48.083,21.77 -74.166,2.674 -13.975,-10.237 -21.423,-23.926 -22.747,-37.499 -2.098,-17.916 3.941,-31.576 39.686,-80.406 35.746,-48.86 47.162,-59.097 64.934,-62.519 13.373,-2.818 28.384,0.518 42.332,10.727 15.414,11.272 24.012,25.766 25.939,40.864 1.668,15.472 -3.394,29.304 -13.057,42.475 l -7.045,9.633 -48.083,-35.227 -30.281,41.352 98.782,72.326 27.147,-37.097 C -4.773,58.866 4.773,31.949 0,0"
               style="fill:#c0ae67;fill-opacity:1;fill-rule:nonzero;stroke:none"
               id="path104" /></g><g
             id="g106"
             transform="translate(6551.8975,3753.3579)"><path
               d="m 0,0 c -43.885,-49.865 -111.579,-60.621 -161.56,-16.594 l -155.06,136.57 41.813,47.536 153.393,-135.131 c 27.146,-23.927 57.773,-21.827 80.319,3.796 22.546,25.594 21.051,56.652 -6.126,80.578 L -200.555,251.857 -159.087,299.02 -4.026,162.451 C 45.954,118.395 43.912,49.865 0,0"
               style="fill:#c0ae67;fill-opacity:1;fill-rule:nonzero;stroke:none"
               id="path108" /></g><g
             id="g110"
             transform="translate(6791.7051,4090.7974)"><path
               d="m 0,0 -231.612,-7.793 164.176,-101.398 -33.244,-53.806 -267.472,165.183 29.62,47.997 231.238,8.051 -163.803,101.112 33.244,53.805 L 29.649,48.025 Z"
               style="fill:#c0ae67;fill-opacity:1;fill-rule:nonzero;stroke:none"
               id="path112" /></g><g
             id="g114"
             transform="translate(6862.9951,4229.2651)"><path
               d="m 0,0 -286.051,130.473 26.17,57.543 286.108,-130.53 z"
               style="fill:#c0ae67;fill-opacity:1;fill-rule:nonzero;stroke:none"
               id="path116" /></g><g
             id="g118"
             transform="translate(6964.7969,4488.0249)"><path
               d="m 0,0 -14.811,-44.919 -332.004,-3.135 20.503,62.202 214.906,-2.329 -174.242,125.929 20.619,62.605 z"
               style="fill:#c0ae67;fill-opacity:1;fill-rule:nonzero;stroke:none"
               id="path120" /></g><g
             id="g122"
             transform="translate(7012.6201,4656.0835)"><path
               d="m 0,0 -309.833,54.236 36.81,210.074 53.949,-9.433 -25.882,-147.842 72.67,-12.711 22.028,125.872 53.949,-9.433 -22.056,-125.871 75.287,-13.2 25.91,147.842 53.92,-9.461 z"
               style="fill:#c0ae67;fill-opacity:1;fill-rule:nonzero;stroke:none"
               id="path124" /></g><g
             id="g126"
             transform="translate(6801.0801,5086.0073)"><path
               d="m 0,0 -1.265,-59.585 82.994,-1.783 1.265,59.585 C 83.599,25.997 66.775,44.574 42.504,45.092 18.232,45.581 0.604,27.751 0,0 m 260.601,43.568 -126.677,-60.564 -0.978,-45.494 125.411,-2.703 -1.379,-63.238 -314.32,6.758 2.703,126.965 c 1.41,65.969 45.926,104.159 98.466,103.038 44.171,-0.978 70.944,-29.333 81.297,-60.937 l 137.059,69.42 z"
               style="fill:#c0ae67;fill-opacity:1;fill-rule:nonzero;stroke:none"
               id="path128" /></g><g
             id="g130"
             transform="translate(7046.8994,5373.3521)"><path
               d="m 0,0 c 6.413,-48.715 1.266,-87.078 -25.681,-122.737 l -44.775,35.401 c 17.024,22.919 19.958,51.303 16.047,81.096 -4.889,36.982 -21.079,55.041 -46.041,51.763 -10.928,-1.438 -19.698,-5.809 -24.961,-13.401 -4.832,-7.074 -6.96,-14.695 -7.19,-29.879 l -0.143,-39.484 c -0.317,-28.038 -5.953,-49.434 -17.629,-65.682 -12.883,-17.312 -32.007,-27.636 -58.263,-31.087 -55.617,-7.333 -100.19,29.937 -109.364,99.415 -5.838,44.2 0.46,77.616 22.689,108.559 l 43.338,-34.652 c -16.19,-22.805 -15.587,-47.508 -12.798,-68.731 4.401,-33.358 24.531,-47.248 45.956,-44.43 7.878,1.064 15.844,4.86 21.079,12.423 4.888,7.046 8.34,18.089 8.31,31.375 l 0.288,38.621 c 0.086,29.85 5.522,49.376 15.99,64.56 13.515,19.182 35.285,29.879 62.863,33.532 C -49.865,114.627 -8.829,67.206 0,0"
               style="fill:#c0ae67;fill-opacity:1;fill-rule:nonzero;stroke:none"
               id="path132" /></g><g
             id="g134"
             transform="translate(7008.8818,5571.2612)"><path
               d="m 0,0 -305.231,-75.632 -15.185,61.397 305.203,75.632 z"
               style="fill:#c0ae67;fill-opacity:1;fill-rule:nonzero;stroke:none"
               id="path136" /></g><g
             id="g138"
             transform="translate(6682.4561,5752.8931)"><path
               d="M 0,0 243.806,89.148 265.518,29.735 21.683,-59.413 50.699,-138.898 -0.719,-157.706 -80.464,60.678 -29.045,79.486 Z"
               style="fill:#c0ae67;fill-opacity:1;fill-rule:nonzero;stroke:none"
               id="path140" /></g><g
             id="g142"
             transform="translate(6691.3135,6041.1006)"><path
               d="M 0,0 113.793,60.736 143.385,5.406 29.62,-55.358 -88.113,-228.593 l -32.381,60.563 83.281,113.074 -139.904,-7.189 -32.41,60.563 z"
               style="fill:#c0ae67;fill-opacity:1;fill-rule:nonzero;stroke:none"
               id="path144" /></g><g
             id="g146"
             transform="translate(6986.6934,7640.9009)"><path
               d="m 0,0 h -305.663 v 165.215 c 0,21.703 -17.972,39.355 -40.066,39.355 -22.077,0 -40.04,-17.652 -40.04,-39.355 V 0 h -305.693 c -22.086,0 -40.058,-17.652 -40.058,-39.348 0,-21.7 17.972,-39.353 40.058,-39.353 h 305.693 l 0.071,-156.106 c -18.486,-103.124 -178.883,-316.694 -317.817,-423.194 -8.431,-6.457 -13.8,-15.762 -15.118,-26.2 -1.313,-10.425 1.584,-20.743 8.16,-29.04 7.643,-9.624 19.169,-15.142 31.623,-15.142 8.871,0 17.606,2.96 24.583,8.333 115.114,88.218 243.549,241.672 308.546,368.01 64.979,-126.317 193.406,-279.772 308.528,-368.01 7.11,-5.449 15.616,-8.333 24.61,-8.333 12.436,0 23.953,5.518 31.597,15.142 13.579,17.121 10.461,41.896 -6.943,55.237 -138.949,106.514 -299.339,320.09 -317.734,422.421 V -78.701 H 0 c 22.098,0 40.067,17.653 40.067,39.353 C 40.067,-17.652 22.098,0 0,0"
               style="fill:#c0ae67;fill-opacity:1;fill-rule:nonzero;stroke:none"
               id="path148" /></g><g
             id="g150"
             transform="translate(7873.458,7405.855)"><path
               d="M 0,0 C 1.191,0.455 2.348,0.316 3.477,-0.189 H -0.669 C -0.448,-0.109 -0.219,-0.084 0,0 m -105.188,62.245 c 19.982,-19.724 35.101,-40.349 46.137,-62.434 h -115.733 z m -63.693,145.087 c -1.931,1.218 -3.939,2.259 -6.035,3.115 l 47.806,42.897 59.09,-44.858 c 2.754,-2.09 5.714,-3.78 8.858,-5.061 l -44.487,-39.917 c -22.472,16.531 -45.511,31.389 -65.232,43.824 M 225.402,-0.189 h -26.409 v 360.232 c 0,22.901 -18.637,41.535 -41.537,41.535 H 41.195 c -22.899,0 -41.538,-18.634 -41.538,-41.535 0,-22.902 18.639,-41.535 41.538,-41.535 h 74.726 V 285.661 H 49.919 c -24.112,0 -43.729,-19.602 -43.729,-43.704 0,-24.103 19.617,-43.712 43.729,-43.712 h 66.002 V 143.957 H 49.919 C 25.807,143.957 6.19,124.347 6.19,100.24 6.19,76.139 25.807,56.532 49.919,56.532 h 66.002 V -0.189 H 24.914 C 24.547,3.137 23.91,6.444 22.68,9.653 7.893,48.337 -14.77,82.796 -46.533,114.87 L 2.19,158.58 c 15.251,13.7 16.524,37.249 2.839,52.5 -4.025,4.489 -9.031,7.848 -14.698,9.905 4.026,7.339 5.597,15.739 4.436,24.186 -1.423,10.415 -6.82,19.651 -15.185,26.009 l -47.033,35.694 42.604,38.219 c 15.247,13.689 16.524,37.238 2.839,52.497 -6.63,7.391 -15.738,11.762 -25.652,12.295 -9.938,0.508 -19.442,-2.826 -26.847,-9.461 l -53.24,-47.772 -59.099,44.858 c -17.276,13.123 -42.027,9.713 -55.143,-7.555 -13.109,-17.284 -9.713,-42.016 7.562,-55.14 l 47.021,-35.693 -42.592,-38.22 c -7.399,-6.626 -11.774,-15.742 -12.308,-25.655 -0.541,-9.914 2.816,-19.442 9.442,-26.841 3.599,-4.008 7.931,-7.128 12.779,-9.225 -1.137,-1.328 -2.157,-2.706 -3.066,-4.157 -5.607,-8.888 -7.415,-19.43 -5.093,-29.682 2.323,-10.25 8.5,-18.982 17.398,-24.583 14.394,-9.08 31.065,-19.742 47.248,-31.022 l -86.837,-77.92 c -9.325,-8.368 -13.356,-20.416 -12.01,-32.006 h -103.944 v 56.721 h 63.831 c 24.116,0 43.729,19.607 43.729,43.708 0,24.107 -19.613,43.717 -43.729,43.717 h -63.831 v 54.288 h 63.831 c 24.116,0 43.729,19.609 43.729,43.712 0,24.102 -19.613,43.704 -43.729,43.704 h -63.831 v 68.276 h 74.742 c 22.897,0 41.535,18.634 41.535,41.539 0,22.893 -18.638,41.523 -41.535,41.523 h -116.281 c -22.897,0 -41.535,-18.63 -41.535,-41.523 V -0.189 h -40.209 c -21.703,0 -39.362,-17.652 -39.362,-39.353 v -141.875 c 0,-21.7 17.659,-39.358 39.362,-39.358 21.702,0 39.354,17.658 39.354,39.358 v 102.52 h 636.376 v -102.52 c 0,-21.7 17.65,-39.358 39.344,-39.358 21.712,0 39.371,17.658 39.371,39.358 v 141.875 c 0,21.701 -17.659,39.353 -39.371,39.353"
               style="fill:#c0ae67;fill-opacity:1;fill-rule:nonzero;stroke:none"
               id="path152" /></g><g
             id="g154"
             transform="translate(4731.8872,7322.1411)"><path
               d="M 0,0 C 0,-2.748 -2.234,-4.977 -4.977,-4.977 H -225.15 V 284.665 H -4.977 c 2.743,0 4.977,-2.231 4.977,-4.973 z m -312.584,-4.977 h -220.914 c -2.741,0 -4.967,2.229 -4.967,4.977 v 279.692 c 0,2.742 2.226,4.973 4.967,4.973 h 220.914 z M 2.195,376.903 H -225.15 V 491.61 c 0,24.102 -19.614,43.712 -43.72,43.712 -24.103,0 -43.714,-19.61 -43.714,-43.712 V 376.903 h -227.348 c -50.951,0 -92.408,-41.455 -92.408,-92.406 V -7.147 c 0,-50.952 41.457,-92.402 92.408,-92.402 h 227.348 V -405.15 c 0,-24.106 19.611,-43.717 43.714,-43.717 24.106,0 43.72,19.611 43.72,43.717 V -99.549 H 2.195 c 50.947,0 92.397,41.45 92.397,92.402 v 291.644 c 0,50.951 -41.45,92.406 -92.397,92.406"
               style="fill:#c0ae67;fill-opacity:1;fill-rule:nonzero;stroke:none"
               id="path156" /></g><g
             id="g158"
             transform="translate(3707.3877,7039.7612)"><path
               d="m 0,0 h -218.932 l 50.167,68.853 c 18.645,33.159 29.948,70.698 32.669,108.548 l 29.252,403.593 c 0.12,1.741 0.132,3.53 0.024,5.389 h 82.837 c 26.501,0 48.061,21.568 48.061,48.072 0,26.509 -21.56,48.072 -48.061,48.072 h -278.939 v 100.182 c 0,24.102 -19.615,43.712 -43.717,43.712 -24.107,0 -43.713,-19.61 -43.713,-43.712 V 682.527 h -278.96 c -26.496,0 -48.061,-21.563 -48.061,-48.072 0,-26.504 21.565,-48.072 48.061,-48.072 h 470.827 l -29.16,-402.351 c -1.773,-24.476 -9.077,-48.747 -20.927,-69.866 L -323.438,3.488 C -324.062,2.35 -324.606,1.193 -325.103,0 h -361.649 c -28.915,0 -52.434,-23.518 -52.434,-52.433 0,-28.911 23.519,-52.436 52.434,-52.436 H 0 c 28.911,0 52.429,23.525 52.429,52.436 C 52.429,-23.518 28.911,0 0,0"
               style="fill:#c0ae67;fill-opacity:1;fill-rule:nonzero;stroke:none"
               id="path160" /></g><g
             id="g162"
             transform="translate(3221.1938,7088.6265)"><path
               d="m 0,0 c 1.546,0 3.091,0.076 4.665,0.232 12.148,1.21 22.918,6.927 30.339,16.107 6.847,8.48 9.967,18.998 8.777,29.616 -17.083,150.632 -42.435,283.9 -82.208,432.123 -5.937,22.12 -29.784,35.637 -53.293,30.083 -11.824,-2.794 -21.641,-9.865 -27.623,-19.902 -5.573,-9.341 -7.103,-20.207 -4.315,-30.6 C -84.934,313.355 -60.259,183.651 -43.668,37.106 -41.257,15.951 -22.488,0 0,0"
               style="fill:#c0ae67;fill-opacity:1;fill-rule:nonzero;stroke:none"
               id="path164" /></g><g
             id="g166"
             transform="translate(5668.873,7181.9307)"><path
               d="M 0,0 V 0.111 H -65.597 V 0 h -194.78 v 0.111 282.555 65.93 45.098 33.811 h 225.528 c 19.293,0 34.988,15.699 34.988,34.997 0,19.29 -15.695,34.985 -34.988,34.985 h -225.528 v 61.67 c 0,5.94 4.84,10.78 10.787,10.78 H 25.096 c 8.908,0 10.778,-11.574 10.778,-21.279 V 393.694 14.229 C 35.874,9.985 36.24,4.567 37.009,0 Z m -339.091,365.067 h -56.541 v 127.836 h 56.541 z m 0,-214.852 h -56.541 v 127.422 h 56.541 z m 453.67,127.422 h 62.739 V 150.215 h -62.739 z m 0,215.266 h 62.739 V 365.067 H 114.579 Z M 224.937,0 H 113.731 c 0.561,2.63 0.848,5.269 0.848,7.883 v 54.903 h 98.092 c 28.715,0 52.078,23.358 52.078,52.068 v 413.41 c 0,28.711 -23.363,52.068 -52.078,52.068 H 112.029 c -9.685,39.801 -45.667,68.32 -86.933,68.32 H -249.59 c -41.264,0 -77.256,-28.519 -86.951,-68.32 h -81.729 c -35.721,0 -64.786,-29.063 -64.786,-64.781 V 127.578 c 0,-35.729 29.065,-64.792 64.786,-64.792 h 79.179 V 7.883 c 0,-2.614 0.288,-5.249 0.857,-7.883 h -141.72 c -24.115,0 -43.73,-19.611 -43.73,-43.714 0,-24.102 19.615,-43.708 43.73,-43.708 h 206.119 c -60.752,-55.365 -125.545,-103.969 -192.731,-144.575 -9.493,-5.734 -16.183,-14.825 -18.837,-25.596 -2.655,-10.77 -0.961,-21.932 4.776,-31.426 7.59,-12.555 20.889,-20.054 35.581,-20.054 7.553,0 14.968,2.074 21.456,5.997 76.959,46.512 150.673,102.545 219.1,166.536 13.623,12.76 16.707,32.982 8.48,49.118 h 175.456 c -4.201,-8.781 -5.338,-18.638 -3.196,-28.274 2.54,-11.403 9.361,-21.133 19.223,-27.398 l 182.766,-116.269 c 7.038,-4.476 15.144,-6.838 23.422,-6.838 15.066,0 28.866,7.571 36.917,20.247 12.944,20.335 6.927,47.409 -13.405,60.356 L 70.834,-87.422 h 154.103 c 24.112,0 43.729,19.606 43.729,43.708 C 268.666,-19.611 249.049,0 224.937,0"
               style="fill:#c0ae67;fill-opacity:1;fill-rule:nonzero;stroke:none"
               id="path168" /></g><g
             id="g170"
             transform="translate(2535.3359,7633.0894)"><path
               d="m 0,0 h -54.439 c 8.44,23.635 17.48,73.469 22.541,101.435 0.64,3.492 1.209,6.634 1.706,9.345 H 0 Z m 0,-217.245 c -37.031,-37.247 -70.898,-76.239 -100.786,-116.022 -2.202,5.463 -4.961,10.883 -7.66,16.181 -4.952,9.72 -10.069,19.774 -11.326,29.379 -11.051,84.218 -13.748,116.008 -17.869,191.563 H 0 Z m 0,-299.352 c -7.399,8.38 -14.186,16.372 -20.576,24.222 -17.696,21.693 -33.259,45.511 -46.291,70.834 20.159,30.104 42.612,59.737 66.867,88.259 z m -170.163,-116.548 c 12.852,39.812 28.932,79.018 47.841,116.717 8.531,-12.661 17.669,-24.975 27.213,-36.678 23.59,-28.984 48.23,-55.873 73.345,-80.039 z m -370.296,0 v 537.001 h 306.521 c 4.295,-80.319 7.266,-115.937 18.837,-204.084 5.144,-39.159 22.149,-76.814 38.589,-113.229 3.122,-6.927 6.225,-13.789 9.204,-20.591 -36.638,-63.699 -65.329,-130.661 -85.312,-199.097 z m 0,743.925 h 296.835 c 0.236,-10.53 0.49,-27.494 0.753,-45.467 0.366,-25.002 0.741,-50.766 1.154,-65.313 h -298.742 z m 448.853,0 C -93.03,104.125 -94.637,95.221 -96.418,85.292 -101.72,55.861 -108.977,15.555 -117.57,1.462 -117.858,0.981 -118.122,0.493 -118.358,0 h -27.162 c -0.427,14.618 -0.821,41.531 -1.169,65.554 -0.261,17.837 -0.508,34.673 -0.74,45.226 z m 135.307,87.429 h -627.869 c -24.099,0 -43.705,-19.61 -43.705,-43.717 v -831.349 c 0,-24.103 19.606,-43.714 43.705,-43.714 H 43.701 c 24.113,0 43.728,19.611 43.728,43.714 v 831.349 c 0,24.107 -19.615,43.717 -43.728,43.717"
               style="fill:#c0ae67;fill-opacity:1;fill-rule:nonzero;stroke:none"
               id="path172" /></g><g
             id="g174"
             transform="translate(2217.7754,7297.2085)"><path
               d="m 0,0 c 0,-0.444 -0.384,-0.825 -0.829,-0.825 h -110.462 c -0.445,0 -0.829,0.381 -0.829,0.825 v 106.464 c 0,0.46 0.373,0.832 0.829,0.832 H -0.829 c 0.453,0 0.829,-0.372 0.829,-0.832 z m -0.829,187.756 h -110.462 c -44.81,0 -81.268,-36.471 -81.268,-81.292 V 0 c 0,-44.821 36.458,-81.283 81.268,-81.283 H -0.829 c 44.811,0 81.265,36.462 81.265,81.283 v 106.464 c 0,44.821 -36.454,81.292 -81.265,81.292"
               style="fill:#c0ae67;fill-opacity:1;fill-rule:nonzero;stroke:none"
               id="path176" /></g><g
             id="g178"
             transform="translate(2240.4214,7171.748)"><path
               d="m 0,0 h -183.136 c -22.18,0 -40.224,-18.049 -40.224,-40.233 0,-22.181 18.044,-40.225 40.224,-40.225 H 0 c 22.176,0 40.209,18.044 40.209,40.225 C 40.209,-18.049 22.176,0 0,0"
               style="fill:#c0ae67;fill-opacity:1;fill-rule:nonzero;stroke:none"
               id="path180" /></g><g
             id="g182"
             transform="translate(5592.4463,7321.3921)"><path
               d="m 0,0 c 0,-11.014 -8.928,-19.943 -19.944,-19.943 h -34.539 c -11.015,0 -19.943,8.929 -19.943,19.943 v 131.791 c 0,4.332 1.671,8.119 4.012,11.39 3.619,5.048 9.244,8.556 15.931,8.556 h 34.539 c 10.151,0 18.202,-7.699 19.452,-17.512 C -0.385,133.391 0,132.655 0,131.791 Z m -10.682,231.219 h -53.063 c -21.417,0 -40.78,-8.496 -55.314,-22.084 -15.871,-14.846 -25.952,-35.805 -25.952,-59.207 v -6.731 -162.595 c 0,-44.823 36.453,-81.285 81.266,-81.285 h 53.063 c 7.495,0 14.619,1.35 21.512,3.26 34.336,9.501 59.755,40.697 59.755,78.025 v 169.212 0.114 c 0,44.821 -36.453,81.291 -81.267,81.291"
               style="fill:#c0ae67;fill-opacity:1;fill-rule:nonzero;stroke:none"
               id="path184" /></g><g
             id="g186"
             transform="translate(7746.084,7119.7041)"><path
               d="M 0,0 -100.446,104.033 H 98.396 Z M 342.604,-16.94 H 82.044 L 182.566,90.583 c 27.322,27.978 21.913,72.385 -38.04,72.385 h -286.988 c -21.701,0 -44.446,2.196 -54.329,-23.063 -9.225,-23.573 18.559,-53.209 18.559,-53.209 L -81.645,-16.94 h -282.101 c -21.713,0 -39.373,-17.648 -39.373,-39.345 0,-21.699 17.66,-39.357 39.373,-39.357 H -13.667 V -150.2 h -160.519 c -21.702,0 -39.362,-17.653 -39.362,-39.353 0,-21.703 17.66,-39.357 39.362,-39.357 H 31.912 c 21.692,0 39.345,17.654 39.345,39.357 v 93.911 h 271.347 c 21.711,0 39.368,17.658 39.368,39.357 0,21.697 -17.657,39.345 -39.368,39.345"
               style="fill:#c0ae67;fill-opacity:1;fill-rule:nonzero;stroke:none"
               id="path188" /></g><g
             id="g190"
             transform="translate(4538.6343,2697.1538)"><path
               d="m 0,0 h -54.006 c -26.076,-16.134 -56.504,-26.682 -99.364,-34.758 v -45.326 h 81.969 v -317.911 h -99.964 v -58.992 H 89.418 v 58.992 H 0 Z"
               style="fill:#c0ae67;fill-opacity:1;fill-rule:nonzero;stroke:none"
               id="path192" /></g><g
             id="g194"
             transform="translate(4830.6758,2463.7007)"><path
               d="m 0,0 c -47.823,0 -73.895,33.525 -73.895,91.888 0,59.618 31.035,95.004 70.169,95.004 49.658,0 83.808,-40.974 90.654,-131.019 C 59.597,16.136 27.93,0 0,0 m -4.355,242.156 c -73.892,0 -135.982,-59.616 -135.982,-150.268 0,-95.613 51.545,-143.43 127.904,-143.43 34.779,0 73.891,20.486 100.589,53.405 -4.351,-130.392 -52.145,-175.112 -107.412,-175.112 -29.192,0 -57.125,13.666 -75.124,34.153 l -38.505,-44.073 c 26.701,-27.326 63.952,-48.441 116.726,-48.441 88.185,0 170.129,72.027 170.129,252.097 0,150.877 -70.772,221.669 -158.325,221.669"
               style="fill:#c0ae67;fill-opacity:1;fill-rule:nonzero;stroke:none"
               id="path196" /></g><g
             id="g198"
             transform="translate(5215.9687,2697.1538)"><path
               d="m 0,0 h -54.01 c -26.076,-16.134 -56.504,-26.682 -99.36,-34.758 v -45.326 h 81.969 v -317.911 h -99.964 v -58.992 H 89.418 v 58.992 H 0 Z"
               style="fill:#c0ae67;fill-opacity:1;fill-rule:nonzero;stroke:none"
               id="path200" /></g><g
             id="g202"
             transform="translate(5500.7529,2463.7007)"><path
               d="m 0,0 c -47.818,0 -73.891,33.525 -73.891,91.888 0,59.618 31.035,95.004 70.165,95.004 49.659,0 83.808,-40.974 90.654,-131.019 C 59.598,16.136 27.937,0 0,0 m -4.352,242.156 c -73.89,0 -135.978,-59.616 -135.978,-150.268 0,-95.613 51.542,-143.43 127.897,-143.43 34.784,0 73.896,20.486 100.593,53.405 -4.351,-130.392 -52.144,-175.112 -107.412,-175.112 -29.188,0 -57.129,13.666 -75.124,34.153 l -38.505,-44.073 c 26.701,-27.326 63.948,-48.441 116.726,-48.441 88.181,0 170.133,72.027 170.133,252.097 0,150.877 -70.777,221.669 -158.33,221.669"
               style="fill:#c0ae67;fill-opacity:1;fill-rule:nonzero;stroke:none"
               id="path204" /></g></g></g></g></g></svg>
